<?xml version="1.0" encoding="UTF-8"?><svg id="Layer_1" xmlns="http://www.w3.org/2000/svg" viewBox="0 0 675.6 259.5"><defs><style>.cls-1{fill-rule:evenodd;}</style></defs><g><path class="cls-1" d="M601.4,3.1c-16.4-.2-39.5-.5-54.8,0-.5-.5-5.9-.2-7.9-.3-8.9-.1-13.6,0-20.9,0-24.3,0-50.2-.5-75.7-.5-13.1,0-24.2-.2-35.2-.3-7.4,0-14.6,0-22.2,0-10.6,0-21-.3-31.3-.4-28.9,0-59.6,0-87.4-.1-4.3,0-8.5-.3-13.1-.3-9.1,0-17.5,.3-24.8-.3-4.7,.4-11.5,.2-16.9,.2-53.3-.3-115.6-.1-161.9-1-2.7,0-3.8,.3-7.8,.3-5.1-.2-10.1-.3-15.7-.4C16.7,.5,.3,.3,0,1.6c5.2,0,2.1,.7,7.9,.6,6.3,0,5.8-.6,11.6-.7,12.8-.2,22,0,33.9,0,6.9,0,14.1-.1,19.6,0,2,0,5.8,.3,7.9,.3,4.7,0,8.3-.2,13-.2,5.4,0,10.4,.3,15.7,.3,12,0,21.7,.2,30,.1,3.2,0,6.1-.2,9.1-.2,6.6,0,12.2,.3,18.3,.3,7.9,0,15.9-.3,23.5-.3,21.7,0,43.3,.5,65.3,.6,6.6,0,13-.2,19.5-.2,2.6,0,5.3,.3,7.9,.3,4.5,0,8.5-.2,13-.2,10.7,0,22.1,.3,32.6,.4,11.2,0,22.6-.2,33.9-.1,8.2,.1,17,.2,26.1,.3,14.8,.1,30.4,0,43.1,.4,3-.1,13.3,0,18.2-.2,16,.6,33.6,.2,52.2,.3,3.6,0,6.7,.2,10.5,.3,5.6,0,13,0,19.6,0,7.5,0,14.7-.1,22.2,0,5.8,0,11.5,.3,17,.3,3.7,0,7.6-.2,11.7-.2,4.3,0,9,.3,13.1,.3,5.1,0,9.6-.2,14.3-.2,12.8,0,37.6,.7,40.4-.3-14-.5-31.4-.3-49.6-.6Z"/><path class="cls-1" d="M173.8,4.4c-25.8,0-52.4-.2-79.6-.3-18.3,0-36.7,0-50.9-.3-9.5,.4-25-.5-25.9,1,4.8,.6,10.7,.2,17,.2,9.1,0,19.8,.3,28.7,.2,2.1,0,4.1-.2,6.5-.2,11.1,0,25.2,0,34,.4,15.2-.3,40.5,.4,61.3,.2,5,0,13.9,0,15.6-.5,.4-.4-6.3-.2-6.6-.6Z"/><path class="cls-1" d="M248.2,5c-10.1,.8-28.5-.1-35.1,.9,12.4,1,32.6,.1,47,.2,6.7,0,9.3,.3,14.4,.4,2.3-.2,7.7-.1,6.4-.7-5.4-.8-22.2-.5-32.7-.8Z"/><path class="cls-1" d="M337,6c-1,0-1.5,0-1.3,.2,0,.2,3.6,.2,2.7,.5,18.1,.3,32.1,.4,48.3,.4,1.2-.6-2.8-.7-4.1-1.1-17.2,.2-29-.1-45.7,0Z"/><path class="cls-1" d="M458.5,7.5c1.8,.1,4,.2,5.3,.4,10.1-.8,31.2,.7,33.8-.7-9.3-.6-24.3-.3-36.6-.7,.1,.4-4.3,.5-2.5,1.1Z"/><path class="cls-1" d="M544.5,7.3c-1.3,.3-6.6,.3-5.1,.9,4.8,.4,8.5-.2,15.6-.2,10.8,0,21,.9,22.1-.5-9.6-.8-21.9,0-32.6-.2Z"/><path class="cls-1" d="M620.3,8.2c1.9,0,3.2,.2,3.9,.4,7.4,0,14.1-.2,16.9-.7-7.1-.2-21.4-1.2-20.8,.3Z"/></g><g><path class="cls-1" d="M604.5,34.9c-16.4-.2-39.4-.4-54.7,0-.5-.5-5.9-.2-7.8-.2-8.9,0-13.6,0-20.8,0-24.3,.1-50.1-.3-75.5-.3-13.1,0-24.2,0-35.2-.2-7.4,0-14.6,.1-22.1,0-10.6,0-20.9-.3-31.3-.3-28.9,0-59.4,.3-87.2,.1-4.3,0-8.5-.2-13.1-.3-9.1,0-17.4,.3-24.7-.3-4.7,.4-11.5,.2-16.9,.2-53.2,0-115.4,.2-161.5-.5-2.7,.1-3.8,.4-7.8,.4-5.1-.1-10.1-.3-15.7-.4-9.2,.5-25.5,.3-25.8,1.7,5.2,0,2.1,.7,7.9,.6,6.3,0,5.8-.7,11.6-.7,12.8-.3,21.9,0,33.8,0,6.9,0,14.1-.2,19.5,0,2,0,5.7,.3,7.8,.2,4.7,0,8.3-.2,13-.2,5.4,0,10.4,.2,15.7,.3,12,0,21.6,0,29.9,0,3.2,0,6.1-.2,9.1-.2,6.5,0,12.2,.3,18.2,.3,7.9,0,15.8-.3,23.4-.3,21.7,0,43.2,.4,65.1,.4,6.5,0,12.9-.2,19.5-.2,2.6,0,5.3,.2,7.8,.2,4.5,0,8.5-.2,13-.2,10.7,0,22,.3,32.6,.3,11.2,0,22.5-.2,33.8-.2,8.2,0,17,.2,26.1,.3,14.8,0,30.3,0,43,.3,3-.1,13.3,0,18.2-.2,15.9,.5,33.5,0,52.1,.2,3.6,0,6.7,.2,10.4,.3,5.6,0,13,0,19.5,0,7.5,0,14.6-.1,22.1,0,5.8,0,11.4,.2,17,.3,3.7,0,7.6-.2,11.7-.2,4.3,0,9,.3,13.1,.3,5.1,0,9.6-.2,14.3-.2,12.8,0,37.5,.6,40.3-.4-14-.5-31.3-.2-49.5-.4Z"/><path class="cls-1" d="M177.9,37.5c-25.7,.2-52.3,0-79.4,0-18.3,0-36.7,.1-50.8-.2-9.4,.5-25-.4-25.9,1.1,4.8,.6,10.7,.2,16.9,.1,9.1,0,19.8,.2,28.7,.2,2.1,0,4.1-.2,6.5-.2,11.1,0,25.1,0,33.9,.3,15.2-.3,40.4,.2,61.2,0,5,0,13.9,0,15.5-.6,.4-.4-6.3-.2-6.6-.6Z"/><path class="cls-1" d="M252.2,37.8c-10.1,.9-28.4,0-35,1,12.3,1,32.5,0,46.8,0,6.6,0,9.3,.3,14.4,.4,2.3-.2,7.7-.2,6.4-.7-5.3-.8-22.2-.5-32.6-.8Z"/><path class="cls-1" d="M340.8,38.6c-1,0-1.5,0-1.3,.2,0,.2,3.6,.2,2.7,.5,18,.2,32.1,.3,48.2,.3,1.2-.6-2.8-.7-4-1.1-17.1,.3-29,0-45.5,0Z"/><path class="cls-1" d="M462,39.7c1.8,.1,4,.2,5.3,.4,10-.8,31.1,.6,33.7-.8-9.3-.6-24.3-.2-36.5-.6,.1,.4-4.3,.5-2.5,1.1Z"/><path class="cls-1" d="M547.8,39.3c-1.3,.4-6.5,.3-5.1,1,4.8,.4,8.4-.3,15.6-.2,10.7,0,21,.9,22-.6-9.6-.8-21.8,0-32.6-.2Z"/><path class="cls-1" d="M623.4,40c1.9,0,3.2,.2,3.9,.4,7.4,0,14.1-.2,16.8-.7-7.1-.2-21.3-1.1-20.8,.3Z"/></g><g><path class="cls-1" d="M598.8,64.4c-16.2-.2-38.9-.4-54,0-.5-.5-5.8-.2-7.7-.3-8.8,0-13.4,0-20.6,0-23.9,.1-49.5-.3-74.6-.4-12.9,0-23.9,0-34.7-.2-7.3,0-14.4,0-21.8,0-10.5,0-20.6-.4-30.9-.4-28.5,0-58.7,0-86.1-.1-4.2,0-8.4-.3-12.9-.3-9,0-17.2,.3-24.4-.3-4.7,.4-11.4,.2-16.7,.2-52.5-.3-113.9-.1-159.4-1-2.7,0-3.7,.3-7.7,.3-5-.2-10-.3-15.5-.4-9.1,.5-25.2,.3-25.5,1.6,5.2,0,2.1,.7,7.8,.6,6.2,0,5.7-.6,11.5-.7,12.6-.2,21.6,0,33.4,0,6.8,0,13.9-.1,19.3,0,1.9,0,5.7,.3,7.7,.3,4.6,0,8.2-.2,12.8-.2,5.3,0,10.3,.3,15.5,.3,11.9,0,21.4,.2,29.6,.1,3.1,0,6-.2,9-.2,6.5,0,12,.3,18,.3,7.8,0,15.6-.3,23.1-.3,21.4,0,42.7,.5,64.3,.6,6.5,0,12.8-.2,19.2-.2,2.5,0,5.2,.3,7.7,.3,4.4,0,8.4-.2,12.8-.2,10.5,0,21.7,.3,32.2,.4,11.1,0,22.2-.2,33.4,0,8.1,0,16.8,.3,25.7,.3,14.6,.1,29.9,0,42.4,.4,3-.1,13.1,0,18-.2,15.7,.5,33.1,0,51.4,.2,3.5,0,6.6,.2,10.3,.3,5.6,0,12.8,0,19.3,0,7.4,0,14.4-.1,21.8,0,5.8,0,11.3,.3,16.7,.3,3.6,0,7.5-.2,11.5-.2,4.2,0,8.8,.3,12.9,.3,5,0,9.5-.2,14.1-.2,12.6,0,37,.6,39.8-.4-13.8-.5-30.9-.2-48.9-.4Z"/><path class="cls-1" d="M177.6,66c-25.4,0-51.6-.2-78.4-.3-18-.1-36.2,0-50.2-.3-9.3,.4-24.7-.5-25.6,1,4.7,.6,10.6,.2,16.7,.2,9,0,19.5,.3,28.3,.2,2.1,0,4-.2,6.4-.2,11,0,24.8,0,33.5,.4,15-.3,39.9,.4,60.4,.3,4.9,0,13.7,0,15.3-.5,.4-.4-6.2-.2-6.5-.6Z"/><path class="cls-1" d="M250.9,66.6c-10,.8-28-.1-34.6,.9,12.2,1,32.1,.1,46.3,.2,6.6,0,9.2,.3,14.2,.4,2.3-.2,7.6-.1,6.3-.7-5.3-.8-21.9-.5-32.2-.9Z"/><path class="cls-1" d="M338.4,67.7c-1,0-1.5,0-1.3,.2,0,.2,3.5,.2,2.6,.5,17.8,.3,31.7,.4,47.6,.4,1.2-.6-2.7-.7-4-1.1-16.9,.2-28.6-.1-45,0Z"/><path class="cls-1" d="M458,69c1.7,.1,3.9,.2,5.2,.4,9.9-.8,30.8,.6,33.3-.8-9.1-.6-24-.2-36.1-.7,.1,.4-4.3,.5-2.4,1.1Z"/><path class="cls-1" d="M542.8,68.7c-1.3,.4-6.5,.3-5,1,4.8,.4,8.3-.2,15.4-.2,10.6,0,20.7,.9,21.8-.6-9.5-.8-21.6,0-32.1-.2Z"/><path class="cls-1" d="M617.4,69.4c1.9,0,3.2,.2,3.9,.4,7.3,0,13.9-.2,16.6-.7-7-.2-21.1-1.1-20.5,.3Z"/></g><g><path class="cls-1" d="M616,95.7c-16.7-.5-40.3-1.1-55.9-.8-.5-.5-6-.3-8-.4-9.1-.2-13.9-.1-21.3-.2-24.8-.2-51.2-.9-77.2-1.2-13.4-.2-24.7-.3-35.9-.5-7.6,0-14.9,0-22.6,0-10.9-.1-21.4-.4-32-.5-29.5,0-60.7,0-89.1-.1-4.4,0-8.7-.2-13.3-.3-9.3,0-17.8,.3-25.3-.3-4.8,.4-11.8,.2-17.3,.2-54.4,0-117.9,.7-165.1,.4-2.8,.1-3.9,.4-7.9,.4-5.2,0-10.3-.2-16-.2-9.4,.6-26.1,.6-26.4,1.9,5.3,0,2.2,.7,8.1,.5,6.4,0,5.9-.7,11.9-.8,13-.4,22.4-.3,34.6-.4,7.1,0,14.4-.3,19.9-.3,2,0,5.9,.2,8,.2,4.8,0,8.5-.3,13.3-.3,5.5,0,10.6,.2,16,.1,12.3,0,22.1,0,30.6-.1,3.3,0,6.2-.3,9.3-.3,6.7,0,12.4,.2,18.7,.2,8,0,16.2-.4,23.9-.4,22.2-.1,44.2,.3,66.6,.4,6.7,0,13.2-.2,19.9-.2,2.6,0,5.4,.2,8,.3,4.5,0,8.7-.2,13.3-.2,10.9,0,22.5,.3,33.3,.4,11.5,0,23-.1,34.6,0,8.4,0,17.4,.3,26.7,.4,15.1,.2,31,.1,43.9,.6,3.1-.1,13.6,.2,18.6,0,16.3,.7,34.3,.4,53.2,.8,3.7,0,6.8,.3,10.7,.4,5.8,.1,13.3,0,19.9,.2,7.6,0,15,0,22.6,.2,6,.1,11.7,.4,17.3,.5,3.7,0,7.8-.1,11.9,0,4.4,0,9.2,.4,13.3,.5,5.2,0,9.8,0,14.6,0,13.1,.2,38.3,1.3,41.2,.3-14.3-.7-32-.8-50.6-1.3Z"/><path class="cls-1" d="M179.9,95.2c-26.3,.3-53.5,.2-81.2,.3-18.7,0-37.5,.4-51.9,.3-9.6,.6-25.5-.2-26.4,1.3,4.9,.5,10.9,0,17.3,0,9.3-.1,20.2,0,29.3-.1,2.2,0,4.2-.3,6.6-.3,11.3-.1,25.7-.2,34.6,0,15.5-.5,41.3,0,62.5-.3,5.1,0,14.2,0,15.9-.6,.5-.4-6.4-.2-6.7-.6Z"/><path class="cls-1" d="M255.8,95.4c-10.3,.9-29,0-35.8,1.1,12.6,.9,33.2,0,47.9,0,6.8,0,9.5,.3,14.7,.4,2.4-.2,7.9-.2,6.5-.7-5.5-.8-22.6-.5-33.4-.8Z"/><path class="cls-1" d="M346.3,96.4c-1,0-1.5,0-1.3,.2,0,.2,3.7,.2,2.7,.5,18.4,.3,32.8,.4,49.3,.6,1.2-.6-2.8-.7-4.1-1.1-17.5,.2-29.6-.2-46.6-.2Z"/><path class="cls-1" d="M470.2,98.4c1.8,.1,4,.2,5.4,.4,10.3-.7,31.8,.9,34.5-.4-9.5-.7-24.8-.5-37.3-1.1,.1,.4-4.4,.4-2.5,1.1Z"/><path class="cls-1" d="M558,99.1c-1.4,.3-6.7,.2-5.2,.9,4.9,.5,8.6-.1,15.9,0,11,.2,21.4,1.2,22.5-.2-9.8-1-22.3-.4-33.3-.7Z"/><path class="cls-1" d="M635.2,101.1c1.9,.1,3.3,.3,4,.4,7.6,0,14.4,0,17.2-.4-7.3-.3-21.8-1.5-21.2,0Z"/></g><g><path class="cls-1" d="M601.9,125.5c-16.4-.4-39.4-.8-54.7-.4-.5-.5-5.9-.3-7.8-.3-8.9-.2-13.6,0-20.8,0-24.3,0-50.1-.6-75.5-.7-13.1-.1-24.2-.2-35.2-.3-7.4,0-14.6,0-22.1,0-10.6,0-20.9-.3-31.3-.3-28.9,0-59.4,.1-87.2,.2-4.3,0-8.5-.2-13.1-.2-9.1,0-17.4,.4-24.8-.2-4.7,.4-11.5,.3-16.9,.3-53.2,.1-115.4,.9-161.5,.6-2.7,.1-3.8,.4-7.8,.4-5.1,0-10.1-.2-15.7-.2-9.2,.6-25.5,.6-25.8,1.9,5.2,0,2.1,.7,7.9,.5,6.3,0,5.8-.7,11.6-.8,12.8-.4,21.9-.3,33.8-.4,6.9,0,14.1-.3,19.5-.3,2,0,5.7,.2,7.8,.2,4.7,0,8.3-.3,13-.3,5.4,0,10.4,.2,15.7,.1,12,0,21.6,0,29.9-.2,3.2,0,6.1-.3,9.1-.3,6.5,0,12.2,.2,18.2,.1,7.9,0,15.8-.4,23.4-.5,21.7-.2,43.2,.2,65.1,.2,6.5,0,12.9-.3,19.5-.3,2.6,0,5.3,.2,7.8,.2,4.5,0,8.5-.2,13-.2,10.7,0,22,.2,32.6,.2,11.2,0,22.5-.2,33.8-.2,8.2,0,17,.3,26.1,.3,14.8,0,30.3,0,43,.4,3-.1,13.3,0,18.2-.2,15.9,.6,33.5,.2,52.1,.4,3.6,0,6.7,.3,10.4,.3,5.6,0,13,0,19.5,0,7.5,0,14.6,0,22.1,0,5.8,0,11.4,.3,16.9,.4,3.7,0,7.6-.2,11.7-.1,4.3,0,9,.3,13.1,.4,5.1,0,9.6-.1,14.3,0,12.8,.1,37.5,1,40.3,0-14-.6-31.3-.5-49.5-.9Z"/><path class="cls-1" d="M175.3,127.2c-25.7,.3-52.3,.3-79.4,.5-18.2,0-36.6,.5-50.8,.3-9.4,.6-25-.2-25.9,1.3,4.8,.5,10.7,0,16.9,0,9.1-.1,19.8,0,28.7-.1,2.1,0,4.1-.3,6.5-.3,11.1-.1,25.1-.2,33.9,0,15.2-.5,40.4,0,61.2-.4,5,0,13.9,0,15.5-.7,.4-.4-6.3-.2-6.6-.6Z"/><path class="cls-1" d="M249.5,127.2c-10.1,.9-28.4,0-35,1.2,12.3,.9,32.5-.1,46.8-.1,6.6,0,9.3,.2,14.4,.3,2.3-.2,7.7-.2,6.4-.7-5.3-.7-22.2-.4-32.6-.7Z"/><path class="cls-1" d="M338.1,127.9c-1,0-1.5,0-1.3,.2,0,.2,3.6,.2,2.7,.5,18,.2,32.1,.3,48.2,.3,1.2-.6-2.8-.7-4-1.1-17.1,.2-29,0-45.5,0Z"/><path class="cls-1" d="M459.3,129.3c1.8,.1,4,.2,5.3,.4,10-.8,31.1,.7,33.7-.6-9.3-.6-24.3-.3-36.5-.8,.1,.4-4.3,.5-2.5,1.1Z"/><path class="cls-1" d="M545.1,129.4c-1.3,.3-6.5,.3-5.1,.9,4.8,.4,8.4-.2,15.6-.1,10.7,.1,21,1.1,22-.4-9.6-.9-21.8-.2-32.6-.4Z"/><path class="cls-1" d="M620.7,130.7c1.9,0,3.2,.2,3.9,.4,7.4,0,14.1,0,16.8-.5-7.1-.3-21.3-1.3-20.8,.1Z"/></g><g><path class="cls-1" d="M614.9,156.7c-16.6-.3-39.9-.7-55.4-.3-.5-.5-6-.3-7.9-.3-9-.2-13.8,0-21.1,0-24.6,0-50.8-.6-76.5-.8-13.3-.1-24.5-.2-35.6-.4-7.5,0-14.8,0-22.4,0-10.8,0-21.2-.4-31.7-.4-29.2,0-60.2,0-88.3,.1-4.3,0-8.6-.2-13.2-.2-9.2,0-17.6,.4-25.1-.1-4.8,.4-11.6,.3-17.1,.3-27,.1-56.2,.6-84.5,1-28.3,.4-55.7,.9-79.1,1.3-2.8,.2-3.8,.5-7.8,.6-5.2,0-10.2,0-15.9,0-9.3,.8-25.8,1.2-26.1,2.5,5.3-.2,2.1,.6,8,.3,6.3-.2,5.8-.8,11.7-1.1,12.9-.7,22.2-.8,34.3-1.1,7-.2,14.3-.6,19.8-.6,2,0,5.8,.1,7.9,0,4.8-.1,8.4-.4,13.2-.5,5.4,0,10.5,0,15.9,0,12.2-.2,21.9-.4,30.3-.5,3.2,0,6.2-.3,9.2-.4,6.6-.1,12.3,0,18.5,0,8-.1,16-.5,23.7-.6,11-.1,21.9-.1,32.9,0,11,0,22,.1,33.1,0,6.6,0,13.1-.3,19.7-.3,2.6,0,5.3,.2,7.9,.2,4.5,0,8.6-.2,13.2-.2,10.8,0,22.3,.2,33,.3,11.4,0,22.8-.2,34.3-.1,8.3,0,17.2,.3,26.4,.4,15,.1,30.7,0,43.5,.5,3-.1,13.5,.1,18.4-.1,16.1,.6,34,.3,52.8,.5,3.6,0,6.8,.3,10.6,.3,5.7,0,13.1,0,19.8,0,7.6,0,14.8,0,22.4,0,5.9,0,11.6,.3,17.2,.4,3.7,0,7.7-.2,11.8-.1,4.3,0,9.1,.3,13.2,.3,5.2,0,9.7-.2,14.5-.1,13,0,38,.8,40.8-.2-14.2-.5-31.7-.4-50.1-.7Z"/><path class="cls-1" d="M182.8,158.4c-26,.4-53,.8-80.4,1.2-9.2,.2-18.5,.4-27.3,.6-8.8,.2-17,.4-24.2,.5-9.5,.7-25.3,.3-26.2,1.9,4.9,.4,10.8-.2,17.1-.4,9.2-.3,20-.3,29-.7,2.1,0,4.1-.3,6.5-.4,11.2-.3,25.4-.6,34.3-.5,15.3-.7,40.9-.5,61.9-.9,5,0,14.1-.1,15.7-.8,.4-.5-6.4-.2-6.7-.5Z"/><path class="cls-1" d="M258,158.2c-10.2,.9-28.8,0-35.4,1.3,12.5,.9,32.9-.2,47.4-.2,6.7,0,9.4,.2,14.6,.3,2.3-.2,7.8-.2,6.5-.7-5.4-.7-22.4-.4-33.1-.7Z"/><path class="cls-1" d="M347.8,158.9c-1,0-1.5,0-1.3,.2,0,.2,3.6,.2,2.7,.5,18.3,.2,32.5,.4,48.8,.4,1.2-.6-2.8-.7-4.1-1.1-17.3,.2-29.3-.1-46.1,0Z"/><path class="cls-1" d="M470.5,160.5c1.8,.1,4,.2,5.3,.4,10.2-.8,31.5,.8,34.2-.6-9.4-.6-24.6-.3-37-.9,.1,.4-4.4,.4-2.5,1.1Z"/><path class="cls-1" d="M557.4,160.7c-1.3,.3-6.6,.3-5.1,.9,4.9,.4,8.6-.2,15.8-.1,10.9,.1,21.2,1,22.3-.4-9.7-.9-22.1-.2-33-.4Z"/><path class="cls-1" d="M634,161.9c1.9,0,3.2,.2,4,.4,7.5,0,14.2-.1,17.1-.6-7.2-.3-21.6-1.2-21,.2Z"/></g><g><path class="cls-1" d="M611.6,187.4c-16.7-.4-40.1-.8-55.6-.4-.5-.5-6-.3-8-.3-9-.2-13.8,0-21.2,0-24.7,0-51-.6-76.9-.7-13.3,0-24.6-.2-35.8-.2-7.6,0-14.8,.1-22.5,0-10.8,0-21.3-.3-31.8-.3-29.4,.1-60.5,.2-88.7,.3-4.3,0-8.6-.2-13.3-.2-9.3,0-17.7,.4-25.2-.1-4.8,.5-11.7,.3-17.2,.3-54.2,.2-117.4,1.1-164.3,.9-2.8,.1-3.9,.4-7.9,.4-5.2,0-10.3-.1-16-.2-9.3,.6-25.9,.7-26.2,2,5.3-.1,2.1,.7,8,.5,6.4,0,5.9-.7,11.8-.9,13-.4,22.3-.4,34.4-.5,7,0,14.4-.3,19.9-.3,2,0,5.8,.2,8,.2,4.8,0,8.4-.3,13.2-.4,5.5,0,10.6,.1,15.9,0,12.2,0,22-.1,30.5-.2,3.2,0,6.2-.3,9.2-.3,6.7,0,12.4,.2,18.6,.1,8,0,16.1-.4,23.8-.5,22.1-.2,44,.1,66.3,0,6.7,0,13.2-.3,19.8-.3,2.6,0,5.4,.2,8,.2,4.5,0,8.6-.2,13.2-.3,10.9,0,22.4,.2,33.1,.2,11.4,0,22.9-.2,34.4-.2,8.3,0,17.3,.2,26.5,.3,15.1,0,30.8,0,43.7,.4,3.1-.1,13.5,0,18.5-.2,16.2,.6,34.1,.2,53,.4,3.6,0,6.8,.3,10.6,.3,5.7,0,13.2,0,19.9,0,7.6,0,14.9,0,22.5,0,5.9,0,11.6,.3,17.2,.4,3.7,0,7.7-.2,11.9-.1,4.4,0,9.1,.3,13.3,.4,5.2,0,9.7-.1,14.5,0,13,.1,38.2,1,41,0-14.2-.6-31.9-.5-50.4-.9Z"/><path class="cls-1" d="M177.6,189.5c-26.1,.4-53.2,.4-80.8,.6-18.6,.1-37.3,.6-51.7,.4-9.6,.6-25.4-.1-26.3,1.4,4.9,.5,10.9,0,17.2,0,9.2-.2,20.1,0,29.2-.2,2.2,0,4.2-.3,6.6-.3,11.3-.2,25.5-.3,34.5,0,15.4-.5,41.1-.1,62.2-.5,5.1,0,14.1,0,15.8-.7,.5-.4-6.4-.2-6.7-.6Z"/><path class="cls-1" d="M253.1,189.4c-10.3,.9-28.9,.1-35.6,1.2,12.6,.9,33-.2,47.7-.2,6.8,0,9.4,.2,14.6,.3,2.4-.2,7.8-.2,6.5-.7-5.4-.7-22.5-.4-33.2-.6Z"/><path class="cls-1" d="M343.2,189.9c-1,0-1.5,0-1.3,.2,0,.2,3.6,.2,2.7,.5,18.4,.2,32.6,.3,49,.3,1.2-.6-2.8-.7-4.1-1.1-17.4,.3-29.5,0-46.3,0Z"/><path class="cls-1" d="M466.5,191.2c1.8,.1,4,.2,5.4,.4,10.2-.8,31.7,.7,34.3-.6-9.4-.6-24.7-.3-37.2-.8,.1,.4-4.4,.5-2.5,1.1Z"/><path class="cls-1" d="M553.9,191.3c-1.3,.3-6.7,.3-5.2,.9,4.9,.4,8.6-.2,15.9-.1,10.9,.1,21.3,1,22.4-.4-9.8-.9-22.2-.2-33.1-.4Z"/><path class="cls-1" d="M630.8,192.6c1.9,0,3.3,.2,4,.4,7.5,0,14.3,0,17.1-.5-7.2-.3-21.7-1.3-21.1,.1Z"/></g><g><path class="cls-1" d="M619.3,221.2c-16.6-.2-40.1-.4-55.6,.1-.5-.5-6-.2-8-.2-9,0-13.8,0-21.2,.1-24.7,.2-50.9-.3-76.8-.2-13.3,0-24.6,0-35.7-.1-7.5,0-14.8,.1-22.5,.1-10.8,0-21.3-.3-31.8-.2-29.3,0-60.4,.3-88.6,.3-4.3,0-8.6-.2-13.3-.2-9.2,0-17.7,.4-25.2-.2-4.8,.4-11.7,.2-17.2,.2-54.1,0-117.2,.4-164.1-.3-2.8,.1-3.9,.4-7.9,.4-5.2-.1-10.3-.3-15.9-.4-9.3,.5-25.9,.4-26.2,1.7,5.3,0,2.1,.7,8,.6,6.4,0,5.9-.7,11.8-.7,13-.3,22.3-.1,34.4-.1,7,0,14.3-.2,19.8-.1,2,0,5.8,.2,8,.2,4.8,0,8.4-.3,13.2-.2,5.5,0,10.6,.2,15.9,.2,12.2,0,22,0,30.4,0,3.2,0,6.2-.2,9.2-.2,6.6,0,12.4,.3,18.5,.2,8,0,16.1-.3,23.8-.4,22.1-.1,43.9,.3,66.2,.3,6.7,0,13.1-.2,19.8-.2,2.6,0,5.4,.2,8,.2,4.5,0,8.6-.2,13.2-.2,10.8,0,22.4,.2,33.1,.2,11.4,0,22.9-.3,34.4-.2,8.3,0,17.3,.2,26.5,.2,15,0,30.8-.1,43.7,.2,3.1-.2,13.5,0,18.5-.2,16.2,.5,34.1,0,52.9,.1,3.6,0,6.8,.2,10.6,.2,5.7,0,13.2,0,19.8-.1,7.6,0,14.9-.2,22.5-.1,5.9,0,11.6,.2,17.2,.2,3.7,0,7.7-.3,11.9-.2,4.4,0,9.1,.3,13.3,.2,5.2,0,9.7-.2,14.5-.2,13,0,38.1,.5,40.9-.5-14.2-.4-31.8-.2-50.3-.4Z"/><path class="cls-1" d="M185.7,224.3c-26.1,.2-53.1,0-80.7,0-18.5,0-37.3,.2-51.6-.1-9.6,.5-25.4-.4-26.3,1.1,4.9,.6,10.9,.1,17.2,.1,9.2,0,20.1,.2,29.1,.1,2.2,0,4.2-.2,6.6-.2,11.3,0,25.5,0,34.4,.2,15.4-.4,41.1,.2,62.2,0,5.1,0,14.1,0,15.8-.6,.5-.4-6.4-.2-6.7-.6Z"/><path class="cls-1" d="M261.1,224.5c-10.3,.9-28.9,0-35.6,1.1,12.5,.9,33,0,47.6,0,6.7,0,9.4,.3,14.6,.4,2.4-.2,7.8-.2,6.5-.7-5.4-.8-22.5-.4-33.2-.7Z"/><path class="cls-1" d="M351.2,225.2c-1,0-1.5,.1-1.3,.2,0,.2,3.6,.2,2.7,.5,18.3,.2,32.6,.3,49,.2,1.2-.6-2.8-.7-4.1-1.1-17.4,.3-29.4,0-46.3,.1Z"/><path class="cls-1" d="M474.4,226.1c1.8,.1,4,.2,5.4,.4,10.2-.8,31.7,.5,34.3-.8-9.4-.5-24.7-.2-37.1-.6,.1,.4-4.4,.5-2.5,1.1Z"/><path class="cls-1" d="M561.6,225.6c-1.3,.4-6.7,.4-5.2,1,4.9,.4,8.6-.3,15.9-.2,10.9,0,21.3,.9,22.4-.6-9.8-.8-22.2,0-33.1-.1Z"/><path class="cls-1" d="M638.5,226.2c1.9,0,3.3,.2,4,.4,7.5,0,14.3-.2,17.1-.7-7.2-.2-21.7-1.1-21.1,.4Z"/></g><g><path class="cls-1" d="M624.9,253.8c-16.8-.1-40.4-.2-56.1,.3-.5-.5-6.1-.2-8-.2-9.1,0-14,.1-21.4,.2-24.9,.2-51.4-.2-77.5-.1-13.4,0-24.8,0-36.1-.1-7.6,0-15,.1-22.7,0-10.9,0-21.4-.3-32.1-.3-29.6,0-60.9,.2-89.4,0-4.4,0-8.7-.3-13.4-.3-9.3,0-17.9,.3-25.4-.4-4.8,.4-11.8,.2-17.3,.2-54.6-.3-118.3-.4-165.6-1.6-2.8,0-3.9,.3-8,.3-5.2-.2-10.4-.4-16.1-.5-9.4,.4-26.1,.1-26.5,1.4,5.4,0,2.1,.7,8.1,.7,6.4,0,6-.6,11.9-.6,13.1-.1,22.5,.1,34.7,.2,7.1,0,14.5,0,20,0,2,0,5.9,.3,8,.3,4.8,0,8.5-.2,13.3-.1,5.5,0,10.7,.3,16.1,.4,12.3,.1,22.2,.2,30.7,.2,3.3,0,6.3-.2,9.3-.2,6.7,0,12.5,.3,18.7,.4,8.1,0,16.2-.2,24-.2,22.3,0,44.3,.6,66.8,.7,6.7,0,13.3-.2,20-.2,2.6,0,5.4,.3,8,.3,4.6,0,8.7-.2,13.3-.2,10.9,0,22.6,.3,33.4,.3,11.5,0,23.1-.2,34.7-.2,8.4,0,17.4,.2,26.7,.3,15.2,0,31.1-.1,44.1,.3,3.1-.2,13.6,0,18.7-.2,16.3,.5,34.4,0,53.4,0,3.7,0,6.9,.2,10.7,.2,5.8,0,13.3-.1,20-.2,7.6,0,15-.2,22.7-.2,6,0,11.7,.2,17.4,.2,3.7,0,7.8-.3,12-.3,4.4,0,9.2,.2,13.4,.2,5.2,0,9.8-.3,14.6-.3,13.1-.1,38.5,.3,41.3-.7-14.3-.4-32.1,0-50.8-.1Z"/><path class="cls-1" d="M187.3,256.4c-26.4,0-53.6-.3-81.4-.6-18.7-.2-37.6-.2-52.1-.6-9.7,.4-25.6-.7-26.6,.8,4.9,.6,11,.3,17.4,.3,9.3,0,20.3,.4,29.4,.4,2.2,0,4.2-.2,6.6-.2,11.4,0,25.8,.2,34.8,.5,15.6-.2,41.5,.5,62.8,.5,5.1,0,14.2,0,15.9-.5,.5-.4-6.5-.3-6.8-.6Z"/><path class="cls-1" d="M263.4,257c-10.4,.8-29.1-.1-35.9,.9,12.7,1,33.3,.2,48,.2,6.8,0,9.5,.3,14.8,.4,2.4-.2,7.9-.1,6.6-.7-5.5-.8-22.7-.5-33.5-.9Z"/><path class="cls-1" d="M354.3,258.1c-1,0-1.5,0-1.3,.2,0,.2,3.7,.2,2.7,.5,18.5,.2,32.9,.3,49.4,.3,1.2-.6-2.8-.7-4.1-1.1-17.6,.3-29.7,0-46.7,0Z"/><path class="cls-1" d="M478.6,259.1c1.8,.1,4.1,.2,5.4,.4,10.3-.9,32,.5,34.6-.9-9.5-.5-24.9-.1-37.5-.6,.1,.4-4.4,.5-2.5,1.1Z"/><path class="cls-1" d="M566.7,258.5c-1.4,.4-6.7,.4-5.2,1,4.9,.4,8.7-.3,16-.3,11,0,21.5,.8,22.6-.7-9.9-.8-22.4,0-33.4,0Z"/><path class="cls-1" d="M644.3,258.8c1.9,0,3.3,.2,4,.3,7.6-.1,14.4-.3,17.3-.8-7.3-.2-21.9-1-21.3,.5Z"/></g></svg>