<?xml version="1.0" encoding="UTF-8" standalone="no"?>
<!-- Created with Inkscape (http://www.inkscape.org/) -->

<svg
   width="92.63649mm"
   height="81.40892mm"
   viewBox="0 0 92.636482 81.408922"
   version="1.1"
   id="svg1549"
   inkscape:version="1.1.1 (1:1.1+202109281943+c3084ef5ed)"
   sodipodi:docname="hearth.svg"
   xmlns:inkscape="http://www.inkscape.org/namespaces/inkscape"
   xmlns:sodipodi="http://sodipodi.sourceforge.net/DTD/sodipodi-0.dtd"
   xmlns="http://www.w3.org/2000/svg"
   xmlns:svg="http://www.w3.org/2000/svg">
  <sodipodi:namedview
     id="namedview1551"
     pagecolor="#ffffff"
     bordercolor="#666666"
     borderopacity="1.0"
     inkscape:pageshadow="2"
     inkscape:pageopacity="0.0"
     inkscape:pagecheckerboard="0"
     inkscape:document-units="mm"
     showgrid="false"
     fit-margin-top="0"
     fit-margin-left="0"
     fit-margin-right="0"
     fit-margin-bottom="0"
     inkscape:zoom="0.32026164"
     inkscape:cx="963.27491"
     inkscape:cy="958.59124"
     inkscape:window-width="1920"
     inkscape:window-height="1043"
     inkscape:window-x="3840"
     inkscape:window-y="0"
     inkscape:window-maximized="1"
     inkscape:current-layer="layer1" />
  <defs
     id="defs1546" />
  <g
     inkscape:label="Layer 1"
     inkscape:groupmode="layer"
     id="layer1"
     transform="translate(284.25399,110.44747)">
    <g
       id="g1424"
       transform="matrix(0.10343233,0,0,-0.10343233,-1877.2404,915.70615)">
      <path
         d="m 16296.8,9637.22 c 3.2,149.29 -109,272.75 -250.6,275.69 -76.2,1.67 -145.2,-32.03 -193.3,-86.67 -45.8,56.65 -113.5,93.15 -189.6,94.72 -141.6,2.96 -258.8,-115.66 -262,-265.01 -0.8,-40.25 6.8,-78.48 21,-113.14 67,-256.55 410.2,-408.87 410.2,-408.87 256.3,75.27 374.2,259.89 420.1,357.23 26.9,41.75 43.2,91.82 44.2,146.05"
         style="fill:#ffffff;fill-opacity:1;fill-rule:nonzero;stroke:none"
         id="path1426" />
    </g>
  </g>
</svg>
