<?xml version="1.0" encoding="UTF-8"?><svg id="Layer_1" xmlns="http://www.w3.org/2000/svg" xmlns:xlink="http://www.w3.org/1999/xlink" viewBox="0 0 54.7 52.4"><defs><style>.cls-1{fill:url(#linear-gradient);}.cls-2{fill-rule:evenodd;}</style><linearGradient id="linear-gradient" x1="904.4" y1="-179" x2="1031.4" y2="-179" gradientTransform="translate(-360.6 14.2) rotate(11.2) scale(.4 .4)" gradientUnits="userSpaceOnUse"><stop offset="0" stop-color="#ffae68"/><stop offset=".4" stop-color="#ffbb48"/><stop offset=".6" stop-color="#ffda70"/><stop offset="1" stop-color="#fff593"/></linearGradient></defs><path class="cls-1" d="M27.6,50.5C13.3,48.9-1.5,15,2.7,13c2.8-1.4,8.5,11,15.4,9.4,8.6-2,4-20.3,9.3-20.3s2,17,9.1,19.3c5.7,1.8,13.3-8.9,16-8.1s-11.8,38.8-24.8,37.3Z"/><g><path class="cls-2" d="M40.4,45c3.2-3.6,6.6-9.2,8.1-13.3,.4,0,.9-1.4,1.1-1.9,1.1-2.3,1.5-3.5,2.2-5.5,.6-1.6,1.2-3.3,1.7-5,.3-.9,.5-1.7,.7-2.7,.1-.5,.2-.9,.3-1.4,0-.5,.2-1,0-1.9,0-.1,0-.2-.1-.4,0-.2-.1-.3-.3-.6,0-.1-.2-.2-.3-.3-.1-.1-.3-.3-.5-.3-.5-.2-.5-.2-.7-.2-.2,0-.3,0-.5,0h-.4c-.3,0-.5,0-.7,.1-.8,.2-1.3,.5-1.7,.8-.9,.6-1.6,1.1-2.4,1.7-1.4,1.1-2.7,2.2-4.1,3.2-1.4,1-2.7,1.8-3.9,2.2-1.2,.4-2,.3-2.7-.2-.9-.6-1.7-2.1-2.2-3.9-.6-2.6-.6-5.5-1.2-8.5-.2-1.1-.5-2.2-1-3.4-.3-.6-.6-1.2-1.3-1.8-.6-.6-1.4-1.1-2.3-1.3-.5,0-.8-.1-1.3-.1-.3,0-.5,0-.8,.1-.3,0-.5,.2-.8,.3-1,.5-1.6,1.3-1.9,1.9-.7,1.3-.9,2.5-1.1,3.6-.3,2.2-.5,4.2-.7,6.1-.2,1.9-.6,3.8-1.2,5.3-.4,.9-1,1.7-1.6,2.2-.6,.5-1.3,.9-2,1-.7,0-1.5-.1-2.1-.6-1,0-2.3-1.2-3.3-2.1-1.3-1.2-2.5-2.5-3.8-3.9-.7-.7-1.4-1.4-2.5-2.2-.1,0-.3-.2-.5-.3-.2,0-.4-.2-.6-.3-.4-.2-1-.3-1.7-.2-.3,0-.7,.2-1,.4-.4,.2-.6,.5-.8,.7-.4,.5-.5,1-.6,1.4-.2,.8-.1,1.4-.1,2,0,.6,.1,1.1,.2,1.7,.2,1.1,.5,2.1,.8,3.1,.6,2,1.3,3.8,2.1,5.7,3.2,7.3,7.2,13.8,11.6,19,.6,.5,1,.6,1.8,1.4,1,1.1,2,2.2,3.4,3.2,1.2,.7,3,1.6,4.6,2,1.6,.4,3,.3,3.1-.1-.8,0-.9-.3-1.1-.4-.1-.2-.3-.3-1.1-.5-.9-.3-1.3-.3-1.7-.4-.4,0-.8-.1-1.6-.5-1.7-.9-2.9-1.8-4.1-2.9-1.1-1-2.2-2.1-3.3-3.4-1.3-1.5-2.6-3-3.5-4.3-.3-.5-.8-1.4-1.1-1.9-.7-1.1-1.4-1.9-2.1-3-.8-1.3-1.3-2.6-2-3.9-1.5-3-2.6-5.5-3.4-7.7-.3-.8-.7-1.6-1-2.4-.5-1.8-.8-3.4-.8-5.3,0-.3,0-.7,.1-1,0-.4,.2-.8,.6-1.3,.4-.5,1-.7,1.6-.7,.3,0,.5,0,.7,0,.2,0,.4,.1,.6,.2,1.3,.7,2.1,1.4,2.9,2.2,2.2,2.2,4,4.5,6.3,6,1.1,.7,2.3,1.2,3.5,1.1,.6,0,1.2-.2,1.7-.4,.5-.3,1-.6,1.4-1.1,1-1.2,1.3-2.8,1.7-4.5,.2-.6,.4-1.3,.6-2,.2-1.2,.1-2.3,.3-3.5,.2-1.5,.3-3,.7-4.6,.2-.8,.5-1.6,1-2.5,.3-.4,.6-.9,1.1-1.2,.5-.4,1.1-.5,1.7-.6,.3,0,.5,0,.8,0,.3,0,.6,.1,.8,.2,.5,.2,1,.6,1.4,.9,.7,.8,1.1,1.7,1.5,2.5,.6,1.7,.9,3.3,1.1,4.8,.3,2.3,.4,4.7,1.1,6.9,.5,1.8,1.5,3.4,2.9,3.8,1.3,.5,3-.1,4.5-.8,.6-.4,2.9-1.9,3.8-3,.9-.6,1.8-1.3,2.7-2,.5-.4,.9-.7,1.5-1.1,.5-.4,1.1-.7,1.9-1,.4-.1,.9-.3,1.7,0,.2,0,.4,.2,.5,.3,.1,0,.2,.2,.3,.3,.1,.2,.2,.4,.2,.5,0,.3,0,.5,.1,.7,0,.8,0,1.5-.2,2.1-.2,1.3-.6,2.6-1,3.8-.3,1-.7,1.7-1.1,2.7-.6,1.5-1.3,3.4-2,5.1-.8,1.9-1.6,3.8-2.6,5.6-.8,1.4-1.7,2.7-2.5,4.1-.5,.9-1,1.9-1.6,2.9-.7,1-1.6,2-2.3,2.9-.9,1.2-1.6,2.2-2.5,3.2-1.2,1.4-3.4,3.2-5.6,4.3-1.1,.6-2.3,.9-3.2,1.1-.9,.2-1.7,.2-1.9,.4,1.2,.2,2.5,.1,3.8-.2,1.3-.4,2.4-1,3.5-1.7,2.2-1.5,4-3.4,5.7-5.4Z"/><path class="cls-2" d="M2.9,13.5c0,0-.2,.4-.3,.7,0,.4,0,.8,0,1.2,0,.8,.3,1.7,.5,2.5,.4,1.7,1,3.4,1.7,5.1,1.3,3.4,2.9,6.7,4.8,9.9,2.5,4.3,5.7,8.3,8.3,11.2,1,.8,2.2,2,3.4,2.8,1.1,.8,2.2,1.2,2.5,.8-.9-.9-2.3-1.5-3.5-2.6-1.8-1.5-3.6-3.8-5.1-5.6-.4-.4-.8-.8-1.2-1.3-1.8-2.4-3.8-5.7-4.7-7.9-1.1-1.7-2.3-4.2-3.4-7-.5-1.4-1-2.8-1.4-4.2-.4-1.4-.8-2.8-.9-4,0-.3,0-.6,0-.9,0-.1,0-.2,0-.2,0,0,0,0-.2,.1-.1,0-.2,0-.2,0,0,0,0,0,.1,0,.1,0,.4,0,.5,0,.1-.1-.2-.4-.4-.5-.2-.1-.3,0-.4-.2Z"/><path class="cls-2" d="M19.9,22.4c-.6,.5-1.5,1-2.6,1.1-1.1,.1-2.2,0-3.2-.4-2-.8-3.4-2-4.4-2.3,.6,.7,1.4,1.5,2.4,2.2,1,.7,2.4,1.2,3.9,1.3,1.5,0,3.1-.3,4.3-1.1,1.3-.8,2.1-1.9,2.7-2.9,.6-.9,.8-1.6,1.1-2.2,.3-.6,.5-1.2,.7-1.9,0-.7,.3-2.2-.2-1.9-.4,.7-.7,2.3-1.4,4-.3,.8-.8,1.7-1.4,2.5-.6,.8-1.3,1.4-2.1,1.8Z"/><path class="cls-2" d="M28.5,3.7c-.1-.1-.2,0-.3,0-.1,.1,.3,.5,0,.5,.4,.6,.7,1.6,.9,2.6,.2,1,.3,2.1,.5,3.1,.3,2.1,.5,4.3,1.1,6.6,.5,.2,.3-.9,.5-1.4-.6-2.4-.8-4.4-1.1-6.3-.1-1-.3-1.9-.5-2.8-.2-.9-.6-1.8-1.1-2.3Z"/><path class="cls-2" d="M48.9,17.3c.4-.2,.9-.6,1.3-.7,.4-.5,1.1-1.1,1.6-1.4,.1,0,.3-.1,.3-.1,0,0,0,0,0,0,0,0,0,0,0,0,0,0,0,0-.1,0h0s0,0-.1,0c-.2,0-.3-.1-.4-.2-.1-.1-.2-.1-.3-.2,0,0-.1-.2-.2-.2,0,0,0-.2,0-.2,0,0,0,0,0,0,0,0,0,.2,0,.3,0,.7-.3,1.5-.4,2.2-.1,.6-.1,1.1,0,1.4,.3-.6,.5-1.2,.7-2,0-.4,.2-.7,.2-1.1,0-.4,0-.8,0-.9,0,0,0,0,0,0,0,0,0,0,0,0,0,0,0,0,0,.1,0,0,.2,.2,.4,.2,.1,0,0,0,0,0h0s0,0-.2,0c-.2,0-.6,.2-.9,.4-.7,.4-1.4,.9-2.1,1.4,.2,.2-.7,1,0,1.1Z"/><path class="cls-2" d="M45.9,29.8c0-.4,.5-1.7,0-1.6-.8,1.1-.8,2.2-1.7,3.9-1.4,2.6-3.3,4.6-2.6,5.4,1.9-1.9,3-5.1,4.3-7.7Z"/><path class="cls-2" d="M34.1,46.1c-.4,.3-.7,.4-.9,.4-1.4,1.2-2.7,1.8-3.3,2.3,.8-.1,2.1-.5,3-1.1,1-.6,1.6-1.3,1.2-1.6Z"/></g></svg>