<?xml version="1.0" encoding="UTF-8" standalone="no"?>
<svg
   id="Layer_1"
   viewBox="0 0 34.739388 47.200001"
   version="1.1"
   sodipodi:docname="patitoNOIR.svg"
   width="34.739388"
   height="47.200001"
   inkscape:version="1.1.2 (1:1.1+202202050852+0a00cf5339)"
   xmlns:inkscape="http://www.inkscape.org/namespaces/inkscape"
   xmlns:sodipodi="http://sodipodi.sourceforge.net/DTD/sodipodi-0.dtd"
   xmlns:xlink="http://www.w3.org/1999/xlink"
   xmlns="http://www.w3.org/2000/svg"
   xmlns:svg="http://www.w3.org/2000/svg">
  <sodipodi:namedview
     id="namedview51"
     pagecolor="#ffffff"
     bordercolor="#666666"
     borderopacity="1.0"
     inkscape:pageshadow="2"
     inkscape:pageopacity="0.0"
     inkscape:pagecheckerboard="0"
     showgrid="false"
     fit-margin-top="0"
     fit-margin-left="0"
     fit-margin-right="0"
     fit-margin-bottom="0"
     inkscape:zoom="0.93619792"
     inkscape:cx="16.556328"
     inkscape:cy="22.965229"
     inkscape:window-width="1920"
     inkscape:window-height="1016"
     inkscape:window-x="1920"
     inkscape:window-y="27"
     inkscape:window-maximized="1"
     inkscape:current-layer="Layer_1" />
  <defs
     id="defs18">
    <style
       id="style2">.cls-1{fill:url(#linear-gradient-3);}.cls-1,.cls-2,.cls-3,.cls-4,.cls-5{stroke:#000;stroke-miterlimit:10;}.cls-2{fill:url(#linear-gradient-5);}.cls-2,.cls-5{stroke-width:.5px;}.cls-3{fill:url(#linear-gradient-4);}.cls-4{fill:url(#linear-gradient-2);}.cls-6{fill:url(#linear-gradient);}.cls-5{fill:url(#linear-gradient-6);}.cls-7{fill-rule:evenodd;}</style>
    <linearGradient
       id="linear-gradient"
       x1="668.59998"
       y1="384.10001"
       x2="698"
       y2="384.10001"
       gradientUnits="userSpaceOnUse">
      <stop
         offset="0"
         stop-color="#ffae68"
         id="stop4" />
      <stop
         offset=".4"
         stop-color="#ffbb48"
         id="stop6" />
      <stop
         offset=".6"
         stop-color="#ffda70"
         id="stop8" />
      <stop
         offset="1"
         stop-color="#fff593"
         id="stop10" />
    </linearGradient>
    <linearGradient
       id="linear-gradient-2"
       y1="378.20001"
       x2="677.79999"
       y2="378.20001"
       xlink:href="#linear-gradient"
       gradientTransform="translate(-666.1,-361)" />
    <linearGradient
       id="linear-gradient-3"
       x1="688.79999"
       y1="378.20001"
       x2="698"
       y2="378.20001"
       xlink:href="#linear-gradient"
       gradientTransform="translate(-666.1,-361)" />
    <linearGradient
       id="linear-gradient-4"
       x1="675.5"
       y1="388.89999"
       x2="691.09998"
       y2="388.89999"
       xlink:href="#linear-gradient"
       gradientTransform="translate(-666.1,-361)" />
    <linearGradient
       id="linear-gradient-5"
       x1="671.20001"
       y1="377.29999"
       x2="675.5"
       y2="377.29999"
       xlink:href="#linear-gradient"
       gradientTransform="translate(-666.1,-361)" />
    <linearGradient
       id="linear-gradient-6"
       x1="691.20001"
       y1="377.29999"
       x2="695.5"
       y2="377.29999"
       xlink:href="#linear-gradient"
       gradientTransform="translate(-666.1,-361)" />
    <linearGradient
       inkscape:collect="always"
       xlink:href="#linear-gradient"
       id="linearGradient868"
       gradientUnits="userSpaceOnUse"
       x1="668.59998"
       y1="384.10001"
       x2="698"
       y2="384.10001" />
  </defs>
  <g
     id="g38"
     transform="translate(-666.1,-361)">
    <path
       class="cls-6"
       d="m 698,379.8 c 0,0 0,-17 -14.7,-17 -14.7,0 -14.7,17 -14.7,17 v 20.8 c 0,2.6 2.1,4.7 4.7,4.7 h 19.9 c 2.6,0 4.7,-2.1 4.7,-4.7 v -20.8 z"
       id="path20"
       style="fill:url(#linearGradient868)" />
    <g
       id="g36">
      <path
         class="cls-7"
         d="m 695.3,389.5 c -0.2,3.2 -0.3,7.7 0.2,10.7 -0.1,0 -0.2,0.1 -0.2,0.2 0,0.1 0,0.3 0,0.3 0,0.1 0,0.3 0,0.4 -0.3,0.7 -0.4,1.1 -1,1.5 -0.2,0.2 -0.5,0.3 -0.8,0.3 0,0 -0.1,0 -0.2,0 0,0 -0.3,0 -0.4,0 H 692 c -1.2,0 -2.4,0 -3.7,0 -2.5,0 -5,-0.2 -7.5,-0.1 -2.6,0 -4.7,0 -6.9,0 h -0.5 c -0.2,0 -0.2,0 -0.3,0 -0.1,0 -0.3,0 -0.4,0 -0.3,0 -0.6,-0.2 -0.8,-0.4 -0.3,-0.3 -0.5,-0.8 -0.5,-1.2 v -1.1 c 0,-0.5 0,-1 0,-1.5 0,-5.6 -0.4,-11.6 -0.3,-17 0,-0.4 0,-0.8 0.1,-1.3 0,-0.3 0.1,-0.7 0.2,-1.1 0.2,-1.5 0,-3.1 1,-4.2 -0.2,-0.9 0.4,-2 0.7,-2.8 0.9,-2 2.3,-3.8 4.1,-5 0.9,-0.6 1.9,-1 3,-1.3 1.1,-0.3 2.3,-0.4 3.4,-0.4 2.4,0 4.5,0.6 6.2,1.8 1.6,1.2 2.8,2.9 3.5,4.6 0.3,0.4 0.6,0.4 0.9,1 0.2,0.9 0.3,1.7 0.5,2.7 0.4,0.7 0.7,1.8 1,2.7 0.3,0.9 0.6,1.6 1.3,1.6 0,-0.9 0.7,-0.4 0.5,-1.5 -0.2,-1.2 -0.8,-1 -1,-2.1 -0.7,-2.3 -1.1,-3.9 -2.1,-5.8 -0.6,-1.1 -1.5,-2 -2.1,-2.7 -0.2,-0.2 -0.5,-0.9 -0.8,-1.1 -0.6,-0.5 -1.3,-0.6 -2,-1 -0.8,-0.4 -1.6,-0.9 -2.4,-1.1 -2.1,-0.5 -3.9,-0.5 -5.3,-0.3 -0.6,0 -1,0.4 -1.5,0.5 -1.1,0.3 -2.1,0.4 -3,0.9 -1.2,0.7 -2,1.8 -2.8,2.8 -2.2,2.9 -3.7,6.7 -4,10.7 0,0.5 0,1.2 0.1,1.8 0,0.6 0.1,1.3 0.1,1.9 0,0.5 -0.2,1 -0.2,1.5 0,0.9 0.2,1.7 0.3,2.5 0,2.1 -0.2,4.3 -0.2,6.4 0,2.2 0.3,4.4 0.3,6.6 v 0.6 c 0,0.1 0,0.2 0,0.4 0,0.3 0,0.5 0.1,0.8 0.2,0.5 0.5,1 0.9,1.3 0.4,0.3 0.8,0.4 1.3,0.5 0.4,0 1.2,0 1.9,0 1.4,0 2.8,0 4,0.2 0.6,-0.2 2.6,0 3.6,-0.3 3.1,0.5 6.5,0 10.2,0 0.8,0 1.1,0.2 1.6,0 0.8,-0.2 1.5,-0.9 1.9,-1.7 0.2,-0.4 0.3,-0.9 0.2,-1.4 0,-0.6 0,-1.4 0,-2.1 0,-1.1 0.2,-2.2 0.2,-3.3 0,-0.7 -0.3,-1.5 -0.3,-2.3 0,-0.8 0.2,-1.8 0.2,-2.5 0,-1 -0.2,-1.9 -0.3,-2.8 0,-2.5 0.5,-7.3 -0.5,-7.9 -0.4,2.7 -0.1,6.1 -0.3,9.7 z"
         id="path22" />
      <path
         class="cls-7"
         d="m 674.6,364.6 c 1.1,-0.8 2.3,-1.5 3.6,-1.9 1.3,-0.4 2.7,-0.7 4,-0.7 2.7,-0.1 5.6,0.3 8.1,1.6 1.7,0.9 3.2,2.1 4.4,3.5 1.1,1.4 1.9,2.9 2.3,4.3 0.6,0.8 0.9,2.1 1.2,3.1 0.3,1 0.6,1.8 1.3,1.8 0.4,-1.1 -0.3,-2.3 -0.7,-3.5 -0.6,-1.8 -1.4,-4.1 -2.6,-5.6 -0.3,-0.4 -0.7,-0.6 -1.1,-1 -0.8,-0.9 -1.9,-1.9 -3,-2.6 -1.1,-0.8 -2.3,-1.3 -3.2,-1.8 -1.7,-0.4 -3.9,-0.8 -6.2,-0.8 -1.2,0 -2.4,0.1 -3.6,0.4 -1.2,0.3 -2.4,0.7 -3.4,1.3 -0.5,0.3 -1.2,0.7 -1.7,1.2 -0.5,0.5 -0.9,1 -0.8,1.3 0.2,0.4 1.2,-0.7 1.5,-0.4 z"
         id="path24" />
      <path
         class="cls-7"
         d="m 667.8,377.7 c -0.3,-1.1 0,-2.5 0.3,-3.9 0.3,-1.3 0.7,-2.6 0.5,-3.4 -1,1 -1.5,2.8 -1.8,4.5 -0.3,1.8 -0.2,3.6 -0.2,5.2 0,1.3 -0.2,1.8 -0.3,2.8 0.2,0.5 0.2,1.5 0.7,1.3 0.4,-0.5 0.5,-1.6 0.5,-2.8 0,-0.6 0,-1.3 0,-1.9 0,-0.7 0.1,-1.3 0.3,-1.8 z"
         id="path26" />
      <path
         class="cls-7"
         d="m 667,395.1 c 0,-0.2 -0.1,-0.3 -0.2,-0.2 -0.2,0 -0.1,0.7 -0.5,0.5 0,1.8 -0.1,3.3 -0.2,4.8 0,0.2 0,0.3 0,0.6 0,0.3 0,0.6 0,0.9 0,0.6 0.2,1.1 0.4,1.7 0.4,1.1 1.1,2.1 2.1,2.8 0.6,-0.2 -0.1,-1.1 0,-1.5 -0.8,-0.8 -1.2,-1.7 -1.5,-2.7 -0.1,-0.5 -0.2,-1 -0.2,-1.4 0,-0.4 0,-0.7 0,-1.1 0,-1.4 0,-2.8 0,-4.4 z"
         id="path28" />
      <path
         class="cls-7"
         d="m 684,407.8 c 0.3,0.1 0.8,0.2 1,0.4 2,-0.9 6.1,0.5 6.6,-0.9 -1.8,-0.5 -4.7,-0.1 -7.1,-0.6 0,0.4 -0.8,0.5 -0.5,1.1 z"
         id="path30" />
      <path
         class="cls-7"
         d="m 699.8,400.6 c 0.2,0 0.3,0.6 0.3,1 0,0.4 0.2,0.7 0.5,0.5 0.3,-0.7 0.3,-1.5 0.1,-1.9 -0.1,-0.5 -0.3,-1 -0.3,-1.7 0,-2.1 0.8,-4.1 -0.6,-4.3 -0.8,1.9 0,4.3 0,6.4 z"
         id="path32" />
      <path
         class="cls-7"
         d="m 700.3,385.8 c 0,-0.4 0.2,-0.6 0.4,-0.8 0,-1.4 -0.2,-2.7 -0.7,-3.3 -0.2,1.4 -1,4.2 0.4,4.1 z"
         id="path34" />
    </g>
  </g>
  <circle
     class="cls-4"
     cx="7.1000123"
     cy="17.200012"
     r="4.5999999"
     id="circle40"
     style="fill:url(#linear-gradient-2)" />
  <circle
     class="cls-1"
     cx="27.300024"
     cy="17.200012"
     r="4.5999999"
     id="circle42"
     style="fill:url(#linear-gradient-3)" />
  <path
     class="cls-3"
     d="m 25,27.4 c 0,1.2 -3.5,2.2 -7.8,2.2 -4.3,0 -7.8,-1 -7.8,-2.2 0,-1.2 3.5,-1.2 7.8,-1.2 4.3,0 7.8,0 7.8,1.2 z"
     id="path44"
     style="fill:url(#linear-gradient-4)" />
  <circle
     class="cls-2"
     cx="7.3000245"
     cy="16.299988"
     r="2.0999999"
     id="circle46"
     style="fill:url(#linear-gradient-5)" />
  <circle
     class="cls-5"
     cx="27.300024"
     cy="16.299988"
     r="2.0999999"
     id="circle48"
     style="fill:url(#linear-gradient-6)" />
</svg>
