<?xml version="1.0" encoding="UTF-8"?><svg id="Layer_1" xmlns="http://www.w3.org/2000/svg" xmlns:xlink="http://www.w3.org/1999/xlink" viewBox="0 0 34.8 47.4"><defs><style>.cls-1{fill:url(#linear-gradient-5);}.cls-1,.cls-2,.cls-3,.cls-4,.cls-5{stroke:#ff4501;stroke-miterlimit:10;}.cls-1,.cls-5{stroke-width:.5px;}.cls-6{fill:#ff4501;fill-rule:evenodd;}.cls-2{fill:url(#linear-gradient-2);}.cls-3{fill:url(#linear-gradient-4);}.cls-7{fill:url(#linear-gradient);}.cls-4{fill:url(#linear-gradient-3);}.cls-5{fill:url(#linear-gradient-6);}</style><linearGradient id="linear-gradient" x1="2.5" y1="23.3" x2="31.9" y2="23.3" gradientTransform="matrix(1, 0, 0, 1, 0, 0)" gradientUnits="userSpaceOnUse"><stop offset="0" stop-color="#ffae68"/><stop offset=".4" stop-color="#ffbb48"/><stop offset=".6" stop-color="#ffda70"/><stop offset="1" stop-color="#fff593"/></linearGradient><linearGradient id="linear-gradient-2" y1="17.4" x2="11.7" y2="17.4" xlink:href="#linear-gradient"/><linearGradient id="linear-gradient-3" x1="22.7" y1="17.4" x2="31.9" y2="17.4" xlink:href="#linear-gradient"/><linearGradient id="linear-gradient-4" x1="9.4" y1="28.1" x2="25" y2="28.1" xlink:href="#linear-gradient"/><linearGradient id="linear-gradient-5" x1="5.1" y1="16.5" x2="9.4" y2="16.5" xlink:href="#linear-gradient"/><linearGradient id="linear-gradient-6" x1="25.1" y1="16.5" x2="29.4" y2="16.5" xlink:href="#linear-gradient"/></defs><g><path class="cls-7" d="M31.9,19S31.9,2,17.2,2,2.5,19,2.5,19v20.8c0,2.6,2.1,4.7,4.7,4.7H27.1c2.6,0,4.7-2.1,4.7-4.7V19Z"/><g><path class="cls-6" d="M29.2,28.7c-.2,3.2-.3,7.7,.2,10.7-.1,0-.2,.1-.2,.2,0,.1,0,.3,0,.3,0,.1,0,.3,0,.4-.3,.7-.4,1.1-1,1.5-.2,.2-.5,.3-.8,.3,0,0-.1,0-.2,0,0,0-.3,0-.4,0h-.9c-1.2,0-2.4,0-3.7,0-2.5,0-5-.2-7.5-.1-2.6,0-4.7,0-6.9,0h-.5c-.2,0-.2,0-.3,0-.1,0-.3,0-.4,0-.3,0-.6-.2-.8-.4-.3-.3-.5-.8-.5-1.2v-1.1c0-.5,0-1,0-1.5,0-5.6-.4-11.6-.3-17,0-.4,0-.8,.1-1.3,0-.3,.1-.7,.2-1.1,.2-1.5,0-3.1,1-4.2-.2-.9,.4-2,.7-2.8,.9-2,2.3-3.8,4.1-5,.9-.6,1.9-1,3-1.3,1.1-.3,2.3-.4,3.4-.4,2.4,0,4.5,.6,6.2,1.8,1.6,1.2,2.8,2.9,3.5,4.6,.3,.4,.6,.4,.9,1,.2,.9,.3,1.7,.5,2.7,.4,.7,.7,1.8,1,2.7,.3,.9,.6,1.6,1.3,1.6,0-.9,.7-.4,.5-1.5-.2-1.2-.8-1-1-2.1-.7-2.3-1.1-3.9-2.1-5.8-.6-1.1-1.5-2-2.1-2.7-.2-.2-.5-.9-.8-1.1-.6-.5-1.3-.6-2-1-.8-.4-1.6-.9-2.4-1.1-2.1-.5-3.9-.5-5.3-.3-.6,0-1,.4-1.5,.5-1.1,.3-2.1,.4-3,.9-1.2,.7-2,1.8-2.8,2.8-2.2,2.9-3.7,6.7-4,10.7,0,.5,0,1.2,.1,1.8,0,.6,.1,1.3,.1,1.9,0,.5-.2,1-.2,1.5,0,.9,.2,1.7,.3,2.5,0,2.1-.2,4.3-.2,6.4,0,2.2,.3,4.4,.3,6.6v.6c0,.1,0,.2,0,.4,0,.3,0,.5,.1,.8,.2,.5,.5,1,.9,1.3,.4,.3,.8,.4,1.3,.5,.4,0,1.2,0,1.9,0,1.4,0,2.8,0,4,.2,.6-.2,2.6,0,3.6-.3,3.1,.5,6.5,0,10.2,0,.8,0,1.1,.2,1.6,0,.8-.2,1.5-.9,1.9-1.7,.2-.4,.3-.9,.2-1.4,0-.6,0-1.4,0-2.1,0-1.1,.2-2.2,.2-3.3,0-.7-.3-1.5-.3-2.3,0-.8,.2-1.8,.2-2.5,0-1-.2-1.9-.3-2.8,0-2.5,.5-7.3-.5-7.9-.4,2.7-.1,6.1-.3,9.7Z"/><path class="cls-6" d="M8.5,3.8c1.1-.8,2.3-1.5,3.6-1.9,1.3-.4,2.7-.7,4-.7,2.7-.1,5.6,.3,8.1,1.6,1.7,.9,3.2,2.1,4.4,3.5,1.1,1.4,1.9,2.9,2.3,4.3,.6,.8,.9,2.1,1.2,3.1,.3,1,.6,1.8,1.3,1.8,.4-1.1-.3-2.3-.7-3.5-.6-1.8-1.4-4.1-2.6-5.6-.3-.4-.7-.6-1.1-1-.8-.9-1.9-1.9-3-2.6-1.1-.8-2.3-1.3-3.2-1.8C21.1,.4,18.9,0,16.6,0c-1.2,0-2.4,.1-3.6,.4-1.2,.3-2.4,.7-3.4,1.3-.5,.3-1.2,.7-1.7,1.2-.5,.5-.9,1-.8,1.3,.2,.4,1.2-.7,1.5-.4Z"/><path class="cls-6" d="M1.7,16.9c-.3-1.1,0-2.5,.3-3.9,.3-1.3,.7-2.6,.5-3.4-1,1-1.5,2.8-1.8,4.5-.3,1.8-.2,3.6-.2,5.2,0,1.3-.2,1.8-.3,2.8,.2,.5,.2,1.5,.7,1.3,.4-.5,.5-1.6,.5-2.8,0-.6,0-1.3,0-1.9,0-.7,.1-1.3,.3-1.8Z"/><path class="cls-6" d="M.9,34.3c0-.2-.1-.3-.2-.2-.2,0-.1,.7-.5,.5,0,1.8-.1,3.3-.2,4.8,0,.2,0,.3,0,.6,0,.3,0,.6,0,.9,0,.6,.2,1.1,.4,1.7,.4,1.1,1.1,2.1,2.1,2.8,.6-.2-.1-1.1,0-1.5-.8-.8-1.2-1.7-1.5-2.7-.1-.5-.2-1-.2-1.4,0-.4,0-.7,0-1.1,0-1.4,0-2.8,0-4.4Z"/><path class="cls-6" d="M17.9,47c.3,.1,.8,.2,1,.4,2-.9,6.1,.5,6.6-.9-1.8-.5-4.7-.1-7.1-.6,0,.4-.8,.5-.5,1.1Z"/><path class="cls-6" d="M33.7,39.8c.2,0,.3,.6,.3,1,0,.4,.2,.7,.5,.5,.3-.7,.3-1.5,.1-1.9-.1-.5-.3-1-.3-1.7,0-2.1,.8-4.1-.6-4.3-.8,1.9,0,4.3,0,6.4Z"/><path class="cls-6" d="M34.2,25c0-.4,.2-.6,.4-.8,0-1.4-.2-2.7-.7-3.3-.2,1.4-1,4.2,.4,4.1Z"/></g></g><circle class="cls-2" cx="7.1" cy="17.4" r="4.6"/><circle class="cls-4" cx="27.3" cy="17.4" r="4.6"/><path class="cls-3" d="M25,27.6c0,1.2-3.5,2.2-7.8,2.2s-7.8-1-7.8-2.2,3.5-1.2,7.8-1.2,7.8,0,7.8,1.2Z"/><circle class="cls-1" cx="7.3" cy="16.5" r="2.1"/><circle class="cls-5" cx="27.3" cy="16.5" r="2.1"/></svg>