<?xml version="1.0" encoding="UTF-8"?><svg id="Layer_1" xmlns="http://www.w3.org/2000/svg" xmlns:xlink="http://www.w3.org/1999/xlink" viewBox="0 0 70.3 54.1"><defs><style>.cls-1{fill:url(#linear-gradient);}.cls-2{fill-rule:evenodd;}</style><linearGradient id="linear-gradient" x1="607.4" y1="913.3" x2="808.9" y2="913.3" gradientTransform="translate(-276.1 -219.2) rotate(-11.3) scale(.4 .3)" gradientUnits="userSpaceOnUse"><stop offset="0" stop-color="#ffae68"/><stop offset=".4" stop-color="#ffbb48"/><stop offset=".6" stop-color="#ffda70"/><stop offset="1" stop-color="#fff593"/></linearGradient></defs><path class="cls-1" d="M41.6,16c1.2-5.1-1.3-6.6,.6-9.7,1.2-1.9,4-4.2,6.6-5,3.8-1.2,7.7-.3,9.8,1.5,2.7,2.3,.9,6.4,3.8,7.8,2.6,1.2,6-1.2,7,.1,.6,.7,.2,2.1-.5,2.9-2.2,2.7-7.1,.1-11,2.7-3.1,2.1-3.5,6-3.5,6.4-.3,4.4,3.5,5.9,4.7,10.7,1.3,5.4-1.9,10.4-2.3,11-7.4,11.3-17.1,9.3-27.7,7.8-.8-.1-28.5-11.7-28.5-13.1,0-1.3,.5-1.1,8.2-2.7,5.8-1.2,17.5-7.4,22.7-10.2,.6-.3,8.1-2.1,10-10.3Z"/><g><path class="cls-2" d="M30.9,25.8c-4.5,2.4-10.9,5.6-15.1,7.6-.2,0-1.7,.7-2.3,.9-1.3,.5-2.3,.8-3.2,1.1-.9,.3-1.8,.5-2.9,.7-1.9,.4-3.7,.7-5.7,1.2-.3,0-.5,.2-.8,.3-.3,.1-.7,.4-.8,.8,0,.2-.1,.4-.1,.5v.2c0,.1,0,.3,0,.4,0,0,0,.1,.1,.2,.3,.3,.5,.4,.7,.6,.9,.6,1.7,1,2.6,1.5,3.5,1.8,7.2,3.5,10.8,5,3.7,1.6,6.9,3,10.1,4.3,1.1,.4,2.1,.9,3.2,1.3l.8,.3c.2,0,.2,0,.5,.2,.3,0,.3,0,.5,0,.6,0,1.1,.2,1.7,.2,3.3,.5,6.5,1,9.8,.9,2.3,0,4.7-.4,6.9-1.2,2.2-.8,4.3-2.2,6-3.8,1.7-1.7,3.1-3.5,4.3-5.6,1.1-2.1,1.8-4.3,1.9-6.6,0-1.4,0-2.8-.4-4.3-.8-3-3-4.9-3.8-6.8-.4-.6-.6-1.3-.7-2.2,0-.4,0-.8,0-1.2,0-.4,.1-.8,.2-1.2,.5-1.9,1.6-3.7,3.2-4.6,1.7-1,3.8-1,6-1,1.1,0,2.3,0,3.5-.6,.3-.1,.6-.3,.8-.5,.2-.2,.5-.5,.7-.7,.4-.5,.6-1.1,.7-1.8,0-.3,0-.7,0-1.1,0-.4-.4-.8-.8-1-.8-.4-1.5-.3-2-.2-1.1,.2-2.2,.5-3.1,.5-1,0-1.9-.2-2.4-.9-.6-.6-.7-1.6-.9-2.7-.2-1-.4-2.2-1-3.2-.3-.5-.7-1-1.2-1.3-.4-.4-.9-.6-1.4-.9-3.9-2-8.6-1.3-11.7,.8-.7,.5-1,.8-1.9,1.6-.6,.5-1.2,1.1-1.7,1.8-.5,.7-1,1.5-1.2,2.5-.1,.8,0,1.8,.2,2.7,.2,.9,.3,1.7,.3,2.5,0,1.6-.2,2.8,0,2.9,.1-.8,.2-.9,.3-1.1,0-.2,.2-.4,.2-1.3,0-1.9-.3-1.7-.5-3.5-.2-1-.2-2,.2-2.9,.4-.9,.9-1.6,1.5-2.2,1.2-1.3,2.5-2.3,4.2-3.2,2-1.1,4.3-1.4,6.1-1.3,.6,0,1.8,.3,2.5,.5,.7,.2,1.3,.5,1.9,.8,.6,.3,1.2,.7,1.7,1.3,.6,.7,1,1.5,1.2,2.3,.2,.8,.3,1.6,.4,2.4,.2,.9,.4,1.7,1,2.2,.6,.5,1.3,.7,2,.8,1.5,0,2.8-.4,4.1-.6,.5,0,1.2,0,1.7,.4,.5,.5,.5,1.1,.4,1.6-.2,1.1-.8,2.1-1.7,2.6-.9,.6-1.9,.7-2.8,.7-1.2,0-2.5,0-3.7,.2-1.2,.1-2.3,.4-3.2,1-1.4,.8-2.4,2.1-3,3.5-.6,1.5-1,3.1-.6,4.7,.4,1.5,1.4,2.9,2.4,4.3,1,1.4,1.8,3,2.2,4.7,.4,2.1,.3,4.2-.2,6.2-.2,.8-.6,1.6-.9,2.3-.6,1.3-1.2,2.4-2,3.6-.3,.3-.5,.7-.8,1l-.9,1c-.5,.7-1.2,1.2-1.9,1.8-1.4,1.1-2.8,2.1-4.4,2.7-.8,.4-1.7,.6-2.5,.9-.9,.2-1.7,.4-2.6,.5-1.8,.2-3.6,.2-5.3,.1-2.6-.2-5.3-.6-8.1-1h-.9c-.3-.2-.3-.2-.5-.3l-.4-.2-1.6-.6c-1.1-.4-2.1-.9-3.2-1.3-2.1-.9-4.1-1.7-5.9-2.6-.9-.3-3.8-1.7-5.2-2.2-2.3-1.1-4.6-2.2-7.1-3.3-1.2-.6-2.5-1.2-3.7-1.9-.3-.2-.6-.4-.9-.7,0-.1-.2-.1-.3-.5,0-.2,0-.2,0-.4,0-.2,0-.5,.3-.7,.4-.4,.8-.5,1.1-.6,.4-.1,.7-.2,1.1-.3,1.1-.2,2.1-.4,3.2-.6,.9-.2,1.8-.4,2.9-.6,1-.2,2-.5,3-.9,2.2-.8,4.2-1.7,6.3-2.6,1.6-.7,3.2-1.5,4.8-2.2,1-.5,2.1-1.1,3.2-1.7,1.2-.6,2.5-1.2,3.6-1.8l1-.6c.3-.2,.6-.4,1-.5,.7-.3,1.3-.5,2-.8,.9-.4,1.9-1,2.9-1.8,1-.8,1.9-1.7,2.6-2.7,.7-1,1.1-2.1,1.4-2.9,.3-.8,.4-1.5,.4-1.7-.5,2-1.5,4.2-3.3,6-.9,.9-1.9,1.7-3,2.3-.6,.3-1.2,.6-1.8,.9-.3,.1-.6,.2-1,.4l-.5,.2c-.3,.1-.4,.2-.5,.3Z"/><path class="cls-2" d="M63.4,14.8c1,0,2,0,3-.1,1-.1,1.9-.5,2.5-1.3,.3-.4,.5-.8,.6-1.3,.1-.5,0-1-.2-1.3-.3-.3-.7-.3-1.2-.3-.5,0-1,.2-1.5,.3-1,.2-2.1,.4-3.2,.3-.5,0-1.1-.3-1.5-.6-.5-.3-.8-.8-1.1-1.3-.5-1-.5-2.1-.7-3.1-.2-1-.5-2-1.2-2.8-.9-1-2.2-1.6-3.5-2-1.3-.4-2.7-.5-4-.3-2.7,.2-4.9,1.5-6.6,2.9-1.1,1-2.5,2.4-2.9,3.8-.2,.7-.1,1.4,0,1.9,.1,.5,.2,.9,.3,.9,0-.8-.2-1.5-.1-2.3,0-.8,.4-1.5,1-2.3,1.7-2.1,4.5-4,7.1-4.5,.6-.1,1.2-.3,1.9-.3,1.6,0,3.6,.3,5.1,1.1,.8,.4,1.4,1,1.8,1.6,.4,.6,.6,1.3,.7,2,.1,.6,.2,1.2,.4,1.9,.1,.7,.3,1.5,.9,2.2,.5,.7,1.4,1.2,2.3,1.3,.9,.2,1.8,0,2.6,0,.8-.1,1.7-.4,2.4-.4,.4,0,.7,0,.8,.2,.1,.1,.2,.5,.1,.8-.1,.7-.5,1.4-1,1.9-.5,.4-1.3,.7-2,.7-.7,0-1.8,0-2.7,.1-1,0-1.8,.1-2.1,.3-.1,0,2-.1,2.1,0Z"/><path class="cls-2" d="M58.2,31.6c-.4-.7-.9-1.5-1.4-2.3-.6-.8-1.2-1.7-1.8-2.6-.5-.9-.9-2-1-2.9-.1-.9,0-1.7,0-2.3-.3,1-.4,2.2,0,3.5,.4,1.3,1.1,2.4,1.9,3.5,.8,1.1,1.5,2.1,2,3.2,.5,1.1,.8,2.2,.9,3.3,0,1,0,1.7,0,2.3,0,.6-.2,1.2-.4,1.9,0,.7-.7,2.2-.4,1.9,.4-.7,1-2.3,1.1-4.2,.2-1.9-.2-4-.9-5.4Z"/><path class="cls-2" d="M45.8,52.3c.3,0,.4-.2,.4-.2,0,0-.3,0-.5,0-.2,0-.4,0-.3,0-2.7,.6-5.1,.6-7.5,.4-2.4-.2-4.7-.5-7.2-.8-.4,0,.8,.3,1.2,.4,2.6,.3,4.9,.6,7.1,.7,2.2,0,4.4,0,6.9-.6Z"/><path class="cls-2" d="M10.3,43.6c-.5-.3-1.1-.6-1.4-.8-1.5-.6-3.6-1.6-5.5-2.6-.5-.3-.9-.5-1.3-.7-.2-.1-.4-.2-.5-.3-.1,0-.3-.3-.3-.2,0,.3,0,.1,0,0h0c0-.2,0-.2,0-.2,0,0,.2-.2,.3-.3-.1,0-.3,.1-.4,.2,0,0-.1,0-.1,.2,0,0,0,.2,0,.2,0-.2,0,0,0,0,.1,.1,.3,.2,.5,.4,.7,.5,1.6,.9,2.5,1.4,1.8,.9,3.7,1.8,5.4,2.7,0-.1,1.3,.4,.8,0Z"/><path class="cls-2" d="M15.6,34.6c-.3,.2-1.9,.9-1.4,.8,1.4-.5,2.4-1.1,4.5-2,3.1-1.4,6-2.7,6.1-3.2-2.8,1.2-6.1,3-9.2,4.3Z"/><path class="cls-2" d="M36.8,24.2c.5-.3,.8-.6,1.1-.7,1.8-1.6,2.9-3.6,3.1-4.4-.5,1-1.5,2.4-2.5,3.4-1,1-1.9,1.6-1.7,1.7Z"/></g></svg>