<?xml version="1.0" encoding="UTF-8" standalone="no"?>
<!-- Created with Inkscape (http://www.inkscape.org/) -->

<svg
   width="34.92712mm"
   height="23.641138mm"
   viewBox="0 0 34.92712 23.641138"
   version="1.1"
   id="svg1424"
   inkscape:version="1.1.2 (1:1.1+202202050852+0a00cf5339)"
   sodipodi:docname="leaf2.svg"
   xmlns:inkscape="http://www.inkscape.org/namespaces/inkscape"
   xmlns:sodipodi="http://sodipodi.sourceforge.net/DTD/sodipodi-0.dtd"
   xmlns="http://www.w3.org/2000/svg"
   xmlns:svg="http://www.w3.org/2000/svg">
  <sodipodi:namedview
     id="namedview1426"
     pagecolor="#ffffff"
     bordercolor="#666666"
     borderopacity="1.0"
     inkscape:pageshadow="2"
     inkscape:pageopacity="0.0"
     inkscape:pagecheckerboard="0"
     inkscape:document-units="mm"
     showgrid="false"
     fit-margin-top="0"
     fit-margin-left="0"
     fit-margin-right="0"
     fit-margin-bottom="0"
     inkscape:zoom="2.5620932"
     inkscape:cx="66.156845"
     inkscape:cy="44.690022"
     inkscape:window-width="1856"
     inkscape:window-height="1016"
     inkscape:window-x="1984"
     inkscape:window-y="27"
     inkscape:window-maximized="1"
     inkscape:current-layer="layer1" />
  <defs
     id="defs1421">
    <clipPath
       clipPathUnits="userSpaceOnUse"
       id="clipPath22">
      <path
         d="m 599.137,3471.36 c 38.629,-6.52 79.593,1.96 112.461,23.27 -2.364,-7.69 3.851,-16.01 11.511,-18.47 7.661,-2.47 16.036,-0.5 23.555,2.39 12.754,4.87 24.508,12.35 34.328,21.84 10.821,-5.36 7.324,-24.15 17.641,-30.42 4.332,-2.64 9.82,-2.14 14.82,-1.31 20.32,3.39 39.945,10.88 57.348,21.91 -4.496,-7.05 -6.879,-15.44 -6.77,-23.81 55.157,10.68 106.774,42.69 145.809,83.08 -21.356,-40.21 -43.371,-83.83 -37.32,-128.96 70.35,61.1 132.47,131.66 184.18,209.17 8.33,-50.72 12.26,-102.17 11.75,-153.57 -0.55,-54.09 -5.98,-108.61 2.85,-161.97 11.73,3.14 22.7,9.05 31.78,17.1 -1.98,80.79 -7.51,161.5 -16.58,241.8 -1.51,13.46 -3.24,27.27 -9.59,39.25 1.16,-8.57 7.83,-15.23 14.4,-20.84 23.99,-20.52 51.49,-36.44 78.82,-52.23 32.76,-18.93 66.53,-38.2 103.95,-43.78 22.13,-3.31 47.01,5.74 69.32,7.39 -20.65,8.94 -28.69,33.2 -40.03,52.63 -13.84,23.7 -35.52,42.74 -60.82,53.39 24.22,9.35 50.37,8.69 76.61,8.03 13.24,-0.33 26.5,-0.67 39.56,0.28 32.75,2.39 65.3,12.98 97.82,8.46 -10.37,8.98 -17.17,21.98 -18.64,35.62 43.79,11.99 85.8,30.45 124.25,54.59 8.15,5.11 16.98,11.84 17.62,21.44 51.66,-7.1 102.35,15.16 149.76,36.89 -39.09,-4.64 -76.5,14.58 -114.74,23.94 -15.59,3.81 -31.32,6.5 -47.36,5.93 6.81,10.23 11.46,21.9 13.53,34.02 -6.48,-9.88 -19.43,-12.73 -31.06,-14.77 -21.94,-3.83 -43.88,-7.66 -65.82,-11.5 -0.26,9.34 -1.52,18.65 -3.76,27.72 -12.59,-4.29 -27.37,-8.34 -38.43,-0.93 -2.44,1.64 -4.67,3.82 -7.54,4.49 -2.71,0.62 -5.52,-0.23 -8.17,-1.09 -24.93,-8.12 -49.33,-17.87 -72.99,-29.18 0.06,12.3 -2.16,24.61 -6.5,36.12 -60.39,-27.06 -116.9,-62.76 -167.29,-105.65 12.86,20.68 23.53,43.11 40.48,60.6 10.48,10.8 23.01,19.34 34.89,28.57 56.87,44.12 100.06,105.62 122.27,174.08 -8.82,-2.75 -21.13,-5.59 -29.75,-2.27 18.41,5.51 32.76,20.37 42.45,36.96 9.68,16.61 15.45,35.13 22.37,53.06 8.84,22.89 19.65,44.96 28.78,67.73 -14.73,-9.46 -37.96,-7.12 -49.26,6.25 9.53,1.32 16.7,9.24 22.12,17.19 20.78,30.5 28.45,69.63 20.75,105.72 -5.03,-8.8 -13.77,-15.4 -23.61,-17.83 15.36,33.89 30.73,67.77 46.09,101.65 -9.02,-2.42 -14.69,11.05 -10.87,19.58 3.82,8.52 12.24,14.16 16.71,22.36 6.67,12.23 3.34,27.16 2.87,41.08 -1.05,31.21 13.14,63.24 3.31,92.87 -12.37,-18.01 -24.75,-36.02 -37.12,-54.02 -21.29,-30.98 -43.5,-65.07 -41.28,-102.59 -5.91,10.39 -11.81,20.78 -17.71,31.18 -14.49,-47.17 -30.77,-93.79 -48.79,-139.73 -8.1,12.25 -15.94,24.68 -23.5,37.27 -12.76,-21.21 -25.53,-42.42 -38.29,-63.63 -3.68,7.28 -6.37,15.05 -7.98,23.04 -13.36,-29.56 -27.16,-58.91 -41.4,-88.05 -3.62,10.04 -7.25,20.07 -10.87,30.12 -33.9,-75.69 -93.87,-140.19 -111.89,-221.13 -6.78,13.54 -12.75,27.96 -13.08,43.1 -0.3,13.72 4.06,27.06 6.56,40.56 5.54,29.86 1.84,61.36 -10.47,89.13 -5.05,-2.89 -10.1,-5.77 -15.16,-8.66 0.83,33.48 -2.36,67.06 -9.48,99.77 -4.6,-7.89 -9.19,-15.79 -13.78,-23.68 -6.28,34.64 -20.03,67.92 -40.05,96.88 -4.96,-8.88 -9.92,-17.76 -14.88,-26.65 -8.1,40.81 -14.96,81.85 -20.57,123.07 -9.11,-3.31 -17.3,-9.16 -23.37,-16.72 5.37,24.69 -6.14,48.81 -14.33,72.72 -7.29,21.27 -14.58,42.54 -21.869,63.82 -1.675,-5.29 -3.347,-10.57 -5.023,-15.84 -19.996,29.95 -36.051,62.54 -47.621,96.64 -2.832,-39.17 -0.438,-78.7 7.101,-117.24 -10.156,3.04 -18.046,12.55 -19.152,23.1 1.453,-32.63 8.012,-65.02 19.359,-95.64 -8.921,6.18 -17.847,12.36 -26.765,18.54 9.906,-33.53 21.902,-66.44 35.887,-98.47 -7.383,6.88 -14.774,13.76 -22.153,20.63 -6.543,-48.58 -3.961,-98.37 7.574,-146.02 -13.765,8.38 -27.011,17.63 -39.632,27.66 5.078,-55.1 15.351,-109.71 30.652,-162.89 -14.875,-1.94 -30.559,4.2 -40.152,15.73 9.535,-51.78 33.089,-100.92 67.492,-140.78 10.558,-12.24 22.199,-23.73 30.512,-37.6 15.13,-25.26 17.92,-56.15 31.27,-82.39 -13.35,10.56 -20.62,25.42 -31.575,38.44 -10.281,12.22 -23.055,22.04 -35.723,31.77 -44.762,34.37 -89.519,68.74 -134.285,103.11 8.691,-10.82 5.844,-28.91 -5.746,-36.55 -23.648,32.9 -72.828,30.75 -108.668,49.64 5.02,-1.94 4.52,-10.04 0.187,-13.23 -4.324,-3.2 -10.281,-2.79 -15.57,-1.81 -15.113,2.81 -29.547,9.17 -41.808,18.44 -13.903,10.5 -25.86,25.07 -42.809,29.11 0.469,-7.45 0.937,-14.9 1.398,-22.36 -23.41,13.93 -47.793,26.25 -72.902,36.82 1.156,-3.97 2.32,-7.95 3.477,-11.92 -27.414,26.4 -54.828,52.81 -82.243,79.22 -0.062,-46.42 15.356,-92.73 43.227,-129.84 -7.453,1.93 -14.914,3.87 -22.379,5.8 28.367,-23.65 55.024,-49.36 79.688,-76.85 -8.266,-3.6 -17.254,-5.53 -26.266,-5.64 29.262,-20.43 60.344,-38.24 92.758,-53.16 -9.207,-6.69 -19.875,-11.35 -31.031,-13.56 20.093,-9.8 35.195,-27.24 52.656,-41.2 17.461,-13.95 40.375,-24.91 61.719,-18.27 -7.848,-9.77 -19.59,-16.32 -32.028,-17.86 53.219,-25.14 89.457,-38.83 143.203,-62.83 49.703,-22.2 96.793,-26.62 146.801,-48.12 -57.25,-38.45 -130.277,-28.87 -196.262,-48.91 6.235,-6.37 15.45,-9.69 24.313,-8.76 -21.379,-11.62 -41.844,-24.94 -61.129,-39.78 -4.59,-3.54 -9.289,-7.37 -11.613,-12.68 -2.114,-4.81 -2.153,-10.59 -5.461,-14.67 -2.684,-3.3 -6.957,-4.79 -10.992,-6.11 -18.2,-5.98 -36.399,-11.96 -54.594,-17.94 1.84,-5.85 6.14,-10.87 11.633,-13.6 -28.133,-17.97 -50.914,-39.05 -67.879,-67.8"
         id="path20" />
    </clipPath>
    <clipPath
       clipPathUnits="userSpaceOnUse"
       id="clipPath178">
      <path
         d="m 2655.38,3661.85 c -3.99,-25.54 0.6,-53.72 18.12,-72.72 27.22,-29.55 77.6,-26.71 110.07,-3.05 32.47,23.67 50.26,62.44 62.2,100.81 35.28,113.35 31.58,237.32 77.03,347 -62.01,-50.78 -144.23,-67.1 -219.66,-94.22 -75.42,-27.11 -153.44,-74.96 -172.85,-152.73 -10.08,-40.41 3.87,-91.81 43.43,-104.82 38.57,-12.67 75.99,16.04 102.52,40.75 -8.31,-19.81 -17.49,-39.49 -20.86,-61.02"
         id="path176" />
    </clipPath>
    <clipPath
       clipPathUnits="userSpaceOnUse"
       id="clipPath202">
      <path
         d="m 1982.81,4142.55 c 41.55,-33.96 65.96,-84.53 83.06,-135.39 17.1,-50.87 28.27,-103.84 49.91,-152.95 17.08,-38.77 40.59,-74.69 69.27,-105.86 30.05,-32.64 69.4,-61.38 113.77,-61.37 44.36,0.01 89.58,40.78 79.82,84.06 46.2,-6.49 92.81,24.5 111.89,67.07 19.08,42.58 13.44,93.46 -7.24,135.27 -20.68,41.83 -54.96,75.54 -92.39,103.39 -92.04,68.49 -207.11,105.46 -321.83,103.4 -45.45,-0.82 -91.16,-5.35 -136.51,-7.99 17.71,-8.29 34.95,-17.12 50.25,-29.63"
         id="path200" />
    </clipPath>
  </defs>
  <g
     inkscape:label="Layer 1"
     inkscape:groupmode="layer"
     id="layer1"
     transform="translate(-224.2932,-69.673496)">
    <path
       d="m 249.78634,88.012032 c -0.14076,0.900994 0.0208,1.895122 0.63888,2.5654 0.96061,1.042458 2.73791,0.94227 3.88338,0.107244 1.14547,-0.835025 1.77306,-2.202391 2.19427,-3.555647 1.24496,-3.999089 1.11408,-8.372475 2.71745,-12.241742 -2.18757,1.791758 -5.08811,2.367139 -7.74912,3.323872 -2.661,0.956381 -5.41337,2.644422 -6.09776,5.387975 -0.3556,1.425223 0.13653,3.238853 1.53211,3.697817 1.36067,0.44697 2.68041,-0.565855 3.61668,-1.437922 -0.29316,0.699206 -0.61701,1.393472 -0.73589,2.153003"
       style="fill:#c3b123;fill-opacity:1;fill-rule:nonzero;stroke:none;stroke-width:0.0352778"
       id="path170" />
    <g
       id="g172"
       transform="matrix(0.03527778,0,0,-0.03527778,156.12101,217.15834)">
      <g
         id="g174"
         clip-path="url(#clipPath178)">
        <path
           d="m 2662.06,3687.58 c -0.01,0.02 -0.02,0.04 -0.03,0.06 3.99,11.56 8.97,22.78 13.71,34.04 0.07,0.06 0.13,0.12 0.2,0.19 -4.76,-11.36 -9.81,-22.66 -13.88,-34.29 m 185.29,4.48 c 23.92,80.21 29.22,165.47 46.85,247.05 0.03,0.01 0.06,0.01 0.09,0.02 -17.53,-81.63 -22.87,-166.9 -46.94,-247.07"
           style="fill:#fcd25a;fill-opacity:1;fill-rule:nonzero;stroke:none"
           id="path180" />
        <path
           d="m 2765.21,3622.58 c -7.45,0 -15.01,0.73 -22.59,2.26 -36.61,7.39 -65.57,31.48 -80.56,62.74 4.07,11.63 9.12,22.93 13.88,34.29 -0.07,-0.07 -0.13,-0.13 -0.2,-0.19 0.17,0.4 0.33,0.79 0.5,1.19 -6.37,-5.93 -13.37,-12.09 -20.86,-17.86 -5.01,17.18 -6.05,35.8 -2.27,54.56 10.95,54.29 58.68,91.66 112,91.66 0.97,0 1.95,-0.01 2.93,-0.03 25.51,47.83 72.73,80.59 126.16,87.91 -17.63,-81.58 -22.93,-166.84 -46.85,-247.05 -0.52,-1.73 -1.04,-3.45 -1.58,-5.17 -5.91,-19 -13.26,-38.09 -23.11,-55.41 -1.8,1.22 -3.58,2.47 -5.33,3.75 -15.85,-8.13 -33.64,-12.65 -52.12,-12.65"
           style="fill:#e4af10;fill-opacity:1;fill-rule:nonzero;stroke:none"
           id="path182" />
      </g>
    </g>
    <path
       d="m 255.72888,78.997501 c -0.86536,1.109133 -1.73108,2.218619 -2.59644,3.328106 -1.19169,1.527527 -2.38655,3.058936 -3.47734,4.667603 -1.07173,1.580797 -2.03976,3.231444 -2.8956,4.938536 l 0.25894,0.130175 c 0.8502,-1.695803 1.81187,-3.335867 2.87655,-4.906081 1.08338,-1.598083 2.27401,-3.124553 3.46569,-4.652081 0.86537,-1.109486 1.73108,-2.218972 2.5968,-3.328105 l -0.2286,-0.178153"
       style="fill:#2c0e10;fill-opacity:1;fill-rule:nonzero;stroke:none;stroke-width:0.0352778"
       id="path184" />
    <path
       d="m 250.46685,80.97094 c -0.13935,0.749653 -0.22613,1.45168 -0.22613,2.14383 -3.6e-4,0.869951 0.13758,1.724378 0.47766,2.631017 l 0.27128,-0.1016 c -0.32773,-0.875241 -0.45896,-1.689805 -0.45931,-2.529417 0,-0.667808 0.084,-1.351844 0.22154,-2.090914 l -0.28504,-0.05292"
       style="fill:#2c0e10;fill-opacity:1;fill-rule:nonzero;stroke:none;stroke-width:0.0352778"
       id="path186" />
    <path
       d="m 253.01108,79.143551 c -0.27058,0.871361 -0.40711,1.783644 -0.40711,2.695928 0,0.427566 0.03,0.855486 0.0907,1.278819 l 0.28681,-0.04092 c -0.0586,-0.409928 -0.0879,-0.823736 -0.0879,-1.237897 0,-0.883356 0.13265,-1.766712 0.39406,-2.610203 l -0.27658,-0.08572"
       style="fill:#2c0e10;fill-opacity:1;fill-rule:nonzero;stroke:none;stroke-width:0.0352778"
       id="path188" />
    <path
       d="m 250.90958,85.862204 c 0.52317,0.137583 1.06327,0.205669 1.60338,0.205669 0.88476,0 1.76988,-0.182386 2.57951,-0.541514 l -0.11748,-0.264936 c -0.77152,0.342195 -1.61713,0.516467 -2.46203,0.516467 -0.51576,0 -1.03117,-0.06491 -1.52965,-0.195792 l -0.0737,0.280106"
       style="fill:#2c0e10;fill-opacity:1;fill-rule:nonzero;stroke:none;stroke-width:0.0352778"
       id="path190" />
    <path
       d="m 252.85021,82.987065 c 0.2219,0.02328 0.4445,0.03457 0.66711,0.03457 0.89217,0 1.78399,-0.185208 2.60138,-0.543983 l -0.11642,-0.265289 c -0.77999,0.342547 -1.63265,0.519642 -2.48496,0.519642 -0.21273,0 -0.4251,-0.01094 -0.63677,-0.03316 l -0.0303,0.28822"
       style="fill:#2c0e10;fill-opacity:1;fill-rule:nonzero;stroke:none;stroke-width:0.0352778"
       id="path192" />
    <path
       d="m 226.06626,71.003203 c 1.46544,1.198033 2.32657,2.982031 2.93018,4.776259 0.60325,1.79458 0.99695,3.663244 1.76036,5.395736 0.60254,1.36772 1.43192,2.634897 2.44404,3.734506 1.05975,1.151819 2.44793,2.16535 4.0132,2.164997 1.56528,-3.53e-4 3.16019,-1.438628 2.81588,-2.96545 1.62983,0.228953 3.27448,-0.864306 3.94758,-2.366081 0.67275,-1.501775 0.47378,-3.296708 -0.25577,-4.772025 -0.72954,-1.475669 -1.93886,-2.664883 -3.25896,-3.64737 -3.24732,-2.416528 -7.30673,-3.720394 -11.3538,-3.647369 -1.60337,0.02893 -3.21592,0.188383 -4.81577,0.281516 0.62513,0.292806 1.23331,0.603956 1.77306,1.045281"
       style="fill:#8e7819;fill-opacity:1;fill-rule:nonzero;stroke:none;stroke-width:0.0352778"
       id="path194" />
    <g
       id="g196"
       transform="matrix(0.03527778,0,0,-0.03527778,156.12101,217.15834)">
      <g
         id="g198"
         clip-path="url(#clipPath202)">
        <path
           d="m 2025.97,4093.5 c -11.95,18.39 -26.12,35.12 -43.16,49.05 -15.3,12.51 -32.54,21.34 -50.25,29.63 0.24,0.02 0.47,0.03 0.71,0.04 17.42,-8.18 34.37,-16.92 49.43,-29.24 17.16,-14.04 31.41,-30.91 43.42,-49.46 -0.05,-0.01 -0.1,-0.02 -0.15,-0.02"
           style="fill:#dcd16e;fill-opacity:1;fill-rule:nonzero;stroke:none"
           id="path204" />
        <path
           d="m 2365.97,3965.19 c -9.36,0 -18.87,0.93 -28.4,2.85 -59.8,12.06 -103.26,59.85 -112.69,116.67 -19.82,-8.06 -41.3,-12.44 -63.43,-12.44 -11.06,0 -22.28,1.09 -33.53,3.36 -24.82,5.01 -47.24,15.25 -66.41,29.3 -11,-5.65 -22.94,-9.55 -35.39,-11.41 -12.01,18.55 -26.26,35.42 -43.42,49.46 -15.06,12.32 -32.01,21.06 -49.43,29.24 45.11,2.65 90.59,7.13 135.8,7.95 3.06,0.05 6.1,0.08 9.15,0.08 111.67,0 223.09,-36.81 312.68,-103.48 27.61,-20.55 53.51,-44.28 73.5,-72.11 -26.07,-24.8 -61.15,-39.47 -98.43,-39.47"
           style="fill:#aa9718;fill-opacity:1;fill-rule:nonzero;stroke:none"
           id="path206" />
      </g>
    </g>
    <path
       d="m 232.43884,74.360589 c 5.6194,4.737101 9.35496,11.65719 10.23197,18.954046 l 0.28751,-0.03457 c -0.88688,-7.371998 -4.65596,-14.354529 -10.33251,-19.141018 l -0.18697,0.221544"
       style="fill:#2c0e10;fill-opacity:1;fill-rule:nonzero;stroke:none;stroke-width:0.0352778"
       id="path208" />
    <path
       d="m 240.94502,78.743501 c -0.35454,1.17475 -1.05022,2.715683 -1.65629,3.787775 l 0.25224,0.142522 c 0.617,-1.092905 1.31656,-2.640542 1.68133,-3.846336 l -0.27728,-0.08396"
       style="fill:#2c0e10;fill-opacity:1;fill-rule:nonzero;stroke:none;stroke-width:0.0352778"
       id="path210" />
    <path
       d="m 237.35727,73.740759 c 0.127,1.232253 0.1905,2.471561 0.1905,3.710517 0,0.79763 -0.0261,1.595261 -0.079,2.390775 l 0.28928,0.01905 c 0.0529,-0.801864 0.0797,-1.605845 0.0797,-2.409825 0,-1.248834 -0.0642,-2.49802 -0.19226,-3.740503 l -0.28822,0.02999"
       style="fill:#2c0e10;fill-opacity:1;fill-rule:nonzero;stroke:none;stroke-width:0.0352778"
       id="path212" />
    <path
       d="m 236.11126,82.698493 c 1.14088,0 2.28141,0 3.42265,0 v -0.289631 c -1.14124,0 -2.28177,0 -3.42265,0 v 0.289631"
       style="fill:#2c0e10;fill-opacity:1;fill-rule:nonzero;stroke:none;stroke-width:0.0352778"
       id="path214" />
    <path
       d="m 232.10335,77.987145 c 0.48648,0.423333 1.1169,0.575381 1.69792,0.715434 1.13841,0.272697 2.27683,0.545041 3.41524,0.817386 l 0.0674,-0.28187 c -1.13841,-0.272344 -2.27683,-0.544689 -3.41524,-0.817033 -0.58067,-0.137936 -1.1617,-0.288925 -1.57445,-0.651934 l -0.19085,0.218017"
       style="fill:#2c0e10;fill-opacity:1;fill-rule:nonzero;stroke:none;stroke-width:0.0352778"
       id="path216" />
  </g>
</svg>
