<?xml version="1.0" encoding="UTF-8" standalone="no"?>
<svg
   id="Layer_1"
   viewBox="0 0 675.6 293.5"
   version="1.1"
   sodipodi:docname="9lineasrougeCentered.svg"
   width="675.59998"
   height="293.5"
   inkscape:version="1.1.2 (1:1.1+202202050852+0a00cf5339)"
   xmlns:inkscape="http://www.inkscape.org/namespaces/inkscape"
   xmlns:sodipodi="http://sodipodi.sourceforge.net/DTD/sodipodi-0.dtd"
   xmlns="http://www.w3.org/2000/svg"
   xmlns:svg="http://www.w3.org/2000/svg">
  <sodipodi:namedview
     id="namedview151"
     pagecolor="#ffffff"
     bordercolor="#666666"
     borderopacity="1.0"
     inkscape:pageshadow="2"
     inkscape:pageopacity="0.0"
     inkscape:pagecheckerboard="0"
     showgrid="false"
     inkscape:zoom="4.0911784"
     inkscape:cx="151.42337"
     inkscape:cy="234.65122"
     inkscape:window-width="1920"
     inkscape:window-height="1043"
     inkscape:window-x="1920"
     inkscape:window-y="0"
     inkscape:window-maximized="1"
     inkscape:current-layer="Layer_1" />
  <defs
     id="defs4">
    <inkscape:path-effect
       effect="bspline"
       id="path-effect1309"
       is_visible="true"
       lpeversion="1"
       weight="33.333333"
       steps="2"
       helper_size="0"
       apply_no_weight="true"
       apply_with_weight="true"
       only_selected="false" />
    <style
       id="style2">.cls-1{fill:#ff4501;fill-rule:evenodd;}</style>
  </defs>
  <g
     id="g20"
     transform="translate(0.33190909,33.821647)">
    <path
       class="cls-1"
       d="m 601.4,3.1 c -16.4,-0.2 -39.5,-0.5 -54.8,0 -0.5,-0.5 -5.9,-0.2 -7.9,-0.3 -8.9,-0.1 -13.6,0 -20.9,0 -24.3,0 -50.2,-0.5 -75.7,-0.5 -13.1,0 -24.2,-0.2 -35.2,-0.3 -7.4,0 -14.6,0 -22.2,0 -10.6,0 -21,-0.3 -31.3,-0.4 -28.9,0 -59.6,0 -87.4,-0.1 -4.3,0 -8.5,-0.3 -13.1,-0.3 -9.1,0 -17.5,0.3 -24.8,-0.3 -4.7,0.4 -11.5,0.2 -16.9,0.2 C 157.9,0.8 95.6,1 49.3,0.1 46.6,0.1 45.5,0.4 41.5,0.4 36.4,0.2 31.4,0.1 25.8,0 16.7,0.5 0.3,0.3 0,1.6 c 5.2,0 2.1,0.7 7.9,0.6 6.3,0 5.8,-0.6 11.6,-0.7 12.8,-0.2 22,0 33.9,0 6.9,0 14.1,-0.1 19.6,0 2,0 5.8,0.3 7.9,0.3 4.7,0 8.3,-0.2 13,-0.2 5.4,0 10.4,0.3 15.7,0.3 12,0 21.7,0.2 30,0.1 3.2,0 6.1,-0.2 9.1,-0.2 6.6,0 12.2,0.3 18.3,0.3 7.9,0 15.9,-0.3 23.5,-0.3 21.7,0 43.3,0.5 65.3,0.6 6.6,0 13,-0.2 19.5,-0.2 2.6,0 5.3,0.3 7.9,0.3 4.5,0 8.5,-0.2 13,-0.2 10.7,0 22.1,0.3 32.6,0.4 11.2,0 22.6,-0.2 33.9,-0.1 8.2,0.1 17,0.2 26.1,0.3 14.8,0.1 30.4,0 43.1,0.4 3,-0.1 13.3,0 18.2,-0.2 16,0.6 33.6,0.2 52.2,0.3 3.6,0 6.7,0.2 10.5,0.3 5.6,0 13,0 19.6,0 7.5,0 14.7,-0.1 22.2,0 5.8,0 11.5,0.3 17,0.3 3.7,0 7.6,-0.2 11.7,-0.2 4.3,0 9,0.3 13.1,0.3 5.1,0 9.6,-0.2 14.3,-0.2 12.8,0 37.6,0.7 40.4,-0.3 C 637.1,3.1 619.7,3.3 601.5,3 Z"
       id="path6" />
    <path
       class="cls-1"
       d="M 173.8,4.4 C 148,4.4 121.4,4.2 94.2,4.1 c -18.3,0 -36.7,0 -50.9,-0.3 -9.5,0.4 -25,-0.5 -25.9,1 4.8,0.6 10.7,0.2 17,0.2 9.1,0 19.8,0.3 28.7,0.2 2.1,0 4.1,-0.2 6.5,-0.2 11.1,0 25.2,0 34,0.4 15.2,-0.3 40.5,0.4 61.3,0.2 5,0 13.9,0 15.6,-0.5 0.4,-0.4 -6.3,-0.2 -6.6,-0.6 z"
       id="path8" />
    <path
       class="cls-1"
       d="m 248.2,5 c -10.1,0.8 -28.5,-0.1 -35.1,0.9 12.4,1 32.6,0.1 47,0.2 6.7,0 9.3,0.3 14.4,0.4 2.3,-0.2 7.7,-0.1 6.4,-0.7 C 275.5,5 258.7,5.3 248.2,5 Z"
       id="path10" />
    <path
       class="cls-1"
       d="m 337,6 c -1,0 -1.5,0 -1.3,0.2 0,0.2 3.6,0.2 2.7,0.5 18.1,0.3 32.1,0.4 48.3,0.4 1.2,-0.6 -2.8,-0.7 -4.1,-1.1 -17.2,0.2 -29,-0.1 -45.7,0 z"
       id="path12" />
    <path
       class="cls-1"
       d="m 458.5,7.5 c 1.8,0.1 4,0.2 5.3,0.4 C 473.9,7.1 495,8.6 497.6,7.2 488.3,6.6 473.3,6.9 461,6.5 c 0.1,0.4 -4.3,0.5 -2.5,1.1 z"
       id="path14" />
    <path
       class="cls-1"
       d="m 544.5,7.3 c -1.3,0.3 -6.6,0.3 -5.1,0.9 4.8,0.4 8.5,-0.2 15.6,-0.2 10.8,0 21,0.9 22.1,-0.5 -9.6,-0.8 -21.9,0 -32.6,-0.2 z"
       id="path16" />
    <path
       class="cls-1"
       d="m 620.3,8.2 c 1.9,0 3.2,0.2 3.9,0.4 7.4,0 14.1,-0.2 16.9,-0.7 C 634,7.7 619.7,6.7 620.3,8.2 Z"
       id="path18" />
  </g>
  <g
     id="g36"
     transform="translate(0.33190909,33.821647)">
    <path
       class="cls-1"
       d="m 604.5,34.9 c -16.4,-0.2 -39.4,-0.4 -54.7,0 -0.5,-0.5 -5.9,-0.2 -7.8,-0.2 -8.9,0 -13.6,0 -20.8,0 -24.3,0.1 -50.1,-0.3 -75.5,-0.3 -13.1,0 -24.2,0 -35.2,-0.2 -7.4,0 -14.6,0.1 -22.1,0 -10.6,0 -20.9,-0.3 -31.3,-0.3 -28.9,0 -59.4,0.3 -87.2,0.1 -4.3,0 -8.5,-0.2 -13.1,-0.3 -9.1,0 -17.4,0.3 -24.7,-0.3 -4.7,0.4 -11.5,0.2 -16.9,0.2 C 162,33.6 99.8,33.8 53.7,33.1 51,33.2 49.9,33.5 45.9,33.5 40.8,33.4 35.8,33.2 30.2,33.1 21,33.6 4.7,33.4 4.4,34.8 c 5.2,0 2.1,0.7 7.9,0.6 6.3,0 5.8,-0.7 11.6,-0.7 12.8,-0.3 21.9,0 33.8,0 6.9,0 14.1,-0.2 19.5,0 2,0 5.7,0.3 7.8,0.2 4.7,0 8.3,-0.2 13,-0.2 5.4,0 10.4,0.2 15.7,0.3 12,0 21.6,0 29.9,0 3.2,0 6.1,-0.2 9.1,-0.2 6.5,0 12.2,0.3 18.2,0.3 7.9,0 15.8,-0.3 23.4,-0.3 21.7,0 43.2,0.4 65.1,0.4 6.5,0 12.9,-0.2 19.5,-0.2 2.6,0 5.3,0.2 7.8,0.2 4.5,0 8.5,-0.2 13,-0.2 10.7,0 22,0.3 32.6,0.3 11.2,0 22.5,-0.2 33.8,-0.2 8.2,0 17,0.2 26.1,0.3 14.8,0 30.3,0 43,0.3 3,-0.1 13.3,0 18.2,-0.2 15.9,0.5 33.5,0 52.1,0.2 3.6,0 6.7,0.2 10.4,0.3 5.6,0 13,0 19.5,0 7.5,0 14.6,-0.1 22.1,0 5.8,0 11.4,0.2 17,0.3 3.7,0 7.6,-0.2 11.7,-0.2 4.3,0 9,0.3 13.1,0.3 5.1,0 9.6,-0.2 14.3,-0.2 12.8,0 37.5,0.6 40.3,-0.4 -14,-0.5 -31.3,-0.2 -49.5,-0.4 z"
       id="path22" />
    <path
       class="cls-1"
       d="m 177.9,37.5 c -25.7,0.2 -52.3,0 -79.4,0 -18.3,0 -36.7,0.1 -50.8,-0.2 -9.4,0.5 -25,-0.4 -25.9,1.1 4.8,0.6 10.7,0.2 16.9,0.1 9.1,0 19.8,0.2 28.7,0.2 2.1,0 4.1,-0.2 6.5,-0.2 11.1,0 25.1,0 33.9,0.3 15.2,-0.3 40.4,0.2 61.2,0 5,0 13.9,0 15.5,-0.6 0.4,-0.4 -6.3,-0.2 -6.6,-0.6 z"
       id="path24" />
    <path
       class="cls-1"
       d="m 252.2,37.8 c -10.1,0.9 -28.4,0 -35,1 12.3,1 32.5,0 46.8,0 6.6,0 9.3,0.3 14.4,0.4 2.3,-0.2 7.7,-0.2 6.4,-0.7 -5.3,-0.8 -22.2,-0.5 -32.6,-0.8 z"
       id="path26" />
    <path
       class="cls-1"
       d="m 340.8,38.6 c -1,0 -1.5,0 -1.3,0.2 0,0.2 3.6,0.2 2.7,0.5 18,0.2 32.1,0.3 48.2,0.3 1.2,-0.6 -2.8,-0.7 -4,-1.1 -17.1,0.3 -29,0 -45.5,0 z"
       id="path28" />
    <path
       class="cls-1"
       d="m 462,39.7 c 1.8,0.1 4,0.2 5.3,0.4 10,-0.8 31.1,0.6 33.7,-0.8 -9.3,-0.6 -24.3,-0.2 -36.5,-0.6 0.1,0.4 -4.3,0.5 -2.5,1.1 z"
       id="path30" />
    <path
       class="cls-1"
       d="m 547.8,39.3 c -1.3,0.4 -6.5,0.3 -5.1,1 4.8,0.4 8.4,-0.3 15.6,-0.2 10.7,0 21,0.9 22,-0.6 -9.6,-0.8 -21.8,0 -32.6,-0.2 z"
       id="path32" />
    <path
       class="cls-1"
       d="m 623.4,40 c 1.9,0 3.2,0.2 3.9,0.4 7.4,0 14.1,-0.2 16.8,-0.7 -7.1,-0.2 -21.3,-1.1 -20.8,0.3 z"
       id="path34" />
  </g>
  <g
     id="g52"
     transform="translate(0.33190909,33.821647)">
    <path
       class="cls-1"
       d="m 598.8,64.4 c -16.2,-0.2 -38.9,-0.4 -54,0 -0.5,-0.5 -5.8,-0.2 -7.7,-0.3 -8.8,0 -13.4,0 -20.6,0 -23.9,0.1 -49.5,-0.3 -74.6,-0.4 -12.9,0 -23.9,0 -34.7,-0.2 -7.3,0 -14.4,0 -21.8,0 -10.5,0 -20.6,-0.4 -30.9,-0.4 -28.5,0 -58.7,0 -86.1,-0.1 -4.2,0 -8.4,-0.3 -12.9,-0.3 -9,0 -17.2,0.3 -24.4,-0.3 -4.7,0.4 -11.4,0.2 -16.7,0.2 -52.5,-0.3 -113.9,-0.1 -159.4,-1 -2.7,0 -3.7,0.3 -7.7,0.3 -5,-0.2 -10,-0.3 -15.5,-0.4 -9.1,0.5 -25.2,0.3 -25.5,1.6 5.2,0 2.1,0.7 7.8,0.6 6.2,0 5.7,-0.6 11.5,-0.7 12.6,-0.2 21.6,0 33.4,0 6.8,0 13.9,-0.1 19.3,0 1.9,0 5.7,0.3 7.7,0.3 4.6,0 8.2,-0.2 12.8,-0.2 5.3,0 10.3,0.3 15.5,0.3 11.9,0 21.4,0.2 29.6,0.1 3.1,0 6,-0.2 9,-0.2 6.5,0 12,0.3 18,0.3 7.8,0 15.6,-0.3 23.1,-0.3 21.4,0 42.7,0.5 64.3,0.6 6.5,0 12.8,-0.2 19.2,-0.2 2.5,0 5.2,0.3 7.7,0.3 4.4,0 8.4,-0.2 12.8,-0.2 10.5,0 21.7,0.3 32.2,0.4 11.1,0 22.2,-0.2 33.4,0 8.1,0 16.8,0.3 25.7,0.3 14.6,0.1 29.9,0 42.4,0.4 3,-0.1 13.1,0 18,-0.2 15.7,0.5 33.1,0 51.4,0.2 3.5,0 6.6,0.2 10.3,0.3 5.6,0 12.8,0 19.3,0 7.4,0 14.4,-0.1 21.8,0 5.8,0 11.3,0.3 16.7,0.3 3.6,0 7.5,-0.2 11.5,-0.2 4.2,0 8.8,0.3 12.9,0.3 5,0 9.5,-0.2 14.1,-0.2 12.6,0 37,0.6 39.8,-0.4 -13.8,-0.5 -30.9,-0.2 -48.9,-0.4 z"
       id="path38" />
    <path
       class="cls-1"
       d="M 177.6,66 C 152.2,66 126,65.8 99.2,65.7 81.2,65.6 63,65.7 49,65.4 c -9.3,0.4 -24.7,-0.5 -25.6,1 4.7,0.6 10.6,0.2 16.7,0.2 9,0 19.5,0.3 28.3,0.2 2.1,0 4,-0.2 6.4,-0.2 11,0 24.8,0 33.5,0.4 15,-0.3 39.9,0.4 60.4,0.3 4.9,0 13.7,0 15.3,-0.5 0.4,-0.4 -6.2,-0.2 -6.5,-0.6 z"
       id="path40" />
    <path
       class="cls-1"
       d="m 250.9,66.6 c -10,0.8 -28,-0.1 -34.6,0.9 12.2,1 32.1,0.1 46.3,0.2 6.6,0 9.2,0.3 14.2,0.4 2.3,-0.2 7.6,-0.1 6.3,-0.7 -5.3,-0.8 -21.9,-0.5 -32.2,-0.9 z"
       id="path42" />
    <path
       class="cls-1"
       d="m 338.4,67.7 c -1,0 -1.5,0 -1.3,0.2 0,0.2 3.5,0.2 2.6,0.5 17.8,0.3 31.7,0.4 47.6,0.4 1.2,-0.6 -2.7,-0.7 -4,-1.1 -16.9,0.2 -28.6,-0.1 -45,0 z"
       id="path44" />
    <path
       class="cls-1"
       d="m 458,69 c 1.7,0.1 3.9,0.2 5.2,0.4 9.9,-0.8 30.8,0.6 33.3,-0.8 -9.1,-0.6 -24,-0.2 -36.1,-0.7 0.1,0.4 -4.3,0.5 -2.4,1.1 z"
       id="path46" />
    <path
       class="cls-1"
       d="m 542.8,68.7 c -1.3,0.4 -6.5,0.3 -5,1 4.8,0.4 8.3,-0.2 15.4,-0.2 10.6,0 20.7,0.9 21.8,-0.6 -9.5,-0.8 -21.6,0 -32.1,-0.2 z"
       id="path48" />
    <path
       class="cls-1"
       d="m 617.4,69.4 c 1.9,0 3.2,0.2 3.9,0.4 7.3,0 13.9,-0.2 16.6,-0.7 -7,-0.2 -21.1,-1.1 -20.5,0.3 z"
       id="path50" />
  </g>
  <g
     id="g68"
     transform="translate(0.33190909,33.821647)">
    <path
       class="cls-1"
       d="m 616,95.7 c -16.7,-0.5 -40.3,-1.1 -55.9,-0.8 -0.5,-0.5 -6,-0.3 -8,-0.4 -9.1,-0.2 -13.9,-0.1 -21.3,-0.2 -24.8,-0.2 -51.2,-0.9 -77.2,-1.2 -13.4,-0.2 -24.7,-0.3 -35.9,-0.5 -7.6,0 -14.9,0 -22.6,0 -10.9,-0.1 -21.4,-0.4 -32,-0.5 -29.5,0 -60.7,0 -89.1,-0.1 -4.4,0 -8.7,-0.2 -13.3,-0.3 -9.3,0 -17.8,0.3 -25.3,-0.3 -4.8,0.4 -11.8,0.2 -17.3,0.2 -54.4,0 -117.9,0.7 -165.1,0.4 -2.8,0.1 -3.9,0.4 -7.9,0.4 -5.2,0 -10.3,-0.2 -16,-0.2 -9.4,0.6 -26.1,0.6 -26.4,1.9 5.3,0 2.2,0.7 8.1,0.5 6.4,0 5.9,-0.7 11.9,-0.8 13,-0.4 22.4,-0.3 34.6,-0.4 7.1,0 14.4,-0.3 19.9,-0.3 2,0 5.9,0.2 8,0.2 4.8,0 8.5,-0.3 13.3,-0.3 5.5,0 10.6,0.2 16,0.1 12.3,0 22.1,0 30.6,-0.1 3.3,0 6.2,-0.3 9.3,-0.3 6.7,0 12.4,0.2 18.7,0.2 8,0 16.2,-0.4 23.9,-0.4 22.2,-0.1 44.2,0.3 66.6,0.4 6.7,0 13.2,-0.2 19.9,-0.2 2.6,0 5.4,0.2 8,0.3 4.5,0 8.7,-0.2 13.3,-0.2 10.9,0 22.5,0.3 33.3,0.4 11.5,0 23,-0.1 34.6,0 8.4,0 17.4,0.3 26.7,0.4 15.1,0.2 31,0.1 43.9,0.6 3.1,-0.1 13.6,0.2 18.6,0 16.3,0.7 34.3,0.4 53.2,0.8 3.7,0 6.8,0.3 10.7,0.4 5.8,0.1 13.3,0 19.9,0.2 7.6,0 15,0 22.6,0.2 6,0.1 11.7,0.4 17.3,0.5 3.7,0 7.8,-0.1 11.9,0 4.4,0 9.2,0.4 13.3,0.5 5.2,0 9.8,0 14.6,0 13.1,0.2 38.3,1.3 41.2,0.3 -14.3,-0.7 -32,-0.8 -50.6,-1.3 z"
       id="path54" />
    <path
       class="cls-1"
       d="m 179.9,95.2 c -26.3,0.3 -53.5,0.2 -81.2,0.3 -18.7,0 -37.5,0.4 -51.9,0.3 -9.6,0.6 -25.5,-0.2 -26.4,1.3 4.9,0.5 10.9,0 17.3,0 9.3,-0.1 20.2,0 29.3,-0.1 2.2,0 4.2,-0.3 6.6,-0.3 11.3,-0.1 25.7,-0.2 34.6,0 15.5,-0.5 41.3,0 62.5,-0.3 5.1,0 14.2,0 15.9,-0.6 0.5,-0.4 -6.4,-0.2 -6.7,-0.6 z"
       id="path56" />
    <path
       class="cls-1"
       d="m 255.8,95.4 c -10.3,0.9 -29,0 -35.8,1.1 12.6,0.9 33.2,0 47.9,0 6.8,0 9.5,0.3 14.7,0.4 2.4,-0.2 7.9,-0.2 6.5,-0.7 -5.5,-0.8 -22.6,-0.5 -33.4,-0.8 z"
       id="path58" />
    <path
       class="cls-1"
       d="m 346.3,96.4 c -1,0 -1.5,0 -1.3,0.2 0,0.2 3.7,0.2 2.7,0.5 18.4,0.3 32.8,0.4 49.3,0.6 1.2,-0.6 -2.8,-0.7 -4.1,-1.1 -17.5,0.2 -29.6,-0.2 -46.6,-0.2 z"
       id="path60" />
    <path
       class="cls-1"
       d="m 470.2,98.4 c 1.8,0.1 4,0.2 5.4,0.4 10.3,-0.7 31.8,0.9 34.5,-0.4 -9.5,-0.7 -24.8,-0.5 -37.3,-1.1 0.1,0.4 -4.4,0.4 -2.5,1.1 z"
       id="path62" />
    <path
       class="cls-1"
       d="m 558,99.1 c -1.4,0.3 -6.7,0.2 -5.2,0.9 4.9,0.5 8.6,-0.1 15.9,0 11,0.2 21.4,1.2 22.5,-0.2 -9.8,-1 -22.3,-0.4 -33.3,-0.7 z"
       id="path64" />
    <path
       class="cls-1"
       d="m 635.2,101.1 c 1.9,0.1 3.3,0.3 4,0.4 7.6,0 14.4,0 17.2,-0.4 -7.3,-0.3 -21.8,-1.5 -21.2,0 z"
       id="path66" />
  </g>
  <g
     id="g84"
     transform="translate(0.33190909,33.821647)">
    <path
       class="cls-1"
       d="m 601.9,125.5 c -16.4,-0.4 -39.4,-0.8 -54.7,-0.4 -0.5,-0.5 -5.9,-0.3 -7.8,-0.3 -8.9,-0.2 -13.6,0 -20.8,0 -24.3,0 -50.1,-0.6 -75.5,-0.7 -13.1,-0.1 -24.2,-0.2 -35.2,-0.3 -7.4,0 -14.6,0 -22.1,0 -10.6,0 -20.9,-0.3 -31.3,-0.3 -28.9,0 -59.4,0.1 -87.2,0.2 -4.3,0 -8.5,-0.2 -13.1,-0.2 -9.1,0 -17.4,0.4 -24.8,-0.2 -4.7,0.4 -11.5,0.3 -16.9,0.3 -53.2,0.1 -115.4,0.9 -161.5,0.6 -2.7,0.1 -3.8,0.4 -7.8,0.4 -5.1,0 -10.1,-0.2 -15.7,-0.2 -9.2,0.6 -25.5,0.6 -25.8,1.9 5.2,0 2.1,0.7 7.9,0.5 6.3,0 5.8,-0.7 11.6,-0.8 12.8,-0.4 21.9,-0.3 33.8,-0.4 6.9,0 14.1,-0.3 19.5,-0.3 2,0 5.7,0.2 7.8,0.2 4.7,0 8.3,-0.3 13,-0.3 5.4,0 10.4,0.2 15.7,0.1 12,0 21.6,0 29.9,-0.2 3.2,0 6.1,-0.3 9.1,-0.3 6.5,0 12.2,0.2 18.2,0.1 7.9,0 15.8,-0.4 23.4,-0.5 21.7,-0.2 43.2,0.2 65.1,0.2 6.5,0 12.9,-0.3 19.5,-0.3 2.6,0 5.3,0.2 7.8,0.2 4.5,0 8.5,-0.2 13,-0.2 10.7,0 22,0.2 32.6,0.2 11.2,0 22.5,-0.2 33.8,-0.2 8.2,0 17,0.3 26.1,0.3 14.8,0 30.3,0 43,0.4 3,-0.1 13.3,0 18.2,-0.2 15.9,0.6 33.5,0.2 52.1,0.4 3.6,0 6.7,0.3 10.4,0.3 5.6,0 13,0 19.5,0 7.5,0 14.6,0 22.1,0 5.8,0 11.4,0.3 16.9,0.4 3.7,0 7.6,-0.2 11.7,-0.1 4.3,0 9,0.3 13.1,0.4 5.1,0 9.6,-0.1 14.3,0 12.8,0.1 37.5,1 40.3,0 -14,-0.6 -31.3,-0.5 -49.5,-0.9 z"
       id="path70" />
    <path
       class="cls-1"
       d="m 175.3,127.2 c -25.7,0.3 -52.3,0.3 -79.4,0.5 -18.2,0 -36.6,0.5 -50.8,0.3 -9.4,0.6 -25,-0.2 -25.9,1.3 4.8,0.5 10.7,0 16.9,0 9.1,-0.1 19.8,0 28.7,-0.1 2.1,0 4.1,-0.3 6.5,-0.3 11.1,-0.1 25.1,-0.2 33.9,0 15.2,-0.5 40.4,0 61.2,-0.4 5,0 13.9,0 15.5,-0.7 0.4,-0.4 -6.3,-0.2 -6.6,-0.6 z"
       id="path72" />
    <path
       class="cls-1"
       d="m 249.5,127.2 c -10.1,0.9 -28.4,0 -35,1.2 12.3,0.9 32.5,-0.1 46.8,-0.1 6.6,0 9.3,0.2 14.4,0.3 2.3,-0.2 7.7,-0.2 6.4,-0.7 -5.3,-0.7 -22.2,-0.4 -32.6,-0.7 z"
       id="path74" />
    <path
       class="cls-1"
       d="m 338.1,127.9 c -1,0 -1.5,0 -1.3,0.2 0,0.2 3.6,0.2 2.7,0.5 18,0.2 32.1,0.3 48.2,0.3 1.2,-0.6 -2.8,-0.7 -4,-1.1 -17.1,0.2 -29,0 -45.5,0 z"
       id="path76" />
    <path
       class="cls-1"
       d="m 459.3,129.3 c 1.8,0.1 4,0.2 5.3,0.4 10,-0.8 31.1,0.7 33.7,-0.6 -9.3,-0.6 -24.3,-0.3 -36.5,-0.8 0.1,0.4 -4.3,0.5 -2.5,1.1 z"
       id="path78" />
    <path
       class="cls-1"
       d="m 545.1,129.4 c -1.3,0.3 -6.5,0.3 -5.1,0.9 4.8,0.4 8.4,-0.2 15.6,-0.1 10.7,0.1 21,1.1 22,-0.4 -9.6,-0.9 -21.8,-0.2 -32.6,-0.4 z"
       id="path80" />
    <path
       class="cls-1"
       d="m 620.7,130.7 c 1.9,0 3.2,0.2 3.9,0.4 7.4,0 14.1,0 16.8,-0.5 -7.1,-0.3 -21.3,-1.3 -20.8,0.1 z"
       id="path82" />
  </g>
  <g
     id="g100"
     transform="translate(0.33190909,33.821647)">
    <path
       class="cls-1"
       d="m 614.9,156.7 c -16.6,-0.3 -39.9,-0.7 -55.4,-0.3 -0.5,-0.5 -6,-0.3 -7.9,-0.3 -9,-0.2 -13.8,0 -21.1,0 -24.6,0 -50.8,-0.6 -76.5,-0.8 -13.3,-0.1 -24.5,-0.2 -35.6,-0.4 -7.5,0 -14.8,0 -22.4,0 -10.8,0 -21.2,-0.4 -31.7,-0.4 -29.2,0 -60.2,0 -88.3,0.1 -4.3,0 -8.6,-0.2 -13.2,-0.2 -9.2,0 -17.6,0.4 -25.1,-0.1 -4.8,0.4 -11.6,0.3 -17.1,0.3 -27,0.1 -56.2,0.6 -84.5,1 -28.3,0.4 -55.7,0.9 -79.1,1.3 -2.8,0.2 -3.8,0.5 -7.8,0.6 -5.2,0 -10.2,0 -15.9,0 -9.3,0.8 -25.8,1.2 -26.1,2.5 5.3,-0.2 2.1,0.6 8,0.3 6.3,-0.2 5.8,-0.8 11.7,-1.1 12.9,-0.7 22.2,-0.8 34.3,-1.1 7,-0.2 14.3,-0.6 19.8,-0.6 2,0 5.8,0.1 7.9,0 4.8,-0.1 8.4,-0.4 13.2,-0.5 5.4,0 10.5,0 15.9,0 12.2,-0.2 21.9,-0.4 30.3,-0.5 3.2,0 6.2,-0.3 9.2,-0.4 6.6,-0.1 12.3,0 18.5,0 8,-0.1 16,-0.5 23.7,-0.6 11,-0.1 21.9,-0.1 32.9,0 11,0 22,0.1 33.1,0 6.6,0 13.1,-0.3 19.7,-0.3 2.6,0 5.3,0.2 7.9,0.2 4.5,0 8.6,-0.2 13.2,-0.2 10.8,0 22.3,0.2 33,0.3 11.4,0 22.8,-0.2 34.3,-0.1 8.3,0 17.2,0.3 26.4,0.4 15,0.1 30.7,0 43.5,0.5 3,-0.1 13.5,0.1 18.4,-0.1 16.1,0.6 34,0.3 52.8,0.5 3.6,0 6.8,0.3 10.6,0.3 5.7,0 13.1,0 19.8,0 7.6,0 14.8,0 22.4,0 5.9,0 11.6,0.3 17.2,0.4 3.7,0 7.7,-0.2 11.8,-0.1 4.3,0 9.1,0.3 13.2,0.3 5.2,0 9.7,-0.2 14.5,-0.1 13,0 38,0.8 40.8,-0.2 -14.2,-0.5 -31.7,-0.4 -50.1,-0.7 z"
       id="path86" />
    <path
       class="cls-1"
       d="m 182.8,158.4 c -26,0.4 -53,0.8 -80.4,1.2 -9.2,0.2 -18.5,0.4 -27.3,0.6 -8.8,0.2 -17,0.4 -24.2,0.5 -9.5,0.7 -25.3,0.3 -26.2,1.9 4.9,0.4 10.8,-0.2 17.1,-0.4 9.2,-0.3 20,-0.3 29,-0.7 2.1,0 4.1,-0.3 6.5,-0.4 11.2,-0.3 25.4,-0.6 34.3,-0.5 15.3,-0.7 40.9,-0.5 61.9,-0.9 5,0 14.1,-0.1 15.7,-0.8 0.4,-0.5 -6.4,-0.2 -6.7,-0.5 z"
       id="path88" />
    <path
       class="cls-1"
       d="m 258,158.2 c -10.2,0.9 -28.8,0 -35.4,1.3 12.5,0.9 32.9,-0.2 47.4,-0.2 6.7,0 9.4,0.2 14.6,0.3 2.3,-0.2 7.8,-0.2 6.5,-0.7 -5.4,-0.7 -22.4,-0.4 -33.1,-0.7 z"
       id="path90" />
    <path
       class="cls-1"
       d="m 347.8,158.9 c -1,0 -1.5,0 -1.3,0.2 0,0.2 3.6,0.2 2.7,0.5 18.3,0.2 32.5,0.4 48.8,0.4 1.2,-0.6 -2.8,-0.7 -4.1,-1.1 -17.3,0.2 -29.3,-0.1 -46.1,0 z"
       id="path92" />
    <path
       class="cls-1"
       d="m 470.5,160.5 c 1.8,0.1 4,0.2 5.3,0.4 10.2,-0.8 31.5,0.8 34.2,-0.6 -9.4,-0.6 -24.6,-0.3 -37,-0.9 0.1,0.4 -4.4,0.4 -2.5,1.1 z"
       id="path94" />
    <path
       class="cls-1"
       d="m 557.4,160.7 c -1.3,0.3 -6.6,0.3 -5.1,0.9 4.9,0.4 8.6,-0.2 15.8,-0.1 10.9,0.1 21.2,1 22.3,-0.4 -9.7,-0.9 -22.1,-0.2 -33,-0.4 z"
       id="path96" />
    <path
       class="cls-1"
       d="m 634,161.9 c 1.9,0 3.2,0.2 4,0.4 7.5,0 14.2,-0.1 17.1,-0.6 -7.2,-0.3 -21.6,-1.2 -21,0.2 z"
       id="path98" />
  </g>
  <g
     id="g116"
     transform="translate(0.33190909,33.821647)">
    <path
       class="cls-1"
       d="M 611.6,187.4 C 594.9,187 571.5,186.6 556,187 c -0.5,-0.5 -6,-0.3 -8,-0.3 -9,-0.2 -13.8,0 -21.2,0 -24.7,0 -51,-0.6 -76.9,-0.7 -13.3,0 -24.6,-0.2 -35.8,-0.2 -7.6,0 -14.8,0.1 -22.5,0 -10.8,0 -21.3,-0.3 -31.8,-0.3 -29.4,0.1 -60.5,0.2 -88.7,0.3 -4.3,0 -8.6,-0.2 -13.3,-0.2 -9.3,0 -17.7,0.4 -25.2,-0.1 -4.8,0.5 -11.7,0.3 -17.2,0.3 -54.2,0.2 -117.4,1.1 -164.3,0.9 -2.8,0.1 -3.9,0.4 -7.9,0.4 -5.2,0 -10.3,-0.1 -16,-0.2 -9.3,0.6 -25.9,0.7 -26.2,2 5.3,-0.1 2.1,0.7 8,0.5 6.4,0 5.9,-0.7 11.8,-0.9 13,-0.4 22.3,-0.4 34.4,-0.5 7,0 14.4,-0.3 19.9,-0.3 2,0 5.8,0.2 8,0.2 4.8,0 8.4,-0.3 13.2,-0.4 5.5,0 10.6,0.1 15.9,0 12.2,0 22,-0.1 30.5,-0.2 3.2,0 6.2,-0.3 9.2,-0.3 6.7,0 12.4,0.2 18.6,0.1 8,0 16.1,-0.4 23.8,-0.5 22.1,-0.2 44,0.1 66.3,0 6.7,0 13.2,-0.3 19.8,-0.3 2.6,0 5.4,0.2 8,0.2 4.5,0 8.6,-0.2 13.2,-0.3 10.9,0 22.4,0.2 33.1,0.2 11.4,0 22.9,-0.2 34.4,-0.2 8.3,0 17.3,0.2 26.5,0.3 15.1,0 30.8,0 43.7,0.4 3.1,-0.1 13.5,0 18.5,-0.2 16.2,0.6 34.1,0.2 53,0.4 3.6,0 6.8,0.3 10.6,0.3 5.7,0 13.2,0 19.9,0 7.6,0 14.9,0 22.5,0 5.9,0 11.6,0.3 17.2,0.4 3.7,0 7.7,-0.2 11.9,-0.1 4.4,0 9.1,0.3 13.3,0.4 5.2,0 9.7,-0.1 14.5,0 13,0.1 38.2,1 41,0 -14.2,-0.6 -31.9,-0.5 -50.4,-0.9 z"
       id="path102" />
    <path
       class="cls-1"
       d="m 177.6,189.5 c -26.1,0.4 -53.2,0.4 -80.8,0.6 -18.6,0.1 -37.3,0.6 -51.7,0.4 -9.6,0.6 -25.4,-0.1 -26.3,1.4 4.9,0.5 10.9,0 17.2,0 9.2,-0.2 20.1,0 29.2,-0.2 2.2,0 4.2,-0.3 6.6,-0.3 11.3,-0.2 25.5,-0.3 34.5,0 15.4,-0.5 41.1,-0.1 62.2,-0.5 5.1,0 14.1,0 15.8,-0.7 0.5,-0.4 -6.4,-0.2 -6.7,-0.6 z"
       id="path104" />
    <path
       class="cls-1"
       d="m 253.1,189.4 c -10.3,0.9 -28.9,0.1 -35.6,1.2 12.6,0.9 33,-0.2 47.7,-0.2 6.8,0 9.4,0.2 14.6,0.3 2.4,-0.2 7.8,-0.2 6.5,-0.7 -5.4,-0.7 -22.5,-0.4 -33.2,-0.6 z"
       id="path106" />
    <path
       class="cls-1"
       d="m 343.2,189.9 c -1,0 -1.5,0 -1.3,0.2 0,0.2 3.6,0.2 2.7,0.5 18.4,0.2 32.6,0.3 49,0.3 1.2,-0.6 -2.8,-0.7 -4.1,-1.1 -17.4,0.3 -29.5,0 -46.3,0 z"
       id="path108" />
    <path
       class="cls-1"
       d="m 466.5,191.2 c 1.8,0.1 4,0.2 5.4,0.4 10.2,-0.8 31.7,0.7 34.3,-0.6 -9.4,-0.6 -24.7,-0.3 -37.2,-0.8 0.1,0.4 -4.4,0.5 -2.5,1.1 z"
       id="path110" />
    <path
       class="cls-1"
       d="m 553.9,191.3 c -1.3,0.3 -6.7,0.3 -5.2,0.9 4.9,0.4 8.6,-0.2 15.9,-0.1 10.9,0.1 21.3,1 22.4,-0.4 -9.8,-0.9 -22.2,-0.2 -33.1,-0.4 z"
       id="path112" />
    <path
       class="cls-1"
       d="m 630.8,192.6 c 1.9,0 3.3,0.2 4,0.4 7.5,0 14.3,0 17.1,-0.5 -7.2,-0.3 -21.7,-1.3 -21.1,0.1 z"
       id="path114" />
  </g>
  <g
     id="g132"
     transform="translate(0.33190909,33.821647)">
    <path
       class="cls-1"
       d="m 619.3,221.2 c -16.6,-0.2 -40.1,-0.4 -55.6,0.1 -0.5,-0.5 -6,-0.2 -8,-0.2 -9,0 -13.8,0 -21.2,0.1 -24.7,0.2 -50.9,-0.3 -76.8,-0.2 -13.3,0 -24.6,0 -35.7,-0.1 -7.5,0 -14.8,0.1 -22.5,0.1 -10.8,0 -21.3,-0.3 -31.8,-0.2 -29.3,0 -60.4,0.3 -88.6,0.3 -4.3,0 -8.6,-0.2 -13.3,-0.2 -9.2,0 -17.7,0.4 -25.2,-0.2 -4.8,0.4 -11.7,0.2 -17.2,0.2 -54.1,0 -117.2,0.4 -164.1,-0.3 -2.8,0.1 -3.9,0.4 -7.9,0.4 -5.2,-0.1 -10.3,-0.3 -15.9,-0.4 -9.3,0.5 -25.9,0.4 -26.2,1.7 5.3,0 2.1,0.7 8,0.6 6.4,0 5.9,-0.7 11.8,-0.7 13,-0.3 22.3,-0.1 34.4,-0.1 7,0 14.3,-0.2 19.8,-0.1 2,0 5.8,0.2 8,0.2 4.8,0 8.4,-0.3 13.2,-0.2 5.5,0 10.6,0.2 15.9,0.2 12.2,0 22,0 30.4,0 3.2,0 6.2,-0.2 9.2,-0.2 6.6,0 12.4,0.3 18.5,0.2 8,0 16.1,-0.3 23.8,-0.4 22.1,-0.1 43.9,0.3 66.2,0.3 6.7,0 13.1,-0.2 19.8,-0.2 2.6,0 5.4,0.2 8,0.2 4.5,0 8.6,-0.2 13.2,-0.2 10.8,0 22.4,0.2 33.1,0.2 11.4,0 22.9,-0.3 34.4,-0.2 8.3,0 17.3,0.2 26.5,0.2 15,0 30.8,-0.1 43.7,0.2 3.1,-0.2 13.5,0 18.5,-0.2 16.2,0.5 34.1,0 52.9,0.1 3.6,0 6.8,0.2 10.6,0.2 5.7,0 13.2,0 19.8,-0.1 7.6,0 14.9,-0.2 22.5,-0.1 5.9,0 11.6,0.2 17.2,0.2 3.7,0 7.7,-0.3 11.9,-0.2 4.4,0 9.1,0.3 13.3,0.2 5.2,0 9.7,-0.2 14.5,-0.2 13,0 38.1,0.5 40.9,-0.5 -14.2,-0.4 -31.8,-0.2 -50.3,-0.4 z"
       id="path118" />
    <path
       class="cls-1"
       d="m 185.7,224.3 c -26.1,0.2 -53.1,0 -80.7,0 -18.5,0 -37.3,0.2 -51.6,-0.1 -9.6,0.5 -25.4,-0.4 -26.3,1.1 4.9,0.6 10.9,0.1 17.2,0.1 9.2,0 20.1,0.2 29.1,0.1 2.2,0 4.2,-0.2 6.6,-0.2 11.3,0 25.5,0 34.4,0.2 15.4,-0.4 41.1,0.2 62.2,0 5.1,0 14.1,0 15.8,-0.6 0.5,-0.4 -6.4,-0.2 -6.7,-0.6 z"
       id="path120" />
    <path
       class="cls-1"
       d="m 261.1,224.5 c -10.3,0.9 -28.9,0 -35.6,1.1 12.5,0.9 33,0 47.6,0 6.7,0 9.4,0.3 14.6,0.4 2.4,-0.2 7.8,-0.2 6.5,-0.7 -5.4,-0.8 -22.5,-0.4 -33.2,-0.7 z"
       id="path122" />
    <path
       class="cls-1"
       d="m 351.2,225.2 c -1,0 -1.5,0.1 -1.3,0.2 0,0.2 3.6,0.2 2.7,0.5 18.3,0.2 32.6,0.3 49,0.2 1.2,-0.6 -2.8,-0.7 -4.1,-1.1 -17.4,0.3 -29.4,0 -46.3,0.1 z"
       id="path124" />
    <path
       class="cls-1"
       d="m 474.4,226.1 c 1.8,0.1 4,0.2 5.4,0.4 10.2,-0.8 31.7,0.5 34.3,-0.8 -9.4,-0.5 -24.7,-0.2 -37.1,-0.6 0.1,0.4 -4.4,0.5 -2.5,1.1 z"
       id="path126" />
    <path
       class="cls-1"
       d="m 561.6,225.6 c -1.3,0.4 -6.7,0.4 -5.2,1 4.9,0.4 8.6,-0.3 15.9,-0.2 10.9,0 21.3,0.9 22.4,-0.6 -9.8,-0.8 -22.2,0 -33.1,-0.1 z"
       id="path128" />
    <path
       class="cls-1"
       d="m 638.5,226.2 c 1.9,0 3.3,0.2 4,0.4 7.5,0 14.3,-0.2 17.1,-0.7 -7.2,-0.2 -21.7,-1.1 -21.1,0.4 z"
       id="path130" />
  </g>
  <g
     id="g148"
     transform="translate(0.33190909,33.821647)">
    <path
       class="cls-1"
       d="m 624.9,253.8 c -16.8,-0.1 -40.4,-0.2 -56.1,0.3 -0.5,-0.5 -6.1,-0.2 -8,-0.2 -9.1,0 -14,0.1 -21.4,0.2 -24.9,0.2 -51.4,-0.2 -77.5,-0.1 -13.4,0 -24.8,0 -36.1,-0.1 -7.6,0 -15,0.1 -22.7,0 -10.9,0 -21.4,-0.3 -32.1,-0.3 -29.6,0 -60.9,0.2 -89.4,0 -4.4,0 -8.7,-0.3 -13.4,-0.3 -9.3,0 -17.9,0.3 -25.4,-0.4 -4.8,0.4 -11.8,0.2 -17.3,0.2 -54.6,-0.3 -118.3,-0.4 -165.6,-1.6 -2.8,0 -3.9,0.3 -8,0.3 -5.2,-0.2 -10.4,-0.4 -16.1,-0.5 -9.4,0.4 -26.1,0.1 -26.5,1.4 5.4,0 2.1,0.7 8.1,0.7 6.4,0 6,-0.6 11.9,-0.6 13.1,-0.1 22.5,0.1 34.7,0.2 7.1,0 14.5,0 20,0 2,0 5.9,0.3 8,0.3 4.8,0 8.5,-0.2 13.3,-0.1 5.5,0 10.7,0.3 16.1,0.4 12.3,0.1 22.2,0.2 30.7,0.2 3.3,0 6.3,-0.2 9.3,-0.2 6.7,0 12.5,0.3 18.7,0.4 8.1,0 16.2,-0.2 24,-0.2 22.3,0 44.3,0.6 66.8,0.7 6.7,0 13.3,-0.2 20,-0.2 2.6,0 5.4,0.3 8,0.3 4.6,0 8.7,-0.2 13.3,-0.2 10.9,0 22.6,0.3 33.4,0.3 11.5,0 23.1,-0.2 34.7,-0.2 8.4,0 17.4,0.2 26.7,0.3 15.2,0 31.1,-0.1 44.1,0.3 3.1,-0.2 13.6,0 18.7,-0.2 16.3,0.5 34.4,0 53.4,0 3.7,0 6.9,0.2 10.7,0.2 5.8,0 13.3,-0.1 20,-0.2 7.6,0 15,-0.2 22.7,-0.2 6,0 11.7,0.2 17.4,0.2 3.7,0 7.8,-0.3 12,-0.3 4.4,0 9.2,0.2 13.4,0.2 5.2,0 9.8,-0.3 14.6,-0.3 13.1,-0.1 38.5,0.3 41.3,-0.7 -14.3,-0.4 -32.1,0 -50.8,-0.1 z"
       id="path134" />
    <path
       class="cls-1"
       d="m 187.3,256.4 c -26.4,0 -53.6,-0.3 -81.4,-0.6 -18.7,-0.2 -37.6,-0.2 -52.1,-0.6 -9.7,0.4 -25.6,-0.7 -26.6,0.8 4.9,0.6 11,0.3 17.4,0.3 9.3,0 20.3,0.4 29.4,0.4 2.2,0 4.2,-0.2 6.6,-0.2 11.4,0 25.8,0.2 34.8,0.5 15.6,-0.2 41.5,0.5 62.8,0.5 5.1,0 14.2,0 15.9,-0.5 0.5,-0.4 -6.5,-0.3 -6.8,-0.6 z"
       id="path136" />
    <path
       class="cls-1"
       d="m 263.4,257 c -10.4,0.8 -29.1,-0.1 -35.9,0.9 12.7,1 33.3,0.2 48,0.2 6.8,0 9.5,0.3 14.8,0.4 2.4,-0.2 7.9,-0.1 6.6,-0.7 -5.5,-0.8 -22.7,-0.5 -33.5,-0.9 z"
       id="path138" />
    <path
       class="cls-1"
       d="m 354.3,258.1 c -1,0 -1.5,0 -1.3,0.2 0,0.2 3.7,0.2 2.7,0.5 18.5,0.2 32.9,0.3 49.4,0.3 1.2,-0.6 -2.8,-0.7 -4.1,-1.1 -17.6,0.3 -29.7,0 -46.7,0 z"
       id="path140" />
    <path
       class="cls-1"
       d="m 478.6,259.1 c 1.8,0.1 4.1,0.2 5.4,0.4 10.3,-0.9 32,0.5 34.6,-0.9 -9.5,-0.5 -24.9,-0.1 -37.5,-0.6 0.1,0.4 -4.4,0.5 -2.5,1.1 z"
       id="path142" />
    <path
       class="cls-1"
       d="m 566.7,258.5 c -1.4,0.4 -6.7,0.4 -5.2,1 4.9,0.4 8.7,-0.3 16,-0.3 11,0 21.5,0.8 22.6,-0.7 -9.9,-0.8 -22.4,0 -33.4,0 z"
       id="path144" />
    <path
       class="cls-1"
       d="m 644.3,258.8 c 1.9,0 3.3,0.2 4,0.3 7.6,-0.1 14.4,-0.3 17.3,-0.8 -7.3,-0.2 -21.9,-1 -21.3,0.5 z"
       id="path146" />
  </g>
</svg>
