<?xml version="1.0" encoding="UTF-8" standalone="no"?>
<svg
   height="533.33331"
   width="756.99182"
   viewBox="-35.20005 -41.33325 192.44442 165.33299"
   version="1.1"
   id="svg4"
   sodipodi:docname="YouTube.svg"
   inkscape:version="1.1.2 (1:1.1+202202050852+0a00cf5339)"
   xmlns:inkscape="http://www.inkscape.org/namespaces/inkscape"
   xmlns:sodipodi="http://sodipodi.sourceforge.net/DTD/sodipodi-0.dtd"
   xmlns="http://www.w3.org/2000/svg"
   xmlns:svg="http://www.w3.org/2000/svg">
  <defs
     id="defs8" />
  <sodipodi:namedview
     id="namedview6"
     pagecolor="#ffffff"
     bordercolor="#666666"
     borderopacity="1.0"
     inkscape:pageshadow="2"
     inkscape:pageopacity="0.0"
     inkscape:pagecheckerboard="0"
     showgrid="false"
     fit-margin-top="0"
     fit-margin-left="0"
     fit-margin-right="0"
     fit-margin-bottom="0"
     inkscape:snap-page="false"
     inkscape:zoom="0.63551222"
     inkscape:cx="103.06647"
     inkscape:cy="417.77324"
     inkscape:window-width="1856"
     inkscape:window-height="1016"
     inkscape:window-x="1984"
     inkscape:window-y="27"
     inkscape:window-maximized="1"
     inkscape:current-layer="svg4" />
  <path
     d="M 37.18314,76.764887 V 6.9808854 L 98.517144,41.873887 Z m 136.42999,-91.742 c -2.699,-10.162 -10.651,-18.165 -20.747,-20.881 -18.3,-4.936 -91.68299,-4.936 -91.68299,-4.936 0,0 -73.382,0 -91.682,4.936 -10.096,2.716 -18.048,10.719 -20.747,20.881 -4.904,18.4189984 -4.904,56.85 -4.904,56.85 0,0 0,38.429 4.904,56.849 2.699,10.163003 10.65,18.165003 20.747,20.883003 18.3,4.934 91.682,4.934 91.682,4.934 0,0 73.38299,0 91.68299,-4.934 10.096,-2.718 18.048,-10.72 20.747,-20.883003 4.904,-18.42 4.904,-56.85 4.904,-56.85 0,0 0,-38.4300016 -4.904,-56.849"
     fill="#ffffff"
     id="path2" />
</svg>
