<?xml version="1.0" encoding="UTF-8" standalone="no"?>
<!-- Created with Inkscape (http://www.inkscape.org/) -->

<svg
   width="50.535789mm"
   height="43.242645mm"
   viewBox="0 0 50.53579 43.242645"
   version="1.1"
   id="svg1424"
   inkscape:version="1.1.2 (1:1.1+202202050852+0a00cf5339)"
   sodipodi:docname="leaf1.svg"
   xmlns:inkscape="http://www.inkscape.org/namespaces/inkscape"
   xmlns:sodipodi="http://sodipodi.sourceforge.net/DTD/sodipodi-0.dtd"
   xmlns="http://www.w3.org/2000/svg"
   xmlns:svg="http://www.w3.org/2000/svg">
  <sodipodi:namedview
     id="namedview1426"
     pagecolor="#ffffff"
     bordercolor="#666666"
     borderopacity="1.0"
     inkscape:pageshadow="2"
     inkscape:pageopacity="0.0"
     inkscape:pagecheckerboard="0"
     inkscape:document-units="mm"
     showgrid="false"
     fit-margin-top="0"
     fit-margin-left="0"
     fit-margin-right="0"
     fit-margin-bottom="0"
     inkscape:zoom="2.5620932"
     inkscape:cx="63.815009"
     inkscape:cy="118.45783"
     inkscape:window-width="1856"
     inkscape:window-height="1016"
     inkscape:window-x="1984"
     inkscape:window-y="27"
     inkscape:window-maximized="1"
     inkscape:current-layer="layer1" />
  <defs
     id="defs1421">
    <clipPath
       clipPathUnits="userSpaceOnUse"
       id="clipPath22">
      <path
         d="m 599.137,3471.36 c 38.629,-6.52 79.593,1.96 112.461,23.27 -2.364,-7.69 3.851,-16.01 11.511,-18.47 7.661,-2.47 16.036,-0.5 23.555,2.39 12.754,4.87 24.508,12.35 34.328,21.84 10.821,-5.36 7.324,-24.15 17.641,-30.42 4.332,-2.64 9.82,-2.14 14.82,-1.31 20.32,3.39 39.945,10.88 57.348,21.91 -4.496,-7.05 -6.879,-15.44 -6.77,-23.81 55.157,10.68 106.774,42.69 145.809,83.08 -21.356,-40.21 -43.371,-83.83 -37.32,-128.96 70.35,61.1 132.47,131.66 184.18,209.17 8.33,-50.72 12.26,-102.17 11.75,-153.57 -0.55,-54.09 -5.98,-108.61 2.85,-161.97 11.73,3.14 22.7,9.05 31.78,17.1 -1.98,80.79 -7.51,161.5 -16.58,241.8 -1.51,13.46 -3.24,27.27 -9.59,39.25 1.16,-8.57 7.83,-15.23 14.4,-20.84 23.99,-20.52 51.49,-36.44 78.82,-52.23 32.76,-18.93 66.53,-38.2 103.95,-43.78 22.13,-3.31 47.01,5.74 69.32,7.39 -20.65,8.94 -28.69,33.2 -40.03,52.63 -13.84,23.7 -35.52,42.74 -60.82,53.39 24.22,9.35 50.37,8.69 76.61,8.03 13.24,-0.33 26.5,-0.67 39.56,0.28 32.75,2.39 65.3,12.98 97.82,8.46 -10.37,8.98 -17.17,21.98 -18.64,35.62 43.79,11.99 85.8,30.45 124.25,54.59 8.15,5.11 16.98,11.84 17.62,21.44 51.66,-7.1 102.35,15.16 149.76,36.89 -39.09,-4.64 -76.5,14.58 -114.74,23.94 -15.59,3.81 -31.32,6.5 -47.36,5.93 6.81,10.23 11.46,21.9 13.53,34.02 -6.48,-9.88 -19.43,-12.73 -31.06,-14.77 -21.94,-3.83 -43.88,-7.66 -65.82,-11.5 -0.26,9.34 -1.52,18.65 -3.76,27.72 -12.59,-4.29 -27.37,-8.34 -38.43,-0.93 -2.44,1.64 -4.67,3.82 -7.54,4.49 -2.71,0.62 -5.52,-0.23 -8.17,-1.09 -24.93,-8.12 -49.33,-17.87 -72.99,-29.18 0.06,12.3 -2.16,24.61 -6.5,36.12 -60.39,-27.06 -116.9,-62.76 -167.29,-105.65 12.86,20.68 23.53,43.11 40.48,60.6 10.48,10.8 23.01,19.34 34.89,28.57 56.87,44.12 100.06,105.62 122.27,174.08 -8.82,-2.75 -21.13,-5.59 -29.75,-2.27 18.41,5.51 32.76,20.37 42.45,36.96 9.68,16.61 15.45,35.13 22.37,53.06 8.84,22.89 19.65,44.96 28.78,67.73 -14.73,-9.46 -37.96,-7.12 -49.26,6.25 9.53,1.32 16.7,9.24 22.12,17.19 20.78,30.5 28.45,69.63 20.75,105.72 -5.03,-8.8 -13.77,-15.4 -23.61,-17.83 15.36,33.89 30.73,67.77 46.09,101.65 -9.02,-2.42 -14.69,11.05 -10.87,19.58 3.82,8.52 12.24,14.16 16.71,22.36 6.67,12.23 3.34,27.16 2.87,41.08 -1.05,31.21 13.14,63.24 3.31,92.87 -12.37,-18.01 -24.75,-36.02 -37.12,-54.02 -21.29,-30.98 -43.5,-65.07 -41.28,-102.59 -5.91,10.39 -11.81,20.78 -17.71,31.18 -14.49,-47.17 -30.77,-93.79 -48.79,-139.73 -8.1,12.25 -15.94,24.68 -23.5,37.27 -12.76,-21.21 -25.53,-42.42 -38.29,-63.63 -3.68,7.28 -6.37,15.05 -7.98,23.04 -13.36,-29.56 -27.16,-58.91 -41.4,-88.05 -3.62,10.04 -7.25,20.07 -10.87,30.12 -33.9,-75.69 -93.87,-140.19 -111.89,-221.13 -6.78,13.54 -12.75,27.96 -13.08,43.1 -0.3,13.72 4.06,27.06 6.56,40.56 5.54,29.86 1.84,61.36 -10.47,89.13 -5.05,-2.89 -10.1,-5.77 -15.16,-8.66 0.83,33.48 -2.36,67.06 -9.48,99.77 -4.6,-7.89 -9.19,-15.79 -13.78,-23.68 -6.28,34.64 -20.03,67.92 -40.05,96.88 -4.96,-8.88 -9.92,-17.76 -14.88,-26.65 -8.1,40.81 -14.96,81.85 -20.57,123.07 -9.11,-3.31 -17.3,-9.16 -23.37,-16.72 5.37,24.69 -6.14,48.81 -14.33,72.72 -7.29,21.27 -14.58,42.54 -21.869,63.82 -1.675,-5.29 -3.347,-10.57 -5.023,-15.84 -19.996,29.95 -36.051,62.54 -47.621,96.64 -2.832,-39.17 -0.438,-78.7 7.101,-117.24 -10.156,3.04 -18.046,12.55 -19.152,23.1 1.453,-32.63 8.012,-65.02 19.359,-95.64 -8.921,6.18 -17.847,12.36 -26.765,18.54 9.906,-33.53 21.902,-66.44 35.887,-98.47 -7.383,6.88 -14.774,13.76 -22.153,20.63 -6.543,-48.58 -3.961,-98.37 7.574,-146.02 -13.765,8.38 -27.011,17.63 -39.632,27.66 5.078,-55.1 15.351,-109.71 30.652,-162.89 -14.875,-1.94 -30.559,4.2 -40.152,15.73 9.535,-51.78 33.089,-100.92 67.492,-140.78 10.558,-12.24 22.199,-23.73 30.512,-37.6 15.13,-25.26 17.92,-56.15 31.27,-82.39 -13.35,10.56 -20.62,25.42 -31.575,38.44 -10.281,12.22 -23.055,22.04 -35.723,31.77 -44.762,34.37 -89.519,68.74 -134.285,103.11 8.691,-10.82 5.844,-28.91 -5.746,-36.55 -23.648,32.9 -72.828,30.75 -108.668,49.64 5.02,-1.94 4.52,-10.04 0.187,-13.23 -4.324,-3.2 -10.281,-2.79 -15.57,-1.81 -15.113,2.81 -29.547,9.17 -41.808,18.44 -13.903,10.5 -25.86,25.07 -42.809,29.11 0.469,-7.45 0.937,-14.9 1.398,-22.36 -23.41,13.93 -47.793,26.25 -72.902,36.82 1.156,-3.97 2.32,-7.95 3.477,-11.92 -27.414,26.4 -54.828,52.81 -82.243,79.22 -0.062,-46.42 15.356,-92.73 43.227,-129.84 -7.453,1.93 -14.914,3.87 -22.379,5.8 28.367,-23.65 55.024,-49.36 79.688,-76.85 -8.266,-3.6 -17.254,-5.53 -26.266,-5.64 29.262,-20.43 60.344,-38.24 92.758,-53.16 -9.207,-6.69 -19.875,-11.35 -31.031,-13.56 20.093,-9.8 35.195,-27.24 52.656,-41.2 17.461,-13.95 40.375,-24.91 61.719,-18.27 -7.848,-9.77 -19.59,-16.32 -32.028,-17.86 53.219,-25.14 89.457,-38.83 143.203,-62.83 49.703,-22.2 96.793,-26.62 146.801,-48.12 -57.25,-38.45 -130.277,-28.87 -196.262,-48.91 6.235,-6.37 15.45,-9.69 24.313,-8.76 -21.379,-11.62 -41.844,-24.94 -61.129,-39.78 -4.59,-3.54 -9.289,-7.37 -11.613,-12.68 -2.114,-4.81 -2.153,-10.59 -5.461,-14.67 -2.684,-3.3 -6.957,-4.79 -10.992,-6.11 -18.2,-5.98 -36.399,-11.96 -54.594,-17.94 1.84,-5.85 6.14,-10.87 11.633,-13.6 -28.133,-17.97 -50.914,-39.05 -67.879,-67.8"
         id="path20" />
    </clipPath>
  </defs>
  <g
     inkscape:label="Layer 1"
     inkscape:groupmode="layer"
     id="layer1"
     transform="translate(-233.23285,-66.192738)">
    <g
       id="g897"
       transform="rotate(38.801865,259.41044,88.810863)">
      <path
         d="m 240.11278,106.58626 c 1.36275,0.23001 2.80776,-0.0691 3.96724,-0.82091 -0.0832,0.27129 0.13589,0.56444 0.40611,0.65158 0.27037,0.0871 0.56597,0.0173 0.83097,-0.0843 0.44993,-0.17216 0.86459,-0.43568 1.21116,-0.77047 0.3817,0.18909 0.25837,0.85196 0.62219,1.07315 0.15283,0.0931 0.34643,0.0755 0.52296,0.0462 0.7167,-0.11959 1.40917,-0.38417 2.02293,-0.77329 -0.15846,0.24907 -0.24253,0.54505 -0.23851,0.84032 1.94564,-0.37677 3.76643,-1.50601 5.14371,-2.93088 -0.75328,1.41852 -1.53024,2.95734 -1.31678,4.54943 2.48201,-2.15548 4.67346,-4.64468 6.49768,-7.37906 0.29386,1.78929 0.4325,3.60433 0.41451,5.41761 -0.0194,1.90782 -0.21096,3.83152 0.10054,5.71394 0.41346,-0.11077 0.80081,-0.31926 1.12113,-0.6036 -0.0698,-2.84974 -0.26493,-5.69701 -0.5849,-8.52981 -0.0533,-0.4752 -0.1143,-0.96238 -0.33832,-1.38466 0.0409,0.30198 0.27623,0.53693 0.508,0.73519 0.84632,0.7239 1.81645,1.28552 2.7806,1.84256 1.1557,0.66781 2.34667,1.34761 3.66712,1.54446 0.7807,0.11677 1.65841,-0.20285 2.44546,-0.2607 -0.72849,-0.31574 -1.01212,-1.17122 -1.41252,-1.85667 -0.4879,-0.83644 -1.25272,-1.50777 -2.14525,-1.88348 0.85443,-0.32985 1.77695,-0.30657 2.70299,-0.28328 0.46672,0.0116 0.93486,0.0233 1.39523,-0.0102 1.15535,-0.084 2.30364,-0.45791 3.45088,-0.2981 -0.36583,-0.31679 -0.60608,-0.77541 -0.65758,-1.256594 1.54446,-0.422981 3.02683,-1.074209 4.38326,-1.925814 0.28752,-0.18027 0.59867,-0.417689 0.62124,-0.756356 1.82281,0.250472 3.61068,-0.534811 5.28356,-1.301397 -1.37901,0.163689 -2.69875,-0.51435 -4.04742,-0.84455 -0.55034,-0.134761 -1.10526,-0.229306 -1.67146,-0.209197 0.24059,-0.360892 0.40428,-0.772584 0.47766,-1.200151 -0.22896,0.348545 -0.68545,0.449087 -1.09573,0.5207 -0.774,0.135467 -1.54799,0.270581 -2.32234,0.406048 -0.009,-0.329495 -0.0533,-0.657931 -0.13229,-0.9779 -0.4445,0.150989 -0.96555,0.293864 -1.35572,0.03281 -0.0864,-0.05786 -0.16475,-0.134761 -0.266,-0.158397 -0.0956,-0.02222 -0.19508,0.0081 -0.28822,0.03845 -0.87983,0.286455 -1.74025,0.630413 -2.57492,1.029405 0.002,-0.433917 -0.0766,-0.868186 -0.22966,-1.274586 -2.13007,0.95497 -4.12362,2.214386 -5.90127,3.72745 0.45367,-0.729544 0.83009,-1.520825 1.42805,-2.137833 0.36935,-0.381 0.81139,-0.682273 1.23084,-1.007886 2.00625,-1.556456 3.52989,-3.72604 4.31341,-6.141509 -0.31115,0.09737 -0.74542,0.197555 -1.04986,0.08008 0.64981,-0.194027 1.15605,-0.718255 1.49789,-1.303866 0.34149,-0.585259 0.54469,-1.239309 0.78881,-1.871487 0.31186,-0.807155 0.69356,-1.586089 1.01565,-2.389364 -0.51964,0.333728 -1.33915,0.251178 -1.73814,-0.220133 0.33655,-0.04692 0.58949,-0.326319 0.78035,-0.606778 0.73342,-1.076325 1.004,-2.456039 0.73201,-3.729567 -0.17709,0.310445 -0.48542,0.543278 -0.83255,0.62865 0.54186,-1.195211 1.08373,-2.390422 1.62595,-3.585986 -0.31821,0.08572 -0.51859,-0.389819 -0.38382,-0.690386 0.13511,-0.300567 0.4318,-0.499533 0.58984,-0.788811 0.2353,-0.431448 0.11783,-0.958145 0.10125,-1.449564 -0.0374,-1.100667 0.46355,-2.230614 0.11677,-3.275895 -0.43674,0.635 -0.87313,1.270353 -1.30987,1.905706 -0.75071,1.092553 -1.53423,2.295525 -1.45626,3.619147 -0.20814,-0.366536 -0.41663,-0.733425 -0.62477,-1.099961 -0.51118,1.664053 -1.08515,3.308703 -1.72085,4.929364 -0.28575,-0.432505 -0.56233,-0.870655 -0.82903,-1.315155 -0.45015,0.748241 -0.90064,1.496836 -1.35114,2.245078 -0.12947,-0.256823 -0.22437,-0.530931 -0.28116,-0.812801 -0.47132,1.042812 -0.95815,2.078214 -1.4605,3.106209 -0.12771,-0.354189 -0.25577,-0.708378 -0.38347,-1.062567 -1.19627,2.670175 -3.31153,4.945239 -3.94759,7.800976 -0.23883,-0.477661 -0.44944,-0.986367 -0.46108,-1.520473 -0.0106,-0.484011 0.14323,-0.954616 0.23142,-1.430866 0.19544,-1.053395 0.0649,-2.164998 -0.36935,-3.144309 -0.17851,0.101953 -0.35631,0.203553 -0.53482,0.305506 0.0293,-1.1811 -0.0836,-2.365728 -0.33478,-3.520017 -0.16193,0.278694 -0.32385,0.557036 -0.48578,0.83573 -0.22154,-1.222375 -0.70661,-2.396066 -1.41287,-3.417711 -0.17498,0.313267 -0.34996,0.626534 -0.52493,0.940153 -0.28575,-1.439686 -0.52776,-2.887839 -0.72567,-4.341636 -0.32173,0.116416 -0.6103,0.323144 -0.82444,0.589844 0.18944,-0.871008 -0.21661,-1.721908 -0.50553,-2.5654 -0.25718,-0.750358 -0.51435,-1.500717 -0.77153,-2.251428 -0.059,0.186267 -0.11825,0.372886 -0.17734,0.5588 -0.70531,-1.056569 -1.27151,-2.206272 -1.67985,-3.409245 -0.0999,1.381478 -0.0153,2.776362 0.25068,4.135967 -0.35828,-0.107244 -0.63666,-0.442736 -0.67578,-0.814916 0.0513,1.150761 0.28261,2.293761 0.6828,3.373966 -0.31475,-0.218016 -0.6295,-0.436033 -0.94435,-0.65405 0.34974,1.182864 0.77279,2.343503 1.26626,3.473803 -0.2606,-0.242711 -0.52102,-0.485069 -0.78147,-0.728133 -0.23083,1.714147 -0.13974,3.470628 0.26719,5.151614 -0.48574,-0.295628 -0.95292,-0.621947 -1.39802,-0.975783 0.179,1.943806 0.54158,3.870325 1.08108,5.746045 -0.52451,0.06879 -1.07805,-0.147814 -1.41636,-0.554567 0.33637,1.826683 1.1672,3.559881 2.38072,4.966406 0.3726,0.4318 0.78355,0.837142 1.0765,1.326444 0.53396,0.891117 0.63239,1.980848 1.10335,2.906537 -0.47096,-0.372534 -0.72743,-0.896762 -1.11408,-1.356078 -0.36258,-0.431095 -0.81318,-0.777875 -1.26008,-1.120775 -1.57897,-1.212498 -3.15821,-2.424995 -4.73728,-3.637492 0.3066,0.381705 0.20613,1.01988 -0.20285,1.28905 -0.83414,-1.160286 -2.56921,-1.084792 -3.83342,-1.750836 0.17706,0.06879 0.15928,0.353836 0.007,0.466725 -0.15283,0.112889 -0.36284,0.09843 -0.54956,0.06385 -0.53291,-0.09913 -1.04221,-0.32385 -1.47479,-0.650522 -0.49043,-0.370416 -0.91225,-0.884767 -1.51017,-1.026936 0.0165,0.262819 0.0329,0.525639 0.0495,0.788811 -0.82613,-0.491772 -1.68603,-0.926042 -2.57196,-1.298928 0.0408,0.140053 0.0818,0.280459 0.12262,0.420511 -0.96696,-0.931333 -1.93421,-1.863019 -2.90131,-2.794705 -0.002,1.637594 0.54158,3.270956 1.52509,4.580467 -0.26335,-0.06809 -0.52641,-0.136525 -0.78948,-0.204611 1.00044,0.834672 1.94067,1.741311 2.81118,2.711097 -0.29185,0.127 -0.60882,0.195086 -0.92671,0.198967 1.03212,0.720725 2.12863,1.349022 3.27226,1.875366 -0.32466,0.236009 -0.701,0.400403 -1.0947,0.478367 0.70873,0.345722 1.2416,0.960967 1.85758,1.453092 0.61585,0.492478 1.4242,0.879122 2.17731,0.644878 -0.27686,0.344664 -0.69123,0.575733 -1.12998,0.630061 1.87745,0.886883 3.15613,1.369836 5.05188,2.216503 1.75356,0.783166 3.41465,0.939094 5.17896,1.697567 -2.0198,1.35643 -4.59606,1.018116 -6.92383,1.725438 0.22006,0.22437 0.54515,0.34149 0.85781,0.30903 -0.75431,0.41028 -1.47598,0.87983 -2.1566,1.40335 -0.16192,0.12489 -0.32755,0.26 -0.40971,0.44733 -0.0744,0.16968 -0.0759,0.37359 -0.19276,0.51752 -0.0946,0.11642 -0.24504,0.16863 -0.38767,0.21555 -0.64202,0.21096 -1.28404,0.42192 -1.92592,0.63288 0.065,0.20602 0.21675,0.38347 0.41035,0.47978 -0.99243,0.63394 -1.79599,1.3776 -2.39448,2.39183"
         style="fill:#f35f19;fill-opacity:1;fill-rule:nonzero;stroke:none;stroke-width:0.0352778"
         id="path14" />
      <g
         id="g16"
         transform="matrix(0.03527778,0,0,-0.03527778,219.02743,229.11446)">
        <g
           id="g18"
           clip-path="url(#clipPath22)">
          <path
             d="m 1582.63,3814.03 c -0.23,8.59 -1.32,17.15 -3.23,25.53 0.31,0.1 0.61,0.2 0.92,0.31 2.07,-8.38 3.31,-16.97 3.68,-25.6 -0.45,-0.08 -0.91,-0.16 -1.37,-0.24 m -130.88,1.01 c 0.05,11.53 -1.9,23.07 -5.71,33.95 0.21,0.1 0.43,0.19 0.65,0.29 4.04,-10.71 6.24,-22.11 6.48,-33.56 -0.47,-0.23 -0.95,-0.46 -1.42,-0.68"
             style="fill:#fab94f;fill-opacity:1;fill-rule:nonzero;stroke:none"
             id="path24" />
          <path
             d="m 1428.94,3710.64 c -49.11,0 -93.51,20.15 -125.4,52.63 43.88,34.09 91.82,62.94 142.5,85.72 3.81,-10.88 5.76,-22.42 5.71,-33.95 0.47,0.22 0.95,0.45 1.42,0.68 0.02,-0.86 0.03,-1.71 0.02,-2.56 23.66,11.31 48.06,21.06 72.99,29.18 2.01,0.66 4.11,1.3 6.2,1.3 0.66,0 1.32,-0.06 1.97,-0.21 2.87,-0.67 5.1,-2.85 7.54,-4.49 4.46,-2.98 9.51,-4.11 14.78,-4.11 7.5,0 15.45,2.28 22.73,4.73 1.91,-8.38 3,-16.94 3.23,-25.53 0.46,0.08 0.92,0.16 1.37,0.24 0.03,-0.71 0.06,-1.41 0.08,-2.12 1.51,0.26 3.03,0.53 4.54,0.79 -27.8,-60.37 -88.85,-102.3 -159.68,-102.3"
             style="fill:#f57a17;fill-opacity:1;fill-rule:nonzero;stroke:none"
             id="path26" />
          <path
             d="m 1295.92,3771.54 c -0.5,0.58 -1.01,1.17 -1.51,1.77 7.04,11.7 14.55,23.02 24.03,32.8 10.47,10.8 23,19.34 34.89,28.57 56.15,43.57 98.97,104.08 121.42,171.52 0.79,0.22 1.55,0.45 2.29,0.68 -22.21,-68.46 -65.4,-129.96 -122.27,-174.08 -11.88,-9.23 -24.41,-17.77 -34.89,-28.57 -9.45,-9.75 -16.95,-21.03 -23.96,-32.69 m 153.86,233.88 c -1.38,0.24 -2.69,0.6 -3.94,1.08 18.42,5.5 32.77,20.36 42.46,36.96 9.68,16.59 15.44,35.13 22.36,53.05 8.39,21.7 18.55,42.68 27.36,64.21 0.99,0.5 1.95,1.05 2.87,1.64 -9.13,-22.77 -19.94,-44.84 -28.78,-67.73 -6.92,-17.93 -12.69,-36.45 -22.37,-53.06 -9.25,-15.84 -22.74,-30.1 -39.96,-36.15 m 42.11,163.22 c -0.6,0.59 -1.16,1.2 -1.71,1.84 9.54,1.33 16.71,9.25 22.12,17.2 20.17,29.61 28,67.32 21.4,102.5 0.27,0.45 0.54,0.89 0.8,1.34 7.7,-36.09 0.03,-75.22 -20.75,-105.72 -5.37,-7.88 -12.46,-15.72 -21.86,-17.16 m 17.56,106.94 c 15.03,33.16 30.07,66.31 45.11,99.48 0.1,0 0.2,-0.01 0.31,-0.01 0.68,0 1.38,0.1 2.11,0.29 -14.96,-33 -29.93,-66 -44.89,-99 -0.87,-0.29 -1.75,-0.54 -2.64,-0.76 m -86.79,12.37 c -7.65,11.56 -15.05,23.28 -22.21,35.14 0.05,0.09 0.1,0.17 0.15,0.25 7.13,-11.88 14.51,-23.62 22.13,-35.2 -0.02,-0.06 -0.05,-0.12 -0.07,-0.19 m 124.78,91.8 c -3.76,4.04 -5.23,11.57 -2.78,17.05 3.83,8.52 12.24,14.16 16.72,22.36 6.67,12.23 3.34,27.16 2.87,41.09 -1.02,30.23 12.28,61.25 4.15,90.11 0.2,0.29 0.4,0.58 0.6,0.87 9.83,-29.63 -4.36,-61.66 -3.31,-92.87 0.47,-13.92 3.8,-28.85 -2.87,-41.08 -4.47,-8.2 -12.89,-13.84 -16.71,-22.36 -2.12,-4.72 -1.33,-10.95 1.33,-15.17 m -58.29,16.75 c -5.46,9.62 -10.93,19.25 -16.4,28.87 0.05,0.14 0.09,0.28 0.14,0.43 5.41,-9.53 10.82,-19.05 16.22,-28.57 0.02,-0.25 0.03,-0.49 0.04,-0.73"
             style="fill:#fab94f;fill-opacity:1;fill-rule:nonzero;stroke:none"
             id="path28" />
          <path
             d="m 1294.41,3773.31 c -25.7,30.55 -41.19,69.99 -41.19,113.05 0,97.04 78.67,175.71 175.72,175.71 l 0.83,-0.04 c -7.27,19.68 -11.44,40.87 -11.44,63.08 0,47.78 18.53,91.14 48.6,123.66 -30.58,10.96 -57.97,28.6 -80.42,51.16 4.64,7.71 9.29,15.44 13.94,23.16 7.16,-11.86 14.56,-23.58 22.21,-35.14 0.02,0.07 0.05,0.13 0.07,0.19 0.45,-0.69 0.91,-1.38 1.37,-2.07 17.96,45.8 34.2,92.27 48.65,139.3 5.47,-9.62 10.94,-19.25 16.4,-28.87 -0.01,0.24 -0.02,0.48 -0.04,0.73 0.5,-0.87 0.99,-1.74 1.49,-2.61 -2.22,37.52 19.99,71.61 41.28,102.59 12.17,17.72 24.35,35.43 36.52,53.15 8.13,-28.86 -5.17,-59.88 -4.15,-90.11 0.47,-13.93 3.8,-28.86 -2.87,-41.09 -4.48,-8.2 -12.89,-13.84 -16.72,-22.36 -2.45,-5.48 -0.98,-13.01 2.78,-17.05 1.7,-2.69 4.16,-4.56 7.12,-4.69 -15.04,-33.17 -30.08,-66.32 -45.11,-99.48 0.89,0.22 1.77,0.47 2.64,0.76 -0.4,-0.89 -0.8,-1.77 -1.2,-2.65 9.33,2.31 17.68,8.36 22.81,16.49 6.6,-35.18 -1.23,-72.89 -21.4,-102.5 -5.41,-7.95 -12.58,-15.87 -22.12,-17.2 0.55,-0.64 1.11,-1.25 1.71,-1.84 -0.09,-0.01 -0.18,-0.02 -0.26,-0.03 6.71,-7.94 17.62,-11.99 28.47,-11.99 6.27,0 12.52,1.36 17.92,4.1 -8.81,-21.53 -18.97,-42.51 -27.36,-64.21 -6.92,-17.92 -12.68,-36.46 -22.36,-53.05 -9.69,-16.6 -24.04,-31.46 -42.46,-36.96 1.25,-0.48 2.56,-0.84 3.94,-1.08 -0.83,-0.29 -1.66,-0.56 -2.49,-0.81 2.77,-1.07 5.94,-1.5 9.24,-1.5 6.09,0 12.67,1.46 18.22,3.09 -22.45,-67.44 -65.27,-127.95 -121.42,-171.52 -11.89,-9.23 -24.42,-17.77 -34.89,-28.57 -9.48,-9.78 -16.99,-21.1 -24.03,-32.8"
             style="fill:#f57a17;fill-opacity:1;fill-rule:nonzero;stroke:none"
             id="path30" />
          <path
             d="m 1171.3,3314.51 c -0.12,0.72 -0.24,1.45 -0.35,2.18 11.31,3.21 21.89,9 30.69,16.81 -1.98,80.78 -7.51,161.49 -16.58,241.79 -1.09,9.72 -2.3,19.63 -5.27,28.88 0.46,-0.65 0.95,-1.29 1.46,-1.92 2.96,-9.25 4.16,-19.14 5.25,-28.84 9.07,-80.3 14.6,-161.01 16.58,-241.8 -9.08,-8.05 -20.05,-13.96 -31.78,-17.1 m -198.78,106.37 c -0.129,0.95 -0.243,1.89 -0.344,2.84 69.894,60.88 131.654,131.11 183.084,208.21 0.18,-1.08 0.36,-2.16 0.53,-3.24 -51.53,-76.98 -113.34,-147.07 -183.27,-207.81 m -108.489,45.88 c -0.008,0.73 0,1.45 0.028,2.17 54.601,10.95 105.644,42.76 144.341,82.79 -1.26,-2.37 -2.53,-4.77 -3.79,-7.17 -38.36,-37.88 -87.852,-67.58 -140.579,-77.79 m -57.304,1.23 c -2.872,0 -5.664,0.5 -8.094,1.98 -1.766,1.07 -3.125,2.51 -4.223,4.18 0.801,-0.88 1.715,-1.66 2.778,-2.3 2.429,-1.48 5.222,-1.98 8.093,-1.98 2.242,0 4.535,0.31 6.731,0.67 20.316,3.39 39.945,10.89 57.343,21.92 -0.867,-1.36 -1.652,-2.77 -2.359,-4.22 -16.437,-9.76 -34.687,-16.44 -53.543,-19.58 -2.195,-0.36 -4.484,-0.67 -6.726,-0.67 m -174.008,1.41 c -0.692,0.61 -1.375,1.23 -2.063,1.85 28.098,1.26 55.887,9.95 79.496,25.26 -0.316,-1.03 -0.48,-2.08 -0.504,-3.12 -23.007,-14.43 -49.808,-22.67 -76.929,-23.99 m 97.867,5.64 c -2.531,0 -5.039,0.33 -7.477,1.12 -3.816,1.23 -7.273,3.91 -9.492,7.24 2.149,-2.45 4.981,-4.37 8.047,-5.36 2.438,-0.78 4.949,-1.12 7.481,-1.12 5.425,0 10.949,1.54 16.074,3.51 12.754,4.88 24.508,12.35 34.332,21.84 2.133,-1.06 3.711,-2.64 4.949,-4.54 -0.977,1.07 -2.125,1.98 -3.508,2.66 -9.82,-9.49 -21.574,-16.97 -34.328,-21.84 -5.129,-1.97 -10.652,-3.51 -16.078,-3.51 m 556.134,55.06 c -5.57,3.13 -11.09,6.31 -16.59,9.49 -27.33,15.79 -54.83,31.71 -78.82,52.23 -3.58,3.06 -7.2,6.43 -9.93,10.26 2.5,-3.06 5.51,-5.83 8.49,-8.38 23.99,-20.52 51.49,-36.44 78.82,-52.23 5.84,-3.37 11.71,-6.76 17.63,-10.07 0.13,-0.44 0.26,-0.86 0.4,-1.3 m -622.013,10.39 c -2.5,1.64 -4.676,3.78 -6.371,6.24 2.004,-2.35 4.469,-4.31 7.234,-5.69 -0.289,-0.18 -0.574,-0.37 -0.863,-0.55 m 129.457,103.37 c -7.211,0.51 -14.242,3.67 -19.305,8.84 0.145,0.04 0.286,0.09 0.434,0.13 5.383,-4.58 12.437,-7.17 19.504,-7.17 0.976,0 1.957,0.05 2.933,0.16 -1.191,-0.65 -2.382,-1.3 -3.566,-1.96 m 174.352,58.85 c -49.043,20.56 -95.36,25.21 -144.196,47.02 -53.746,24 -89.984,37.69 -143.203,62.83 0.653,0.08 1.301,0.18 1.946,0.29 51.386,-24.14 87.222,-37.75 139.812,-61.24 49.707,-22.2 96.793,-26.62 146.805,-48.12 -0.391,-0.26 -0.778,-0.52 -1.164,-0.78 m -268.719,125.72 c -17.219,0 -34.512,9.18 -48.371,20.26 -17.461,13.96 -32.563,31.4 -52.656,41.2 0.531,0.1 1.058,0.21 1.585,0.33 18.602,-10.01 33.055,-26.4 49.629,-39.64 13.856,-11.08 31.149,-20.27 48.371,-20.27 4.473,0 8.946,0.62 13.348,1.99 -0.808,-1.01 -1.656,-1.98 -2.547,-2.91 -3.101,-0.66 -6.23,-0.96 -9.359,-0.96 m -72.469,76.16 c -31.519,14.69 -61.769,32.11 -90.285,52.02 0.406,0 0.816,0.01 1.227,0.02 28.476,-19.65 58.656,-36.83 90.089,-51.3 -0.339,-0.25 -0.683,-0.5 -1.031,-0.74 m -65.644,59.46 c -24.211,26.81 -50.321,51.91 -78.063,75.05 0.391,-0.1 0.777,-0.2 1.164,-0.3 27.391,-23.05 53.168,-48.03 77.086,-74.67 -0.062,-0.03 -0.125,-0.05 -0.187,-0.08 m 258.582,37.07 c -0.133,0.18 -0.262,0.36 -0.399,0.54 0.141,-0.18 0.281,-0.35 0.418,-0.53 -0.008,0 -0.012,0 -0.019,-0.01 m -105.754,46.89 c -0.133,0.11 -0.274,0.21 -0.418,0.31 0.117,-0.06 0.234,-0.12 0.351,-0.18 0.024,-0.04 0.047,-0.09 0.067,-0.13"
             style="fill:#f89e90;fill-opacity:1;fill-rule:nonzero;stroke:none"
             id="path32" />
          <path
             d="m 1170.95,3316.69 c -8.33,52.66 -3.04,106.44 -2.5,159.79 0.51,51.4 -3.42,102.85 -11.75,153.57 -0.3,-0.45 -0.61,-0.91 -0.91,-1.36 -0.17,1.08 -0.35,2.16 -0.53,3.24 -51.43,-77.1 -113.19,-147.33 -183.084,-208.21 -4.781,44.11 16.758,86.76 37.664,126.12 -1.72,-1.78 -3.46,-3.54 -5.23,-5.29 1.26,2.4 2.53,4.8 3.79,7.17 -38.697,-40.03 -89.74,-71.84 -144.341,-82.79 0.289,7.64 2.632,15.2 6.742,21.64 -1.254,-0.79 -2.524,-1.57 -3.805,-2.33 0.707,1.45 1.492,2.86 2.359,4.22 -17.398,-11.03 -37.027,-18.53 -57.343,-21.92 -2.196,-0.36 -4.489,-0.67 -6.731,-0.67 -2.871,0 -5.664,0.5 -8.093,1.98 -1.063,0.64 -1.977,1.42 -2.778,2.3 -4.496,6.87 -4.57,17.71 -9.91,23.58 -1.238,1.9 -2.816,3.48 -4.949,4.54 -9.824,-9.49 -21.578,-16.96 -34.332,-21.84 -5.125,-1.97 -10.649,-3.51 -16.074,-3.51 -2.532,0 -5.043,0.34 -7.481,1.12 -3.066,0.99 -5.898,2.91 -8.047,5.36 -2.23,3.35 -3.207,7.37 -2.019,11.23 -0.649,-0.42 -1.297,-0.83 -1.95,-1.24 0.024,1.04 0.188,2.09 0.504,3.12 -23.609,-15.31 -51.398,-24 -79.496,-25.26 -6.488,5.86 -12.89,12.05 -19.113,18.5 15.145,19.74 33.707,35.5 55.473,49.41 -0.793,0.4 -1.567,0.84 -2.309,1.33 0.289,0.18 0.574,0.37 0.863,0.55 -2.765,1.38 -5.23,3.34 -7.234,5.69 -1.273,1.85 -2.281,3.89 -2.953,6.03 18.195,5.98 36.394,11.96 54.594,17.94 4.035,1.32 8.308,2.81 10.992,6.11 3.308,4.08 3.347,9.86 5.461,14.67 2.324,5.31 7.023,9.14 11.613,12.68 19.285,14.84 39.75,28.16 61.129,39.78 -0.981,-0.11 -1.965,-0.16 -2.945,-0.16 -0.688,0 -1.379,0.03 -2.063,0.08 1.184,0.66 2.375,1.31 3.566,1.96 -0.976,-0.11 -1.957,-0.16 -2.933,-0.16 -7.067,0 -14.121,2.59 -19.504,7.17 65.871,19.87 138.707,10.41 195.828,48.78 -0.867,0.37 -1.738,0.74 -2.605,1.1 0.386,0.26 0.773,0.52 1.164,0.78 -50.012,21.5 -97.098,25.92 -146.805,48.12 -52.59,23.49 -88.426,37.1 -139.812,61.24 11.71,1.95 22.648,8.31 30.082,17.57 -1.325,-0.41 -2.653,-0.76 -3.989,-1.03 0.891,0.93 1.739,1.9 2.547,2.91 -4.402,-1.37 -8.875,-1.99 -13.348,-1.99 -17.222,0 -34.515,9.19 -48.371,20.27 -16.574,13.24 -31.027,29.63 -49.629,39.64 10.583,2.33 20.676,6.86 29.446,13.23 -0.828,0.38 -1.649,0.76 -2.473,1.14 0.348,0.24 0.692,0.49 1.031,0.74 -31.433,14.47 -61.613,31.65 -90.089,51.3 8.601,0.27 17.152,2.19 25.039,5.62 -0.539,0.6 -1.082,1.2 -1.625,1.8 0.062,0.03 0.125,0.05 0.187,0.08 -23.918,26.64 -49.695,51.62 -77.086,74.67 7.074,-1.83 14.149,-3.67 21.215,-5.5 -27.871,37.11 -43.289,83.42 -43.227,129.84 27.415,-26.41 54.829,-52.82 82.243,-79.22 -1.157,3.97 -2.321,7.95 -3.477,11.92 25.109,-10.57 49.492,-22.89 72.902,-36.82 -0.461,7.46 -0.929,14.91 -1.398,22.36 16.949,-4.04 28.906,-18.61 42.809,-29.11 12.261,-9.27 26.695,-15.63 41.808,-18.44 2.176,-0.4 4.457,-0.71 6.695,-0.71 3.211,0 6.329,0.63 8.875,2.52 3.852,2.84 4.672,9.55 1.282,12.37 -0.02,0.04 -0.043,0.09 -0.067,0.13 34.797,-17.64 81.465,-16.51 105.422,-46.48 0.137,-0.18 0.266,-0.36 0.399,-0.54 0.007,0.01 0.011,0.01 0.019,0.01 0.485,-0.62 0.961,-1.25 1.426,-1.9 11.59,7.64 14.437,25.73 5.746,36.55 35.379,-27.16 70.758,-54.33 106.133,-81.49 5.012,-39.13 -0.613,-80.08 -18.477,-118.5 -1.203,-2.58 -2.488,-5.09 -3.769,-7.61 9.531,-2.38 18.984,-5.62 28.226,-9.91 60.18,-27.99 94.08,-89.33 90.24,-151.79 19.44,5.94 39.77,9.04 60.33,9.04 29.04,0 58.55,-6.18 86.62,-19.24 54.58,-25.38 92.8,-71.66 109.56,-124.88 -5.92,3.31 -11.79,6.7 -17.63,10.07 -27.33,15.79 -54.83,31.71 -78.82,52.23 -2.98,2.55 -5.99,5.32 -8.49,8.38 -0.05,0.07 -0.1,0.14 -0.15,0.21 0.01,-0.02 0.01,-0.03 0.02,-0.04 -0.51,0.63 -1,1.27 -1.46,1.92 2.97,-9.25 4.18,-19.16 5.27,-28.88 9.07,-80.3 14.6,-161.01 16.58,-241.79 -8.8,-7.81 -19.38,-13.6 -30.69,-16.81"
             style="fill:#f14b1c;fill-opacity:1;fill-rule:nonzero;stroke:none"
             id="path34" />
          <path
             d="m 714.094,4048.32 c -0.356,0.18 -0.703,0.36 -1.051,0.55 0.383,-0.15 0.73,-0.33 1.051,-0.55"
             style="fill:#f89e90;fill-opacity:1;fill-rule:nonzero;stroke:none"
             id="path36" />
        </g>
      </g>
      <path
         d="m 254.69221,72.994056 c 0.59266,2.341033 1.15217,4.690181 1.69474,7.043561 0.54293,2.353028 1.0474,4.714876 1.54129,7.079545 0.47201,2.36855 0.92322,4.742745 1.32962,7.122937 0.20073,1.190978 0.39476,2.38513 0.52881,3.58775 0.127,1.203325 0.19227,2.411941 0.19473,3.619501 -0.1143,-2.415118 -0.48789,-4.798132 -0.95708,-7.164918 -0.45473,-2.37102 -0.90241,-4.741686 -1.39771,-7.103886 -0.46849,-2.367492 -0.97684,-4.727223 -1.47002,-7.090481 -0.49424,-2.362906 -0.99589,-4.724754 -1.46438,-7.094009"
         style="fill:#2c0e10;fill-opacity:1;fill-rule:nonzero;stroke:none;stroke-width:0.0352778"
         id="path38" />
      <path
         d="m 259.95671,101.00814 c 0.42051,-2.674055 1.31586,-5.258152 2.42217,-7.72795 0.55351,-1.236486 1.17758,-2.44228 1.86867,-3.609622 0.69321,-1.165225 1.42804,-2.299759 2.16076,-3.435703 1.48555,-2.25672 2.96968,-4.513087 4.23298,-6.893984 0.63288,-1.189214 1.20544,-2.411589 1.74907,-3.647017 0.55281,-1.2319 1.07457,-2.478264 1.59668,-3.724628 -0.4752,1.264709 -0.95074,2.530123 -1.45803,3.783895 -0.51612,1.249892 -1.06645,2.487436 -1.67746,3.696758 -1.22767,2.419351 -2.72098,4.68489 -4.18536,6.953251 -0.73977,1.129594 -1.48202,2.258483 -2.17805,3.411008 -0.69744,1.150762 -1.31127,2.351264 -1.89512,3.565173 -0.58032,1.216025 -1.0915,2.464858 -1.54164,3.735564 -0.45967,1.267178 -0.8322,2.567517 -1.09467,3.893255"
         style="fill:#2c0e10;fill-opacity:1;fill-rule:nonzero;stroke:none;stroke-width:0.0352778"
         id="path40" />
      <path
         d="m 267.18266,80.494112 c 0.35595,0.467078 0.59972,1.001889 0.77364,1.558219 0.16298,0.556684 0.25964,1.152525 0.16016,1.734256 -0.14534,-0.566561 -0.28857,-1.103842 -0.45544,-1.645356 -0.15875,-0.542572 -0.34254,-1.076678 -0.47836,-1.647119"
         style="fill:#2c0e10;fill-opacity:1;fill-rule:nonzero;stroke:none;stroke-width:0.0352778"
         id="path42" />
      <path
         d="m 265.14184,83.783059 c 0.254,0.604309 0.39864,1.236839 0.50377,1.874309 0.0953,0.639233 0.14993,1.286227 0.0921,1.938866 -0.18521,-0.627944 -0.29351,-1.258358 -0.39687,-1.890889 -0.0935,-0.634294 -0.1831,-1.26753 -0.19897,-1.922286"
         style="fill:#2c0e10;fill-opacity:1;fill-rule:nonzero;stroke:none;stroke-width:0.0352778"
         id="path44" />
      <path
         d="m 265.63643,87.554959 c 0.85619,-0.448027 1.73426,-0.826205 2.61444,-1.201561 0.88406,-0.366889 1.76812,-0.73025 2.68746,-1.028347 -0.81562,0.518936 -1.68381,0.935919 -2.56787,1.312686 -0.88759,0.367595 -1.79282,0.696384 -2.73403,0.917222"
         style="fill:#2c0e10;fill-opacity:1;fill-rule:nonzero;stroke:none;stroke-width:0.0352778"
         id="path46" />
      <path
         d="m 268.06319,83.943573 c 0.57997,-0.414867 1.19486,-0.741539 1.82033,-1.048808 0.62971,-0.298803 1.26824,-0.576086 1.95439,-0.771525 -0.5722,0.411691 -1.19203,0.740833 -1.82068,1.049161 -0.63253,0.299155 -1.276,0.578908 -1.95404,0.771172"
         style="fill:#2c0e10;fill-opacity:1;fill-rule:nonzero;stroke:none;stroke-width:0.0352778"
         id="path48" />
      <path
         d="m 260.05231,101.33658 c 1.65206,-0.81457 3.36586,-1.505306 5.11422,-2.094092 1.74872,-0.589845 3.53766,-1.05657 5.34141,-1.445331 1.8094,-0.364772 3.63432,-0.650522 5.47017,-0.82938 1.83551,-0.178859 3.67842,-0.271639 5.52027,-0.264231 -1.83762,0.12065 -3.671,0.272697 -5.49416,0.500239 -1.8228,0.226836 -3.6389,0.508353 -5.43348,0.894997 -1.79952,0.361598 -3.57647,0.829381 -5.33189,1.368425 -1.75542,0.539043 -3.48262,1.170873 -5.18654,1.869373"
         style="fill:#2c0e10;fill-opacity:1;fill-rule:nonzero;stroke:none;stroke-width:0.0352778"
         id="path50" />
      <path
         d="m 267.57389,98.678043 c 0.38241,-0.750005 0.8382,-1.449564 1.33279,-2.124427 0.50201,-0.666398 1.04176,-1.319037 1.70357,-1.844676 -0.48084,0.689681 -0.96273,1.358548 -1.45627,2.02812 -0.49918,0.663928 -0.99871,1.330678 -1.58009,1.940983"
         style="fill:#2c0e10;fill-opacity:1;fill-rule:nonzero;stroke:none;stroke-width:0.0352778"
         id="path52" />
      <path
         d="m 267.57389,98.678043 c 0.81033,0.161925 1.60478,0.334081 2.39748,0.553862 0.3944,0.113241 0.78881,0.233538 1.17369,0.387702 0.19614,0.07338 0.37888,0.17145 0.56233,0.232128 0.18344,0.06315 0.38488,0.09631 0.57255,-0.0018 -0.1464,0.159805 -0.39899,0.179565 -0.60642,0.149225 -0.2159,-0.03245 -0.41028,-0.100894 -0.60466,-0.151341 l -1.18075,-0.319617 c -0.39299,-0.113242 -0.78705,-0.227542 -1.1751,-0.364067 -0.38841,-0.135114 -0.77505,-0.286103 -1.13912,-0.486128"
         style="fill:#2c0e10;fill-opacity:1;fill-rule:nonzero;stroke:none;stroke-width:0.0352778"
         id="path54" />
      <path
         d="m 276.82584,94.921665 c -0.59655,0.465314 -1.1878,0.930981 -1.79246,1.382184 -0.60643,0.447675 -1.21744,0.893233 -1.86055,1.296105 l -0.0183,-0.262819 c 0.51541,0.238831 1.022,0.48895 1.54481,0.692856 0.52247,0.206022 1.0668,0.360891 1.62067,0.500944 -0.56868,-0.03704 -1.13983,-0.125236 -1.69228,-0.292453 -0.5521,-0.167922 -1.08056,-0.394758 -1.59844,-0.628297 l -0.24588,-0.110772 0.22719,-0.152047 1.8736,-1.255889 c 0.62936,-0.41522 1.27106,-0.818445 1.94169,-1.169812"
         style="fill:#2c0e10;fill-opacity:1;fill-rule:nonzero;stroke:none;stroke-width:0.0352778"
         id="path56" />
      <path
         d="m 237.19478,85.033304 c 1.73856,1.600905 3.5807,3.083278 5.52637,4.413603 0.97674,0.659341 1.96039,1.309511 2.99914,1.854553 1.03823,0.549627 2.11847,1.019527 3.20739,1.472494 2.16408,0.924278 4.4034,1.788231 6.35014,3.17747 0.97508,0.690033 1.83233,1.519767 2.65148,2.372431 0.80997,0.8636 1.53423,1.829155 2.00307,2.917825 -0.53234,-1.05798 -1.27106,-1.990373 -2.11138,-2.812698 -0.8382,-0.827969 -1.70568,-1.629833 -2.67864,-2.282825 -1.9419,-1.326797 -4.15297,-2.183342 -6.33398,-3.088217 -1.08825,-0.462844 -2.17375,-0.945091 -3.21995,-1.509536 -1.04757,-0.565503 -2.04293,-1.215319 -3.00274,-1.908175 -1.92733,-1.377597 -3.74015,-2.914297 -5.3909,-4.606925"
         style="fill:#2c0e10;fill-opacity:1;fill-rule:nonzero;stroke:none;stroke-width:0.0352778"
         id="path58" />
      <path
         d="m 244.78959,104.35635 c 1.18717,-0.51364 2.39529,-0.97754 3.61926,-1.39946 1.22414,-0.42263 2.46972,-0.78282 3.72759,-1.09926 1.26298,-0.29175 2.54166,-0.53622 3.83635,-0.64982 1.29223,-0.11183 2.60491,-0.11712 3.87985,0.11995 l -0.96696,-0.0519 c -0.32279,0.004 -0.64453,-0.004 -0.96591,0.0106 -0.32138,0.0201 -0.64276,0.0265 -0.96273,0.055 -0.31997,0.0346 -0.64029,0.06 -0.95885,0.10195 -1.27529,0.16122 -2.5413,0.4004 -3.78979,0.71402 -1.255,0.28857 -2.49205,0.65123 -3.72678,1.02376 -1.23472,0.37359 -2.46034,0.78035 -3.69203,1.1751"
         style="fill:#2c0e10;fill-opacity:1;fill-rule:nonzero;stroke:none;stroke-width:0.0352778"
         id="path60" />
      <path
         d="m 255.05416,106.15976 c 0.42862,-0.75495 0.93168,-1.45204 1.45238,-2.13607 0.52846,-0.67769 1.07492,-1.34162 1.69651,-1.94769 -0.42792,0.7553 -0.93098,1.45239 -1.45238,2.13572 -0.52882,0.67768 -1.07527,1.34161 -1.69651,1.94804"
         style="fill:#2c0e10;fill-opacity:1;fill-rule:nonzero;stroke:none;stroke-width:0.0352778"
         id="path62" />
      <path
         d="m 261.61829,101.25297 c 0.58879,0.30868 1.19098,0.5775 1.79212,0.8516 l 1.81327,0.79869 c 1.20827,0.53658 2.42641,1.06081 3.59516,1.69792 -1.26365,-0.41275 -2.50155,-0.88441 -3.71898,-1.41569 -0.60643,-0.26988 -1.20897,-0.55104 -1.79529,-0.86572 -0.58667,-0.31221 -1.16134,-0.65723 -1.68628,-1.0668"
         style="fill:#2c0e10;fill-opacity:1;fill-rule:nonzero;stroke:none;stroke-width:0.0352778"
         id="path64" />
      <path
         d="m 258.80489,92.275126 c 0.13476,-0.412044 0.18239,-0.847019 0.28399,-1.269647 0.0889,-0.425803 0.19402,-0.848431 0.30938,-1.268942 0.12065,-0.419452 0.25294,-0.836789 0.41699,-1.243894 0.16263,-0.406047 0.34889,-0.810331 0.61101,-1.165225 -0.14711,0.413103 -0.26494,0.826911 -0.38347,1.242836 l -0.34819,1.249539 c -0.11995,0.416278 -0.23778,0.834319 -0.37465,1.248128 -0.0667,0.207433 -0.139,0.413455 -0.21767,0.618066 -0.0833,0.201084 -0.15945,0.414514 -0.29739,0.589139"
         style="fill:#2c0e10;fill-opacity:1;fill-rule:nonzero;stroke:none;stroke-width:0.0352778"
         id="path66" />
      <path
         d="m 257.83122,87.147501 c 0.0917,-0.962731 0.31292,-1.902883 0.58173,-2.826456 0.2794,-0.919691 0.60819,-1.829858 1.07174,-2.6797 -0.23565,0.936625 -0.50659,1.85032 -0.77646,2.767542 -0.27658,0.915458 -0.54892,1.829858 -0.87701,2.738614"
         style="fill:#2c0e10;fill-opacity:1;fill-rule:nonzero;stroke:none;stroke-width:0.0352778"
         id="path68" />
      <path
         d="m 256.26912,79.881337 c -0.005,-0.697442 0.12312,-1.383242 0.3101,-2.048934 0.19614,-0.663222 0.45332,-1.311628 0.83043,-1.89865 -0.15098,0.680156 -0.3496,1.328561 -0.53445,1.984022 -0.19368,0.652992 -0.37183,1.307748 -0.60608,1.963562"
         style="fill:#2c0e10;fill-opacity:1;fill-rule:nonzero;stroke:none;stroke-width:0.0352778"
         id="path70" />
      <path
         d="m 253.41335,76.491848 c 0.22751,0.05715 0.39451,0.252589 0.53026,0.434269 0.12997,0.189442 0.24942,0.381 0.36336,0.577145 0.22896,0.390877 0.43286,0.791986 0.64453,1.186039 0.41698,0.791986 0.83467,1.568097 1.4411,2.243314 -0.38418,-0.24377 -0.71403,-0.576792 -0.9899,-0.941212 -0.28081,-0.363008 -0.50941,-0.759177 -0.7239,-1.158522 -0.20884,-0.402167 -0.40114,-0.809978 -0.58469,-1.219553 L 253.8145,77.00267 c -0.091,-0.200025 -0.20659,-0.389467 -0.40115,-0.510822"
         style="fill:#2c0e10;fill-opacity:1;fill-rule:nonzero;stroke:none;stroke-width:0.0352778"
         id="path72" />
      <path
         d="m 253.67571,82.05339 c 0.7371,0.792339 1.41126,1.626305 2.08824,2.458861 0.66957,0.8382 1.3409,1.674989 1.9565,2.564694 -0.79939,-0.729544 -1.5173,-1.534936 -2.19639,-2.371372 -0.6724,-0.842433 -1.30634,-1.715558 -1.84835,-2.652183"
         style="fill:#2c0e10;fill-opacity:1;fill-rule:nonzero;stroke:none;stroke-width:0.0352778"
         id="path74" />
      <path
         d="m 252.87826,85.275309 c 0.36174,0.66922 0.76369,1.307395 1.21969,1.904295 0.45773,0.595842 0.95303,1.160639 1.47585,1.703564 0.51752,0.547864 1.0601,1.075267 1.58362,1.625247 0.52564,0.547159 1.04563,1.104195 1.51271,1.705681 l -1.67816,-1.535995 c -0.56198,-0.508705 -1.11267,-1.03258 -1.64148,-1.582561 -0.52317,-0.554214 -1.02376,-1.137708 -1.44477,-1.778706 -0.42432,-0.637469 -0.78203,-1.320447 -1.02746,-2.041525"
         style="fill:#2c0e10;fill-opacity:1;fill-rule:nonzero;stroke:none;stroke-width:0.0352778"
         id="path76" />
      <path
         d="m 249.17201,89.448318 c 0.35828,0.623711 0.64781,1.273881 0.86459,1.961092 0.20849,0.687564 0.31902,1.416403 0.24751,2.133953 -0.17311,-0.699559 -0.33073,-1.374423 -0.54226,-2.043995 -0.20052,-0.671336 -0.43892,-1.341614 -0.56984,-2.05105"
         style="fill:#2c0e10;fill-opacity:1;fill-rule:nonzero;stroke:none;stroke-width:0.0352778"
         id="path78" />
      <path
         d="m 242.52187,91.205857 c 0.49237,0.189794 1.00654,0.294217 1.51722,0.307622 0.50963,0.01411 1.01964,-0.07055 1.46513,-0.285397 l -0.0707,0.200378 c -0.31863,-0.64382 -0.51816,-1.331384 -0.66738,-2.02177 -0.14348,-0.692856 -0.22229,-1.395942 -0.2365,-2.100439 0.15049,0.687917 0.30677,1.368778 0.4899,2.039409 0.1815,0.67063 0.39786,1.330325 0.68407,1.952272 l 0.0636,0.138289 -0.13419,0.06244 c -0.50755,0.236362 -1.07407,0.293512 -1.60941,0.233539 -0.53732,-0.06209 -1.05544,-0.243769 -1.50181,-0.526344"
         style="fill:#2c0e10;fill-opacity:1;fill-rule:nonzero;stroke:none;stroke-width:0.0352778"
         id="path80" />
      <path
         d="m 247.22277,94.910377 c 0.56762,-0.219075 1.09693,-0.455437 1.64264,-0.695325 0.54557,-0.230364 1.10077,-0.473428 1.7042,-0.582789 -0.50874,0.334433 -1.02828,0.621594 -1.58182,0.865716 -0.5522,0.232481 -1.14903,0.432859 -1.76502,0.412398"
         style="fill:#2c0e10;fill-opacity:1;fill-rule:nonzero;stroke:none;stroke-width:0.0352778"
         id="path82" />
      <path
         d="m 248.31349,100.7746 c 0.48327,0.15522 0.91835,0.39123 1.34207,0.64629 0.41893,0.26353 0.82586,0.54645 1.18442,0.91123 -0.48366,-0.15452 -0.91885,-0.39088 -1.34218,-0.64665 -0.41853,-0.26387 -0.82575,-0.54715 -1.18431,-0.91087"
         style="fill:#2c0e10;fill-opacity:1;fill-rule:nonzero;stroke:none;stroke-width:0.0352778"
         id="path84" />
      <path
         d="m 248.82777,104.85589 c 0.22931,-0.51823 0.56102,-0.97226 0.92689,-1.39242 0.37317,-0.4138 0.78451,-0.79692 1.27233,-1.08549 -0.31997,0.46672 -0.6809,0.87665 -1.04193,1.29011 -0.36795,0.4071 -0.7323,0.81385 -1.15729,1.1878"
         style="fill:#2c0e10;fill-opacity:1;fill-rule:nonzero;stroke:none;stroke-width:0.0352778"
         id="path86" />
      <path
         d="m 252.33629,99.761777 c 0.47498,0.158044 0.89902,0.395463 1.31145,0.651933 0.40693,0.26423 0.80211,0.54786 1.14571,0.91158 -0.47483,-0.15734 -0.89916,-0.39476 -1.31106,-0.65158 -0.40693,-0.26494 -0.80176,-0.54892 -1.1461,-0.911933"
         style="fill:#2c0e10;fill-opacity:1;fill-rule:nonzero;stroke:none;stroke-width:0.0352778"
         id="path88" />
      <path
         d="m 254.95115,101.26355 c -0.29034,0.60572 -0.54787,1.20086 -0.81887,1.8034 -0.27605,0.59796 -0.54794,1.20439 -0.92481,1.76565 0.15159,-0.65616 0.37222,-1.28199 0.64424,-1.89265 0.14069,-0.30303 0.29143,-0.60254 0.47114,-0.88688 0.17815,-0.28434 0.37959,-0.55986 0.6283,-0.78952"
         style="fill:#2c0e10;fill-opacity:1;fill-rule:nonzero;stroke:none;stroke-width:0.0352778"
         id="path90" />
    </g>
  </g>
</svg>
