<?xml version="1.0" encoding="UTF-8" standalone="no"?>
<!-- Created with Inkscape (http://www.inkscape.org/) -->

<svg
   width="43.786022mm"
   height="33.102634mm"
   viewBox="0 0 43.786022 33.102635"
   version="1.1"
   id="svg1424"
   inkscape:version="1.1.2 (1:1.1+202202050852+0a00cf5339)"
   sodipodi:docname="leaf6.svg"
   xmlns:inkscape="http://www.inkscape.org/namespaces/inkscape"
   xmlns:sodipodi="http://sodipodi.sourceforge.net/DTD/sodipodi-0.dtd"
   xmlns="http://www.w3.org/2000/svg"
   xmlns:svg="http://www.w3.org/2000/svg">
  <sodipodi:namedview
     id="namedview1426"
     pagecolor="#ffffff"
     bordercolor="#666666"
     borderopacity="1.0"
     inkscape:pageshadow="2"
     inkscape:pageopacity="0.0"
     inkscape:pagecheckerboard="0"
     inkscape:document-units="mm"
     showgrid="false"
     fit-margin-top="0"
     fit-margin-left="0"
     fit-margin-right="0"
     fit-margin-bottom="0"
     inkscape:zoom="1.2810466"
     inkscape:cx="242.37994"
     inkscape:cy="218.96159"
     inkscape:window-width="1856"
     inkscape:window-height="1016"
     inkscape:window-x="1984"
     inkscape:window-y="27"
     inkscape:window-maximized="1"
     inkscape:current-layer="layer1" />
  <defs
     id="defs1421">
    <clipPath
       clipPathUnits="userSpaceOnUse"
       id="clipPath22">
      <path
         d="m 599.137,3471.36 c 38.629,-6.52 79.593,1.96 112.461,23.27 -2.364,-7.69 3.851,-16.01 11.511,-18.47 7.661,-2.47 16.036,-0.5 23.555,2.39 12.754,4.87 24.508,12.35 34.328,21.84 10.821,-5.36 7.324,-24.15 17.641,-30.42 4.332,-2.64 9.82,-2.14 14.82,-1.31 20.32,3.39 39.945,10.88 57.348,21.91 -4.496,-7.05 -6.879,-15.44 -6.77,-23.81 55.157,10.68 106.774,42.69 145.809,83.08 -21.356,-40.21 -43.371,-83.83 -37.32,-128.96 70.35,61.1 132.47,131.66 184.18,209.17 8.33,-50.72 12.26,-102.17 11.75,-153.57 -0.55,-54.09 -5.98,-108.61 2.85,-161.97 11.73,3.14 22.7,9.05 31.78,17.1 -1.98,80.79 -7.51,161.5 -16.58,241.8 -1.51,13.46 -3.24,27.27 -9.59,39.25 1.16,-8.57 7.83,-15.23 14.4,-20.84 23.99,-20.52 51.49,-36.44 78.82,-52.23 32.76,-18.93 66.53,-38.2 103.95,-43.78 22.13,-3.31 47.01,5.74 69.32,7.39 -20.65,8.94 -28.69,33.2 -40.03,52.63 -13.84,23.7 -35.52,42.74 -60.82,53.39 24.22,9.35 50.37,8.69 76.61,8.03 13.24,-0.33 26.5,-0.67 39.56,0.28 32.75,2.39 65.3,12.98 97.82,8.46 -10.37,8.98 -17.17,21.98 -18.64,35.62 43.79,11.99 85.8,30.45 124.25,54.59 8.15,5.11 16.98,11.84 17.62,21.44 51.66,-7.1 102.35,15.16 149.76,36.89 -39.09,-4.64 -76.5,14.58 -114.74,23.94 -15.59,3.81 -31.32,6.5 -47.36,5.93 6.81,10.23 11.46,21.9 13.53,34.02 -6.48,-9.88 -19.43,-12.73 -31.06,-14.77 -21.94,-3.83 -43.88,-7.66 -65.82,-11.5 -0.26,9.34 -1.52,18.65 -3.76,27.72 -12.59,-4.29 -27.37,-8.34 -38.43,-0.93 -2.44,1.64 -4.67,3.82 -7.54,4.49 -2.71,0.62 -5.52,-0.23 -8.17,-1.09 -24.93,-8.12 -49.33,-17.87 -72.99,-29.18 0.06,12.3 -2.16,24.61 -6.5,36.12 -60.39,-27.06 -116.9,-62.76 -167.29,-105.65 12.86,20.68 23.53,43.11 40.48,60.6 10.48,10.8 23.01,19.34 34.89,28.57 56.87,44.12 100.06,105.62 122.27,174.08 -8.82,-2.75 -21.13,-5.59 -29.75,-2.27 18.41,5.51 32.76,20.37 42.45,36.96 9.68,16.61 15.45,35.13 22.37,53.06 8.84,22.89 19.65,44.96 28.78,67.73 -14.73,-9.46 -37.96,-7.12 -49.26,6.25 9.53,1.32 16.7,9.24 22.12,17.19 20.78,30.5 28.45,69.63 20.75,105.72 -5.03,-8.8 -13.77,-15.4 -23.61,-17.83 15.36,33.89 30.73,67.77 46.09,101.65 -9.02,-2.42 -14.69,11.05 -10.87,19.58 3.82,8.52 12.24,14.16 16.71,22.36 6.67,12.23 3.34,27.16 2.87,41.08 -1.05,31.21 13.14,63.24 3.31,92.87 -12.37,-18.01 -24.75,-36.02 -37.12,-54.02 -21.29,-30.98 -43.5,-65.07 -41.28,-102.59 -5.91,10.39 -11.81,20.78 -17.71,31.18 -14.49,-47.17 -30.77,-93.79 -48.79,-139.73 -8.1,12.25 -15.94,24.68 -23.5,37.27 -12.76,-21.21 -25.53,-42.42 -38.29,-63.63 -3.68,7.28 -6.37,15.05 -7.98,23.04 -13.36,-29.56 -27.16,-58.91 -41.4,-88.05 -3.62,10.04 -7.25,20.07 -10.87,30.12 -33.9,-75.69 -93.87,-140.19 -111.89,-221.13 -6.78,13.54 -12.75,27.96 -13.08,43.1 -0.3,13.72 4.06,27.06 6.56,40.56 5.54,29.86 1.84,61.36 -10.47,89.13 -5.05,-2.89 -10.1,-5.77 -15.16,-8.66 0.83,33.48 -2.36,67.06 -9.48,99.77 -4.6,-7.89 -9.19,-15.79 -13.78,-23.68 -6.28,34.64 -20.03,67.92 -40.05,96.88 -4.96,-8.88 -9.92,-17.76 -14.88,-26.65 -8.1,40.81 -14.96,81.85 -20.57,123.07 -9.11,-3.31 -17.3,-9.16 -23.37,-16.72 5.37,24.69 -6.14,48.81 -14.33,72.72 -7.29,21.27 -14.58,42.54 -21.869,63.82 -1.675,-5.29 -3.347,-10.57 -5.023,-15.84 -19.996,29.95 -36.051,62.54 -47.621,96.64 -2.832,-39.17 -0.438,-78.7 7.101,-117.24 -10.156,3.04 -18.046,12.55 -19.152,23.1 1.453,-32.63 8.012,-65.02 19.359,-95.64 -8.921,6.18 -17.847,12.36 -26.765,18.54 9.906,-33.53 21.902,-66.44 35.887,-98.47 -7.383,6.88 -14.774,13.76 -22.153,20.63 -6.543,-48.58 -3.961,-98.37 7.574,-146.02 -13.765,8.38 -27.011,17.63 -39.632,27.66 5.078,-55.1 15.351,-109.71 30.652,-162.89 -14.875,-1.94 -30.559,4.2 -40.152,15.73 9.535,-51.78 33.089,-100.92 67.492,-140.78 10.558,-12.24 22.199,-23.73 30.512,-37.6 15.13,-25.26 17.92,-56.15 31.27,-82.39 -13.35,10.56 -20.62,25.42 -31.575,38.44 -10.281,12.22 -23.055,22.04 -35.723,31.77 -44.762,34.37 -89.519,68.74 -134.285,103.11 8.691,-10.82 5.844,-28.91 -5.746,-36.55 -23.648,32.9 -72.828,30.75 -108.668,49.64 5.02,-1.94 4.52,-10.04 0.187,-13.23 -4.324,-3.2 -10.281,-2.79 -15.57,-1.81 -15.113,2.81 -29.547,9.17 -41.808,18.44 -13.903,10.5 -25.86,25.07 -42.809,29.11 0.469,-7.45 0.937,-14.9 1.398,-22.36 -23.41,13.93 -47.793,26.25 -72.902,36.82 1.156,-3.97 2.32,-7.95 3.477,-11.92 -27.414,26.4 -54.828,52.81 -82.243,79.22 -0.062,-46.42 15.356,-92.73 43.227,-129.84 -7.453,1.93 -14.914,3.87 -22.379,5.8 28.367,-23.65 55.024,-49.36 79.688,-76.85 -8.266,-3.6 -17.254,-5.53 -26.266,-5.64 29.262,-20.43 60.344,-38.24 92.758,-53.16 -9.207,-6.69 -19.875,-11.35 -31.031,-13.56 20.093,-9.8 35.195,-27.24 52.656,-41.2 17.461,-13.95 40.375,-24.91 61.719,-18.27 -7.848,-9.77 -19.59,-16.32 -32.028,-17.86 53.219,-25.14 89.457,-38.83 143.203,-62.83 49.703,-22.2 96.793,-26.62 146.801,-48.12 -57.25,-38.45 -130.277,-28.87 -196.262,-48.91 6.235,-6.37 15.45,-9.69 24.313,-8.76 -21.379,-11.62 -41.844,-24.94 -61.129,-39.78 -4.59,-3.54 -9.289,-7.37 -11.613,-12.68 -2.114,-4.81 -2.153,-10.59 -5.461,-14.67 -2.684,-3.3 -6.957,-4.79 -10.992,-6.11 -18.2,-5.98 -36.399,-11.96 -54.594,-17.94 1.84,-5.85 6.14,-10.87 11.633,-13.6 -28.133,-17.97 -50.914,-39.05 -67.879,-67.8"
         id="path20" />
    </clipPath>
    <clipPath
       clipPathUnits="userSpaceOnUse"
       id="clipPath178">
      <path
         d="m 2655.38,3661.85 c -3.99,-25.54 0.6,-53.72 18.12,-72.72 27.22,-29.55 77.6,-26.71 110.07,-3.05 32.47,23.67 50.26,62.44 62.2,100.81 35.28,113.35 31.58,237.32 77.03,347 -62.01,-50.78 -144.23,-67.1 -219.66,-94.22 -75.42,-27.11 -153.44,-74.96 -172.85,-152.73 -10.08,-40.41 3.87,-91.81 43.43,-104.82 38.57,-12.67 75.99,16.04 102.52,40.75 -8.31,-19.81 -17.49,-39.49 -20.86,-61.02"
         id="path176" />
    </clipPath>
    <clipPath
       clipPathUnits="userSpaceOnUse"
       id="clipPath202">
      <path
         d="m 1982.81,4142.55 c 41.55,-33.96 65.96,-84.53 83.06,-135.39 17.1,-50.87 28.27,-103.84 49.91,-152.95 17.08,-38.77 40.59,-74.69 69.27,-105.86 30.05,-32.64 69.4,-61.38 113.77,-61.37 44.36,0.01 89.58,40.78 79.82,84.06 46.2,-6.49 92.81,24.5 111.89,67.07 19.08,42.58 13.44,93.46 -7.24,135.27 -20.68,41.83 -54.96,75.54 -92.39,103.39 -92.04,68.49 -207.11,105.46 -321.83,103.4 -45.45,-0.82 -91.16,-5.35 -136.51,-7.99 17.71,-8.29 34.95,-17.12 50.25,-29.63"
         id="path200" />
    </clipPath>
    <clipPath
       clipPathUnits="userSpaceOnUse"
       id="clipPath106">
      <path
         d="m 4428.1,3968.97 c -52.63,44.62 -160.32,141.81 -269.6,73.78 -94.73,-58.97 -235.45,-149.85 -337.63,-196.1 4.36,3.95 197.96,179.44 266.71,243.82 69.54,65.11 137.76,155.83 31.08,292.34 -15.17,60.39 -23.37,124.54 -23.37,124.54 0,0 -29.71,-46.46 -104.72,-56.35 -75.01,-9.87 -157.39,-38.27 -172.55,-169.69 -14.73,-127.62 33.13,-309.71 -17.65,-442.17 l -0.47,0.34 c -11.33,29.99 -48.8,136.58 -36.16,204.19 14.81,79.29 28.52,268.79 -57.92,312.32 -86.43,43.53 -143.59,39.08 -203.26,90.78 -20.01,-51.63 -37.3,-112.17 -82.27,-177.91 -44.96,-65.74 -37.11,-182.01 148.81,-258.58 71.65,-22.58 165.82,-130.87 203.6,-177.18 -18.29,1.66 -42.5,6.57 -63.01,20.14 -122.69,87.73 -167.18,79.03 -205.31,49.51 -38.14,-29.51 -38.14,-29.51 -92.58,-42.88 54.47,-24.02 3.94,-76.82 103.3,-114.78 86.75,-33.13 242.29,45.17 280.41,65.59 -10.53,-19.54 16.89,-218.2 103.02,-278.85 48.91,-34.45 75.24,-26.93 97.88,-19.41 17.61,5.85 32.98,11.7 55.01,-2.21 -19.31,52.63 -19.31,52.63 -16.11,100.75 3.2,48.11 -14.42,89.88 -155.7,142.68 -25.75,10.71 -42.58,47.5 -54.12,67.77 58.42,-9.1 152.93,-24.93 188.67,-37.28 53.31,-18.41 232.21,-100.37 306.01,-86.52 73.79,13.85 77.18,95.08 143.19,162.9 66.01,67.83 75.31,72.83 75.31,72.83 0,0 -57.94,-9 -110.57,35.63"
         id="path104" />
    </clipPath>
    <clipPath
       clipPathUnits="userSpaceOnUse"
       id="clipPath226">
      <path
         d="m 1263.38,2237.22 c 101.67,-18.82 201.01,-50.2 295.05,-93.19 0.02,5.76 0.04,11.52 0.05,17.27 31.51,1.34 63.08,1.22 94.57,-0.36 -9.19,6.89 -8.56,21.75 -1.78,31.02 6.8,9.28 17.78,14.34 28.28,19.02 15.6,6.96 31.2,13.91 46.8,20.87 2.85,1.26 5.92,2.76 7.22,5.58 2.79,6.07 -4.18,11.65 -8.73,16.53 -11.33,12.12 -9.31,32.34 0.03,46.05 9.35,13.71 24.22,22.43 38.6,30.71 29.86,17.19 59.73,34.39 89.6,51.58 -45.21,-5.14 -92.2,7.31 -128.92,34.16 -5.92,4.34 -11.86,9.41 -14.19,16.37 -2.83,8.45 0.28,17.68 4.11,25.72 11.02,23.13 28.36,43.19 49.65,57.44 -11.86,2.54 -24.64,5.62 -32.35,14.97 -7.7,9.36 -5.78,26.95 5.97,29.91 -12.27,15.84 -15.11,38.45 -7.15,56.83 5.02,11.59 14.15,22.5 12.84,35.07 -0.79,7.52 -5.34,14.3 -5.95,21.84 -0.67,8.48 3.71,16.45 7.95,23.83 18.36,31.96 36.72,63.91 55.08,95.87 -32.2,-29.83 -74.4,-57.06 -117.19,-47.28 -31.85,-19.41 -73.6,-21.46 -107.21,-5.28 -32.96,-36.27 -81.57,-57.8 -130.58,-57.82 26.75,28.1 47.62,61.76 60.91,98.21 -2.76,-0.91 -5.52,-1.82 -8.28,-2.74 -18.17,-6.03 -44.83,5.84 -53.43,22.95 -11.88,23.62 1.91,51.3 5.63,77.47 -10.03,-8.93 -25.92,-8.36 -37.79,-2.07 -11.87,6.29 -20.55,17.16 -28.51,27.98 -12.71,17.3 -24.5,35.28 -35.28,53.84 -5.96,-5.02 -15.9,-1.09 -19.53,5.8 -3.63,6.9 -2.66,15.25 -1.01,22.86 -41.47,33.52 -63.85,89.23 -57.08,142.12 -14.26,-38.85 -39.56,-72.49 -64.52,-105.51 -5.41,-7.16 -11.26,-14.67 -19.65,-17.89 -8.39,-3.22 -19.92,0 -22.29,8.66 -2.44,-22.19 -9.73,-43.84 -21.19,-63 -2.37,-3.96 -6.09,-8.35 -10.61,-7.4 -3.46,0.74 -5.45,4.31 -6.81,7.58 -3.18,7.6 -5.43,15.6 -6.7,23.74 -6.03,-30.06 -15.68,-59.39 -28.68,-87.15 -3.51,-7.49 -7.59,-15.23 -14.62,-19.58 -7.04,-4.35 -17.84,-3.63 -21.91,3.57 4.73,-18.5 -5.55,-39.67 -23.02,-47.39 -17.46,-7.71 -40.037,-1.06 -50.53,14.88 8.915,-38.21 10.2,-80.47 14.399,-119.49 1.25,-11.64 2.277,-23.57 -0.449,-34.96 -2.727,-11.4 -9.86,-22.35 -20.723,-26.73 -8.551,-3.45 -18.184,-2.47 -27.281,-1 -27.699,4.47 -54.735,13.03 -79.961,25.32 6.113,-12.79 -5.805,-28.28 -19.652,-31.31 -13.844,-3.04 -27.993,2.37 -41.129,7.69 2.656,-9.57 -5.196,-19.56 -14.618,-22.72 -9.425,-3.16 -19.726,-1.24 -29.394,1.07 -30.246,7.25 -59.59,18.24 -87.16,32.65 7.437,-27.41 23.672,-53.84 41.871,-75.64 18.199,-21.8 35.168,-48.09 32.207,-76.34 -4.031,-1.08 -8.067,-2.17 -12.102,-3.26 9.02,-8.7 18.606,-18.54 19.696,-31.02 1.093,-12.49 -12.172,-26.03 -23.235,-20.14 5.465,-15 19.739,-24.58 32.379,-34.33 12.649,-9.74 25.375,-22.65 25.277,-38.61 -0.011,-3 -0.468,-6.16 0.829,-8.86 1.453,-3.01 4.714,-4.66 7.8,-5.98 8.039,-3.43 16.618,-6.2 23.164,-11.98 6.547,-5.8 10.465,-15.78 6.27,-23.44 -3.727,-6.8 -12.078,-9.29 -19.602,-11.16 -28.543,-7.11 -57.089,-14.23 -85.636,-21.34 21.398,-12.14 42.797,-24.27 64.191,-36.4 12.91,-7.31 27.801,-18.62 24.934,-33.18 11.539,5.22 24.207,-9.49 21.578,-21.87 -2.633,-12.39 -14.356,-20.64 -25.949,-25.75 -1.489,-0.65 -3.164,-1.46 -3.637,-3.02 -0.469,-1.56 1.586,-3.47 2.715,-2.3 33.414,6.07 66.601,-8.45 96.976,-23.64 9.407,-4.7 19.18,-10.02 24.59,-19.04 5.41,-9.01 4.301,-22.77 -4.965,-27.75 76.507,-4.28 154.137,14.05 220.637,52.12 40.07,22.93 73.58,61.25 119.13,68.77"
         id="path224" />
    </clipPath>
    <clipPath
       clipPathUnits="userSpaceOnUse"
       id="clipPath330">
      <path
         d="m 2706.66,2329.43 c 28.86,13.55 49.18,49.09 36.48,78.33 70.17,4.27 127.65,69.68 134.1,139.69 3.27,35.55 -12.49,79.68 -47.97,83.76 24.11,48.99 20.65,110.48 -8.79,156.48 -29.44,45.99 -83.84,74.86 -138.43,73.47 -8.79,47.03 -28.91,94.4 -67.26,122.99 -38.36,28.59 -97.75,32.07 -131.67,-1.67 -55.48,52.75 -165.4,0.52 -214.89,58.93 14.74,-34.33 -12.48,-71.15 -37.75,-98.67 -25.27,-27.51 -52.27,-64.62 -37.12,-98.76 -42.43,-1.5 -82.1,-26.35 -106.98,-60.76 -24.88,-34.41 -36.02,-77.39 -37.27,-119.83 -1.49,-50.52 20.87,-111.59 70.93,-118.59 -29.48,-36.11 -36.56,-89.11 -17.59,-131.68 18.97,-42.58 63.11,-72.76 109.66,-74.98 -9.85,-26.03 8.84,-54.44 30.86,-71.46 55.34,-42.75 138.6,-44.83 196,-4.88 44.07,-35.12 104.68,-15.59 135.5,25.67 19.42,26 14.78,38.32 48.42,39.62 10.5,0.41 19.89,-0.95 28.97,-2.31 17.44,-2.61 33.77,-5.22 54.8,4.65"
         id="path328" />
    </clipPath>
    <clipPath
       clipPathUnits="userSpaceOnUse"
       id="clipPath138">
      <path
         d="m 3894.4,2099.77 c 69.11,-3.4 145.1,-14.4 201.73,25.36 32.82,23.03 54.57,60.82 90.72,78.15 -9.4,14.34 7.35,30.81 19.97,42.42 18.95,17.43 32.08,41.11 36.82,66.43 -13.79,9.78 -14.25,33.32 -0.89,43.66 -28.21,14.9 -36.75,57.36 -16.51,82.02 -13.93,-3.48 -26.83,11.67 -26.8,26.03 0.03,14.36 8.58,27.14 16.78,38.93 -5.36,-3.04 -9.55,5.64 -9.51,11.81 0.19,35.04 8.93,70 25.21,101.02 -24.3,-16.58 -61.45,-9.65 -78.16,14.56 -14.89,2.81 -27.2,16.02 -28.96,31.08 -1.75,15.04 7.19,30.73 21.03,36.89 -5.39,16.28 -6.54,33.95 -3.31,50.78 -15.5,16.55 -14.65,45.65 1.78,61.27 -32.94,-12.07 -72.97,-1.07 -95.11,26.15 -22.13,27.21 -24.76,68.65 -6.22,98.44 -14.78,-9.76 -33.16,8.57 -36.56,25.93 -3.42,17.37 -1.09,37.28 -12.54,50.78 -3.79,4.47 -8.78,7.74 -13.02,11.78 -15.19,14.47 -19.27,37.69 -15.62,58.35 3.67,20.65 13.94,39.45 24.06,57.82 -33.25,-20.84 -66.86,-41.97 -93.95,-70.35 -18.48,-19.37 -41.97,-44.36 -66.85,-34.46 -2.41,-44.75 -54.88,-78.93 -96.78,-63.03 -9.68,-64.93 -87.12,-109.97 -148.34,-86.3 -13.19,-37.21 -27.11,-75.61 -54.3,-104.24 -27.2,-28.64 -71.56,-44.93 -107.2,-27.93 6.23,-23.87 10,-49.99 0.11,-72.59 -4.71,-10.74 -12.26,-20.08 -16.66,-30.95 -4.39,-10.87 -4.84,-24.74 3.5,-32.98 -32.17,-27.42 -59.32,-60.72 -79.72,-97.75 -6.04,-10.98 -11.64,-22.91 -11.02,-35.42 0.86,-17.42 10.08,-41.71 -6.39,-47.44 7.15,-35.45 19.38,-69.86 36.2,-101.87 9.06,-17.23 19.18,-39.34 6.93,-54.46 42.28,-38.6 94.08,-66.66 149.49,-81 30.35,-7.85 52.29,-26.32 82.31,-35.36 26.04,-7.83 45.97,-15.78 68.53,-30.94 18.63,-12.53 48.83,-22.38 68.85,-32.32 21.21,-10.55 45.04,-4.03 67.61,-2.12 34.17,2.91 68.54,3.53 102.79,1.85"
         id="path136" />
    </clipPath>
  </defs>
  <g
     inkscape:label="Layer 1"
     inkscape:groupmode="layer"
     id="layer1"
     transform="translate(-165.29349,10.26736)">
    <g
       id="g871"
       transform="rotate(-77.863665,186.7441,6.4741613)">
      <path
         d="m 190.85302,19.66686 c 2.43769,0.119945 5.1188,0.508 7.11623,-0.894644 1.15782,-0.8128 1.92581,-2.145595 3.20111,-2.756959 -0.33232,-0.505883 0.25894,-1.087261 0.70414,-1.496836 0.66851,-0.614891 1.13136,-1.450269 1.29858,-2.34315 -0.48578,-0.345369 -0.50271,-1.175456 -0.0307,-1.540228 -0.99553,-0.525991 -1.29681,-2.023886 -0.58278,-2.8938361 -0.49142,0.1231195 -0.94615,-0.4116917 -0.9451,-0.9179278 0.001,-0.5069417 0.30198,-0.9577917 0.59126,-1.3737168 -0.18909,0.1075973 -0.33655,-0.1989666 -0.33549,-0.4162778 0.007,-1.2361334 0.31503,-2.4694446 0.8897,-3.5637613 -0.85725,0.5845528 -2.16817,0.3404306 -2.75731,-0.51364449 -0.52528,-0.0994833 -0.95991,-0.56550281 -1.02129,-1.0964334 -0.0621,-0.53093059 0.25294,-1.08443891 0.74154,-1.30175011 -0.1905,-0.5739695 -0.23107,-1.1973278 -0.11677,-1.7910529 -0.54681,-0.5838472 -0.51717,-1.6104306 0.0628,-2.1614695 -1.16205,0.4258028 -2.57422,0.037747 -3.35527,-0.922514 -0.78105,-0.9602612 -0.87312,-2.4218196 -0.21978,-3.4727447 -0.5207,0.3443112 -1.1691,-0.3023301 -1.28975,-0.9151051 -0.1203,-0.612423 -0.0381,-1.315156 -0.44239,-1.791053 -0.1337,-0.157692 -0.30973,-0.27305 -0.45931,-0.415925 -0.53552,-0.51047 -0.6798,-1.32962 -0.55034,-2.058106 0.12877,-0.728486 0.49107,-1.391708 0.84808,-2.039761 -1.17228,0.734836 -2.35867,1.480608 -3.31399,2.481792 -0.65194,0.68333 -1.48096,1.564922 -2.35832,1.215672 -0.0847,1.578328 -1.93605,2.784122 -3.41419,2.223558 -0.34184,2.2902338 -3.0734,3.8794978 -5.2331,3.0441199 -0.46567,1.3126862 -0.95638,2.6677057 -1.91594,3.6777086 -0.95885,1.0100028 -2.52412,1.5846779 -3.78142,0.9853084 0.21943,0.8417278 0.35278,1.7635362 0.004,2.56046126 -0.16581,0.37923613 -0.43286,0.70837782 -0.58773,1.09184729 -0.15522,0.38382225 -0.1711,0.87277225 0.12347,1.16346115 -1.13488,0.9676695 -2.09303,2.1424196 -2.81234,3.448403 -0.21343,0.3873501 -0.41099,0.808214 -0.38912,1.2498918 0.0303,0.6145389 0.35596,1.4714362 -0.22507,1.6735779 0.25224,1.2505973 0.68369,2.4641527 1.27706,3.5937477 0.31961,0.607483 0.67663,1.387122 0.24483,1.921228 1.49083,1.361369 3.31822,2.351616 5.27297,2.857147 1.07103,0.277283 1.84467,0.928511 2.90406,1.247775 0.91828,0.276225 1.62172,0.556683 2.41724,1.091142 0.65757,0.44203 1.72296,0.789869 2.42922,1.14053 0.7486,0.371828 1.58891,0.14217 2.38478,0.07479 1.20544,-0.102658 2.41794,-0.12453 3.62656,-0.06526"
         style="fill:#f35f19;fill-opacity:1;fill-rule:nonzero;stroke:none;stroke-width:0.0352778"
         id="path130" />
      <g
         id="g132"
         transform="matrix(0.03527778,0,0,-0.03527778,53.485575,93.677879)">
        <g
           id="g134"
           clip-path="url(#clipPath138)">
          <path
             d="m 4185.61,2202.67 c -2.51,4.55 -2.51,9.28 -0.95,13.99 -1.1,-4.52 -0.65,-9.05 2.19,-13.38 -0.41,-0.2 -0.83,-0.4 -1.24,-0.61 m -830.28,76.53 c -0.17,0.15 -0.34,0.31 -0.51,0.46 2,2.46 3.4,5.12 4.31,7.9 -0.72,-2.94 -1.95,-5.74 -3.8,-8.36 m 885.38,20.84 c 0.95,3.39 1.76,6.81 2.4,10.27 -9.64,6.85 -12.77,20.45 -9.18,31.54 -2.71,-10.72 0.58,-23.24 9.71,-29.72 -0.76,-4.08 -1.74,-8.11 -2.93,-12.09 m 0.53,54.48 c -21.88,12.26 -31.46,41.32 -24.27,64.95 -6.27,-23.64 3.77,-52.05 25.78,-63.68 -0.52,-0.4 -1.02,-0.83 -1.51,-1.27 M 3312,2434.48 c -0.11,0.5 -0.21,1 -0.31,1.51 4.56,1.58 7.15,4.6 8.5,8.49 -1.07,-4.51 -3.49,-8.08 -8.19,-10 m 909.64,1.01 c -12.27,0 -22.74,13.59 -22.71,26.53 0,4.08 0.7,8.04 1.88,11.88 -0.86,-3.27 -1.36,-6.62 -1.37,-10.06 -0.02,-12.94 10.46,-26.54 22.72,-26.53 1.34,0 2.71,0.16 4.08,0.5 -0.55,-0.67 -1.08,-1.35 -1.59,-2.05 -1.01,-0.18 -2.01,-0.27 -3.01,-0.27 m -901.88,61.96 c 2.03,7.44 5.6,14.6 9.34,21.4 10.67,19.37 23.18,37.71 37.29,54.72 0.29,-0.06 0.57,-0.11 0.85,-0.17 -14.67,-17.48 -27.65,-36.38 -38.66,-56.36 -3.44,-6.25 -6.73,-12.8 -8.82,-19.59 m 893.73,2.88 c -4.26,0 -7.33,7.14 -7.31,12.43 0.12,20.56 3.17,41.08 8.96,60.8 -5.45,-19.16 -8.32,-39.06 -8.43,-58.98 -0.04,-5.29 3.04,-12.44 7.31,-12.44 0.7,0 1.44,0.2 2.2,0.63 -0.52,-0.75 -1.05,-1.51 -1.57,-2.27 -0.39,-0.12 -0.78,-0.17 -1.16,-0.17 m -12.73,104.39 c -18.41,0 -37.01,8.39 -47.52,23.62 -14.89,2.82 -27.21,16.03 -28.95,31.08 -0.57,4.84 -0.03,9.74 1.43,14.38 -1.06,-4.09 -1.41,-8.35 -0.92,-12.56 1.76,-15.06 14.07,-28.27 28.96,-31.08 10.51,-15.23 29.12,-23.63 47.52,-23.62 10.85,0 21.63,2.91 30.64,9.06 -0.39,-0.75 -0.77,-1.5 -1.16,-2.24 -8.87,-5.86 -19.41,-8.64 -30,-8.64 m -55.89,92.97 c -5.02,15.89 -6.02,33.04 -2.87,49.4 -10.67,11.4 -13.6,28.76 -9.01,43.56 -3.81,-14.39 -0.71,-30.8 9.53,-41.74 -3.23,-16.83 -2.08,-34.5 3.31,-50.78 -0.32,-0.14 -0.64,-0.29 -0.96,-0.44 m -29.11,105.81 c -3.02,-0.01 -6.04,0.15 -9.05,0.47 2.06,0.49 4.12,0.96 6.2,1.41 1.12,-0.05 2.24,-0.07 3.37,-0.07 9.53,0 19.04,1.58 28.02,4.87 -0.83,-0.79 -1.62,-1.61 -2.38,-2.47 -8.42,-2.85 -17.28,-4.21 -26.16,-4.21"
             style="fill:#f89e90;fill-opacity:1;fill-rule:nonzero;stroke:none"
             id="path140" />
          <path
             d="m 3751.99,2094.17 c -9.6,0 -19.03,1.42 -27.99,5.87 -20.02,9.94 -50.22,19.79 -68.85,32.32 -22.56,15.16 -42.49,23.11 -68.53,30.94 -30.02,9.04 -51.96,27.51 -82.31,35.36 -55.19,14.28 -106.8,42.18 -148.98,80.54 1.85,2.62 3.08,5.42 3.8,8.36 4.67,14.31 -3.65,32.14 -11.24,46.56 -16.58,31.56 -28.7,65.44 -35.89,100.36 4.7,1.92 7.12,5.49 8.19,10 3.5,10.17 -1.49,26.35 -2.11,38.95 -0.24,4.77 0.43,9.45 1.68,14.02 2.09,6.79 5.38,13.34 8.82,19.59 11.01,19.98 23.99,38.88 38.66,56.36 108.05,-22.1 194.05,-104.74 221.04,-210.92 30.38,14.25 64.27,22.26 100.05,22.26 72.9,0 138.06,-33.08 181.34,-85.02 19.68,23.07 42.59,43.28 68.04,59.93 -32.47,46.61 -51.56,103.23 -51.56,164.33 0,135.81 94.05,249.66 220.56,279.99 3.01,-0.32 6.03,-0.48 9.05,-0.47 8.88,0 17.74,1.36 26.16,4.21 -4.28,-4.88 -7.27,-10.78 -8.93,-17.06 -4.59,-14.8 -1.66,-32.16 9.01,-43.56 -3.15,-16.36 -2.15,-33.51 2.87,-49.4 -9.48,-4.6 -16.52,-13.71 -19.15,-23.89 -1.46,-4.64 -2,-9.54 -1.43,-14.38 1.74,-15.05 14.06,-28.26 28.95,-31.08 10.51,-15.23 29.11,-23.62 47.52,-23.62 10.59,0 21.13,2.78 30,8.64 -6.48,-12.72 -11.71,-26.07 -15.62,-39.8 -5.79,-19.72 -8.84,-40.24 -8.96,-60.8 -0.02,-5.29 3.05,-12.43 7.31,-12.43 0.38,0 0.77,0.05 1.16,0.17 -5.72,-8.3 -11.33,-17.1 -13.84,-26.6 -1.18,-3.84 -1.88,-7.8 -1.88,-11.88 -0.03,-12.94 10.44,-26.53 22.71,-26.53 1,0 2,0.09 3.01,0.27 -3.59,-4.92 -6.13,-10.46 -7.68,-16.29 -7.19,-23.63 2.39,-52.69 24.27,-64.95 -3.66,-3.39 -6.1,-7.85 -7.31,-12.67 -3.59,-11.09 -0.46,-24.69 9.18,-31.54 -0.64,-3.46 -1.45,-6.88 -2.4,-10.27 -6.19,-20.7 -17.99,-39.71 -33.89,-54.34 -8.81,-8.1 -19.63,-18.58 -22.16,-29.04 -1.56,-4.71 -1.56,-9.44 0.95,-13.99 -35.41,-17.59 -57.04,-54.77 -89.48,-77.54 -33.73,-23.68 -74.32,-29.36 -116.24,-29.36 -28.46,0 -57.54,2.62 -85.49,4 -12.54,0.61 -25.09,0.92 -37.64,0.92 -21.74,0 -43.49,-0.92 -65.15,-2.77 -13.04,-1.11 -26.49,-3.75 -39.62,-3.75"
             style="fill:#f14b1c;fill-opacity:1;fill-rule:nonzero;stroke:none"
             id="path142" />
          <path
             d="m 3452.77,2744.4 c -10.38,-0.01 -20.64,1.99 -30.3,6.38 -0.19,0.78 -0.39,1.56 -0.6,2.34 9.98,-4.76 20.64,-6.91 31.42,-6.91 27.71,0 56.2,14.22 75.78,34.84 27.19,28.63 41.11,67.03 54.3,104.24 11.29,-4.36 23.12,-6.39 34.98,-6.39 48.17,0 96.76,33.48 110.53,79.92 -13.02,-47.39 -62.25,-81.73 -111.05,-81.74 -11.86,0 -23.69,2.03 -34.98,6.4 -13.2,-37.21 -27.11,-75.62 -54.31,-104.25 -19.57,-20.62 -48.05,-34.83 -75.77,-34.83 m 300.42,221.41 c -7.37,0 -14.72,1.23 -21.78,3.88 0.1,0.63 0.2,1.26 0.3,1.9 7.13,-2.71 14.56,-3.96 22,-3.96 31.51,0 63.14,22.48 72.26,52.7 -8.38,-31.13 -40.65,-54.51 -72.78,-54.52 m 243.67,38.82 c -1.01,1.75 -2.17,3.44 -3.52,5.03 -3.79,4.47 -8.78,7.74 -13.02,11.79 -15.18,14.47 -19.27,37.69 -15.6,58.34 0.69,3.93 1.63,7.8 2.75,11.6 -0.89,-3.22 -1.65,-6.48 -2.24,-9.78 -3.65,-20.66 0.43,-43.88 15.62,-58.35 4.24,-4.04 9.23,-7.31 13.02,-11.78 1.51,-1.78 2.77,-3.67 3.85,-5.65 -0.29,-0.4 -0.57,-0.8 -0.86,-1.2 m -157.37,25.93 c -3.67,0 -7.39,0.65 -11.14,2.09 0.05,0.66 0.1,1.31 0.14,1.97 3.88,-1.54 7.72,-2.24 11.52,-2.24 20.56,0 39.73,20.35 55.33,36.7 27.09,28.38 60.7,49.51 93.95,70.35 -0.42,-0.76 -0.84,-1.51 -1.25,-2.27 -33,-20.69 -66.33,-41.73 -93.22,-69.9 -15.6,-16.35 -34.77,-36.7 -55.33,-36.7"
             style="fill:#f9a82e;fill-opacity:1;fill-rule:nonzero;stroke:none"
             id="path144" />
          <path
             d="m 3606,2605.77 c -77.92,0 -145.36,44.78 -178.01,110.01 -0.4,11.72 -2.64,23.59 -5.52,35 9.66,-4.39 19.92,-6.39 30.3,-6.38 27.72,0 56.2,14.21 75.77,34.83 27.2,28.63 41.11,67.04 54.31,104.25 11.29,-4.37 23.12,-6.4 34.98,-6.4 48.8,0.01 98.03,34.35 111.05,81.74 1.05,3.55 1.9,7.18 2.53,10.87 7.06,-2.65 14.41,-3.88 21.78,-3.88 32.13,0.01 64.4,23.39 72.78,54.52 1.2,3.98 2.01,8.11 2.38,12.32 3.75,-1.44 7.47,-2.09 11.14,-2.09 20.56,0 39.73,20.35 55.33,36.7 26.89,28.17 60.22,49.21 93.22,69.9 -8.08,-14.7 -16.09,-29.72 -20.57,-45.77 -1.12,-3.8 -2.06,-7.67 -2.75,-11.6 -3.67,-20.65 0.42,-43.87 15.6,-58.34 4.24,-4.05 9.23,-7.32 13.02,-11.79 1.35,-1.59 2.51,-3.28 3.52,-5.03 -23.7,-32.75 -62.23,-54.05 -105.73,-54.05 -25.4,0 -49.02,7.38 -69.06,19.93 -9.12,-25.39 -24.64,-47.69 -44.53,-65.11 17.37,-29.55 27.38,-63.95 27.38,-100.7 0,-109.87 -89.06,-198.93 -198.92,-198.93"
             style="fill:#f68418;fill-opacity:1;fill-rule:nonzero;stroke:none"
             id="path146" />
        </g>
      </g>
      <path
         d="m 193.19511,-16.346461 c -2.26589,6.9006863 -4.43724,14.3605256 -6.10129,21.4305455 -0.92216,3.9197142 -1.657,7.8810565 -2.39148,11.8406345 -0.79587,4.2926 -1.59456,8.6106 -1.64218,12.976225 0,0 0.67521,0.485775 0.91757,-0.484363 0.24306,-0.970139 2.18334,-18.596329 4.12397,-25.7115049 1.94028,-7.1148227 5.09341,-20.0515371 5.09341,-20.0515371"
         style="fill:#2c0e10;fill-opacity:1;fill-rule:nonzero;stroke:none;stroke-width:0.0352778"
         id="path148" />
      <path
         d="m 186.51949,8.1155042 c 3.6e-4,-3.528e-4 0.11819,-0.1248834 0.33373,-0.3520723 1.50919,-1.5899695 7.79498,-8.19573383 11.74927,-12.0819341 l -0.17604,-0.1788583 C 193.90102,-0.04953802 186.33781,7.942643 186.33711,7.9429958 l 0.18238,0.1725084"
         style="fill:#2c0e10;fill-opacity:1;fill-rule:nonzero;stroke:none;stroke-width:0.0352778"
         id="path150" />
      <path
         d="M 185.14225,15.18376 C 190.54751,10.848121 196.15456,6.1494735 201.557,1.815951 l -0.15699,-0.1957917 c -5.40526,4.335992 -11.01231,9.0346397 -16.41475,13.3678087 l 0.15699,0.195792"
         style="fill:#2c0e10;fill-opacity:1;fill-rule:nonzero;stroke:none;stroke-width:0.0352778"
         id="path152" />
      <path
         d="m 184.52912,18.553846 c 5.68537,-2.487083 11.14496,-4.601633 17.01306,-6.621639 l -0.0815,-0.237419 c -5.87375,2.022122 -11.34039,4.139494 -17.03211,6.6294 l 0.10054,0.229658"
         style="fill:#2c0e10;fill-opacity:1;fill-rule:nonzero;stroke:none;stroke-width:0.0352778"
         id="path154" />
      <path
         d="m 188.89933,-1.3604603 6.30485,-6.9282032 -0.18556,-0.1689806 -6.30485,6.928556"
         style="fill:#2c0e10;fill-opacity:1;fill-rule:nonzero;stroke:none;stroke-width:0.0352778"
         id="path156" />
      <path
         d="m 190.89147,-7.8399302 3.62514,-4.2844868 -0.19155,-0.162277 -3.62515,4.284486"
         style="fill:#2c0e10;fill-opacity:1;fill-rule:nonzero;stroke:none;stroke-width:0.0352778"
         id="path158" />
      <path
         d="m 171.81607,5.019879 c 0.98284,1.6531167 2.33257,3.0395335 3.66113,4.4030197 2.92311,2.9989643 5.84623,5.9979283 8.76899,8.9965393 l 0.17992,-0.174978 c -2.92312,-2.998611 -5.84623,-5.997575 -8.76935,-8.9965391 -1.32891,-1.3631334 -2.66277,-2.7368502 -3.62514,-4.356453 l -0.21555,0.1284111"
         style="fill:#2c0e10;fill-opacity:1;fill-rule:nonzero;stroke:none;stroke-width:0.0352778"
         id="path160" />
      <path
         d="m 175.83068,-2.4949937 c 3.17818,6.4459559 6.23711,12.0650007 9.04311,17.5602207 l 0.22366,-0.1143 c -2.80847,-5.4994533 -5.86634,-11.1163814 -9.0417,-17.5570457 l -0.22507,0.111125"
         style="fill:#2c0e10;fill-opacity:1;fill-rule:nonzero;stroke:none;stroke-width:0.0352778"
         id="path162" />
      <path
         d="m 180.01145,-7.9298885 c 1.91488,5.2394559 4.30812,10.7636034 6.29991,15.9653121 l 0.23424,-0.089958 C 184.55099,2.7370541 182.15846,-2.7860351 180.24711,-8.015966 l -0.23566,0.086078"
         style="fill:#2c0e10;fill-opacity:1;fill-rule:nonzero;stroke:none;stroke-width:0.0352778"
         id="path164" />
      <path
         d="m 185.44917,-11.003994 c 3.5e-4,0.0014 0.11712,0.440972 0.30656,1.1669887 0.56797,2.1776974 1.78858,6.9218532 2.46027,10.01712563 l 0.24518,-0.0529167 C 187.56336,-4.0108799 185.69188,-11.067141 185.69188,-11.0682 l -0.24271,0.06421"
         style="fill:#2c0e10;fill-opacity:1;fill-rule:nonzero;stroke:none;stroke-width:0.0352778"
         id="path166" />
      <path
         d="m 189.65639,-13.126658 c 0.27729,2.384425 0.30727,4.0738778 0.58526,6.4717085 l 0.24906,-0.028928 c -0.27657,-2.3844252 -0.30656,-4.0742305 -0.5849,-6.4717085 l -0.24942,0.02893"
         style="fill:#2c0e10;fill-opacity:1;fill-rule:nonzero;stroke:none;stroke-width:0.0352778"
         id="path168" />
    </g>
  </g>
</svg>
