<?xml version="1.0" encoding="UTF-8" standalone="no"?>
<!-- Created with Inkscape (http://www.inkscape.org/) -->

<svg
   width="37.783859mm"
   height="43.553982mm"
   viewBox="0 0 37.78386 43.553982"
   version="1.1"
   id="svg1424"
   inkscape:version="1.1.2 (1:1.1+202202050852+0a00cf5339)"
   sodipodi:docname="leaf7.svg"
   xmlns:inkscape="http://www.inkscape.org/namespaces/inkscape"
   xmlns:sodipodi="http://sodipodi.sourceforge.net/DTD/sodipodi-0.dtd"
   xmlns="http://www.w3.org/2000/svg"
   xmlns:svg="http://www.w3.org/2000/svg">
  <sodipodi:namedview
     id="namedview1426"
     pagecolor="#ffffff"
     bordercolor="#666666"
     borderopacity="1.0"
     inkscape:pageshadow="2"
     inkscape:pageopacity="0.0"
     inkscape:pagecheckerboard="0"
     inkscape:document-units="mm"
     showgrid="false"
     fit-margin-top="0"
     fit-margin-left="0"
     fit-margin-right="0"
     fit-margin-bottom="0"
     inkscape:zoom="1.2810466"
     inkscape:cx="190.07896"
     inkscape:cy="286.0942"
     inkscape:window-width="1856"
     inkscape:window-height="1016"
     inkscape:window-x="1984"
     inkscape:window-y="27"
     inkscape:window-maximized="1"
     inkscape:current-layer="layer1" />
  <defs
     id="defs1421">
    <clipPath
       clipPathUnits="userSpaceOnUse"
       id="clipPath22">
      <path
         d="m 599.137,3471.36 c 38.629,-6.52 79.593,1.96 112.461,23.27 -2.364,-7.69 3.851,-16.01 11.511,-18.47 7.661,-2.47 16.036,-0.5 23.555,2.39 12.754,4.87 24.508,12.35 34.328,21.84 10.821,-5.36 7.324,-24.15 17.641,-30.42 4.332,-2.64 9.82,-2.14 14.82,-1.31 20.32,3.39 39.945,10.88 57.348,21.91 -4.496,-7.05 -6.879,-15.44 -6.77,-23.81 55.157,10.68 106.774,42.69 145.809,83.08 -21.356,-40.21 -43.371,-83.83 -37.32,-128.96 70.35,61.1 132.47,131.66 184.18,209.17 8.33,-50.72 12.26,-102.17 11.75,-153.57 -0.55,-54.09 -5.98,-108.61 2.85,-161.97 11.73,3.14 22.7,9.05 31.78,17.1 -1.98,80.79 -7.51,161.5 -16.58,241.8 -1.51,13.46 -3.24,27.27 -9.59,39.25 1.16,-8.57 7.83,-15.23 14.4,-20.84 23.99,-20.52 51.49,-36.44 78.82,-52.23 32.76,-18.93 66.53,-38.2 103.95,-43.78 22.13,-3.31 47.01,5.74 69.32,7.39 -20.65,8.94 -28.69,33.2 -40.03,52.63 -13.84,23.7 -35.52,42.74 -60.82,53.39 24.22,9.35 50.37,8.69 76.61,8.03 13.24,-0.33 26.5,-0.67 39.56,0.28 32.75,2.39 65.3,12.98 97.82,8.46 -10.37,8.98 -17.17,21.98 -18.64,35.62 43.79,11.99 85.8,30.45 124.25,54.59 8.15,5.11 16.98,11.84 17.62,21.44 51.66,-7.1 102.35,15.16 149.76,36.89 -39.09,-4.64 -76.5,14.58 -114.74,23.94 -15.59,3.81 -31.32,6.5 -47.36,5.93 6.81,10.23 11.46,21.9 13.53,34.02 -6.48,-9.88 -19.43,-12.73 -31.06,-14.77 -21.94,-3.83 -43.88,-7.66 -65.82,-11.5 -0.26,9.34 -1.52,18.65 -3.76,27.72 -12.59,-4.29 -27.37,-8.34 -38.43,-0.93 -2.44,1.64 -4.67,3.82 -7.54,4.49 -2.71,0.62 -5.52,-0.23 -8.17,-1.09 -24.93,-8.12 -49.33,-17.87 -72.99,-29.18 0.06,12.3 -2.16,24.61 -6.5,36.12 -60.39,-27.06 -116.9,-62.76 -167.29,-105.65 12.86,20.68 23.53,43.11 40.48,60.6 10.48,10.8 23.01,19.34 34.89,28.57 56.87,44.12 100.06,105.62 122.27,174.08 -8.82,-2.75 -21.13,-5.59 -29.75,-2.27 18.41,5.51 32.76,20.37 42.45,36.96 9.68,16.61 15.45,35.13 22.37,53.06 8.84,22.89 19.65,44.96 28.78,67.73 -14.73,-9.46 -37.96,-7.12 -49.26,6.25 9.53,1.32 16.7,9.24 22.12,17.19 20.78,30.5 28.45,69.63 20.75,105.72 -5.03,-8.8 -13.77,-15.4 -23.61,-17.83 15.36,33.89 30.73,67.77 46.09,101.65 -9.02,-2.42 -14.69,11.05 -10.87,19.58 3.82,8.52 12.24,14.16 16.71,22.36 6.67,12.23 3.34,27.16 2.87,41.08 -1.05,31.21 13.14,63.24 3.31,92.87 -12.37,-18.01 -24.75,-36.02 -37.12,-54.02 -21.29,-30.98 -43.5,-65.07 -41.28,-102.59 -5.91,10.39 -11.81,20.78 -17.71,31.18 -14.49,-47.17 -30.77,-93.79 -48.79,-139.73 -8.1,12.25 -15.94,24.68 -23.5,37.27 -12.76,-21.21 -25.53,-42.42 -38.29,-63.63 -3.68,7.28 -6.37,15.05 -7.98,23.04 -13.36,-29.56 -27.16,-58.91 -41.4,-88.05 -3.62,10.04 -7.25,20.07 -10.87,30.12 -33.9,-75.69 -93.87,-140.19 -111.89,-221.13 -6.78,13.54 -12.75,27.96 -13.08,43.1 -0.3,13.72 4.06,27.06 6.56,40.56 5.54,29.86 1.84,61.36 -10.47,89.13 -5.05,-2.89 -10.1,-5.77 -15.16,-8.66 0.83,33.48 -2.36,67.06 -9.48,99.77 -4.6,-7.89 -9.19,-15.79 -13.78,-23.68 -6.28,34.64 -20.03,67.92 -40.05,96.88 -4.96,-8.88 -9.92,-17.76 -14.88,-26.65 -8.1,40.81 -14.96,81.85 -20.57,123.07 -9.11,-3.31 -17.3,-9.16 -23.37,-16.72 5.37,24.69 -6.14,48.81 -14.33,72.72 -7.29,21.27 -14.58,42.54 -21.869,63.82 -1.675,-5.29 -3.347,-10.57 -5.023,-15.84 -19.996,29.95 -36.051,62.54 -47.621,96.64 -2.832,-39.17 -0.438,-78.7 7.101,-117.24 -10.156,3.04 -18.046,12.55 -19.152,23.1 1.453,-32.63 8.012,-65.02 19.359,-95.64 -8.921,6.18 -17.847,12.36 -26.765,18.54 9.906,-33.53 21.902,-66.44 35.887,-98.47 -7.383,6.88 -14.774,13.76 -22.153,20.63 -6.543,-48.58 -3.961,-98.37 7.574,-146.02 -13.765,8.38 -27.011,17.63 -39.632,27.66 5.078,-55.1 15.351,-109.71 30.652,-162.89 -14.875,-1.94 -30.559,4.2 -40.152,15.73 9.535,-51.78 33.089,-100.92 67.492,-140.78 10.558,-12.24 22.199,-23.73 30.512,-37.6 15.13,-25.26 17.92,-56.15 31.27,-82.39 -13.35,10.56 -20.62,25.42 -31.575,38.44 -10.281,12.22 -23.055,22.04 -35.723,31.77 -44.762,34.37 -89.519,68.74 -134.285,103.11 8.691,-10.82 5.844,-28.91 -5.746,-36.55 -23.648,32.9 -72.828,30.75 -108.668,49.64 5.02,-1.94 4.52,-10.04 0.187,-13.23 -4.324,-3.2 -10.281,-2.79 -15.57,-1.81 -15.113,2.81 -29.547,9.17 -41.808,18.44 -13.903,10.5 -25.86,25.07 -42.809,29.11 0.469,-7.45 0.937,-14.9 1.398,-22.36 -23.41,13.93 -47.793,26.25 -72.902,36.82 1.156,-3.97 2.32,-7.95 3.477,-11.92 -27.414,26.4 -54.828,52.81 -82.243,79.22 -0.062,-46.42 15.356,-92.73 43.227,-129.84 -7.453,1.93 -14.914,3.87 -22.379,5.8 28.367,-23.65 55.024,-49.36 79.688,-76.85 -8.266,-3.6 -17.254,-5.53 -26.266,-5.64 29.262,-20.43 60.344,-38.24 92.758,-53.16 -9.207,-6.69 -19.875,-11.35 -31.031,-13.56 20.093,-9.8 35.195,-27.24 52.656,-41.2 17.461,-13.95 40.375,-24.91 61.719,-18.27 -7.848,-9.77 -19.59,-16.32 -32.028,-17.86 53.219,-25.14 89.457,-38.83 143.203,-62.83 49.703,-22.2 96.793,-26.62 146.801,-48.12 -57.25,-38.45 -130.277,-28.87 -196.262,-48.91 6.235,-6.37 15.45,-9.69 24.313,-8.76 -21.379,-11.62 -41.844,-24.94 -61.129,-39.78 -4.59,-3.54 -9.289,-7.37 -11.613,-12.68 -2.114,-4.81 -2.153,-10.59 -5.461,-14.67 -2.684,-3.3 -6.957,-4.79 -10.992,-6.11 -18.2,-5.98 -36.399,-11.96 -54.594,-17.94 1.84,-5.85 6.14,-10.87 11.633,-13.6 -28.133,-17.97 -50.914,-39.05 -67.879,-67.8"
         id="path20" />
    </clipPath>
    <clipPath
       clipPathUnits="userSpaceOnUse"
       id="clipPath178">
      <path
         d="m 2655.38,3661.85 c -3.99,-25.54 0.6,-53.72 18.12,-72.72 27.22,-29.55 77.6,-26.71 110.07,-3.05 32.47,23.67 50.26,62.44 62.2,100.81 35.28,113.35 31.58,237.32 77.03,347 -62.01,-50.78 -144.23,-67.1 -219.66,-94.22 -75.42,-27.11 -153.44,-74.96 -172.85,-152.73 -10.08,-40.41 3.87,-91.81 43.43,-104.82 38.57,-12.67 75.99,16.04 102.52,40.75 -8.31,-19.81 -17.49,-39.49 -20.86,-61.02"
         id="path176" />
    </clipPath>
    <clipPath
       clipPathUnits="userSpaceOnUse"
       id="clipPath202">
      <path
         d="m 1982.81,4142.55 c 41.55,-33.96 65.96,-84.53 83.06,-135.39 17.1,-50.87 28.27,-103.84 49.91,-152.95 17.08,-38.77 40.59,-74.69 69.27,-105.86 30.05,-32.64 69.4,-61.38 113.77,-61.37 44.36,0.01 89.58,40.78 79.82,84.06 46.2,-6.49 92.81,24.5 111.89,67.07 19.08,42.58 13.44,93.46 -7.24,135.27 -20.68,41.83 -54.96,75.54 -92.39,103.39 -92.04,68.49 -207.11,105.46 -321.83,103.4 -45.45,-0.82 -91.16,-5.35 -136.51,-7.99 17.71,-8.29 34.95,-17.12 50.25,-29.63"
         id="path200" />
    </clipPath>
    <clipPath
       clipPathUnits="userSpaceOnUse"
       id="clipPath106">
      <path
         d="m 4428.1,3968.97 c -52.63,44.62 -160.32,141.81 -269.6,73.78 -94.73,-58.97 -235.45,-149.85 -337.63,-196.1 4.36,3.95 197.96,179.44 266.71,243.82 69.54,65.11 137.76,155.83 31.08,292.34 -15.17,60.39 -23.37,124.54 -23.37,124.54 0,0 -29.71,-46.46 -104.72,-56.35 -75.01,-9.87 -157.39,-38.27 -172.55,-169.69 -14.73,-127.62 33.13,-309.71 -17.65,-442.17 l -0.47,0.34 c -11.33,29.99 -48.8,136.58 -36.16,204.19 14.81,79.29 28.52,268.79 -57.92,312.32 -86.43,43.53 -143.59,39.08 -203.26,90.78 -20.01,-51.63 -37.3,-112.17 -82.27,-177.91 -44.96,-65.74 -37.11,-182.01 148.81,-258.58 71.65,-22.58 165.82,-130.87 203.6,-177.18 -18.29,1.66 -42.5,6.57 -63.01,20.14 -122.69,87.73 -167.18,79.03 -205.31,49.51 -38.14,-29.51 -38.14,-29.51 -92.58,-42.88 54.47,-24.02 3.94,-76.82 103.3,-114.78 86.75,-33.13 242.29,45.17 280.41,65.59 -10.53,-19.54 16.89,-218.2 103.02,-278.85 48.91,-34.45 75.24,-26.93 97.88,-19.41 17.61,5.85 32.98,11.7 55.01,-2.21 -19.31,52.63 -19.31,52.63 -16.11,100.75 3.2,48.11 -14.42,89.88 -155.7,142.68 -25.75,10.71 -42.58,47.5 -54.12,67.77 58.42,-9.1 152.93,-24.93 188.67,-37.28 53.31,-18.41 232.21,-100.37 306.01,-86.52 73.79,13.85 77.18,95.08 143.19,162.9 66.01,67.83 75.31,72.83 75.31,72.83 0,0 -57.94,-9 -110.57,35.63"
         id="path104" />
    </clipPath>
    <clipPath
       clipPathUnits="userSpaceOnUse"
       id="clipPath226">
      <path
         d="m 1263.38,2237.22 c 101.67,-18.82 201.01,-50.2 295.05,-93.19 0.02,5.76 0.04,11.52 0.05,17.27 31.51,1.34 63.08,1.22 94.57,-0.36 -9.19,6.89 -8.56,21.75 -1.78,31.02 6.8,9.28 17.78,14.34 28.28,19.02 15.6,6.96 31.2,13.91 46.8,20.87 2.85,1.26 5.92,2.76 7.22,5.58 2.79,6.07 -4.18,11.65 -8.73,16.53 -11.33,12.12 -9.31,32.34 0.03,46.05 9.35,13.71 24.22,22.43 38.6,30.71 29.86,17.19 59.73,34.39 89.6,51.58 -45.21,-5.14 -92.2,7.31 -128.92,34.16 -5.92,4.34 -11.86,9.41 -14.19,16.37 -2.83,8.45 0.28,17.68 4.11,25.72 11.02,23.13 28.36,43.19 49.65,57.44 -11.86,2.54 -24.64,5.62 -32.35,14.97 -7.7,9.36 -5.78,26.95 5.97,29.91 -12.27,15.84 -15.11,38.45 -7.15,56.83 5.02,11.59 14.15,22.5 12.84,35.07 -0.79,7.52 -5.34,14.3 -5.95,21.84 -0.67,8.48 3.71,16.45 7.95,23.83 18.36,31.96 36.72,63.91 55.08,95.87 -32.2,-29.83 -74.4,-57.06 -117.19,-47.28 -31.85,-19.41 -73.6,-21.46 -107.21,-5.28 -32.96,-36.27 -81.57,-57.8 -130.58,-57.82 26.75,28.1 47.62,61.76 60.91,98.21 -2.76,-0.91 -5.52,-1.82 -8.28,-2.74 -18.17,-6.03 -44.83,5.84 -53.43,22.95 -11.88,23.62 1.91,51.3 5.63,77.47 -10.03,-8.93 -25.92,-8.36 -37.79,-2.07 -11.87,6.29 -20.55,17.16 -28.51,27.98 -12.71,17.3 -24.5,35.28 -35.28,53.84 -5.96,-5.02 -15.9,-1.09 -19.53,5.8 -3.63,6.9 -2.66,15.25 -1.01,22.86 -41.47,33.52 -63.85,89.23 -57.08,142.12 -14.26,-38.85 -39.56,-72.49 -64.52,-105.51 -5.41,-7.16 -11.26,-14.67 -19.65,-17.89 -8.39,-3.22 -19.92,0 -22.29,8.66 -2.44,-22.19 -9.73,-43.84 -21.19,-63 -2.37,-3.96 -6.09,-8.35 -10.61,-7.4 -3.46,0.74 -5.45,4.31 -6.81,7.58 -3.18,7.6 -5.43,15.6 -6.7,23.74 -6.03,-30.06 -15.68,-59.39 -28.68,-87.15 -3.51,-7.49 -7.59,-15.23 -14.62,-19.58 -7.04,-4.35 -17.84,-3.63 -21.91,3.57 4.73,-18.5 -5.55,-39.67 -23.02,-47.39 -17.46,-7.71 -40.037,-1.06 -50.53,14.88 8.915,-38.21 10.2,-80.47 14.399,-119.49 1.25,-11.64 2.277,-23.57 -0.449,-34.96 -2.727,-11.4 -9.86,-22.35 -20.723,-26.73 -8.551,-3.45 -18.184,-2.47 -27.281,-1 -27.699,4.47 -54.735,13.03 -79.961,25.32 6.113,-12.79 -5.805,-28.28 -19.652,-31.31 -13.844,-3.04 -27.993,2.37 -41.129,7.69 2.656,-9.57 -5.196,-19.56 -14.618,-22.72 -9.425,-3.16 -19.726,-1.24 -29.394,1.07 -30.246,7.25 -59.59,18.24 -87.16,32.65 7.437,-27.41 23.672,-53.84 41.871,-75.64 18.199,-21.8 35.168,-48.09 32.207,-76.34 -4.031,-1.08 -8.067,-2.17 -12.102,-3.26 9.02,-8.7 18.606,-18.54 19.696,-31.02 1.093,-12.49 -12.172,-26.03 -23.235,-20.14 5.465,-15 19.739,-24.58 32.379,-34.33 12.649,-9.74 25.375,-22.65 25.277,-38.61 -0.011,-3 -0.468,-6.16 0.829,-8.86 1.453,-3.01 4.714,-4.66 7.8,-5.98 8.039,-3.43 16.618,-6.2 23.164,-11.98 6.547,-5.8 10.465,-15.78 6.27,-23.44 -3.727,-6.8 -12.078,-9.29 -19.602,-11.16 -28.543,-7.11 -57.089,-14.23 -85.636,-21.34 21.398,-12.14 42.797,-24.27 64.191,-36.4 12.91,-7.31 27.801,-18.62 24.934,-33.18 11.539,5.22 24.207,-9.49 21.578,-21.87 -2.633,-12.39 -14.356,-20.64 -25.949,-25.75 -1.489,-0.65 -3.164,-1.46 -3.637,-3.02 -0.469,-1.56 1.586,-3.47 2.715,-2.3 33.414,6.07 66.601,-8.45 96.976,-23.64 9.407,-4.7 19.18,-10.02 24.59,-19.04 5.41,-9.01 4.301,-22.77 -4.965,-27.75 76.507,-4.28 154.137,14.05 220.637,52.12 40.07,22.93 73.58,61.25 119.13,68.77"
         id="path224" />
    </clipPath>
    <clipPath
       clipPathUnits="userSpaceOnUse"
       id="clipPath330">
      <path
         d="m 2706.66,2329.43 c 28.86,13.55 49.18,49.09 36.48,78.33 70.17,4.27 127.65,69.68 134.1,139.69 3.27,35.55 -12.49,79.68 -47.97,83.76 24.11,48.99 20.65,110.48 -8.79,156.48 -29.44,45.99 -83.84,74.86 -138.43,73.47 -8.79,47.03 -28.91,94.4 -67.26,122.99 -38.36,28.59 -97.75,32.07 -131.67,-1.67 -55.48,52.75 -165.4,0.52 -214.89,58.93 14.74,-34.33 -12.48,-71.15 -37.75,-98.67 -25.27,-27.51 -52.27,-64.62 -37.12,-98.76 -42.43,-1.5 -82.1,-26.35 -106.98,-60.76 -24.88,-34.41 -36.02,-77.39 -37.27,-119.83 -1.49,-50.52 20.87,-111.59 70.93,-118.59 -29.48,-36.11 -36.56,-89.11 -17.59,-131.68 18.97,-42.58 63.11,-72.76 109.66,-74.98 -9.85,-26.03 8.84,-54.44 30.86,-71.46 55.34,-42.75 138.6,-44.83 196,-4.88 44.07,-35.12 104.68,-15.59 135.5,25.67 19.42,26 14.78,38.32 48.42,39.62 10.5,0.41 19.89,-0.95 28.97,-2.31 17.44,-2.61 33.77,-5.22 54.8,4.65"
         id="path328" />
    </clipPath>
    <clipPath
       clipPathUnits="userSpaceOnUse"
       id="clipPath138">
      <path
         d="m 3894.4,2099.77 c 69.11,-3.4 145.1,-14.4 201.73,25.36 32.82,23.03 54.57,60.82 90.72,78.15 -9.4,14.34 7.35,30.81 19.97,42.42 18.95,17.43 32.08,41.11 36.82,66.43 -13.79,9.78 -14.25,33.32 -0.89,43.66 -28.21,14.9 -36.75,57.36 -16.51,82.02 -13.93,-3.48 -26.83,11.67 -26.8,26.03 0.03,14.36 8.58,27.14 16.78,38.93 -5.36,-3.04 -9.55,5.64 -9.51,11.81 0.19,35.04 8.93,70 25.21,101.02 -24.3,-16.58 -61.45,-9.65 -78.16,14.56 -14.89,2.81 -27.2,16.02 -28.96,31.08 -1.75,15.04 7.19,30.73 21.03,36.89 -5.39,16.28 -6.54,33.95 -3.31,50.78 -15.5,16.55 -14.65,45.65 1.78,61.27 -32.94,-12.07 -72.97,-1.07 -95.11,26.15 -22.13,27.21 -24.76,68.65 -6.22,98.44 -14.78,-9.76 -33.16,8.57 -36.56,25.93 -3.42,17.37 -1.09,37.28 -12.54,50.78 -3.79,4.47 -8.78,7.74 -13.02,11.78 -15.19,14.47 -19.27,37.69 -15.62,58.35 3.67,20.65 13.94,39.45 24.06,57.82 -33.25,-20.84 -66.86,-41.97 -93.95,-70.35 -18.48,-19.37 -41.97,-44.36 -66.85,-34.46 -2.41,-44.75 -54.88,-78.93 -96.78,-63.03 -9.68,-64.93 -87.12,-109.97 -148.34,-86.3 -13.19,-37.21 -27.11,-75.61 -54.3,-104.24 -27.2,-28.64 -71.56,-44.93 -107.2,-27.93 6.23,-23.87 10,-49.99 0.11,-72.59 -4.71,-10.74 -12.26,-20.08 -16.66,-30.95 -4.39,-10.87 -4.84,-24.74 3.5,-32.98 -32.17,-27.42 -59.32,-60.72 -79.72,-97.75 -6.04,-10.98 -11.64,-22.91 -11.02,-35.42 0.86,-17.42 10.08,-41.71 -6.39,-47.44 7.15,-35.45 19.38,-69.86 36.2,-101.87 9.06,-17.23 19.18,-39.34 6.93,-54.46 42.28,-38.6 94.08,-66.66 149.49,-81 30.35,-7.85 52.29,-26.32 82.31,-35.36 26.04,-7.83 45.97,-15.78 68.53,-30.94 18.63,-12.53 48.83,-22.38 68.85,-32.32 21.21,-10.55 45.04,-4.03 67.61,-2.12 34.17,2.91 68.54,3.53 102.79,1.85"
         id="path136" />
    </clipPath>
    <clipPath
       clipPathUnits="userSpaceOnUse"
       id="clipPath304">
      <path
         d="m 1318.04,817 c 0,0 202.65,-26.488 218.08,175.422 15.43,201.908 -88.39,347.038 -88.39,347.038 0,0 -37.74,-188.02 -95.85,-162.89 -58.11,25.14 50.1,131.59 -24.85,279.53 -74.95,147.94 -139.23,226.51 -139.23,226.51 0,0 -4.89,-54.17 -43.15,-95.23 -38.25,-41.04 -79.15,-119.02 -72.98,-172.45 -86.947,123.19 -112.057,165.95 -315.818,234.25 -42.743,25.31 -85.661,66.02 -85.661,66.02 0,0 45.528,-104.63 29.395,-144.18 -16.141,-39.56 -60.594,-128.03 1.816,-204.16 62.407,-76.14 136.621,-162.58 136.621,-162.58 0,0 -66.535,61.32 -130.097,27.97 -63.567,-33.35 -103.512,-87.34 -165.387,-107.76 101.598,-61.52 102.524,-87.95 152.195,-127.33 49.672,-39.39 122.786,-33.601 171.891,-77.301 49.105,-43.687 24.168,-66.738 -72.582,-102.328 77.781,-75.961 150.687,-155.66 229.047,-176.859 78.36,-21.211 289.08,-2.703 294.95,176.328"
         id="path302" />
    </clipPath>
  </defs>
  <g
     inkscape:label="Layer 1"
     inkscape:groupmode="layer"
     id="layer1"
     transform="translate(-143.96917,54.754571)">
    <path
       d="m 171.32698,-23.068387 c 0,0 7.1494,0.934438 7.69373,-6.188498 0.54434,-7.122549 -3.11855,-12.242766 -3.11855,-12.242766 0,0 -1.33104,6.633281 -3.38103,5.746398 -2.04999,-0.886531 1.76707,-4.642203 -0.87665,-9.861198 -2.64442,-5.218995 -4.91173,-7.99077 -4.91173,-7.99077 0,0 -0.17286,1.91135 -1.52223,3.35915 -1.34973,1.448506 -2.79224,4.199467 -2.57457,6.084006 -3.06741,-4.34587 -3.95334,-5.853995 -11.14175,-8.263467 -1.5077,-0.893586 -3.02175,-2.329039 -3.02175,-2.329039 0,0 1.60609,3.691114 1.03695,5.08635 -0.5691,1.395236 -2.13758,4.516614 0.0641,7.202312 2.20155,2.685697 4.81969,5.735461 4.81969,5.735461 0,0 -2.34721,-2.163233 -4.58957,-0.986719 -2.24247,1.176514 -3.65164,3.080808 -5.83445,3.80118 3.58411,2.170289 3.61678,3.102681 5.36924,4.492273 1.75218,1.389274 4.33144,1.18491 6.06376,2.726655 1.73249,1.541215 0.85259,2.354404 -2.56039,3.610328 2.74383,2.678924 5.31579,5.490528 8.08002,6.238805 2.76437,0.748277 10.19845,0.09564 10.40518,-6.220461"
       style="fill:#f9ad0f;fill-opacity:1;fill-rule:nonzero;stroke:none;stroke-width:0.0352778"
       id="path296" />
    <g
       id="g298"
       transform="matrix(0.03527778,0,0,-0.03527778,124.81993,5.9369687)">
      <g
         id="g300"
         clip-path="url(#clipPath304)">
        <path
           d="m 1071.95,1420.13 c -0.26,0.37 -0.52,0.74 -0.78,1.11 -0.21,4.45 -0.13,9.04 0.22,13.74 -0.16,-5.11 0.01,-10.08 0.56,-14.85 m -368.93,170.46 c 1.035,46.78 -32.829,124.61 -32.829,124.61 0,0 1.395,-1.33 3.938,-3.65 9.148,-22.74 32.047,-84.07 28.891,-120.96"
           style="fill:#f9b06b;fill-opacity:1;fill-rule:nonzero;stroke:none"
           id="path306" />
        <path
           d="m 1023.28,1307.6 c -118.952,0 -218.51,82.78 -244.374,193.87 -27.929,-13.54 -59.273,-21.14 -92.39,-21.14 -5.286,0 -10.536,0.2 -15.723,0.58 5.094,37.3 20.594,70.02 28.793,90.11 2.219,5.44 3.269,12.11 3.434,19.57 3.156,36.89 -19.743,98.22 -28.891,120.96 11.543,-10.54 46.691,-41.62 81.723,-62.37 203.761,-68.3 228.871,-111.06 315.818,-234.25 -0.23,2.07 -0.4,4.17 -0.5,6.31 0.26,-0.37 0.52,-0.74 0.78,-1.11 -0.55,4.77 -0.72,9.74 -0.56,14.85 3.82,51.45 39.57,116.25 73.26,152.4 38.26,41.06 43.15,95.23 43.15,95.23 0,0 51.85,-63.37 116.71,-183.46 -12.83,-5.83 -26.51,-10.11 -40.8,-12.62 -30.97,-103.48 -126.87,-178.93 -240.43,-178.93"
           style="fill:#f79213;fill-opacity:1;fill-rule:nonzero;stroke:none"
           id="path308" />
        <path
           d="m 1084.65,633.68 c -24.11,0 -45.59,2.672 -61.56,6.992 -78.36,21.199 -151.266,100.898 -229.047,176.859 1.363,0.5 2.719,1 4.055,1.5 76.367,-74.82 148.175,-152.289 225.262,-173.16 15.97,-4.32 37.45,-7 61.56,-7 92.63,0 224.24,39.438 233.05,176.27 -5.78,-141.039 -139.54,-181.469 -233.32,-181.461 m 256.16,182.179 c -13.45,0 -22.06,1.051 -22.73,1.141 0.1,1.711 0.17,3.449 0.23,5.199 0,0 8.75,-1.148 22.76,-1.148 26.62,0 72.21,4.14 112.76,28.097 0.79,-1.187 1.57,-2.406 2.33,-3.628 -41.19,-25.348 -88.16,-29.661 -115.35,-29.661 m -449.72,67.383 c -0.652,10.817 -8.781,22.668 -24.465,36.617 -48.516,43.18 -120.465,38.039 -170.086,75.903 1.703,0.57 3.43,1.117 5.152,1.648 49.368,-34.031 118.258,-30.57 165.207,-72.351 18.231,-16.219 26.254,-29.598 24.192,-41.817"
           style="fill:#f9b06b;fill-opacity:1;fill-rule:nonzero;stroke:none"
           id="path310" />
        <path
           d="m 1084.92,638.871 c -24.11,0 -45.59,2.68 -61.56,7 -77.087,20.871 -148.895,98.34 -225.262,173.16 63.14,23.489 94.355,41.61 92.992,64.211 2.062,12.219 -5.961,25.598 -24.192,41.817 -46.949,41.781 -115.839,38.32 -165.207,72.351 19.758,6.09 40.739,9.36 62.493,9.36 90.597,0 167.886,-56.809 198.3,-136.731 39.696,26.313 87.276,41.672 138.466,41.672 37.6,0 73.24,-8.332 105.27,-23.141 29.01,23.129 65.71,37.059 105.72,37.059 59.31,0 111.51,-30.41 141.89,-76.481 -40.55,-23.957 -86.14,-28.097 -112.76,-28.097 -14.01,0 -22.76,1.148 -22.76,1.148 -0.06,-1.75 -0.13,-3.488 -0.23,-5.199 -0.03,0 -0.04,0 -0.04,0 -0.02,-0.621 -0.05,-1.238 -0.07,-1.859 -8.81,-136.832 -140.42,-176.27 -233.05,-176.27"
           style="fill:#f79213;fill-opacity:1;fill-rule:nonzero;stroke:none"
           id="path312" />
      </g>
    </g>
    <path
       d="m 155.26437,-45.558007 c 0.74775,1.967795 1.98272,3.705931 3.22199,5.409142 6.0814,8.357306 12.3612,16.567857 18.84843,24.61433 1.23578,1.53282 2.47403,3.095379 4.00826,4.333946 0.59513,-0.804368 0.53693,-1.917806 -0.13935,-2.655076 -3.67348,-4.008967 -14.93379,-16.370971 -17.72885,-20.324905 -3.3535,-4.743803 -8.21048,-11.377437 -8.21048,-11.377437"
       style="fill:#2c0e10;fill-opacity:1;fill-rule:nonzero;stroke:none;stroke-width:0.0352778"
       id="path314" />
    <path
       d="m 166.95712,-29.396197 c 1.29152,-1.887009 1.78365,-4.213226 1.79917,-6.476648 3.5e-4,-0.03916 7e-4,-0.07832 7e-4,-0.117475 -3.5e-4,-2.222147 -0.42298,-4.410781 -0.84067,-6.571545 l -0.34254,0.06632 c 0.41804,2.160412 0.83432,4.327878 0.83396,6.505223 0,0.03845 0,0.07655 -3.5e-4,0.115006 -0.0148,2.215797 -0.49883,4.473575 -1.73814,6.281914 l 0.28787,0.197203"
       style="fill:#2c0e10;fill-opacity:1;fill-rule:nonzero;stroke:none;stroke-width:0.0352778"
       id="path316" />
    <path
       d="m 160.4272,-21.502406 c 1.36384,0.220768 2.70087,0.345616 4.01744,0.345616 2.54529,4.24e-4 5.01509,-0.467712 7.44502,-1.607185 l 0.054,-0.02536 0.0272,-0.05334 c 1.67781,-3.292122 2.58127,-6.974381 2.61796,-10.669023 l -0.34889,-0.0035 c -0.036,3.639961 -0.92675,7.27075 -2.57987,10.514225 l 0.15558,0.07895 -0.0741,-0.158044 c -2.38054,1.116189 -4.79389,1.57413 -7.29685,1.574553 -1.29434,0 -2.61303,-0.122802 -3.9617,-0.34163 l -0.0557,0.34477"
       style="fill:#2c0e10;fill-opacity:1;fill-rule:nonzero;stroke:none;stroke-width:0.0352778"
       id="path318" />
    <path
       d="m 154.05307,-32.604006 c 3.91972,2.132189 7.5704,3.292405 11.99,3.291452 0.15276,0 0.30657,-0.0011 0.46144,-0.0039 l -0.006,-0.348933 c -0.15276,0.0025 -0.30445,0.0039 -0.45509,0.0039 -4.35715,-7.06e-4 -7.93414,-1.135592 -11.82324,-3.249084 l -0.16676,0.306564"
       style="fill:#2c0e10;fill-opacity:1;fill-rule:nonzero;stroke:none;stroke-width:0.0352778"
       id="path320" />
  </g>
</svg>
