<?xml version="1.0" encoding="UTF-8" standalone="no"?>
<!-- Created with Inkscape (http://www.inkscape.org/) -->

<svg
   width="38.816547mm"
   height="38.706528mm"
   viewBox="0 0 38.816548 38.706528"
   version="1.1"
   id="svg1424"
   inkscape:version="1.1.2 (1:1.1+202202050852+0a00cf5339)"
   sodipodi:docname="leaf4.svg"
   xmlns:inkscape="http://www.inkscape.org/namespaces/inkscape"
   xmlns:sodipodi="http://sodipodi.sourceforge.net/DTD/sodipodi-0.dtd"
   xmlns="http://www.w3.org/2000/svg"
   xmlns:svg="http://www.w3.org/2000/svg">
  <sodipodi:namedview
     id="namedview1426"
     pagecolor="#ffffff"
     bordercolor="#666666"
     borderopacity="1.0"
     inkscape:pageshadow="2"
     inkscape:pageopacity="0.0"
     inkscape:pagecheckerboard="0"
     inkscape:document-units="mm"
     showgrid="false"
     fit-margin-top="0"
     fit-margin-left="0"
     fit-margin-right="0"
     fit-margin-bottom="0"
     inkscape:zoom="2.5620932"
     inkscape:cx="70.450208"
     inkscape:cy="113.38385"
     inkscape:window-width="1856"
     inkscape:window-height="1016"
     inkscape:window-x="1984"
     inkscape:window-y="27"
     inkscape:window-maximized="1"
     inkscape:current-layer="layer1" />
  <defs
     id="defs1421">
    <clipPath
       clipPathUnits="userSpaceOnUse"
       id="clipPath22">
      <path
         d="m 599.137,3471.36 c 38.629,-6.52 79.593,1.96 112.461,23.27 -2.364,-7.69 3.851,-16.01 11.511,-18.47 7.661,-2.47 16.036,-0.5 23.555,2.39 12.754,4.87 24.508,12.35 34.328,21.84 10.821,-5.36 7.324,-24.15 17.641,-30.42 4.332,-2.64 9.82,-2.14 14.82,-1.31 20.32,3.39 39.945,10.88 57.348,21.91 -4.496,-7.05 -6.879,-15.44 -6.77,-23.81 55.157,10.68 106.774,42.69 145.809,83.08 -21.356,-40.21 -43.371,-83.83 -37.32,-128.96 70.35,61.1 132.47,131.66 184.18,209.17 8.33,-50.72 12.26,-102.17 11.75,-153.57 -0.55,-54.09 -5.98,-108.61 2.85,-161.97 11.73,3.14 22.7,9.05 31.78,17.1 -1.98,80.79 -7.51,161.5 -16.58,241.8 -1.51,13.46 -3.24,27.27 -9.59,39.25 1.16,-8.57 7.83,-15.23 14.4,-20.84 23.99,-20.52 51.49,-36.44 78.82,-52.23 32.76,-18.93 66.53,-38.2 103.95,-43.78 22.13,-3.31 47.01,5.74 69.32,7.39 -20.65,8.94 -28.69,33.2 -40.03,52.63 -13.84,23.7 -35.52,42.74 -60.82,53.39 24.22,9.35 50.37,8.69 76.61,8.03 13.24,-0.33 26.5,-0.67 39.56,0.28 32.75,2.39 65.3,12.98 97.82,8.46 -10.37,8.98 -17.17,21.98 -18.64,35.62 43.79,11.99 85.8,30.45 124.25,54.59 8.15,5.11 16.98,11.84 17.62,21.44 51.66,-7.1 102.35,15.16 149.76,36.89 -39.09,-4.64 -76.5,14.58 -114.74,23.94 -15.59,3.81 -31.32,6.5 -47.36,5.93 6.81,10.23 11.46,21.9 13.53,34.02 -6.48,-9.88 -19.43,-12.73 -31.06,-14.77 -21.94,-3.83 -43.88,-7.66 -65.82,-11.5 -0.26,9.34 -1.52,18.65 -3.76,27.72 -12.59,-4.29 -27.37,-8.34 -38.43,-0.93 -2.44,1.64 -4.67,3.82 -7.54,4.49 -2.71,0.62 -5.52,-0.23 -8.17,-1.09 -24.93,-8.12 -49.33,-17.87 -72.99,-29.18 0.06,12.3 -2.16,24.61 -6.5,36.12 -60.39,-27.06 -116.9,-62.76 -167.29,-105.65 12.86,20.68 23.53,43.11 40.48,60.6 10.48,10.8 23.01,19.34 34.89,28.57 56.87,44.12 100.06,105.62 122.27,174.08 -8.82,-2.75 -21.13,-5.59 -29.75,-2.27 18.41,5.51 32.76,20.37 42.45,36.96 9.68,16.61 15.45,35.13 22.37,53.06 8.84,22.89 19.65,44.96 28.78,67.73 -14.73,-9.46 -37.96,-7.12 -49.26,6.25 9.53,1.32 16.7,9.24 22.12,17.19 20.78,30.5 28.45,69.63 20.75,105.72 -5.03,-8.8 -13.77,-15.4 -23.61,-17.83 15.36,33.89 30.73,67.77 46.09,101.65 -9.02,-2.42 -14.69,11.05 -10.87,19.58 3.82,8.52 12.24,14.16 16.71,22.36 6.67,12.23 3.34,27.16 2.87,41.08 -1.05,31.21 13.14,63.24 3.31,92.87 -12.37,-18.01 -24.75,-36.02 -37.12,-54.02 -21.29,-30.98 -43.5,-65.07 -41.28,-102.59 -5.91,10.39 -11.81,20.78 -17.71,31.18 -14.49,-47.17 -30.77,-93.79 -48.79,-139.73 -8.1,12.25 -15.94,24.68 -23.5,37.27 -12.76,-21.21 -25.53,-42.42 -38.29,-63.63 -3.68,7.28 -6.37,15.05 -7.98,23.04 -13.36,-29.56 -27.16,-58.91 -41.4,-88.05 -3.62,10.04 -7.25,20.07 -10.87,30.12 -33.9,-75.69 -93.87,-140.19 -111.89,-221.13 -6.78,13.54 -12.75,27.96 -13.08,43.1 -0.3,13.72 4.06,27.06 6.56,40.56 5.54,29.86 1.84,61.36 -10.47,89.13 -5.05,-2.89 -10.1,-5.77 -15.16,-8.66 0.83,33.48 -2.36,67.06 -9.48,99.77 -4.6,-7.89 -9.19,-15.79 -13.78,-23.68 -6.28,34.64 -20.03,67.92 -40.05,96.88 -4.96,-8.88 -9.92,-17.76 -14.88,-26.65 -8.1,40.81 -14.96,81.85 -20.57,123.07 -9.11,-3.31 -17.3,-9.16 -23.37,-16.72 5.37,24.69 -6.14,48.81 -14.33,72.72 -7.29,21.27 -14.58,42.54 -21.869,63.82 -1.675,-5.29 -3.347,-10.57 -5.023,-15.84 -19.996,29.95 -36.051,62.54 -47.621,96.64 -2.832,-39.17 -0.438,-78.7 7.101,-117.24 -10.156,3.04 -18.046,12.55 -19.152,23.1 1.453,-32.63 8.012,-65.02 19.359,-95.64 -8.921,6.18 -17.847,12.36 -26.765,18.54 9.906,-33.53 21.902,-66.44 35.887,-98.47 -7.383,6.88 -14.774,13.76 -22.153,20.63 -6.543,-48.58 -3.961,-98.37 7.574,-146.02 -13.765,8.38 -27.011,17.63 -39.632,27.66 5.078,-55.1 15.351,-109.71 30.652,-162.89 -14.875,-1.94 -30.559,4.2 -40.152,15.73 9.535,-51.78 33.089,-100.92 67.492,-140.78 10.558,-12.24 22.199,-23.73 30.512,-37.6 15.13,-25.26 17.92,-56.15 31.27,-82.39 -13.35,10.56 -20.62,25.42 -31.575,38.44 -10.281,12.22 -23.055,22.04 -35.723,31.77 -44.762,34.37 -89.519,68.74 -134.285,103.11 8.691,-10.82 5.844,-28.91 -5.746,-36.55 -23.648,32.9 -72.828,30.75 -108.668,49.64 5.02,-1.94 4.52,-10.04 0.187,-13.23 -4.324,-3.2 -10.281,-2.79 -15.57,-1.81 -15.113,2.81 -29.547,9.17 -41.808,18.44 -13.903,10.5 -25.86,25.07 -42.809,29.11 0.469,-7.45 0.937,-14.9 1.398,-22.36 -23.41,13.93 -47.793,26.25 -72.902,36.82 1.156,-3.97 2.32,-7.95 3.477,-11.92 -27.414,26.4 -54.828,52.81 -82.243,79.22 -0.062,-46.42 15.356,-92.73 43.227,-129.84 -7.453,1.93 -14.914,3.87 -22.379,5.8 28.367,-23.65 55.024,-49.36 79.688,-76.85 -8.266,-3.6 -17.254,-5.53 -26.266,-5.64 29.262,-20.43 60.344,-38.24 92.758,-53.16 -9.207,-6.69 -19.875,-11.35 -31.031,-13.56 20.093,-9.8 35.195,-27.24 52.656,-41.2 17.461,-13.95 40.375,-24.91 61.719,-18.27 -7.848,-9.77 -19.59,-16.32 -32.028,-17.86 53.219,-25.14 89.457,-38.83 143.203,-62.83 49.703,-22.2 96.793,-26.62 146.801,-48.12 -57.25,-38.45 -130.277,-28.87 -196.262,-48.91 6.235,-6.37 15.45,-9.69 24.313,-8.76 -21.379,-11.62 -41.844,-24.94 -61.129,-39.78 -4.59,-3.54 -9.289,-7.37 -11.613,-12.68 -2.114,-4.81 -2.153,-10.59 -5.461,-14.67 -2.684,-3.3 -6.957,-4.79 -10.992,-6.11 -18.2,-5.98 -36.399,-11.96 -54.594,-17.94 1.84,-5.85 6.14,-10.87 11.633,-13.6 -28.133,-17.97 -50.914,-39.05 -67.879,-67.8"
         id="path20" />
    </clipPath>
    <clipPath
       clipPathUnits="userSpaceOnUse"
       id="clipPath178">
      <path
         d="m 2655.38,3661.85 c -3.99,-25.54 0.6,-53.72 18.12,-72.72 27.22,-29.55 77.6,-26.71 110.07,-3.05 32.47,23.67 50.26,62.44 62.2,100.81 35.28,113.35 31.58,237.32 77.03,347 -62.01,-50.78 -144.23,-67.1 -219.66,-94.22 -75.42,-27.11 -153.44,-74.96 -172.85,-152.73 -10.08,-40.41 3.87,-91.81 43.43,-104.82 38.57,-12.67 75.99,16.04 102.52,40.75 -8.31,-19.81 -17.49,-39.49 -20.86,-61.02"
         id="path176" />
    </clipPath>
    <clipPath
       clipPathUnits="userSpaceOnUse"
       id="clipPath202">
      <path
         d="m 1982.81,4142.55 c 41.55,-33.96 65.96,-84.53 83.06,-135.39 17.1,-50.87 28.27,-103.84 49.91,-152.95 17.08,-38.77 40.59,-74.69 69.27,-105.86 30.05,-32.64 69.4,-61.38 113.77,-61.37 44.36,0.01 89.58,40.78 79.82,84.06 46.2,-6.49 92.81,24.5 111.89,67.07 19.08,42.58 13.44,93.46 -7.24,135.27 -20.68,41.83 -54.96,75.54 -92.39,103.39 -92.04,68.49 -207.11,105.46 -321.83,103.4 -45.45,-0.82 -91.16,-5.35 -136.51,-7.99 17.71,-8.29 34.95,-17.12 50.25,-29.63"
         id="path200" />
    </clipPath>
    <clipPath
       clipPathUnits="userSpaceOnUse"
       id="clipPath106">
      <path
         d="m 4428.1,3968.97 c -52.63,44.62 -160.32,141.81 -269.6,73.78 -94.73,-58.97 -235.45,-149.85 -337.63,-196.1 4.36,3.95 197.96,179.44 266.71,243.82 69.54,65.11 137.76,155.83 31.08,292.34 -15.17,60.39 -23.37,124.54 -23.37,124.54 0,0 -29.71,-46.46 -104.72,-56.35 -75.01,-9.87 -157.39,-38.27 -172.55,-169.69 -14.73,-127.62 33.13,-309.71 -17.65,-442.17 l -0.47,0.34 c -11.33,29.99 -48.8,136.58 -36.16,204.19 14.81,79.29 28.52,268.79 -57.92,312.32 -86.43,43.53 -143.59,39.08 -203.26,90.78 -20.01,-51.63 -37.3,-112.17 -82.27,-177.91 -44.96,-65.74 -37.11,-182.01 148.81,-258.58 71.65,-22.58 165.82,-130.87 203.6,-177.18 -18.29,1.66 -42.5,6.57 -63.01,20.14 -122.69,87.73 -167.18,79.03 -205.31,49.51 -38.14,-29.51 -38.14,-29.51 -92.58,-42.88 54.47,-24.02 3.94,-76.82 103.3,-114.78 86.75,-33.13 242.29,45.17 280.41,65.59 -10.53,-19.54 16.89,-218.2 103.02,-278.85 48.91,-34.45 75.24,-26.93 97.88,-19.41 17.61,5.85 32.98,11.7 55.01,-2.21 -19.31,52.63 -19.31,52.63 -16.11,100.75 3.2,48.11 -14.42,89.88 -155.7,142.68 -25.75,10.71 -42.58,47.5 -54.12,67.77 58.42,-9.1 152.93,-24.93 188.67,-37.28 53.31,-18.41 232.21,-100.37 306.01,-86.52 73.79,13.85 77.18,95.08 143.19,162.9 66.01,67.83 75.31,72.83 75.31,72.83 0,0 -57.94,-9 -110.57,35.63"
         id="path104" />
    </clipPath>
    <clipPath
       clipPathUnits="userSpaceOnUse"
       id="clipPath226">
      <path
         d="m 1263.38,2237.22 c 101.67,-18.82 201.01,-50.2 295.05,-93.19 0.02,5.76 0.04,11.52 0.05,17.27 31.51,1.34 63.08,1.22 94.57,-0.36 -9.19,6.89 -8.56,21.75 -1.78,31.02 6.8,9.28 17.78,14.34 28.28,19.02 15.6,6.96 31.2,13.91 46.8,20.87 2.85,1.26 5.92,2.76 7.22,5.58 2.79,6.07 -4.18,11.65 -8.73,16.53 -11.33,12.12 -9.31,32.34 0.03,46.05 9.35,13.71 24.22,22.43 38.6,30.71 29.86,17.19 59.73,34.39 89.6,51.58 -45.21,-5.14 -92.2,7.31 -128.92,34.16 -5.92,4.34 -11.86,9.41 -14.19,16.37 -2.83,8.45 0.28,17.68 4.11,25.72 11.02,23.13 28.36,43.19 49.65,57.44 -11.86,2.54 -24.64,5.62 -32.35,14.97 -7.7,9.36 -5.78,26.95 5.97,29.91 -12.27,15.84 -15.11,38.45 -7.15,56.83 5.02,11.59 14.15,22.5 12.84,35.07 -0.79,7.52 -5.34,14.3 -5.95,21.84 -0.67,8.48 3.71,16.45 7.95,23.83 18.36,31.96 36.72,63.91 55.08,95.87 -32.2,-29.83 -74.4,-57.06 -117.19,-47.28 -31.85,-19.41 -73.6,-21.46 -107.21,-5.28 -32.96,-36.27 -81.57,-57.8 -130.58,-57.82 26.75,28.1 47.62,61.76 60.91,98.21 -2.76,-0.91 -5.52,-1.82 -8.28,-2.74 -18.17,-6.03 -44.83,5.84 -53.43,22.95 -11.88,23.62 1.91,51.3 5.63,77.47 -10.03,-8.93 -25.92,-8.36 -37.79,-2.07 -11.87,6.29 -20.55,17.16 -28.51,27.98 -12.71,17.3 -24.5,35.28 -35.28,53.84 -5.96,-5.02 -15.9,-1.09 -19.53,5.8 -3.63,6.9 -2.66,15.25 -1.01,22.86 -41.47,33.52 -63.85,89.23 -57.08,142.12 -14.26,-38.85 -39.56,-72.49 -64.52,-105.51 -5.41,-7.16 -11.26,-14.67 -19.65,-17.89 -8.39,-3.22 -19.92,0 -22.29,8.66 -2.44,-22.19 -9.73,-43.84 -21.19,-63 -2.37,-3.96 -6.09,-8.35 -10.61,-7.4 -3.46,0.74 -5.45,4.31 -6.81,7.58 -3.18,7.6 -5.43,15.6 -6.7,23.74 -6.03,-30.06 -15.68,-59.39 -28.68,-87.15 -3.51,-7.49 -7.59,-15.23 -14.62,-19.58 -7.04,-4.35 -17.84,-3.63 -21.91,3.57 4.73,-18.5 -5.55,-39.67 -23.02,-47.39 -17.46,-7.71 -40.037,-1.06 -50.53,14.88 8.915,-38.21 10.2,-80.47 14.399,-119.49 1.25,-11.64 2.277,-23.57 -0.449,-34.96 -2.727,-11.4 -9.86,-22.35 -20.723,-26.73 -8.551,-3.45 -18.184,-2.47 -27.281,-1 -27.699,4.47 -54.735,13.03 -79.961,25.32 6.113,-12.79 -5.805,-28.28 -19.652,-31.31 -13.844,-3.04 -27.993,2.37 -41.129,7.69 2.656,-9.57 -5.196,-19.56 -14.618,-22.72 -9.425,-3.16 -19.726,-1.24 -29.394,1.07 -30.246,7.25 -59.59,18.24 -87.16,32.65 7.437,-27.41 23.672,-53.84 41.871,-75.64 18.199,-21.8 35.168,-48.09 32.207,-76.34 -4.031,-1.08 -8.067,-2.17 -12.102,-3.26 9.02,-8.7 18.606,-18.54 19.696,-31.02 1.093,-12.49 -12.172,-26.03 -23.235,-20.14 5.465,-15 19.739,-24.58 32.379,-34.33 12.649,-9.74 25.375,-22.65 25.277,-38.61 -0.011,-3 -0.468,-6.16 0.829,-8.86 1.453,-3.01 4.714,-4.66 7.8,-5.98 8.039,-3.43 16.618,-6.2 23.164,-11.98 6.547,-5.8 10.465,-15.78 6.27,-23.44 -3.727,-6.8 -12.078,-9.29 -19.602,-11.16 -28.543,-7.11 -57.089,-14.23 -85.636,-21.34 21.398,-12.14 42.797,-24.27 64.191,-36.4 12.91,-7.31 27.801,-18.62 24.934,-33.18 11.539,5.22 24.207,-9.49 21.578,-21.87 -2.633,-12.39 -14.356,-20.64 -25.949,-25.75 -1.489,-0.65 -3.164,-1.46 -3.637,-3.02 -0.469,-1.56 1.586,-3.47 2.715,-2.3 33.414,6.07 66.601,-8.45 96.976,-23.64 9.407,-4.7 19.18,-10.02 24.59,-19.04 5.41,-9.01 4.301,-22.77 -4.965,-27.75 76.507,-4.28 154.137,14.05 220.637,52.12 40.07,22.93 73.58,61.25 119.13,68.77"
         id="path224" />
    </clipPath>
  </defs>
  <g
     inkscape:label="Layer 1"
     inkscape:groupmode="layer"
     id="layer1"
     transform="translate(-159.38511,8.4799184)">
    <g
       id="g905"
       transform="rotate(-38.844109,178.91089,10.946691)">
      <path
         d="m 178.92836,20.918376 c 3.58704,0.663928 7.09154,1.770592 10.40906,3.287536 3.5e-4,-0.203552 0.001,-0.4064 0.001,-0.6096 1.11161,-0.04727 2.22532,-0.04269 3.33622,0.01305 -0.3242,-0.243416 -0.30233,-0.767292 -0.0624,-1.094317 0.23918,-0.327377 0.62689,-0.505883 0.9973,-0.671336 0.55034,-0.24518 1.10067,-0.490361 1.65136,-0.736247 0.10018,-0.0448 0.20849,-0.09701 0.2547,-0.19685 0.0981,-0.214136 -0.14746,-0.410986 -0.30833,-0.583142 -0.39969,-0.427566 -0.32843,-1.140883 0.001,-1.624541 0.3295,-0.483306 0.85408,-0.791281 1.36137,-1.083028 1.05375,-0.606778 2.10715,-1.213203 3.16089,-1.819981 -1.5949,0.181681 -3.25225,-0.257528 -4.54801,-1.205442 -0.20884,-0.152752 -0.41839,-0.331611 -0.50059,-0.576791 -0.0998,-0.298098 0.01,-0.624064 0.14499,-0.907698 0.38876,-0.815622 1.00048,-1.523647 1.75154,-2.026355 -0.41804,-0.08925 -0.86924,-0.197909 -1.14088,-0.528109 -0.27199,-0.329847 -0.20426,-0.9503831 0.21026,-1.0551581 -0.43251,-0.5588001 -0.53305,-1.3564307 -0.25224,-2.0048363 0.17709,-0.4088695 0.49918,-0.79375 0.45297,-1.2368389 -0.0279,-0.2656417 -0.18874,-0.5044723 -0.20955,-0.7708195 -0.024,-0.2991556 0.13052,-0.5803195 0.2801,-0.8406695 0.6477,-1.1271251 1.2954,-2.2542502 1.9431,-3.381728 -1.13594,1.0523361 -2.62466,2.0129501 -4.13385,1.6675806 -1.12395,0.6847417 -2.5968,0.757414 -3.78248,0.1862667 -1.1624,1.2798779 -2.87796,2.0390557 -4.60693,2.040114 0.94404,-0.9913056 1.68028,-2.1791084 2.14913,-3.4649835 -0.0974,0.032103 -0.19438,0.064558 -0.29175,0.096661 -0.64135,0.212725 -1.58186,-0.2060222 -1.88525,-0.80962506 -0.4191,-0.83290838 0.0674,-1.80939733 0.19862,-2.73296964 -0.35349,0.3153834 -0.9144,0.2949223 -1.33315,0.073378 -0.41875,-0.22225 -0.72496,-0.6053667 -1.00577,-0.9874251 -0.44838,-0.6099528 -0.86395,-1.2442473 -1.2446,-1.8990029 -0.2099,0.1767417 -0.56092,0.0381 -0.68862,-0.2049639 -0.12841,-0.2430639 -0.0942,-0.5376333 -0.036,-0.80645 -1.46297,-1.1825112 -2.25214,-3.1474835 -2.01366,-5.0136779 -0.50306,1.3705416 -1.39559,2.5572861 -2.27577,3.7221584 -0.19121,0.2529417 -0.39793,0.517525 -0.69356,0.6314722 -0.29598,0.1135945 -0.70238,0 -0.78634,-0.3058583 -0.0861,0.7828139 -0.3429,1.5465779 -0.74754,2.2225001 -0.0836,0.1397 -0.21484,0.2945695 -0.3743,0.2610556 -0.12206,-0.025753 -0.19226,-0.1520472 -0.24024,-0.2670528 -0.11183,-0.2684639 -0.19156,-0.5503334 -0.23601,-0.8378473 -0.21307,1.0604501 -0.5535,2.0951474 -1.01212,3.0744585 -0.12382,0.2642306 -0.26775,0.5376334 -0.51576,0.690739 -0.248,0.1534583 -0.62935,0.1280583 -0.77293,-0.1259417 0.16686,0.65299172 -0.19579,1.39946954 -0.81174,1.671814 -0.61631,0.27234446 -1.41267,0.0377472 -1.78284,-0.52493336 0.3145,1.34796397 0.35984,2.83915576 0.50797,4.21534196 0.0441,0.4109861 0.0802,0.8314972 -0.0158,1.2336639 -0.0962,0.4018139 -0.34784,0.7884584 -0.73106,0.9429751 -0.30166,0.1213556 -0.6415,0.087136 -0.96256,0.035278 -0.97702,-0.1580445 -1.93079,-0.4600223 -2.8207,-0.8932334 0.21565,0.45085 -0.20493,0.9973028 -0.69332,1.1045473 -0.48835,0.1072444 -0.98749,-0.083961 -1.45104,-0.2716389 0.0937,0.3379611 -0.18331,0.6903861 -0.5158,0.8015111 -0.33225,0.1114778 -0.69564,0.044097 -1.03671,-0.037747 -1.06701,-0.2557639 -2.1022,-0.6434667 -3.07481,-1.1514667 0.26236,0.9666111 0.8351,1.8990029 1.47712,2.6684112 0.64202,0.7687029 1.24065,1.6965085 1.13619,2.6927521 -0.14235,0.03845 -0.28459,0.07691 -0.42693,0.115006 0.3182,0.307269 0.65637,0.654403 0.69483,1.094669 0.0386,0.440267 -0.42955,0.918281 -0.81968,0.710142 0.19279,0.529167 0.6962,0.867481 1.14226,1.211086 0.44623,0.343959 0.89517,0.799042 0.89171,1.362428 -3.8e-4,0.105481 -0.0165,0.216959 0.0293,0.312209 0.0513,0.106538 0.1663,0.164394 0.27517,0.210961 0.28349,0.121002 0.58596,0.218722 0.81706,0.42298 0.23093,0.204259 0.36929,0.556331 0.22116,0.826559 -0.13134,0.239889 -0.42594,0.32773 -0.69123,0.3937 -1.00708,0.251177 -2.01426,0.502003 -3.02119,0.75318 0.75473,0.42792 1.50978,0.855839 2.26466,1.283759 0.45529,0.258233 0.98061,0.656872 0.87947,1.170516 0.40707,-0.183797 0.85411,0.334434 0.76122,0.771878 -0.0929,0.437092 -0.50644,0.728134 -0.91542,0.90805 -0.0527,0.02328 -0.11162,0.05151 -0.1283,0.106892 -0.0167,0.05503 0.056,0.122061 0.0958,0.08079 1.17877,-0.214136 2.34953,0.298097 3.42095,0.833967 0.33186,0.165805 0.67663,0.353483 0.86762,0.671689 0.19086,0.318205 0.15159,0.803628 -0.17515,0.978958 2.69889,0.151342 5.43751,-0.495653 7.78383,-1.838325 1.41323,-0.808919 2.59574,-2.160764 4.20229,-2.426053"
         style="fill:#9d2d1e;fill-opacity:1;fill-rule:nonzero;stroke:none;stroke-width:0.0352778"
         id="path218" />
      <g
         id="g220"
         transform="matrix(0.03527778,0,0,-0.03527778,134.30479,99.958595)">
        <g
           id="g222"
           clip-path="url(#clipPath226)">
          <path
             d="m 787.523,2411.56 c -1.589,0.56 -3.171,1.13 -4.746,1.73 -4.781,6.6 -11.25,12.39 -17.699,17.36 -12.64,9.75 -26.914,19.33 -32.379,34.33 1.16,-0.62 2.348,-1.02 3.535,-1.24 6.442,-12.47 19.063,-21.07 30.387,-29.79 8.039,-6.2 16.109,-13.67 20.902,-22.39 m -32.789,65.34 c 0.981,2.65 1.442,5.46 1.2,8.22 -1.09,12.48 -10.676,22.32 -19.696,31.02 1.289,0.35 2.575,0.7 3.86,1.04 8.277,-8.15 16.382,-17.35 17.379,-28.77 0.343,-3.95 -0.743,-8 -2.743,-11.51 m -6.156,45.45 c 1.535,27.12 -14.883,52.35 -32.445,73.39 -18.199,21.8 -34.434,48.23 -41.871,75.64 0.98,-0.51 1.961,-1.02 2.941,-1.52 7.953,-25.68 23.344,-50.3 40.473,-70.83 18.199,-21.79 35.168,-48.09 32.207,-76.33 -0.434,-0.12 -0.871,-0.23 -1.305,-0.35 m 56.438,128.85 c 1.039,2.94 1.277,6.08 0.418,9.18 0.683,-0.28 1.371,-0.55 2.058,-0.83 -0.051,-2.91 -0.961,-5.76 -2.476,-8.35 m 61.535,18.62 c 1.73,4.6 1.871,9.57 -0.336,14.18 0.996,-0.49 1.996,-0.97 3,-1.44 0.648,-4.33 -0.43,-8.76 -2.664,-12.74 m 125.273,9.38 c 0.985,2.34 1.77,4.76 2.356,7.21 0.25,1.05 0.468,2.1 0.66,3.16 0.215,-0.29 0.422,-0.58 0.629,-0.87 -0.856,-3.27 -2.078,-6.48 -3.645,-9.5"
             style="fill:#f9ad72;fill-opacity:1;fill-rule:nonzero;stroke:none"
             id="path228" />
          <path
             d="m 847.414,2401.41 c -20.184,0 -40.449,3.35 -59.891,10.15 -4.793,8.72 -12.863,16.19 -20.902,22.39 -11.324,8.72 -23.945,17.32 -30.387,29.79 0.696,-0.12 1.391,-0.18 2.086,-0.18 6.946,0 13.688,6.02 16.414,13.34 2,3.51 3.086,7.56 2.743,11.51 -0.997,11.42 -9.102,20.62 -17.379,28.77 2.75,0.74 5.496,1.48 8.242,2.22 0.101,0.99 0.183,1.97 0.238,2.95 0.434,0.12 0.871,0.23 1.305,0.35 2.961,28.24 -14.008,54.54 -32.207,76.33 -17.129,20.53 -32.52,45.15 -40.473,70.83 26.711,-13.66 55.047,-24.14 84.219,-31.13 6.023,-1.44 12.297,-2.73 18.449,-2.73 3.719,0 7.395,0.47 10.945,1.66 6.375,2.13 12.032,7.4 14.2,13.54 1.515,2.59 2.425,5.44 2.476,8.35 9.903,-3.97 20.336,-7.74 30.742,-7.74 2.782,0 5.563,0.27 8.329,0.88 8.851,1.94 16.917,8.97 19.988,17.13 2.234,3.98 3.312,8.41 2.664,12.74 24.363,-11.52 50.355,-19.58 76.961,-23.88 4.539,-0.73 9.211,-1.35 13.816,-1.35 4.625,0 9.184,0.62 13.465,2.35 8.535,3.44 14.766,10.94 18.367,19.52 1.567,3.02 2.789,6.23 3.645,9.5 45.731,-64.02 45.971,-152.97 -5.121,-217.93 -35.852,-45.57 -89.121,-69.36 -142.934,-69.36"
             style="fill:#c64320;fill-opacity:1;fill-rule:nonzero;stroke:none"
             id="path230" />
          <path
             d="m 987.465,2797.68 c -1.735,14.7 -3.977,29.21 -7.235,43.18 0.961,-1.46 2.024,-2.84 3.176,-4.14 2.614,-12.69 4.481,-25.77 5.977,-38.98 -0.641,-0.02 -1.278,-0.04 -1.918,-0.06 m 64.135,50.18 c 3.37,8.04 4.34,17.05 2.18,25.51 0.69,-1.22 1.57,-2.25 2.59,-3.1 0.57,-7.69 -1.19,-15.53 -4.77,-22.41 m 39.58,43.4 c 12.56,27.21 21.92,55.89 27.81,85.27 0.12,-0.76 0.25,-1.52 0.38,-2.28 -6.08,-28.11 -15.33,-55.53 -27.52,-81.57 -0.22,-0.48 -0.44,-0.95 -0.67,-1.42 m 60.06,76.87 c 4.97,10.95 8.68,22.47 11.02,34.27 0.11,-0.81 0.2,-1.62 0.3,-2.42 -2.62,-10.98 -6.42,-21.68 -11.32,-31.85"
             style="fill:#f9ad72;fill-opacity:1;fill-rule:nonzero;stroke:none"
             id="path232" />
          <path
             d="m 989.383,2797.74 c -1.496,13.21 -3.363,26.29 -5.977,38.98 7.86,-8.89 19.834,-13.95 31.714,-13.95 5.36,0 10.71,1.03 15.64,3.21 9.48,4.19 16.85,12.34 20.84,21.88 3.58,6.88 5.34,14.72 4.77,22.41 2.57,-2.15 6.03,-3.16 9.59,-3.16 3.39,0 6.87,0.93 9.73,2.69 7.03,4.35 11.11,12.09 14.62,19.58 0.29,0.63 0.58,1.25 0.87,1.88 0.23,0.47 0.45,0.94 0.67,1.42 12.19,26.04 21.44,53.46 27.52,81.57 1.32,-7.35 3.44,-14.57 6.32,-21.46 1.36,-3.27 3.35,-6.84 6.81,-7.58 0.42,-0.08 0.84,-0.13 1.25,-0.13 3.95,0 7.21,3.94 9.36,7.53 3,5.02 5.71,10.2 8.13,15.52 4.9,10.17 8.7,20.87 11.32,31.85 5.29,-45.95 -6.85,-93.91 -37.7,-133.13 -34.2,-43.48 -84.23,-67.05 -135.477,-69.11"
             style="fill:#c64320;fill-opacity:1;fill-rule:nonzero;stroke:none"
             id="path234" />
          <path
             d="m 1558.43,2144.03 c -94.04,42.99 -193.38,74.37 -295.05,93.19 -34.5,-5.7 -62.08,-29.06 -90.85,-50.02 -0.1,0.65 -0.2,1.3 -0.3,1.95 29.43,21.29 57.46,45.54 92.69,51.36 101.12,-18.72 199.94,-49.85 293.52,-92.49 0,-1.33 0,-2.66 -0.01,-3.99 m 1.59,17.33 c 0,1.08 0,2.16 0,3.24 14.42,0.61 28.84,0.92 43.27,0.92 8.64,0 17.28,-0.11 25.91,-0.33 -0.29,-1.11 -0.59,-2.21 -0.89,-3.31 -8.8,0.23 -17.61,0.34 -26.41,0.34 -13.97,0 -27.93,-0.29 -41.88,-0.86 m 92.91,32.69 c -0.26,0.07 -0.53,0.15 -0.8,0.22 0.22,0.33 0.45,0.66 0.69,0.98 6.78,9.28 17.77,14.34 28.27,19.03 15.6,6.95 31.2,13.9 46.81,20.87 2.26,1.01 4.67,2.15 6.22,4.01 -0.1,-0.57 -0.28,-1.15 -0.55,-1.73 -1.3,-2.82 -4.37,-4.32 -7.22,-5.58 -15.6,-6.96 -31.2,-13.91 -46.8,-20.87 -9.69,-4.32 -19.78,-8.95 -26.62,-16.93 m 69.22,101.39 c 1.17,2.77 2.6,5.43 4.27,7.87 9.34,13.7 24.21,22.43 38.59,30.7 27.67,15.94 55.34,31.86 83.01,47.79 1.69,0.15 3.37,0.31 5.05,0.5 -29.87,-17.19 -59.74,-34.39 -89.6,-51.58 -14.38,-8.28 -29.25,-17 -38.6,-30.71 -0.99,-1.46 -1.9,-2.99 -2.72,-4.57 m -7.56,164.18 c 0.33,0.75 0.67,1.49 1.02,2.23 10.33,21.66 26.2,40.64 45.67,54.67 0.82,-0.18 1.63,-0.36 2.44,-0.53 -20.96,-14.03 -38.1,-33.69 -49.13,-56.37 m 14.85,95.3 c 1.19,3.42 3.31,6.32 6.37,8.03 0.49,-0.7 1,-1.4 1.53,-2.08 -3.51,-0.88 -6.14,-3.07 -7.9,-5.95 m 2.32,66.16 c 2.35,5.38 5.57,10.61 8.21,15.94 -2.35,-5.38 -5.57,-10.61 -8.21,-15.94 m 9.64,70.73 c 1.47,3.41 3.33,6.73 5.17,9.93 17.6,30.63 35.2,61.25 52.79,91.88 0.25,0.23 0.5,0.46 0.75,0.69 -18.36,-31.96 -36.72,-63.91 -55.08,-95.87 -1.24,-2.16 -2.49,-4.37 -3.63,-6.63"
             style="fill:#fde1a5;fill-opacity:1;fill-rule:nonzero;stroke:none"
             id="path236" />
          <path
             d="m 1558.44,2148.02 c -93.58,42.64 -192.4,73.77 -293.52,92.49 -35.23,-5.82 -63.26,-30.07 -92.69,-51.36 -8.17,53.29 1.97,109.65 32.76,158.97 44.29,70.98 120.44,109.91 198.36,109.91 15,0 30.07,-1.44 44.99,-4.38 -1.44,52.42 11.96,105.83 41.81,153.65 21.92,35.13 50.48,63.57 82.99,84.84 -1.81,15.66 -1.67,31.59 0.52,47.4 0.69,0.73 1.37,1.47 2.05,2.21 15.08,-7.26 31.79,-10.85 48.51,-10.85 20.56,0 41.14,5.43 58.7,16.13 6.06,-1.38 12.1,-2.03 18.1,-2.03 36.1,0.01 70.82,23.28 98.34,48.62 -17.59,-30.63 -35.19,-61.25 -52.79,-91.88 -1.84,-3.2 -3.7,-6.52 -5.17,-9.93 -2.74,-5.46 -4.79,-11.2 -4.32,-17.2 0.61,-7.54 5.16,-14.32 5.95,-21.84 0.57,-5.5 -0.86,-10.69 -3.06,-15.75 -2.64,-5.33 -5.86,-10.56 -8.21,-15.94 -0.55,-1.12 -1.08,-2.25 -1.57,-3.38 -7.62,-17.59 -5.34,-39.05 5.62,-54.75 -3.06,-1.71 -5.18,-4.61 -6.37,-8.03 -4.14,-6.78 -3.47,-17.39 1.93,-23.96 7.19,-8.71 18.77,-11.98 29.91,-14.44 -19.47,-14.03 -35.34,-33.01 -45.67,-54.67 -0.35,-0.74 -0.69,-1.48 -1.02,-2.23 -0.18,-0.35 -0.35,-0.71 -0.52,-1.07 -3.83,-8.04 -6.94,-17.27 -4.11,-25.72 2.33,-6.96 8.27,-12.03 14.19,-16.37 31.28,-22.87 70,-35.3 108.73,-35.29 5.06,0 10.11,0.21 15.14,0.63 -27.67,-15.93 -55.34,-31.85 -83.01,-47.79 -14.38,-8.27 -29.25,-17 -38.59,-30.7 -1.67,-2.44 -3.1,-5.1 -4.27,-7.87 -6.9,-13.35 -7.44,-30.64 2.69,-41.48 4.12,-4.41 10.21,-9.4 9.28,-14.8 -1.55,-1.86 -3.96,-3 -6.22,-4.01 -15.61,-6.97 -31.21,-13.92 -46.81,-20.87 -10.5,-4.69 -21.49,-9.75 -28.27,-19.03 -0.24,-0.32 -0.47,-0.65 -0.69,-0.98 -5.58,1.52 -11.13,3.22 -16.65,5.11 -1.23,-11.46 -3.31,-22.89 -6.28,-34.19 -8.63,0.22 -17.27,0.33 -25.91,0.33 -14.43,0 -28.85,-0.31 -43.27,-0.92 0,-1.08 0,-2.16 0,-3.24 -0.52,-0.02 -1.03,-0.04 -1.54,-0.06 -0.01,-4.42 -0.02,-8.85 -0.04,-13.28"
             style="fill:#b3411f;fill-opacity:1;fill-rule:nonzero;stroke:none"
             id="path238" />
        </g>
      </g>
      <path
         d="m 179.0356,-9.8392619 c -0.7567,4.7501531 -0.97684,9.56662836 -1.19591,14.371462 -0.16369,3.5873974 -0.32703,7.1807919 -0.15981,10.7678369 0.27058,5.805664 1.40547,11.538303 2.79224,17.182395 0,0 1.11407,0.04551 1.23401,-0.674864 0.1203,-0.720725 -2.14277,-7.014281 -2.77777,-10.889192 -1.30528,-7.965723 -0.58491,-13.3699257 -0.46461,-18.2936455 0.11995,-4.9240725 0.57185,-12.4639924 0.57185,-12.4639924"
         style="fill:#2c0e10;fill-opacity:1;fill-rule:nonzero;stroke:none;stroke-width:0.0352778"
         id="path240" />
      <path
         d="m 178.23974,20.503862 c 2.21086,-1.992136 4.42171,-3.984272 6.63257,-5.976408 1.34021,-1.206853 2.6797,-2.414059 4.03931,-3.596923 2.3495,-2.0443473 4.76603,-4.0220196 7.03157,-6.1739642 l -0.19932,-0.2102556 c -2.25531,2.1424196 -4.66831,4.1176225 -7.02275,6.1654978 -1.36208,1.18498 -2.70263,2.393244 -4.04284,3.60045 -2.21085,1.992136 -4.42171,3.984273 -6.63257,5.976409 l 0.19403,0.215194"
         style="fill:#2c0e10;fill-opacity:1;fill-rule:nonzero;stroke:none;stroke-width:0.0352778"
         id="path242" />
      <path
         d="m 185.49073,4.3967334 c -2.38054,3.7080475 -5.02003,7.2492306 -7.89305,10.5903896 l 0.21978,0.188736 c 2.88149,-3.351036 5.52909,-6.9031559 7.91739,-10.6224922 l -0.24412,-0.1566334"
         style="fill:#2c0e10;fill-opacity:1;fill-rule:nonzero;stroke:none;stroke-width:0.0352778"
         id="path244" />
      <path
         d="m 184.46591,0.32497206 c -1.87431,2.47473624 -4.61645,5.91361424 -6.8199,7.87117824 l 0.19262,0.2166056 c 2.23555,-1.9879029 4.97805,-5.431367 6.85835,-7.91280605 l -0.23107,-0.17497779"
         style="fill:#2c0e10;fill-opacity:1;fill-rule:nonzero;stroke:none;stroke-width:0.0352778"
         id="path246" />
      <path
         d="m 181.728,-2.3857726 c -1.18533,1.69509737 -2.44616,3.33692525 -3.77754,4.9194865 l 0.2219,0.1866194 c 1.33702,-1.589264 2.60314,-3.23814741 3.79306,-4.9399475 L 181.728,-2.3857726"
         style="fill:#2c0e10;fill-opacity:1;fill-rule:nonzero;stroke:none;stroke-width:0.0352778"
         id="path248" />
      <path
         d="m 188.86011,5.7602196 c -0.19826,1.3970001 -0.34501,2.6017363 -0.34501,3.9320614 0,0.351719 0.0102,0.712258 0.0325,1.086908 l 0.28928,-0.01693 c -0.0219,-0.369358 -0.0321,-0.7239 -0.0321,-1.069975 0,-1.3088057 0.14428,-2.4969613 0.34219,-3.8911392 l -0.28681,-0.040922"
         style="fill:#2c0e10;fill-opacity:1;fill-rule:nonzero;stroke:none;stroke-width:0.0352778"
         id="path250" />
      <path
         d="m 186.03119,7.5876086 c -0.43145,1.2227279 -0.54116,2.5110724 -0.54152,3.7987114 0,0.669219 0.03,1.338792 0.0603,1.999545 0.002,0.04057 0.007,0.08855 0.0289,0.143227 l 0.055,0.08467 c 0.0272,0.02752 0.0674,0.05115 0.11112,0.05962 l 0.001,3.53e-4 -0.002,-3.53e-4 0.0374,0.0039 c 0.0727,0.0014 0.13335,-0.04939 0.15346,-0.08855 0.0236,-0.04092 0.0296,-0.07585 0.0303,-0.111831 -7e-4,-0.02787 -0.004,-0.05644 -0.0222,-0.09349 l -0.0494,-0.05785 c -0.0247,-0.01835 -0.061,-0.0314 -0.0949,-0.03069 -0.0441,3.53e-4 -0.0769,0.01693 -0.0991,0.03246 l 0.16686,0.236714 -0.0677,-0.09596 v 0.116416 c 0.0356,-3.52e-4 0.0575,-0.01341 0.0677,-0.02046 l -0.0677,-0.09596 v 0.116416 -0.129116 l -0.0759,0.104422 0.0759,0.02469 v -0.129116 l -0.0759,0.104422 0.0692,-0.0949 -0.11219,0.0381 0.043,0.0568 0.0692,-0.0949 -0.11219,0.0381 0.0773,-0.02611 h -0.0818 l 0.005,0.02611 0.0773,-0.02611 h -0.0818 0.0727 l -0.0617,-0.03704 -0.0109,0.03704 h 0.0727 l -0.0617,-0.03704 0.0952,0.0568 v -0.109361 c -0.0462,-0.0014 -0.0875,0.03457 -0.0952,0.05256 l 0.0952,0.0568 v -0.109361 0.106539 l 0.0219,-0.10407 -0.0219,-0.0025 v 0.106539 l 0.0219,-0.10407 -7.1e-4,-3.53e-4 -0.0141,0.06914 0.0501,-0.04974 -0.036,-0.0194 -0.0141,0.06914 0.0501,-0.04974 -0.0289,0.02858 0.0367,-0.0187 -0.008,-0.0099 -0.0289,0.02858 0.0367,-0.0187 -0.004,-0.01341 -0.004,-0.03281 c -0.0307,-0.6604 -0.06,-1.325386 -0.06,-1.986139 -3.6e-4,-1.271411 0.10936,-2.5258891 0.52493,-3.702403 l -0.2734,-0.096308"
         style="fill:#2c0e10;fill-opacity:1;fill-rule:nonzero;stroke:none;stroke-width:0.0352778"
         id="path252" />
      <path
         d="m 190.67339,9.412881 c 0.5835,0.066322 1.17087,0.099483 1.7586,0.099483 1.03963,0 2.07962,-0.1037167 3.0988,-0.3107972 l -0.0575,-0.2839862 c -1.00013,0.2032 -2.02072,0.3051528 -3.0413,0.3051528 -0.57679,0 -1.15323,-0.032455 -1.72579,-0.097719 l -0.0328,0.2878667"
         style="fill:#2c0e10;fill-opacity:1;fill-rule:nonzero;stroke:none;stroke-width:0.0352778"
         id="path254" />
      <path
         d="m 187.10998,12.40232 c 0.24024,0.242711 0.44909,0.361597 0.67487,0.414161 0.22472,0.05292 0.44767,0.0501 0.76447,0.08643 0.51893,0.05891 1.04104,0.08784 1.56315,0.08784 1.00013,0 2.00025,-0.107244 2.97745,-0.320322 l -0.0617,-0.282928 c -0.95673,0.208492 -1.93639,0.31362 -2.91571,0.31362 -0.51117,0 -1.0227,-0.02858 -1.5307,-0.08608 -0.33302,-0.03704 -0.55562,-0.03775 -0.72954,-0.08043 -0.17286,-0.04269 -0.31539,-0.11677 -0.53728,-0.336903 l -0.20497,0.204611"
         style="fill:#2c0e10;fill-opacity:1;fill-rule:nonzero;stroke:none;stroke-width:0.0352778"
         id="path256" />
      <path
         d="m 183.97802,15.073554 c 1.05481,0.304447 2.1523,0.457552 3.24979,0.457552 0.72319,0 1.44674,-0.06632 2.15759,-0.200025 l -0.0533,-0.285044 c -0.69321,0.130528 -1.39876,0.195439 -2.10432,0.195439 -1.07068,0 -2.14136,-0.149578 -3.16971,-0.446264 l -0.0801,0.278342"
         style="fill:#2c0e10;fill-opacity:1;fill-rule:nonzero;stroke:none;stroke-width:0.0352778"
         id="path258" />
      <path
         d="m 180.47847,18.564995 c 0.87524,0.346428 2.15476,0.638881 3.34786,0.639587 0.14287,0 0.28469,-0.0042 0.42439,-0.01341 3.28965,-0.211667 6.55743,-0.765528 9.73278,-1.650295 l -0.0776,-0.279047 c -3.1563,0.879123 -6.40397,1.429809 -9.67387,1.640417 -0.133,0.0085 -0.26846,0.01235 -0.40569,0.01235 -1.14512,7.06e-4 -2.40348,-0.286455 -3.24097,-0.618772 l -0.10689,0.269169"
         style="fill:#2c0e10;fill-opacity:1;fill-rule:nonzero;stroke:none;stroke-width:0.0352778"
         id="path260" />
      <path
         d="m 180.25939,18.545593 c 0.31044,1.459089 1.47743,2.689578 2.91818,3.076575 l 0.0751,-0.280106 c -1.33033,-0.353836 -2.42641,-1.509536 -2.70969,-2.856442 l -0.28363,0.05997"
         style="fill:#2c0e10;fill-opacity:1;fill-rule:nonzero;stroke:none;stroke-width:0.0352778"
         id="path262" />
      <path
         d="m 184.75237,19.000676 c 0.30409,1.194153 1.30598,2.169583 2.50825,2.441222 l 0.0635,-0.282575 c -1.09009,-0.243064 -2.01824,-1.14688 -2.29094,-2.229908 l -0.28081,0.07126"
         style="fill:#2c0e10;fill-opacity:1;fill-rule:nonzero;stroke:none;stroke-width:0.0352778"
         id="path264" />
      <path
         d="m 187.61939,18.768195 c 0.17322,0.291042 0.40288,0.546806 0.67346,0.750359 0.67027,0.501297 1.51941,0.644172 2.31986,0.678039 0.8001,0.03281 1.59033,-0.02752 2.34562,0.09737 l 0.0469,-0.286102 c -0.80151,-0.130881 -1.60373,-0.06773 -2.38019,-0.100895 -0.77646,-0.03175 -1.56563,-0.174272 -2.15794,-0.620183 -0.24024,-0.180622 -0.44521,-0.408517 -0.59867,-0.666397 l -0.24906,0.147813"
         style="fill:#2c0e10;fill-opacity:1;fill-rule:nonzero;stroke:none;stroke-width:0.0352778"
         id="path266" />
      <path
         d="m 174.45831,-1.6205975 c 0.58914,1.64359176 1.80728,3.0480002 3.35104,3.8636225 l 0.13511,-0.2564695 c -1.47778,-0.7799917 -2.65006,-2.13113069 -3.2131,-3.7048725 l -0.27305,0.09772"
         style="fill:#2c0e10;fill-opacity:1;fill-rule:nonzero;stroke:none;stroke-width:0.0352778"
         id="path268" />
      <path
         d="m 172.92232,1.0308804 c -0.005,0.039864 -0.007,0.081492 -0.007,0.1248834 0.002,0.3478389 0.13758,0.8466667 0.31009,1.3289139 0.17427,0.4818945 0.38135,0.9316862 0.5528,1.1698112 0.73555,1.0124723 2.0821,2.9210002 3.73345,4.0781114 l 0.16616,-0.2374195 C 176.08426,6.3818141 174.74583,4.4972751 174.0124,3.48445 c -0.13864,-0.1887361 -0.34925,-0.635 -0.5147,-1.0978445 -0.16792,-0.4624917 -0.29457,-0.9567334 -0.29281,-1.2308417 0,-0.033514 0.002,-0.063147 0.005,-0.087842 l -0.28751,-0.037042"
         style="fill:#2c0e10;fill-opacity:1;fill-rule:nonzero;stroke:none;stroke-width:0.0352778"
         id="path270" />
      <path
         d="m 171.90314,5.7528113 c 0.57468,2.157589 1.18322,3.673828 2.25954,5.6303337 0.31503,0.572206 0.87807,1.272117 1.50742,1.908528 0.63006,0.636058 1.32151,1.204736 1.90747,1.504597 l 0.13194,-0.25788 c -0.53798,-0.273756 -1.2192,-0.829028 -1.83338,-1.45027 -0.6149,-0.620889 -1.16699,-1.311275 -1.45945,-1.844675 -1.06785,-1.9423946 -1.66228,-3.4237086 -2.23343,-5.5654226 l -0.28011,0.074789"
         style="fill:#2c0e10;fill-opacity:1;fill-rule:nonzero;stroke:none;stroke-width:0.0352778"
         id="path272" />
      <path
         d="m 163.75719,18.90472 c 2.77731,1.204031 5.81698,1.579034 8.79436,1.941689 1.77729,0.216253 3.55494,0.432506 5.33259,0.648759 l 0.0349,-0.287514 c -1.77729,-0.216253 -3.55494,-0.432858 -5.33259,-0.649111 -2.97709,-0.361597 -5.98847,-0.736953 -8.71407,-1.919817 l -0.11521,0.265994"
         style="fill:#2c0e10;fill-opacity:1;fill-rule:nonzero;stroke:none;stroke-width:0.0352778"
         id="path274" />
      <path
         d="m 165.00044,22.020807 c 0.23538,0.02081 0.49583,0.03245 0.76691,0.03245 0.7167,-3.52e-4 1.50618,-0.07973 2.10961,-0.294922 1.09626,-0.392289 1.72925,-0.720725 2.73572,-1.292578 l -0.14323,-0.252236 c -1.00471,0.570795 -1.60912,0.884414 -2.69017,1.272117 -0.54903,0.197203 -1.31798,0.278342 -2.01193,0.277989 -0.26282,0 -0.51527,-0.01129 -0.7414,-0.0314 l -0.0255,0.288572"
         style="fill:#2c0e10;fill-opacity:1;fill-rule:nonzero;stroke:none;stroke-width:0.0352778"
         id="path276" />
      <path
         d="m 169.05573,23.670749 c 1.8427,-0.646995 3.5893,-1.567039 5.16516,-2.720976 l -0.17109,-0.233539 c -1.55293,1.137003 -3.27414,2.043642 -5.08995,2.681112 l 0.0959,0.273403"
         style="fill:#2c0e10;fill-opacity:1;fill-rule:nonzero;stroke:none;stroke-width:0.0352778"
         id="path278" />
      <path
         d="m 158.23346,6.7508197 c 0.088,0.1432278 0.26236,0.3005667 0.49512,0.4931833 0.69371,0.5676195 1.88296,1.3486696 2.19965,1.5532807 2.23449,1.4435663 4.05708,2.8384503 6.30325,4.2901313 1.59082,1.027288 3.73045,2.750961 5.24352,3.914422 1.70144,1.307395 3.69922,3.104092 5.5626,4.226278 l 0.14957,-0.248003 c -1.82774,-1.099608 -3.82199,-2.890308 -5.53543,-4.207933 -1.51024,-1.160639 -3.65069,-2.886428 -5.26288,-3.928181 -2.23446,-1.44392 -4.0572,-2.83845 -6.3034,-4.290131 -0.20782,-0.1340555 -0.80532,-0.5263445 -1.38039,-0.9362723 -0.28747,-0.2053166 -0.56941,-0.4148667 -0.79293,-0.5979583 -0.2224,-0.1799167 -0.39053,-0.3460751 -0.42965,-0.4169834 l -0.24903,0.1481667"
         style="fill:#2c0e10;fill-opacity:1;fill-rule:nonzero;stroke:none;stroke-width:0.0352778"
         id="path280" />
      <path
         d="m 167.62755,7.9425031 c 0.90607,2.2182669 1.84421,4.5444839 2.17798,6.8932779 l 0.28716,-0.04057 c -0.34184,-2.397125 -1.29121,-4.742745 -2.19682,-6.9624228 l -0.26832,0.1097139"
         style="fill:#2c0e10;fill-opacity:1;fill-rule:nonzero;stroke:none;stroke-width:0.0352778"
         id="path282" />
      <path
         d="m 173.66633,13.50334 c 0.21272,1.904647 0.71613,3.776486 1.48801,5.530497 l 0.26529,-0.116769 c -0.75988,-1.726848 -1.25589,-3.570464 -1.46544,-5.445831 l -0.28786,0.0321"
         style="fill:#2c0e10;fill-opacity:1;fill-rule:nonzero;stroke:none;stroke-width:0.0352778"
         id="path284" />
      <path
         d="m 164.40337,15.98619 c 0.47526,0.07479 0.96583,0.109361 1.46276,0.109361 1.50385,0 3.06461,-0.316089 4.42729,-0.798336 l -0.0967,-0.27305 c -1.33449,0.472722 -2.86742,0.782108 -4.33063,0.781755 -0.48341,0 -0.9591,-0.03351 -1.41757,-0.105833 l -0.0452,0.286103"
         style="fill:#2c0e10;fill-opacity:1;fill-rule:nonzero;stroke:none;stroke-width:0.0352778"
         id="path286" />
      <path
         d="m 163.98317,7.9322725 c 0.0857,0.598664 0.30251,1.157464 0.51224,1.7010946 0.2541,0.6565199 0.73187,1.6372419 0.978,2.2747109 l 0.27023,-0.104422 c -0.25386,-0.656519 -0.73173,-1.637594 -0.97786,-2.2750639 -0.21029,-0.5429251 -0.41685,-1.0823223 -0.49583,-1.6372418 l -0.28678,0.040922"
         style="fill:#2c0e10;fill-opacity:1;fill-rule:nonzero;stroke:none;stroke-width:0.0352778"
         id="path288" />
      <path
         d="m 167.63305,17.131659 c 0.47805,0.672042 1.04595,1.154289 1.57237,1.642886 0.52743,0.489303 1.0125,0.982487 1.35329,1.678164 l 0.26035,-0.127705 c -0.36548,-0.745772 -0.88442,-1.268942 -1.41658,-1.762831 -0.53347,-0.494241 -1.08109,-0.961672 -1.53321,-1.598083 l -0.23622,0.167922"
         style="fill:#2c0e10;fill-opacity:1;fill-rule:nonzero;stroke:none;stroke-width:0.0352778"
         id="path290" />
      <path
         d="m 171.6943,17.423054 c 0.20637,0.174272 0.3623,0.419805 0.51999,0.675569 0.57679,0.933097 1.15359,1.865489 1.73073,2.798586 l 0.24624,-0.1524 c -0.57679,-0.933097 -1.15358,-1.865489 -1.73073,-2.798586 -0.1584,-0.255411 -0.32667,-0.529872 -0.57926,-0.744361 l -0.18697,0.221192"
         style="fill:#2c0e10;fill-opacity:1;fill-rule:nonzero;stroke:none;stroke-width:0.0352778"
         id="path292" />
      <path
         d="m 182.63605,16.115306 c -0.23459,-1.054452 -0.29033,-1.785408 -0.29068,-2.539647 0,-0.400403 0.0162,-0.807861 0.0303,-1.271411 0.0169,-0.630414 0.29034,-1.482725 0.65617,-1.991784 l -0.23601,-0.168275 c -0.4071,0.574675 -0.6865,1.450623 -0.71014,2.151239 -0.0138,0.462139 -0.03,0.872067 -0.03,1.280231 -3.5e-4,0.769056 0.0586,1.53035 0.2974,2.602442 l 0.28292,-0.0628"
         style="fill:#2c0e10;fill-opacity:1;fill-rule:nonzero;stroke:none;stroke-width:0.0352778"
         id="path294" />
    </g>
  </g>
</svg>
