<?xml version="1.0" encoding="UTF-8" standalone="no"?>
<!-- Created with Inkscape (http://www.inkscape.org/) -->

<svg
   width="32.180721mm"
   height="45.932037mm"
   viewBox="0 0 32.180723 45.932037"
   version="1.1"
   id="svg1424"
   inkscape:version="1.1.2 (1:1.1+202202050852+0a00cf5339)"
   sodipodi:docname="leaf9.svg"
   xmlns:inkscape="http://www.inkscape.org/namespaces/inkscape"
   xmlns:sodipodi="http://sodipodi.sourceforge.net/DTD/sodipodi-0.dtd"
   xmlns="http://www.w3.org/2000/svg"
   xmlns:svg="http://www.w3.org/2000/svg">
  <sodipodi:namedview
     id="namedview1426"
     pagecolor="#ffffff"
     bordercolor="#666666"
     borderopacity="1.0"
     inkscape:pageshadow="2"
     inkscape:pageopacity="0.0"
     inkscape:pagecheckerboard="0"
     inkscape:document-units="mm"
     showgrid="false"
     fit-margin-top="0"
     fit-margin-left="0"
     fit-margin-right="0"
     fit-margin-bottom="0"
     inkscape:zoom="1.2810466"
     inkscape:cx="203.34936"
     inkscape:cy="279.0687"
     inkscape:window-width="1856"
     inkscape:window-height="1016"
     inkscape:window-x="1984"
     inkscape:window-y="27"
     inkscape:window-maximized="1"
     inkscape:current-layer="layer1" />
  <defs
     id="defs1421">
    <clipPath
       clipPathUnits="userSpaceOnUse"
       id="clipPath22">
      <path
         d="m 599.137,3471.36 c 38.629,-6.52 79.593,1.96 112.461,23.27 -2.364,-7.69 3.851,-16.01 11.511,-18.47 7.661,-2.47 16.036,-0.5 23.555,2.39 12.754,4.87 24.508,12.35 34.328,21.84 10.821,-5.36 7.324,-24.15 17.641,-30.42 4.332,-2.64 9.82,-2.14 14.82,-1.31 20.32,3.39 39.945,10.88 57.348,21.91 -4.496,-7.05 -6.879,-15.44 -6.77,-23.81 55.157,10.68 106.774,42.69 145.809,83.08 -21.356,-40.21 -43.371,-83.83 -37.32,-128.96 70.35,61.1 132.47,131.66 184.18,209.17 8.33,-50.72 12.26,-102.17 11.75,-153.57 -0.55,-54.09 -5.98,-108.61 2.85,-161.97 11.73,3.14 22.7,9.05 31.78,17.1 -1.98,80.79 -7.51,161.5 -16.58,241.8 -1.51,13.46 -3.24,27.27 -9.59,39.25 1.16,-8.57 7.83,-15.23 14.4,-20.84 23.99,-20.52 51.49,-36.44 78.82,-52.23 32.76,-18.93 66.53,-38.2 103.95,-43.78 22.13,-3.31 47.01,5.74 69.32,7.39 -20.65,8.94 -28.69,33.2 -40.03,52.63 -13.84,23.7 -35.52,42.74 -60.82,53.39 24.22,9.35 50.37,8.69 76.61,8.03 13.24,-0.33 26.5,-0.67 39.56,0.28 32.75,2.39 65.3,12.98 97.82,8.46 -10.37,8.98 -17.17,21.98 -18.64,35.62 43.79,11.99 85.8,30.45 124.25,54.59 8.15,5.11 16.98,11.84 17.62,21.44 51.66,-7.1 102.35,15.16 149.76,36.89 -39.09,-4.64 -76.5,14.58 -114.74,23.94 -15.59,3.81 -31.32,6.5 -47.36,5.93 6.81,10.23 11.46,21.9 13.53,34.02 -6.48,-9.88 -19.43,-12.73 -31.06,-14.77 -21.94,-3.83 -43.88,-7.66 -65.82,-11.5 -0.26,9.34 -1.52,18.65 -3.76,27.72 -12.59,-4.29 -27.37,-8.34 -38.43,-0.93 -2.44,1.64 -4.67,3.82 -7.54,4.49 -2.71,0.62 -5.52,-0.23 -8.17,-1.09 -24.93,-8.12 -49.33,-17.87 -72.99,-29.18 0.06,12.3 -2.16,24.61 -6.5,36.12 -60.39,-27.06 -116.9,-62.76 -167.29,-105.65 12.86,20.68 23.53,43.11 40.48,60.6 10.48,10.8 23.01,19.34 34.89,28.57 56.87,44.12 100.06,105.62 122.27,174.08 -8.82,-2.75 -21.13,-5.59 -29.75,-2.27 18.41,5.51 32.76,20.37 42.45,36.96 9.68,16.61 15.45,35.13 22.37,53.06 8.84,22.89 19.65,44.96 28.78,67.73 -14.73,-9.46 -37.96,-7.12 -49.26,6.25 9.53,1.32 16.7,9.24 22.12,17.19 20.78,30.5 28.45,69.63 20.75,105.72 -5.03,-8.8 -13.77,-15.4 -23.61,-17.83 15.36,33.89 30.73,67.77 46.09,101.65 -9.02,-2.42 -14.69,11.05 -10.87,19.58 3.82,8.52 12.24,14.16 16.71,22.36 6.67,12.23 3.34,27.16 2.87,41.08 -1.05,31.21 13.14,63.24 3.31,92.87 -12.37,-18.01 -24.75,-36.02 -37.12,-54.02 -21.29,-30.98 -43.5,-65.07 -41.28,-102.59 -5.91,10.39 -11.81,20.78 -17.71,31.18 -14.49,-47.17 -30.77,-93.79 -48.79,-139.73 -8.1,12.25 -15.94,24.68 -23.5,37.27 -12.76,-21.21 -25.53,-42.42 -38.29,-63.63 -3.68,7.28 -6.37,15.05 -7.98,23.04 -13.36,-29.56 -27.16,-58.91 -41.4,-88.05 -3.62,10.04 -7.25,20.07 -10.87,30.12 -33.9,-75.69 -93.87,-140.19 -111.89,-221.13 -6.78,13.54 -12.75,27.96 -13.08,43.1 -0.3,13.72 4.06,27.06 6.56,40.56 5.54,29.86 1.84,61.36 -10.47,89.13 -5.05,-2.89 -10.1,-5.77 -15.16,-8.66 0.83,33.48 -2.36,67.06 -9.48,99.77 -4.6,-7.89 -9.19,-15.79 -13.78,-23.68 -6.28,34.64 -20.03,67.92 -40.05,96.88 -4.96,-8.88 -9.92,-17.76 -14.88,-26.65 -8.1,40.81 -14.96,81.85 -20.57,123.07 -9.11,-3.31 -17.3,-9.16 -23.37,-16.72 5.37,24.69 -6.14,48.81 -14.33,72.72 -7.29,21.27 -14.58,42.54 -21.869,63.82 -1.675,-5.29 -3.347,-10.57 -5.023,-15.84 -19.996,29.95 -36.051,62.54 -47.621,96.64 -2.832,-39.17 -0.438,-78.7 7.101,-117.24 -10.156,3.04 -18.046,12.55 -19.152,23.1 1.453,-32.63 8.012,-65.02 19.359,-95.64 -8.921,6.18 -17.847,12.36 -26.765,18.54 9.906,-33.53 21.902,-66.44 35.887,-98.47 -7.383,6.88 -14.774,13.76 -22.153,20.63 -6.543,-48.58 -3.961,-98.37 7.574,-146.02 -13.765,8.38 -27.011,17.63 -39.632,27.66 5.078,-55.1 15.351,-109.71 30.652,-162.89 -14.875,-1.94 -30.559,4.2 -40.152,15.73 9.535,-51.78 33.089,-100.92 67.492,-140.78 10.558,-12.24 22.199,-23.73 30.512,-37.6 15.13,-25.26 17.92,-56.15 31.27,-82.39 -13.35,10.56 -20.62,25.42 -31.575,38.44 -10.281,12.22 -23.055,22.04 -35.723,31.77 -44.762,34.37 -89.519,68.74 -134.285,103.11 8.691,-10.82 5.844,-28.91 -5.746,-36.55 -23.648,32.9 -72.828,30.75 -108.668,49.64 5.02,-1.94 4.52,-10.04 0.187,-13.23 -4.324,-3.2 -10.281,-2.79 -15.57,-1.81 -15.113,2.81 -29.547,9.17 -41.808,18.44 -13.903,10.5 -25.86,25.07 -42.809,29.11 0.469,-7.45 0.937,-14.9 1.398,-22.36 -23.41,13.93 -47.793,26.25 -72.902,36.82 1.156,-3.97 2.32,-7.95 3.477,-11.92 -27.414,26.4 -54.828,52.81 -82.243,79.22 -0.062,-46.42 15.356,-92.73 43.227,-129.84 -7.453,1.93 -14.914,3.87 -22.379,5.8 28.367,-23.65 55.024,-49.36 79.688,-76.85 -8.266,-3.6 -17.254,-5.53 -26.266,-5.64 29.262,-20.43 60.344,-38.24 92.758,-53.16 -9.207,-6.69 -19.875,-11.35 -31.031,-13.56 20.093,-9.8 35.195,-27.24 52.656,-41.2 17.461,-13.95 40.375,-24.91 61.719,-18.27 -7.848,-9.77 -19.59,-16.32 -32.028,-17.86 53.219,-25.14 89.457,-38.83 143.203,-62.83 49.703,-22.2 96.793,-26.62 146.801,-48.12 -57.25,-38.45 -130.277,-28.87 -196.262,-48.91 6.235,-6.37 15.45,-9.69 24.313,-8.76 -21.379,-11.62 -41.844,-24.94 -61.129,-39.78 -4.59,-3.54 -9.289,-7.37 -11.613,-12.68 -2.114,-4.81 -2.153,-10.59 -5.461,-14.67 -2.684,-3.3 -6.957,-4.79 -10.992,-6.11 -18.2,-5.98 -36.399,-11.96 -54.594,-17.94 1.84,-5.85 6.14,-10.87 11.633,-13.6 -28.133,-17.97 -50.914,-39.05 -67.879,-67.8"
         id="path20" />
    </clipPath>
    <clipPath
       clipPathUnits="userSpaceOnUse"
       id="clipPath178">
      <path
         d="m 2655.38,3661.85 c -3.99,-25.54 0.6,-53.72 18.12,-72.72 27.22,-29.55 77.6,-26.71 110.07,-3.05 32.47,23.67 50.26,62.44 62.2,100.81 35.28,113.35 31.58,237.32 77.03,347 -62.01,-50.78 -144.23,-67.1 -219.66,-94.22 -75.42,-27.11 -153.44,-74.96 -172.85,-152.73 -10.08,-40.41 3.87,-91.81 43.43,-104.82 38.57,-12.67 75.99,16.04 102.52,40.75 -8.31,-19.81 -17.49,-39.49 -20.86,-61.02"
         id="path176" />
    </clipPath>
    <clipPath
       clipPathUnits="userSpaceOnUse"
       id="clipPath202">
      <path
         d="m 1982.81,4142.55 c 41.55,-33.96 65.96,-84.53 83.06,-135.39 17.1,-50.87 28.27,-103.84 49.91,-152.95 17.08,-38.77 40.59,-74.69 69.27,-105.86 30.05,-32.64 69.4,-61.38 113.77,-61.37 44.36,0.01 89.58,40.78 79.82,84.06 46.2,-6.49 92.81,24.5 111.89,67.07 19.08,42.58 13.44,93.46 -7.24,135.27 -20.68,41.83 -54.96,75.54 -92.39,103.39 -92.04,68.49 -207.11,105.46 -321.83,103.4 -45.45,-0.82 -91.16,-5.35 -136.51,-7.99 17.71,-8.29 34.95,-17.12 50.25,-29.63"
         id="path200" />
    </clipPath>
    <clipPath
       clipPathUnits="userSpaceOnUse"
       id="clipPath106">
      <path
         d="m 4428.1,3968.97 c -52.63,44.62 -160.32,141.81 -269.6,73.78 -94.73,-58.97 -235.45,-149.85 -337.63,-196.1 4.36,3.95 197.96,179.44 266.71,243.82 69.54,65.11 137.76,155.83 31.08,292.34 -15.17,60.39 -23.37,124.54 -23.37,124.54 0,0 -29.71,-46.46 -104.72,-56.35 -75.01,-9.87 -157.39,-38.27 -172.55,-169.69 -14.73,-127.62 33.13,-309.71 -17.65,-442.17 l -0.47,0.34 c -11.33,29.99 -48.8,136.58 -36.16,204.19 14.81,79.29 28.52,268.79 -57.92,312.32 -86.43,43.53 -143.59,39.08 -203.26,90.78 -20.01,-51.63 -37.3,-112.17 -82.27,-177.91 -44.96,-65.74 -37.11,-182.01 148.81,-258.58 71.65,-22.58 165.82,-130.87 203.6,-177.18 -18.29,1.66 -42.5,6.57 -63.01,20.14 -122.69,87.73 -167.18,79.03 -205.31,49.51 -38.14,-29.51 -38.14,-29.51 -92.58,-42.88 54.47,-24.02 3.94,-76.82 103.3,-114.78 86.75,-33.13 242.29,45.17 280.41,65.59 -10.53,-19.54 16.89,-218.2 103.02,-278.85 48.91,-34.45 75.24,-26.93 97.88,-19.41 17.61,5.85 32.98,11.7 55.01,-2.21 -19.31,52.63 -19.31,52.63 -16.11,100.75 3.2,48.11 -14.42,89.88 -155.7,142.68 -25.75,10.71 -42.58,47.5 -54.12,67.77 58.42,-9.1 152.93,-24.93 188.67,-37.28 53.31,-18.41 232.21,-100.37 306.01,-86.52 73.79,13.85 77.18,95.08 143.19,162.9 66.01,67.83 75.31,72.83 75.31,72.83 0,0 -57.94,-9 -110.57,35.63"
         id="path104" />
    </clipPath>
    <clipPath
       clipPathUnits="userSpaceOnUse"
       id="clipPath226">
      <path
         d="m 1263.38,2237.22 c 101.67,-18.82 201.01,-50.2 295.05,-93.19 0.02,5.76 0.04,11.52 0.05,17.27 31.51,1.34 63.08,1.22 94.57,-0.36 -9.19,6.89 -8.56,21.75 -1.78,31.02 6.8,9.28 17.78,14.34 28.28,19.02 15.6,6.96 31.2,13.91 46.8,20.87 2.85,1.26 5.92,2.76 7.22,5.58 2.79,6.07 -4.18,11.65 -8.73,16.53 -11.33,12.12 -9.31,32.34 0.03,46.05 9.35,13.71 24.22,22.43 38.6,30.71 29.86,17.19 59.73,34.39 89.6,51.58 -45.21,-5.14 -92.2,7.31 -128.92,34.16 -5.92,4.34 -11.86,9.41 -14.19,16.37 -2.83,8.45 0.28,17.68 4.11,25.72 11.02,23.13 28.36,43.19 49.65,57.44 -11.86,2.54 -24.64,5.62 -32.35,14.97 -7.7,9.36 -5.78,26.95 5.97,29.91 -12.27,15.84 -15.11,38.45 -7.15,56.83 5.02,11.59 14.15,22.5 12.84,35.07 -0.79,7.52 -5.34,14.3 -5.95,21.84 -0.67,8.48 3.71,16.45 7.95,23.83 18.36,31.96 36.72,63.91 55.08,95.87 -32.2,-29.83 -74.4,-57.06 -117.19,-47.28 -31.85,-19.41 -73.6,-21.46 -107.21,-5.28 -32.96,-36.27 -81.57,-57.8 -130.58,-57.82 26.75,28.1 47.62,61.76 60.91,98.21 -2.76,-0.91 -5.52,-1.82 -8.28,-2.74 -18.17,-6.03 -44.83,5.84 -53.43,22.95 -11.88,23.62 1.91,51.3 5.63,77.47 -10.03,-8.93 -25.92,-8.36 -37.79,-2.07 -11.87,6.29 -20.55,17.16 -28.51,27.98 -12.71,17.3 -24.5,35.28 -35.28,53.84 -5.96,-5.02 -15.9,-1.09 -19.53,5.8 -3.63,6.9 -2.66,15.25 -1.01,22.86 -41.47,33.52 -63.85,89.23 -57.08,142.12 -14.26,-38.85 -39.56,-72.49 -64.52,-105.51 -5.41,-7.16 -11.26,-14.67 -19.65,-17.89 -8.39,-3.22 -19.92,0 -22.29,8.66 -2.44,-22.19 -9.73,-43.84 -21.19,-63 -2.37,-3.96 -6.09,-8.35 -10.61,-7.4 -3.46,0.74 -5.45,4.31 -6.81,7.58 -3.18,7.6 -5.43,15.6 -6.7,23.74 -6.03,-30.06 -15.68,-59.39 -28.68,-87.15 -3.51,-7.49 -7.59,-15.23 -14.62,-19.58 -7.04,-4.35 -17.84,-3.63 -21.91,3.57 4.73,-18.5 -5.55,-39.67 -23.02,-47.39 -17.46,-7.71 -40.037,-1.06 -50.53,14.88 8.915,-38.21 10.2,-80.47 14.399,-119.49 1.25,-11.64 2.277,-23.57 -0.449,-34.96 -2.727,-11.4 -9.86,-22.35 -20.723,-26.73 -8.551,-3.45 -18.184,-2.47 -27.281,-1 -27.699,4.47 -54.735,13.03 -79.961,25.32 6.113,-12.79 -5.805,-28.28 -19.652,-31.31 -13.844,-3.04 -27.993,2.37 -41.129,7.69 2.656,-9.57 -5.196,-19.56 -14.618,-22.72 -9.425,-3.16 -19.726,-1.24 -29.394,1.07 -30.246,7.25 -59.59,18.24 -87.16,32.65 7.437,-27.41 23.672,-53.84 41.871,-75.64 18.199,-21.8 35.168,-48.09 32.207,-76.34 -4.031,-1.08 -8.067,-2.17 -12.102,-3.26 9.02,-8.7 18.606,-18.54 19.696,-31.02 1.093,-12.49 -12.172,-26.03 -23.235,-20.14 5.465,-15 19.739,-24.58 32.379,-34.33 12.649,-9.74 25.375,-22.65 25.277,-38.61 -0.011,-3 -0.468,-6.16 0.829,-8.86 1.453,-3.01 4.714,-4.66 7.8,-5.98 8.039,-3.43 16.618,-6.2 23.164,-11.98 6.547,-5.8 10.465,-15.78 6.27,-23.44 -3.727,-6.8 -12.078,-9.29 -19.602,-11.16 -28.543,-7.11 -57.089,-14.23 -85.636,-21.34 21.398,-12.14 42.797,-24.27 64.191,-36.4 12.91,-7.31 27.801,-18.62 24.934,-33.18 11.539,5.22 24.207,-9.49 21.578,-21.87 -2.633,-12.39 -14.356,-20.64 -25.949,-25.75 -1.489,-0.65 -3.164,-1.46 -3.637,-3.02 -0.469,-1.56 1.586,-3.47 2.715,-2.3 33.414,6.07 66.601,-8.45 96.976,-23.64 9.407,-4.7 19.18,-10.02 24.59,-19.04 5.41,-9.01 4.301,-22.77 -4.965,-27.75 76.507,-4.28 154.137,14.05 220.637,52.12 40.07,22.93 73.58,61.25 119.13,68.77"
         id="path224" />
    </clipPath>
    <clipPath
       clipPathUnits="userSpaceOnUse"
       id="clipPath330">
      <path
         d="m 2706.66,2329.43 c 28.86,13.55 49.18,49.09 36.48,78.33 70.17,4.27 127.65,69.68 134.1,139.69 3.27,35.55 -12.49,79.68 -47.97,83.76 24.11,48.99 20.65,110.48 -8.79,156.48 -29.44,45.99 -83.84,74.86 -138.43,73.47 -8.79,47.03 -28.91,94.4 -67.26,122.99 -38.36,28.59 -97.75,32.07 -131.67,-1.67 -55.48,52.75 -165.4,0.52 -214.89,58.93 14.74,-34.33 -12.48,-71.15 -37.75,-98.67 -25.27,-27.51 -52.27,-64.62 -37.12,-98.76 -42.43,-1.5 -82.1,-26.35 -106.98,-60.76 -24.88,-34.41 -36.02,-77.39 -37.27,-119.83 -1.49,-50.52 20.87,-111.59 70.93,-118.59 -29.48,-36.11 -36.56,-89.11 -17.59,-131.68 18.97,-42.58 63.11,-72.76 109.66,-74.98 -9.85,-26.03 8.84,-54.44 30.86,-71.46 55.34,-42.75 138.6,-44.83 196,-4.88 44.07,-35.12 104.68,-15.59 135.5,25.67 19.42,26 14.78,38.32 48.42,39.62 10.5,0.41 19.89,-0.95 28.97,-2.31 17.44,-2.61 33.77,-5.22 54.8,4.65"
         id="path328" />
    </clipPath>
    <clipPath
       clipPathUnits="userSpaceOnUse"
       id="clipPath138">
      <path
         d="m 3894.4,2099.77 c 69.11,-3.4 145.1,-14.4 201.73,25.36 32.82,23.03 54.57,60.82 90.72,78.15 -9.4,14.34 7.35,30.81 19.97,42.42 18.95,17.43 32.08,41.11 36.82,66.43 -13.79,9.78 -14.25,33.32 -0.89,43.66 -28.21,14.9 -36.75,57.36 -16.51,82.02 -13.93,-3.48 -26.83,11.67 -26.8,26.03 0.03,14.36 8.58,27.14 16.78,38.93 -5.36,-3.04 -9.55,5.64 -9.51,11.81 0.19,35.04 8.93,70 25.21,101.02 -24.3,-16.58 -61.45,-9.65 -78.16,14.56 -14.89,2.81 -27.2,16.02 -28.96,31.08 -1.75,15.04 7.19,30.73 21.03,36.89 -5.39,16.28 -6.54,33.95 -3.31,50.78 -15.5,16.55 -14.65,45.65 1.78,61.27 -32.94,-12.07 -72.97,-1.07 -95.11,26.15 -22.13,27.21 -24.76,68.65 -6.22,98.44 -14.78,-9.76 -33.16,8.57 -36.56,25.93 -3.42,17.37 -1.09,37.28 -12.54,50.78 -3.79,4.47 -8.78,7.74 -13.02,11.78 -15.19,14.47 -19.27,37.69 -15.62,58.35 3.67,20.65 13.94,39.45 24.06,57.82 -33.25,-20.84 -66.86,-41.97 -93.95,-70.35 -18.48,-19.37 -41.97,-44.36 -66.85,-34.46 -2.41,-44.75 -54.88,-78.93 -96.78,-63.03 -9.68,-64.93 -87.12,-109.97 -148.34,-86.3 -13.19,-37.21 -27.11,-75.61 -54.3,-104.24 -27.2,-28.64 -71.56,-44.93 -107.2,-27.93 6.23,-23.87 10,-49.99 0.11,-72.59 -4.71,-10.74 -12.26,-20.08 -16.66,-30.95 -4.39,-10.87 -4.84,-24.74 3.5,-32.98 -32.17,-27.42 -59.32,-60.72 -79.72,-97.75 -6.04,-10.98 -11.64,-22.91 -11.02,-35.42 0.86,-17.42 10.08,-41.71 -6.39,-47.44 7.15,-35.45 19.38,-69.86 36.2,-101.87 9.06,-17.23 19.18,-39.34 6.93,-54.46 42.28,-38.6 94.08,-66.66 149.49,-81 30.35,-7.85 52.29,-26.32 82.31,-35.36 26.04,-7.83 45.97,-15.78 68.53,-30.94 18.63,-12.53 48.83,-22.38 68.85,-32.32 21.21,-10.55 45.04,-4.03 67.61,-2.12 34.17,2.91 68.54,3.53 102.79,1.85"
         id="path136" />
    </clipPath>
    <clipPath
       clipPathUnits="userSpaceOnUse"
       id="clipPath304">
      <path
         d="m 1318.04,817 c 0,0 202.65,-26.488 218.08,175.422 15.43,201.908 -88.39,347.038 -88.39,347.038 0,0 -37.74,-188.02 -95.85,-162.89 -58.11,25.14 50.1,131.59 -24.85,279.53 -74.95,147.94 -139.23,226.51 -139.23,226.51 0,0 -4.89,-54.17 -43.15,-95.23 -38.25,-41.04 -79.15,-119.02 -72.98,-172.45 -86.947,123.19 -112.057,165.95 -315.818,234.25 -42.743,25.31 -85.661,66.02 -85.661,66.02 0,0 45.528,-104.63 29.395,-144.18 -16.141,-39.56 -60.594,-128.03 1.816,-204.16 62.407,-76.14 136.621,-162.58 136.621,-162.58 0,0 -66.535,61.32 -130.097,27.97 -63.567,-33.35 -103.512,-87.34 -165.387,-107.76 101.598,-61.52 102.524,-87.95 152.195,-127.33 49.672,-39.39 122.786,-33.601 171.891,-77.301 49.105,-43.687 24.168,-66.738 -72.582,-102.328 77.781,-75.961 150.687,-155.66 229.047,-176.859 78.36,-21.211 289.08,-2.703 294.95,176.328"
         id="path302" />
    </clipPath>
    <clipPath
       clipPathUnits="userSpaceOnUse"
       id="clipPath362">
      <path
         d="m 2844.54,1268.28 c -0.89,-64.2 -1.86,-129.08 -17.52,-191.35 -15.64,-62.26 -47.57,-122.598 -99.54,-160.309 45.05,19.57 87.19,45.828 124.61,77.649 -15.95,-157.969 -138.08,-299.711 -291.94,-338.84 -40.17,-10.219 -81.65,-13.969 -122.93,-17.68 -39.49,-3.539 -78.98,-7.102 -118.47,-10.641 -5.1,-0.461 -10.49,-0.871 -15.1,1.352 -5.34,2.559 -8.52,8.078 -11.29,13.32 -82.49,156.278 -87.35,351.239 -12.74,511.429 11.8,-34.74 23.59,-69.48 35.38,-104.23 19.38,122.15 41,249.75 115.51,348.46 6.38,-41.38 12.76,-82.78 19.14,-124.18 60.74,89.48 112.73,184.9 154.99,284.46 31.65,-60.88 63.31,-121.78 94.96,-182.67 19.98,-38.44 29.65,-79.67 47.06,-118.13 10.71,-23.64 0.93,-21.93 27.56,-20.41 20.6,1.18 51.42,23.24 70.32,31.77"
         id="path360" />
    </clipPath>
    <clipPath
       clipPathUnits="userSpaceOnUse"
       id="clipPath394">
      <path
         d="m 3972.11,565.449 c 64.42,67.781 128.85,135.582 193.27,203.36 -10.92,14.273 -9.33,36.601 3.51,49.183 -33.87,-2.871 -67.74,-5.75 -101.59,-8.633 -4.49,-0.379 -9.15,-0.73 -13.36,0.871 -8.04,3.059 -12.04,12.79 -10.85,21.309 1.17,8.543 6.39,15.961 12.18,22.34 27.41,30.121 69.47,43.832 96.45,74.351 13.39,15.149 22.34,33.668 34.43,49.879 12.09,16.211 30.88,19.653 49.14,32.301 -10.44,-5.15 -23.41,3.87 -26.65,15.04 -3.23,11.17 0.37,23.09 4.34,34.01 8.24,22.72 18.14,44.82 29.62,66.08 -9.5,-2.31 -18.7,-1.83 -27.9,-1.35 -18.41,0.95 -36.82,1.91 -57.59,-19.44 1.41,7.35 -10.97,6.76 -17.28,2.72 -37.79,-24.21 -79.12,-42.9 -122.26,-55.29 -12.36,-3.55 -25.71,-6.55 -37.87,-2.39 -18.6,6.39 -28.23,28.33 -26.42,47.91 1.81,19.58 12.45,37.13 23.68,53.28 39.71,57.07 90.08,106.16 144.92,148.89 -21.04,-1.77 -45.75,-2.08 -58.95,14.4 -10.56,13.16 -9.29,31.92 -7.34,48.69 3.23,27.98 6.83,55.93 10.79,83.82 -15.69,-17.09 -36.88,-29.05 -59.62,-33.62 -1.2,4.7 -2.41,9.4 -3.6,14.1 -33.24,-25.91 -66.48,-51.82 -99.72,-77.73 -17.44,-13.59 -38.44,-28.01 -59.83,-22.4 -10.5,30.96 5.96,63.73 18.41,93.95 11.53,28.02 19.88,57.35 24.84,87.24 -11.3,2.42 -16.23,11.07 -27.52,13.5 -5.42,1.16 -11.21,2.53 -14.94,6.64 -2.63,2.92 -3.84,6.83 -4.74,10.67 -2.5,10.63 -3.22,21.66 -2.1,32.52 -25.49,-35.53 -59.54,-64.8 -99.77,-81.95 -5.44,-2.32 -11.28,-4.48 -17.13,-3.64 -14.22,2.04 -19.97,19.12 -22.75,33.22 -5.73,29.11 -11.48,58.21 -17.21,87.31 -2.55,-22.96 -31.22,-36.55 -52.96,-28.73 -21.73,7.82 -35.04,31.03 -37.41,54.02 -16.26,-2.96 -32.56,14.39 -28.58,30.42 1.55,-18.06 3.1,-36.13 4.66,-54.19 1.96,-22.81 3.48,-47.5 -8.88,-66.76 -12.36,-19.27 -44.56,-26.55 -57.52,-7.69 21.04,-46.56 42.08,-93.11 63.13,-139.68 7.53,-16.67 14.57,-37.85 2.72,-51.8 -6.24,-7.35 -16.1,-10.31 -25.45,-12.65 -21.88,-5.48 -44.42,-9.56 -66.9,-7.77 -42.63,3.4 -87.07,27.27 -125.72,8.97 34.73,-15.15 46.2,-66.88 21.15,-95.29 52.88,-1.06 97.41,-37.84 137.2,-72.7 17.41,-15.25 34.83,-30.49 52.24,-45.75 6.13,-5.37 12.41,-15.22 6.16,-20.48 -2.31,-1.94 -5.56,-2.2 -8.54,-2.67 -14.37,-2.28 -26.67,-11.1 -39.27,-18.37 -49.23,-28.44 -107.66,-35.03 -164.2,-41.02 7.73,-0.77 15.14,-4.57 20.27,-10.4 -11.44,-15.71 -25.92,-29.21 -42.4,-39.511 20.54,0.383 41.16,-5.398 58.52,-16.398 8.73,-5.532 17.13,-13.172 19.04,-23.321 1.91,-10.16 -6.02,-22.3 -16.28,-21.09 25.38,11.301 53.31,-6.031 79.84,-14.261 18.54,-5.75 38.12,-7 57.48,-8.207 41.8,-2.621 83.6,-5.231 125.39,-7.852 15.23,-0.949 31.03,-2.058 44.37,-9.48 13.33,-7.418 23.39,-23.078 19.3,-37.782 -3.72,-13.328 -17.07,-21.238 -29.39,-27.558 -48.39,-24.852 -98.46,-46.41 -149.74,-64.5 -7.96,-1 -20.17,-6.84 -27.15,-10.781 18.35,-3.879 36.68,-7.911 54.97,-12.071 2.04,-0.468 4.24,-1.019 5.55,-2.648 5.44,-6.66 -10.71,-13.141 -9.81,-21.699 11.11,11.5 29.11,13.531 44.79,10.41 15.69,-3.121 30.15,-10.531 45.37,-15.469 45.11,-14.672 95.88,-7.441 139.35,-26.422 8.13,-3.551 16.66,-8.988 18.48,-17.68 2.94,-14.019 -12.99,-24.398 -26.86,-27.988 -24,-6.211 -53.18,-8.012 -66.01,-29.23 26.94,10.398 56.75,-2.422 82.74,-15.02 21.59,-10.472 43.19,-20.933 64.77,-31.402 14.9,-7.211 30.19,-14.551 46.66,-16.211 23.46,-2.367 44.09,10.473 60.33,27.57"
         id="path392" />
    </clipPath>
  </defs>
  <g
     inkscape:label="Layer 1"
     inkscape:groupmode="layer"
     id="layer1"
     transform="translate(-140.41101,58.736577)">
    <path
       d="m 163.04944,-19.978327 c 2.2726,-2.391833 4.54519,-4.78289 6.81814,-7.174477 -0.38559,-0.502991 -0.32949,-1.291061 0.12312,-1.734926 -1.19451,0.101671 -2.38901,0.202847 -3.58387,0.30413 -0.15804,0.01337 -0.32244,0.02575 -0.47096,-0.03034 -0.28363,-0.10788 -0.42439,-0.451168 -0.38311,-0.752122 0.042,-0.300955 0.22577,-0.562646 0.43038,-0.7874 0.96626,-1.063308 2.4504,-1.547002 3.40219,-2.623256 0.47273,-0.534388 0.78811,-1.187874 1.21462,-1.759621 0.42686,-0.571888 1.08973,-0.693561 1.73355,-1.139154 -0.36795,0.180975 -0.82586,-0.136878 -0.9398,-0.530931 -0.11395,-0.394053 0.013,-0.814564 0.1531,-1.20015 0.29034,-0.801158 0.63994,-1.580797 1.04493,-2.330803 -0.33549,0.08149 -0.66005,0.06456 -0.98495,0.04798 -0.64912,-0.03387 -1.29858,-0.06773 -2.03095,0.685447 0.049,-0.259292 -0.38735,-0.23883 -0.6096,-0.09595 -1.33314,0.854075 -2.79117,1.513769 -4.31341,1.950508 -0.43603,0.124883 -0.90735,0.231422 -1.33597,0.08396 -0.65617,-0.225072 -0.99554,-0.999067 -0.93169,-1.689806 0.0635,-0.690738 0.43921,-1.310216 0.83503,-1.8796 1.40088,-2.013303 3.17817,-3.745089 5.11245,-5.252861 -0.74224,0.06279 -1.61395,0.07338 -2.07962,-0.507647 -0.37253,-0.464609 -0.32738,-1.126067 -0.25929,-1.717323 0.11465,-0.987425 0.2413,-1.973086 0.381,-2.956983 -0.55316,0.602544 -1.30105,1.024114 -2.10326,1.185333 -0.0423,-0.165453 -0.0847,-0.331258 -0.127,-0.497064 -1.17264,0.914048 -2.34492,1.828095 -3.51755,2.742142 -0.6156,0.479425 -1.35608,0.987778 -2.11102,0.790222 -0.37077,-1.0922 0.21025,-2.2479 0.64946,-3.3147 0.40675,-0.988483 0.70132,-2.022828 0.87595,-3.077281 -0.39864,-0.08572 -0.57221,-0.390877 -0.97085,-0.47625 -0.1912,-0.04092 -0.39546,-0.08925 -0.52634,-0.234244 -0.0931,-0.103011 -0.13582,-0.2413 -0.16757,-0.376061 -0.0882,-0.375003 -0.11359,-0.76447 -0.0737,-1.147586 -0.89923,1.253419 -2.10044,2.286 -3.52002,2.891014 -0.19191,0.08149 -0.39758,0.157691 -0.60431,0.128411 -0.502,-0.07197 -0.70449,-0.674511 -0.80221,-1.171928 -0.20285,-1.026583 -0.40499,-2.05352 -0.60749,-3.080456 -0.0899,0.809978 -1.10137,1.289756 -1.86831,1.013531 -0.76694,-0.275872 -1.23648,-1.094317 -1.31974,-1.905 -0.57326,0.104422 -1.14829,-0.508 -1.00789,-1.073856 0.0547,0.63747 0.10937,1.274586 0.16405,1.912056 0.0691,0.804333 0.12276,1.675694 -0.31327,2.355497 -0.43639,0.67945 -1.57198,0.936272 -2.02918,0.270934 0.74225,1.642533 1.48484,3.285066 2.22709,4.927247 0.26599,0.588786 0.514,1.335264 0.0963,1.828095 -0.22014,0.258939 -0.56868,0.363361 -0.89818,0.445911 -0.77187,0.192969 -1.56739,0.337255 -2.36043,0.274108 -1.50319,-0.119944 -3.07164,-0.962378 -4.43442,-0.316794 1.22485,0.534811 1.62948,2.35973 0.74542,3.362325 1.86584,0.03704 3.43641,1.334558 4.84046,2.563989 0.61419,0.538339 1.22838,1.075972 1.84292,1.614311 0.2166,0.189442 0.43779,0.537281 0.21766,0.722136 -0.0822,0.06879 -0.1965,0.07796 -0.30198,0.0949 -0.50659,0.08008 -0.94086,0.390878 -1.38465,0.647701 -1.73708,1.0033 -3.79836,1.23578 -5.79261,1.447094 0.27269,0.02716 0.5334,0.160867 0.71473,0.366536 -0.40323,0.55492 -0.9144,1.030429 -1.49578,1.394249 0.7246,-0.01351 1.45203,0.190429 2.06445,0.578485 0.30763,0.195121 0.60431,0.464537 0.67204,0.822677 0.067,0.358458 -0.21272,0.78673 -0.57467,0.744009 0.89535,-0.398639 1.88101,0.212795 2.81693,0.50299 0.6537,0.202848 1.34444,0.246945 2.02741,0.289666 1.47462,0.09204 2.94923,0.184538 4.42349,0.277001 0.53728,0.03348 1.09502,0.07303 1.56527,0.334434 0.47025,0.261408 0.82515,0.81414 0.68051,1.332688 -0.13088,0.469936 -0.60219,0.749406 -1.03611,0.971939 -1.70709,0.877005 -3.47345,1.637665 -5.2832,2.27584 -0.28046,0.03528 -0.7112,0.2413 -0.95744,0.380188 0.64735,0.136984 1.29399,0.279048 1.93922,0.425838 0.072,0.01665 0.14923,0.03595 0.19579,0.09313 0.19191,0.23495 -0.37747,0.464008 -0.34607,0.765492 0.39229,-0.405271 1.02693,-0.47692 1.58009,-0.366818 0.55351,0.110102 1.06398,0.37151 1.6002,0.545712 1.59173,0.517596 3.38243,0.262079 4.91631,0.932356 0.28681,0.12499 0.58773,0.317254 0.65193,0.623041 0.10407,0.494983 -0.4579,0.861131 -0.9472,0.987778 -0.84667,0.21911 -1.87643,0.28261 -2.3294,1.03117 0.95109,-0.366819 2.00237,0.08573 2.91924,0.53026 0.76165,0.369041 1.52329,0.738364 2.28494,1.106981 0.52564,0.254671 1.06504,0.513751 1.64642,0.572594 0.82726,0.08322 1.55504,-0.369746 2.1283,-0.972644"
       style="fill:#9d2d1e;fill-opacity:1;fill-rule:nonzero;stroke:none;stroke-width:0.0352778"
       id="path386" />
    <g
       id="g388"
       transform="matrix(0.03527778,0,0,-0.03527778,22.85978,-0.09432341)">
      <g
         id="g390"
         clip-path="url(#clipPath394)">
        <path
           d="m 3389.14,1036.58 c -0.81,0.57 -1.61,1.15 -2.4,1.73 45.43,5.66 90.65,14.43 129.99,37.16 12.6,7.27 24.9,16.09 39.27,18.37 2.98,0.47 6.23,0.73 8.54,2.67 5.33,4.48 1.55,12.31 -3.48,17.84 5.82,-5.5 11.18,-14.65 5.25,-19.63 -2.33,-1.95 -5.57,-2.21 -8.56,-2.69 -14.36,-2.27 -26.67,-11.08 -39.25,-18.36 -39.17,-22.62 -84.15,-31.42 -129.36,-37.09 m -17.01,198.75 c -1.06,0.05 -2.13,0.09 -3.19,0.11 20.25,22.96 16.64,61.16 -3.84,82.97 21.49,-20.94 26.2,-59.3 7.03,-83.08 m 114.08,84.21 c -3.65,0 -7.3,0.13 -10.95,0.42 -31.03,2.48 -63.04,15.81 -93.06,15.81 -10.84,0 -21.43,-1.74 -31.62,-6.36 -0.91,0.47 -1.84,0.91 -2.79,1.32 10.51,4.98 21.44,6.84 32.65,6.84 30.02,0 62.03,-13.34 93.07,-15.81 3.64,-0.29 7.29,-0.43 10.94,-0.43 18.83,0 37.63,3.61 55.96,8.2 9.35,2.34 19.21,5.3 25.45,12.65 2,2.35 3.46,4.91 4.47,7.61 0.69,-0.31 1.38,-0.63 2.07,-0.95 -1.02,-3.02 -2.57,-5.87 -4.77,-8.47 -6.24,-7.34 -16.12,-10.3 -25.46,-12.64 -18.33,-4.58 -37.12,-8.19 -55.96,-8.19"
           style="fill:#f9ad72;fill-opacity:1;fill-rule:nonzero;stroke:none"
           id="path396" />
        <path
           d="m 3493.81,1003.27 c -30.2,0 -60.82,7.54 -89.01,23.42 -5.44,3.07 -10.66,6.37 -15.66,9.89 45.21,5.67 90.19,14.47 129.36,37.09 12.58,7.28 24.89,16.09 39.25,18.36 2.99,0.48 6.23,0.74 8.56,2.69 5.93,4.98 0.57,14.13 -5.25,19.63 -0.87,0.96 -1.78,1.85 -2.68,2.64 -17.41,15.26 -34.83,30.5 -52.24,45.75 -38.99,34.16 -82.53,70.15 -134.01,72.59 19.17,23.78 14.46,62.14 -7.03,83.08 -4.16,4.43 -9.02,8.19 -14.52,11 10.19,4.62 20.78,6.36 31.62,6.36 30.02,0 62.03,-13.33 93.06,-15.81 3.65,-0.29 7.3,-0.42 10.95,-0.42 18.84,0 37.63,3.61 55.96,8.19 9.34,2.34 19.22,5.3 25.46,12.64 2.2,2.6 3.75,5.45 4.77,8.47 3.62,-1.69 7.2,-3.52 10.74,-5.52 87.45,-49.25 118.4,-160.05 69.15,-247.49 -33.37,-59.24 -95,-92.56 -158.48,-92.56"
           style="fill:#c64320;fill-opacity:1;fill-rule:nonzero;stroke:none"
           id="path398" />
        <path
           d="m 3560.46,1399.91 c -20.15,44.58 -40.3,89.16 -60.45,133.75 0.68,-0.98 1.4,-1.9 2.18,-2.74 19.43,-42.97 38.85,-85.95 58.28,-128.92 0,-0.7 -0.01,-1.4 -0.01,-2.09 m 152.01,89.09 c -0.68,0.61 -1.33,1.27 -1.94,1.97 0.67,-0.62 1.38,-1.2 2.12,-1.72 -0.06,-0.08 -0.12,-0.17 -0.18,-0.25 m -188.08,31.87 c -8,0 -15.55,2.66 -20.82,8.66 5.12,-4.73 11.92,-6.86 19.07,-6.86 13.16,0 27.54,7.22 34.89,18.68 12.36,19.26 10.84,43.95 8.88,66.76 -1.16,13.45 -2.32,26.92 -3.47,40.37 0.54,-1.32 1.19,-2.6 1.94,-3.83 1.1,-12.78 2.2,-25.56 3.29,-38.34 1.96,-22.8 3.48,-47.5 -8.88,-66.77 -7.36,-11.45 -21.73,-18.67 -34.9,-18.67 m 118.24,52.97 c -4.47,0 -8.93,0.71 -13.13,2.23 -7.57,2.72 -14.11,7.31 -19.53,13.1 5.05,-4.95 11.01,-8.87 17.77,-11.31 4.2,-1.51 8.66,-2.22 13.14,-2.22 18.7,0 37.77,12.43 39.82,30.95 0.37,-1.85 0.73,-3.7 1.1,-5.55 -4.03,-16.43 -21.75,-27.2 -39.17,-27.2 m -54.23,55.9 c -7.06,0 -13.83,3.56 -18.61,8.9 4.61,-4.32 10.62,-7.1 16.85,-7.1 1.22,0 2.46,0.11 3.69,0.34 0.07,-0.68 0.15,-1.36 0.24,-2.03 -0.73,-0.08 -1.45,-0.11 -2.17,-0.11"
           style="fill:#f9ad72;fill-opacity:1;fill-rule:nonzero;stroke:none"
           id="path400" />
        <path
           d="m 3560.47,1402 c -19.43,42.97 -38.85,85.95 -58.28,128.92 0.45,-0.49 0.91,-0.95 1.38,-1.39 5.27,-6 12.82,-8.66 20.82,-8.66 13.17,0 27.54,7.22 34.9,18.67 12.36,19.27 10.84,43.97 8.88,66.77 -1.09,12.78 -2.19,25.56 -3.29,38.34 1.35,-2.21 3.01,-4.24 4.91,-6.01 4.78,-5.34 11.55,-8.9 18.61,-8.9 0.72,0 1.44,0.03 2.17,0.11 1.98,-15.16 8.69,-30.2 19.4,-40.68 5.42,-5.79 11.96,-10.38 19.53,-13.1 4.2,-1.52 8.66,-2.23 13.13,-2.23 17.42,0 35.14,10.77 39.17,27.2 5.36,-27.25 10.74,-54.5 16.11,-81.76 2,-10.13 5.52,-21.79 12.62,-28.31 0.61,-0.7 1.26,-1.36 1.94,-1.97 -34.96,-47.41 -89.91,-73.62 -146.31,-73.61 -2.04,0 -4.08,0.03 -6.12,0.1 0.27,-4.48 0.42,-8.98 0.43,-13.49"
           style="fill:#c64320;fill-opacity:1;fill-rule:nonzero;stroke:none"
           id="path402" />
        <path
           d="m 3562.94,1648.48 c -1.79,4.37 -2.35,9.15 -1.19,13.82 0.39,-4.6 0.79,-9.21 1.19,-13.82"
           style="fill:#f9ad72;fill-opacity:1;fill-rule:nonzero;stroke:none"
           id="path404" />
        <path
           d="m 3717.61,600.512 c 12.83,21.218 42.01,23.019 66.01,29.23 13.87,3.59 29.8,13.969 26.86,27.988 -0.66,3.129 -2.18,5.84 -4.25,8.192 2.95,-2.742 5.18,-6.024 6.01,-9.981 2.95,-14.031 -12.98,-24.41 -26.85,-28 -22.77,-5.89 -50.2,-7.812 -63.92,-26.101 -1.29,-0.391 -2.58,-0.84 -3.86,-1.328 m 345.6,206.738 c -2.57,0 -5.11,0.27 -7.51,1.18 -2.5,0.949 -4.61,2.55 -6.29,4.55 1.33,-1.16 2.84,-2.101 4.53,-2.75 2.4,-0.91 4.95,-1.191 7.53,-1.191 1.94,0 3.9,0.16 5.83,0.32 33.85,2.883 67.72,5.762 101.59,8.633 -0.69,-0.683 -1.35,-1.383 -1.98,-2.121 -32.62,-2.769 -65.23,-5.539 -97.86,-8.301 -1.93,-0.172 -3.89,-0.32 -5.84,-0.32 m 167.02,199.88 c -5.43,0.14 -10.85,3.15 -14.77,7.55 3.81,-3.5 8.62,-5.76 13.42,-5.75 2.17,0 4.34,0.46 6.41,1.48 -1.68,-1.17 -3.37,-2.25 -5.06,-3.28 m -235.82,38.84 c -4.4,0 -8.75,0.58 -12.95,2.03 -5.61,1.92 -10.4,5.26 -14.3,9.52 3.56,-3.4 7.75,-6.08 12.54,-7.73 4.2,-1.44 8.55,-2.02 12.95,-2.02 8.32,0 16.84,2.09 24.92,4.41 43.14,12.39 84.47,31.08 122.26,55.29 2.86,1.83 6.95,2.95 10.45,2.95 3.04,0 5.63,-0.85 6.57,-2.81 -1.25,0.7 -2.95,1.01 -4.81,1.01 -3.5,0 -7.59,-1.12 -10.44,-2.95 -37.79,-24.21 -79.12,-42.91 -122.27,-55.29 -8.09,-2.32 -16.6,-4.41 -24.92,-4.41 m 164.47,56.98 c 0.24,1.28 0.06,2.33 -0.43,3.15 15.95,15.74 30.52,18.48 44.8,18.48 3.83,0 7.64,-0.2 11.45,-0.39 3.81,-0.2 7.62,-0.4 11.45,-0.4 5.42,0 10.88,0.4 16.45,1.75 -0.44,-0.82 -0.88,-1.64 -1.32,-2.46 -4.51,-0.83 -8.96,-1.09 -13.38,-1.09 -3.83,0 -7.64,0.2 -11.45,0.39 -3.81,0.2 -7.62,0.4 -11.45,0.4 -14.68,0 -29.66,-2.9 -46.12,-19.83"
           style="fill:#fbca74;fill-opacity:1;fill-rule:nonzero;stroke:none"
           id="path406" />
        <path
           d="m 3917.37,537.602 c -1.84,0 -3.71,0.089 -5.59,0.277 -16.47,1.66 -31.76,9 -46.66,16.211 -21.58,10.469 -43.18,20.93 -64.77,31.402 -19.31,9.348 -40.71,18.828 -61.48,18.828 -5.87,0 -11.69,-0.75 -17.4,-2.48 13.72,18.289 41.15,20.211 63.92,26.101 13.87,3.59 29.8,13.969 26.85,28 -0.83,3.957 -3.06,7.239 -6.01,9.981 -3.67,4.168 -9.03,7.219 -14.23,9.488 -43.47,18.981 -94.24,11.75 -139.35,26.422 -2.23,0.719 -4.44,1.5 -6.64,2.297 2.81,10.293 6.37,20.512 10.68,30.59 37.94,88.64 124.21,141.691 214.88,141.691 3.15,0 6.31,-0.058 9.47,-0.191 -9.44,51.582 -4.37,106.422 17.81,158.241 15.01,35.07 36.45,65.39 62.31,90.27 -4.07,-8.58 -7.01,-17.57 -7.88,-27.03 -1.34,-14.54 3.62,-30.38 13.88,-40.18 3.9,-4.26 8.69,-7.6 14.3,-9.52 4.2,-1.45 8.55,-2.03 12.95,-2.03 8.32,0 16.83,2.09 24.92,4.41 43.15,12.38 84.48,31.08 122.27,55.29 2.85,1.83 6.94,2.95 10.44,2.95 1.86,0 3.56,-0.31 4.81,-1.01 0.36,-0.78 0.48,-1.73 0.26,-2.86 0.45,0.46 0.9,0.91 1.34,1.35 0.49,-0.82 0.67,-1.87 0.43,-3.15 16.46,16.93 31.44,19.83 46.12,19.83 3.83,0 7.64,-0.2 11.45,-0.4 3.81,-0.19 7.62,-0.39 11.45,-0.39 4.42,0 8.87,0.26 13.38,1.09 -10.92,-20.5 -20.38,-41.78 -28.3,-63.62 -3.97,-10.92 -7.57,-22.84 -4.34,-34.01 1.18,-4.07 3.65,-7.85 6.82,-10.77 3.92,-4.4 9.34,-7.41 14.77,-7.55 -16.61,-10.11 -33.1,-14.31 -44.08,-29.021 -12.09,-16.211 -21.04,-34.73 -34.43,-49.879 -26.98,-30.519 -69.04,-44.23 -96.45,-74.351 -5.79,-6.379 -11.01,-13.797 -12.18,-22.34 -0.94,-6.73 1.36,-14.207 6.32,-18.559 1.68,-2 3.79,-3.601 6.29,-4.55 2.4,-0.91 4.94,-1.18 7.51,-1.18 1.95,0 3.91,0.148 5.84,0.32 32.63,2.762 65.24,5.532 97.86,8.301 -10.99,-12.84 -11.86,-33.562 -1.53,-47.062 -64.42,-67.778 -128.85,-135.579 -193.27,-203.36 -14.94,-15.73 -33.58,-27.847 -54.74,-27.847"
           style="fill:#ca561e;fill-opacity:1;fill-rule:nonzero;stroke:none"
           id="path408" />
        <path
           d="m 4106.9,1297.26 c -15.54,0 -30.95,2.72 -40.84,13.6 9.91,-9.39 24.43,-11.81 39.07,-11.81 5.65,0 11.32,0.36 16.75,0.82 -0.92,-0.71 -1.84,-1.43 -2.75,-2.14 -4.02,-0.28 -8.13,-0.47 -12.23,-0.47"
           style="fill:#fbca74;fill-opacity:1;fill-rule:nonzero;stroke:none"
           id="path410" />
        <path
           d="m 3966.77,1135.26 c -9.58,38.24 -7.29,79.78 9.42,118.82 16.5,38.55 44.41,68.71 78.1,88.21 0.24,-10.26 2.32,-20.14 8.64,-28.02 0.98,-1.23 2.03,-2.36 3.13,-3.41 9.89,-10.88 25.3,-13.6 40.84,-13.6 4.1,0 8.21,0.19 12.23,0.47 -53.77,-42.23 -103.12,-90.63 -142.17,-146.75 -3.54,-5.09 -7.02,-10.33 -10.19,-15.72"
           style="fill:#ca561e;fill-opacity:1;fill-rule:nonzero;stroke:none"
           id="path412" />
      </g>
    </g>
    <path
       d="m 149.33521,-56.43576 c 2.02671,4.587169 3.70593,9.318273 5.38268,14.044437 2.51354,7.083707 5.02708,14.167521 7.54098,21.251334 0.94368,2.659592 1.89159,5.333683 2.39077,8.111385 0,0 -0.9151,0.765916 -1.93639,-0.534388 -1.022,-1.300057 -3.02366,-12.868664 -6.38951,-22.434586 -3.25438,-9.248776 -6.98853,-20.438182 -6.98853,-20.438182"
       style="fill:#2c0e10;fill-opacity:1;fill-rule:nonzero;stroke:none;stroke-width:0.0352778"
       id="path414" />
    <path
       d="m 163.26287,-46.925224 c -2.28423,3.532365 -4.42595,7.753351 -6.19195,11.564021 l 0.22719,0.105552 c 1.76283,-3.804744 3.90137,-8.017617 6.17502,-11.533753 l -0.21026,-0.13582"
       style="fill:#2c0e10;fill-opacity:1;fill-rule:nonzero;stroke:none;stroke-width:0.0352778"
       id="path416" />
    <path
       d="m 154.25963,-44.197546 c 1.27247,-2.719211 2.56011,-5.841647 3.62868,-8.645172 l -0.2339,-0.08925 c -1.0668,2.798939 -2.35302,5.916789 -3.62161,8.628592 l 0.22683,0.105833"
       style="fill:#2c0e10;fill-opacity:1;fill-rule:nonzero;stroke:none;stroke-width:0.0352778"
       id="path418" />
    <path
       d="m 160.57118,-26.538865 c 2.17452,-3.888705 5.32553,-7.957362 8.98455,-10.472244 l -0.14182,-0.206375 c -3.70664,2.549137 -6.87176,6.643582 -9.0611,10.556523 l 0.21837,0.122096"
       style="fill:#2c0e10;fill-opacity:1;fill-rule:nonzero;stroke:none;stroke-width:0.0352778"
       id="path420" />
    <path
       d="m 162.33119,-21.43985 c 1.62383,-2.036621 4.44182,-4.988631 6.55849,-6.487548 l -0.14464,-0.204364 c -2.153,1.52661 -4.97028,4.481795 -6.60964,6.535632 l 0.19579,0.15628"
       style="fill:#2c0e10;fill-opacity:1;fill-rule:nonzero;stroke:none;stroke-width:0.0352778"
       id="path422" />
    <path
       d="m 143.71334,-35.296574 c 3.69535,0.411339 7.36847,1.019458 10.99926,1.821357 0.47025,0.103752 1.19027,0.272274 1.86902,0.503378 0.67839,0.228636 1.31586,0.529167 1.60372,0.856192 l 0.18698,-0.166476 c -0.35525,-0.3937 -1.0153,-0.688622 -1.70992,-0.926747 -0.69426,-0.236044 -1.42204,-0.406365 -1.89547,-0.510822 -3.63961,-0.803663 -7.32191,-1.413581 -11.02607,-1.825625 l -0.0275,0.248743"
       style="fill:#2c0e10;fill-opacity:1;fill-rule:nonzero;stroke:none;stroke-width:0.0352778"
       id="path424" />
    <path
       d="m 149.24031,-26.682869 c 3.69041,0.08114 7.38117,0.162313 11.07158,0.243488 l 0.006,-0.250543 c -3.69041,-0.08114 -7.38117,-0.162313 -11.07158,-0.243064 l -0.006,0.250119"
       style="fill:#2c0e10;fill-opacity:1;fill-rule:nonzero;stroke:none;stroke-width:0.0352778"
       id="path426" />
    <path
       d="m 157.07868,-21.050701 c 1.83339,-0.42238 3.15136,-0.269557 5.07824,-0.368758 l -0.0127,-0.25012 c -1.90218,0.0992 -3.24521,-0.05676 -5.12163,0.374686 l 0.0561,0.244192"
       style="fill:#2c0e10;fill-opacity:1;fill-rule:nonzero;stroke:none;stroke-width:0.0352778"
       id="path428" />
    <path
       d="m 144.11551,-45.146518 c 0.82691,0.511881 1.66123,1.028347 2.55728,1.432631 1.18922,0.535516 2.44899,0.858661 3.6569,1.288344 1.9057,0.677686 3.11256,1.565981 4.75368,2.437695 l 0.11747,-0.221192 c -1.62101,-0.859719 -2.8455,-1.761419 -4.78719,-2.452511 -1.22238,-0.43427 -2.47509,-0.756356 -3.63785,-1.280584 -0.8763,-0.395111 -1.70144,-0.905227 -2.52835,-1.417461 l -0.13194,0.213078"
       style="fill:#2c0e10;fill-opacity:1;fill-rule:nonzero;stroke:none;stroke-width:0.0352778"
       id="path430" />
    <path
       d="m 147.91492,-53.076963 c 1.44181,0.969786 2.54212,1.789289 3.84387,2.93617 l 0.16545,-0.187678 c -1.30986,-1.154289 -2.42287,-1.982964 -3.86926,-2.956278 l -0.14006,0.207786"
       style="fill:#2c0e10;fill-opacity:1;fill-rule:nonzero;stroke:none;stroke-width:0.0352778"
       id="path432" />
    <path
       d="m 152.51867,-55.095205 c -0.25964,1.329973 -0.48789,3.085042 -0.86853,4.363156 l 0.23988,0.07161 c 0.38912,-1.309158 0.61631,-3.068108 0.87454,-4.386792 l -0.24589,-0.04798"
       style="fill:#2c0e10;fill-opacity:1;fill-rule:nonzero;stroke:none;stroke-width:0.0352778"
       id="path434" />
  </g>
</svg>
