<?xml version="1.0" encoding="UTF-8" standalone="no"?>
<!-- Created with Inkscape (http://www.inkscape.org/) -->

<svg
   width="29.233376mm"
   height="35.475342mm"
   viewBox="0 0 29.233376 35.475342"
   version="1.1"
   id="svg1424"
   inkscape:version="1.1.2 (1:1.1+202202050852+0a00cf5339)"
   sodipodi:docname="leaf5.svg"
   xmlns:inkscape="http://www.inkscape.org/namespaces/inkscape"
   xmlns:sodipodi="http://sodipodi.sourceforge.net/DTD/sodipodi-0.dtd"
   xmlns="http://www.w3.org/2000/svg"
   xmlns:svg="http://www.w3.org/2000/svg">
  <sodipodi:namedview
     id="namedview1426"
     pagecolor="#ffffff"
     bordercolor="#666666"
     borderopacity="1.0"
     inkscape:pageshadow="2"
     inkscape:pageopacity="0.0"
     inkscape:pagecheckerboard="0"
     inkscape:document-units="mm"
     showgrid="false"
     fit-margin-top="0"
     fit-margin-left="0"
     fit-margin-right="0"
     fit-margin-bottom="0"
     inkscape:zoom="1.2810466"
     inkscape:cx="55.033128"
     inkscape:cy="66.742304"
     inkscape:window-width="1856"
     inkscape:window-height="1016"
     inkscape:window-x="1984"
     inkscape:window-y="27"
     inkscape:window-maximized="1"
     inkscape:current-layer="layer1" />
  <defs
     id="defs1421">
    <clipPath
       clipPathUnits="userSpaceOnUse"
       id="clipPath22">
      <path
         d="m 599.137,3471.36 c 38.629,-6.52 79.593,1.96 112.461,23.27 -2.364,-7.69 3.851,-16.01 11.511,-18.47 7.661,-2.47 16.036,-0.5 23.555,2.39 12.754,4.87 24.508,12.35 34.328,21.84 10.821,-5.36 7.324,-24.15 17.641,-30.42 4.332,-2.64 9.82,-2.14 14.82,-1.31 20.32,3.39 39.945,10.88 57.348,21.91 -4.496,-7.05 -6.879,-15.44 -6.77,-23.81 55.157,10.68 106.774,42.69 145.809,83.08 -21.356,-40.21 -43.371,-83.83 -37.32,-128.96 70.35,61.1 132.47,131.66 184.18,209.17 8.33,-50.72 12.26,-102.17 11.75,-153.57 -0.55,-54.09 -5.98,-108.61 2.85,-161.97 11.73,3.14 22.7,9.05 31.78,17.1 -1.98,80.79 -7.51,161.5 -16.58,241.8 -1.51,13.46 -3.24,27.27 -9.59,39.25 1.16,-8.57 7.83,-15.23 14.4,-20.84 23.99,-20.52 51.49,-36.44 78.82,-52.23 32.76,-18.93 66.53,-38.2 103.95,-43.78 22.13,-3.31 47.01,5.74 69.32,7.39 -20.65,8.94 -28.69,33.2 -40.03,52.63 -13.84,23.7 -35.52,42.74 -60.82,53.39 24.22,9.35 50.37,8.69 76.61,8.03 13.24,-0.33 26.5,-0.67 39.56,0.28 32.75,2.39 65.3,12.98 97.82,8.46 -10.37,8.98 -17.17,21.98 -18.64,35.62 43.79,11.99 85.8,30.45 124.25,54.59 8.15,5.11 16.98,11.84 17.62,21.44 51.66,-7.1 102.35,15.16 149.76,36.89 -39.09,-4.64 -76.5,14.58 -114.74,23.94 -15.59,3.81 -31.32,6.5 -47.36,5.93 6.81,10.23 11.46,21.9 13.53,34.02 -6.48,-9.88 -19.43,-12.73 -31.06,-14.77 -21.94,-3.83 -43.88,-7.66 -65.82,-11.5 -0.26,9.34 -1.52,18.65 -3.76,27.72 -12.59,-4.29 -27.37,-8.34 -38.43,-0.93 -2.44,1.64 -4.67,3.82 -7.54,4.49 -2.71,0.62 -5.52,-0.23 -8.17,-1.09 -24.93,-8.12 -49.33,-17.87 -72.99,-29.18 0.06,12.3 -2.16,24.61 -6.5,36.12 -60.39,-27.06 -116.9,-62.76 -167.29,-105.65 12.86,20.68 23.53,43.11 40.48,60.6 10.48,10.8 23.01,19.34 34.89,28.57 56.87,44.12 100.06,105.62 122.27,174.08 -8.82,-2.75 -21.13,-5.59 -29.75,-2.27 18.41,5.51 32.76,20.37 42.45,36.96 9.68,16.61 15.45,35.13 22.37,53.06 8.84,22.89 19.65,44.96 28.78,67.73 -14.73,-9.46 -37.96,-7.12 -49.26,6.25 9.53,1.32 16.7,9.24 22.12,17.19 20.78,30.5 28.45,69.63 20.75,105.72 -5.03,-8.8 -13.77,-15.4 -23.61,-17.83 15.36,33.89 30.73,67.77 46.09,101.65 -9.02,-2.42 -14.69,11.05 -10.87,19.58 3.82,8.52 12.24,14.16 16.71,22.36 6.67,12.23 3.34,27.16 2.87,41.08 -1.05,31.21 13.14,63.24 3.31,92.87 -12.37,-18.01 -24.75,-36.02 -37.12,-54.02 -21.29,-30.98 -43.5,-65.07 -41.28,-102.59 -5.91,10.39 -11.81,20.78 -17.71,31.18 -14.49,-47.17 -30.77,-93.79 -48.79,-139.73 -8.1,12.25 -15.94,24.68 -23.5,37.27 -12.76,-21.21 -25.53,-42.42 -38.29,-63.63 -3.68,7.28 -6.37,15.05 -7.98,23.04 -13.36,-29.56 -27.16,-58.91 -41.4,-88.05 -3.62,10.04 -7.25,20.07 -10.87,30.12 -33.9,-75.69 -93.87,-140.19 -111.89,-221.13 -6.78,13.54 -12.75,27.96 -13.08,43.1 -0.3,13.72 4.06,27.06 6.56,40.56 5.54,29.86 1.84,61.36 -10.47,89.13 -5.05,-2.89 -10.1,-5.77 -15.16,-8.66 0.83,33.48 -2.36,67.06 -9.48,99.77 -4.6,-7.89 -9.19,-15.79 -13.78,-23.68 -6.28,34.64 -20.03,67.92 -40.05,96.88 -4.96,-8.88 -9.92,-17.76 -14.88,-26.65 -8.1,40.81 -14.96,81.85 -20.57,123.07 -9.11,-3.31 -17.3,-9.16 -23.37,-16.72 5.37,24.69 -6.14,48.81 -14.33,72.72 -7.29,21.27 -14.58,42.54 -21.869,63.82 -1.675,-5.29 -3.347,-10.57 -5.023,-15.84 -19.996,29.95 -36.051,62.54 -47.621,96.64 -2.832,-39.17 -0.438,-78.7 7.101,-117.24 -10.156,3.04 -18.046,12.55 -19.152,23.1 1.453,-32.63 8.012,-65.02 19.359,-95.64 -8.921,6.18 -17.847,12.36 -26.765,18.54 9.906,-33.53 21.902,-66.44 35.887,-98.47 -7.383,6.88 -14.774,13.76 -22.153,20.63 -6.543,-48.58 -3.961,-98.37 7.574,-146.02 -13.765,8.38 -27.011,17.63 -39.632,27.66 5.078,-55.1 15.351,-109.71 30.652,-162.89 -14.875,-1.94 -30.559,4.2 -40.152,15.73 9.535,-51.78 33.089,-100.92 67.492,-140.78 10.558,-12.24 22.199,-23.73 30.512,-37.6 15.13,-25.26 17.92,-56.15 31.27,-82.39 -13.35,10.56 -20.62,25.42 -31.575,38.44 -10.281,12.22 -23.055,22.04 -35.723,31.77 -44.762,34.37 -89.519,68.74 -134.285,103.11 8.691,-10.82 5.844,-28.91 -5.746,-36.55 -23.648,32.9 -72.828,30.75 -108.668,49.64 5.02,-1.94 4.52,-10.04 0.187,-13.23 -4.324,-3.2 -10.281,-2.79 -15.57,-1.81 -15.113,2.81 -29.547,9.17 -41.808,18.44 -13.903,10.5 -25.86,25.07 -42.809,29.11 0.469,-7.45 0.937,-14.9 1.398,-22.36 -23.41,13.93 -47.793,26.25 -72.902,36.82 1.156,-3.97 2.32,-7.95 3.477,-11.92 -27.414,26.4 -54.828,52.81 -82.243,79.22 -0.062,-46.42 15.356,-92.73 43.227,-129.84 -7.453,1.93 -14.914,3.87 -22.379,5.8 28.367,-23.65 55.024,-49.36 79.688,-76.85 -8.266,-3.6 -17.254,-5.53 -26.266,-5.64 29.262,-20.43 60.344,-38.24 92.758,-53.16 -9.207,-6.69 -19.875,-11.35 -31.031,-13.56 20.093,-9.8 35.195,-27.24 52.656,-41.2 17.461,-13.95 40.375,-24.91 61.719,-18.27 -7.848,-9.77 -19.59,-16.32 -32.028,-17.86 53.219,-25.14 89.457,-38.83 143.203,-62.83 49.703,-22.2 96.793,-26.62 146.801,-48.12 -57.25,-38.45 -130.277,-28.87 -196.262,-48.91 6.235,-6.37 15.45,-9.69 24.313,-8.76 -21.379,-11.62 -41.844,-24.94 -61.129,-39.78 -4.59,-3.54 -9.289,-7.37 -11.613,-12.68 -2.114,-4.81 -2.153,-10.59 -5.461,-14.67 -2.684,-3.3 -6.957,-4.79 -10.992,-6.11 -18.2,-5.98 -36.399,-11.96 -54.594,-17.94 1.84,-5.85 6.14,-10.87 11.633,-13.6 -28.133,-17.97 -50.914,-39.05 -67.879,-67.8"
         id="path20" />
    </clipPath>
    <clipPath
       clipPathUnits="userSpaceOnUse"
       id="clipPath178">
      <path
         d="m 2655.38,3661.85 c -3.99,-25.54 0.6,-53.72 18.12,-72.72 27.22,-29.55 77.6,-26.71 110.07,-3.05 32.47,23.67 50.26,62.44 62.2,100.81 35.28,113.35 31.58,237.32 77.03,347 -62.01,-50.78 -144.23,-67.1 -219.66,-94.22 -75.42,-27.11 -153.44,-74.96 -172.85,-152.73 -10.08,-40.41 3.87,-91.81 43.43,-104.82 38.57,-12.67 75.99,16.04 102.52,40.75 -8.31,-19.81 -17.49,-39.49 -20.86,-61.02"
         id="path176" />
    </clipPath>
    <clipPath
       clipPathUnits="userSpaceOnUse"
       id="clipPath202">
      <path
         d="m 1982.81,4142.55 c 41.55,-33.96 65.96,-84.53 83.06,-135.39 17.1,-50.87 28.27,-103.84 49.91,-152.95 17.08,-38.77 40.59,-74.69 69.27,-105.86 30.05,-32.64 69.4,-61.38 113.77,-61.37 44.36,0.01 89.58,40.78 79.82,84.06 46.2,-6.49 92.81,24.5 111.89,67.07 19.08,42.58 13.44,93.46 -7.24,135.27 -20.68,41.83 -54.96,75.54 -92.39,103.39 -92.04,68.49 -207.11,105.46 -321.83,103.4 -45.45,-0.82 -91.16,-5.35 -136.51,-7.99 17.71,-8.29 34.95,-17.12 50.25,-29.63"
         id="path200" />
    </clipPath>
    <clipPath
       clipPathUnits="userSpaceOnUse"
       id="clipPath106">
      <path
         d="m 4428.1,3968.97 c -52.63,44.62 -160.32,141.81 -269.6,73.78 -94.73,-58.97 -235.45,-149.85 -337.63,-196.1 4.36,3.95 197.96,179.44 266.71,243.82 69.54,65.11 137.76,155.83 31.08,292.34 -15.17,60.39 -23.37,124.54 -23.37,124.54 0,0 -29.71,-46.46 -104.72,-56.35 -75.01,-9.87 -157.39,-38.27 -172.55,-169.69 -14.73,-127.62 33.13,-309.71 -17.65,-442.17 l -0.47,0.34 c -11.33,29.99 -48.8,136.58 -36.16,204.19 14.81,79.29 28.52,268.79 -57.92,312.32 -86.43,43.53 -143.59,39.08 -203.26,90.78 -20.01,-51.63 -37.3,-112.17 -82.27,-177.91 -44.96,-65.74 -37.11,-182.01 148.81,-258.58 71.65,-22.58 165.82,-130.87 203.6,-177.18 -18.29,1.66 -42.5,6.57 -63.01,20.14 -122.69,87.73 -167.18,79.03 -205.31,49.51 -38.14,-29.51 -38.14,-29.51 -92.58,-42.88 54.47,-24.02 3.94,-76.82 103.3,-114.78 86.75,-33.13 242.29,45.17 280.41,65.59 -10.53,-19.54 16.89,-218.2 103.02,-278.85 48.91,-34.45 75.24,-26.93 97.88,-19.41 17.61,5.85 32.98,11.7 55.01,-2.21 -19.31,52.63 -19.31,52.63 -16.11,100.75 3.2,48.11 -14.42,89.88 -155.7,142.68 -25.75,10.71 -42.58,47.5 -54.12,67.77 58.42,-9.1 152.93,-24.93 188.67,-37.28 53.31,-18.41 232.21,-100.37 306.01,-86.52 73.79,13.85 77.18,95.08 143.19,162.9 66.01,67.83 75.31,72.83 75.31,72.83 0,0 -57.94,-9 -110.57,35.63"
         id="path104" />
    </clipPath>
    <clipPath
       clipPathUnits="userSpaceOnUse"
       id="clipPath226">
      <path
         d="m 1263.38,2237.22 c 101.67,-18.82 201.01,-50.2 295.05,-93.19 0.02,5.76 0.04,11.52 0.05,17.27 31.51,1.34 63.08,1.22 94.57,-0.36 -9.19,6.89 -8.56,21.75 -1.78,31.02 6.8,9.28 17.78,14.34 28.28,19.02 15.6,6.96 31.2,13.91 46.8,20.87 2.85,1.26 5.92,2.76 7.22,5.58 2.79,6.07 -4.18,11.65 -8.73,16.53 -11.33,12.12 -9.31,32.34 0.03,46.05 9.35,13.71 24.22,22.43 38.6,30.71 29.86,17.19 59.73,34.39 89.6,51.58 -45.21,-5.14 -92.2,7.31 -128.92,34.16 -5.92,4.34 -11.86,9.41 -14.19,16.37 -2.83,8.45 0.28,17.68 4.11,25.72 11.02,23.13 28.36,43.19 49.65,57.44 -11.86,2.54 -24.64,5.62 -32.35,14.97 -7.7,9.36 -5.78,26.95 5.97,29.91 -12.27,15.84 -15.11,38.45 -7.15,56.83 5.02,11.59 14.15,22.5 12.84,35.07 -0.79,7.52 -5.34,14.3 -5.95,21.84 -0.67,8.48 3.71,16.45 7.95,23.83 18.36,31.96 36.72,63.91 55.08,95.87 -32.2,-29.83 -74.4,-57.06 -117.19,-47.28 -31.85,-19.41 -73.6,-21.46 -107.21,-5.28 -32.96,-36.27 -81.57,-57.8 -130.58,-57.82 26.75,28.1 47.62,61.76 60.91,98.21 -2.76,-0.91 -5.52,-1.82 -8.28,-2.74 -18.17,-6.03 -44.83,5.84 -53.43,22.95 -11.88,23.62 1.91,51.3 5.63,77.47 -10.03,-8.93 -25.92,-8.36 -37.79,-2.07 -11.87,6.29 -20.55,17.16 -28.51,27.98 -12.71,17.3 -24.5,35.28 -35.28,53.84 -5.96,-5.02 -15.9,-1.09 -19.53,5.8 -3.63,6.9 -2.66,15.25 -1.01,22.86 -41.47,33.52 -63.85,89.23 -57.08,142.12 -14.26,-38.85 -39.56,-72.49 -64.52,-105.51 -5.41,-7.16 -11.26,-14.67 -19.65,-17.89 -8.39,-3.22 -19.92,0 -22.29,8.66 -2.44,-22.19 -9.73,-43.84 -21.19,-63 -2.37,-3.96 -6.09,-8.35 -10.61,-7.4 -3.46,0.74 -5.45,4.31 -6.81,7.58 -3.18,7.6 -5.43,15.6 -6.7,23.74 -6.03,-30.06 -15.68,-59.39 -28.68,-87.15 -3.51,-7.49 -7.59,-15.23 -14.62,-19.58 -7.04,-4.35 -17.84,-3.63 -21.91,3.57 4.73,-18.5 -5.55,-39.67 -23.02,-47.39 -17.46,-7.71 -40.037,-1.06 -50.53,14.88 8.915,-38.21 10.2,-80.47 14.399,-119.49 1.25,-11.64 2.277,-23.57 -0.449,-34.96 -2.727,-11.4 -9.86,-22.35 -20.723,-26.73 -8.551,-3.45 -18.184,-2.47 -27.281,-1 -27.699,4.47 -54.735,13.03 -79.961,25.32 6.113,-12.79 -5.805,-28.28 -19.652,-31.31 -13.844,-3.04 -27.993,2.37 -41.129,7.69 2.656,-9.57 -5.196,-19.56 -14.618,-22.72 -9.425,-3.16 -19.726,-1.24 -29.394,1.07 -30.246,7.25 -59.59,18.24 -87.16,32.65 7.437,-27.41 23.672,-53.84 41.871,-75.64 18.199,-21.8 35.168,-48.09 32.207,-76.34 -4.031,-1.08 -8.067,-2.17 -12.102,-3.26 9.02,-8.7 18.606,-18.54 19.696,-31.02 1.093,-12.49 -12.172,-26.03 -23.235,-20.14 5.465,-15 19.739,-24.58 32.379,-34.33 12.649,-9.74 25.375,-22.65 25.277,-38.61 -0.011,-3 -0.468,-6.16 0.829,-8.86 1.453,-3.01 4.714,-4.66 7.8,-5.98 8.039,-3.43 16.618,-6.2 23.164,-11.98 6.547,-5.8 10.465,-15.78 6.27,-23.44 -3.727,-6.8 -12.078,-9.29 -19.602,-11.16 -28.543,-7.11 -57.089,-14.23 -85.636,-21.34 21.398,-12.14 42.797,-24.27 64.191,-36.4 12.91,-7.31 27.801,-18.62 24.934,-33.18 11.539,5.22 24.207,-9.49 21.578,-21.87 -2.633,-12.39 -14.356,-20.64 -25.949,-25.75 -1.489,-0.65 -3.164,-1.46 -3.637,-3.02 -0.469,-1.56 1.586,-3.47 2.715,-2.3 33.414,6.07 66.601,-8.45 96.976,-23.64 9.407,-4.7 19.18,-10.02 24.59,-19.04 5.41,-9.01 4.301,-22.77 -4.965,-27.75 76.507,-4.28 154.137,14.05 220.637,52.12 40.07,22.93 73.58,61.25 119.13,68.77"
         id="path224" />
    </clipPath>
    <clipPath
       clipPathUnits="userSpaceOnUse"
       id="clipPath330">
      <path
         d="m 2706.66,2329.43 c 28.86,13.55 49.18,49.09 36.48,78.33 70.17,4.27 127.65,69.68 134.1,139.69 3.27,35.55 -12.49,79.68 -47.97,83.76 24.11,48.99 20.65,110.48 -8.79,156.48 -29.44,45.99 -83.84,74.86 -138.43,73.47 -8.79,47.03 -28.91,94.4 -67.26,122.99 -38.36,28.59 -97.75,32.07 -131.67,-1.67 -55.48,52.75 -165.4,0.52 -214.89,58.93 14.74,-34.33 -12.48,-71.15 -37.75,-98.67 -25.27,-27.51 -52.27,-64.62 -37.12,-98.76 -42.43,-1.5 -82.1,-26.35 -106.98,-60.76 -24.88,-34.41 -36.02,-77.39 -37.27,-119.83 -1.49,-50.52 20.87,-111.59 70.93,-118.59 -29.48,-36.11 -36.56,-89.11 -17.59,-131.68 18.97,-42.58 63.11,-72.76 109.66,-74.98 -9.85,-26.03 8.84,-54.44 30.86,-71.46 55.34,-42.75 138.6,-44.83 196,-4.88 44.07,-35.12 104.68,-15.59 135.5,25.67 19.42,26 14.78,38.32 48.42,39.62 10.5,0.41 19.89,-0.95 28.97,-2.31 17.44,-2.61 33.77,-5.22 54.8,4.65"
         id="path328" />
    </clipPath>
  </defs>
  <g
     inkscape:label="Layer 1"
     inkscape:groupmode="layer"
     id="layer1"
     transform="translate(-214.83305,-30.019363)">
    <path
       d="m 238.03382,55.136088 c 1.01811,-0.478014 1.73496,-1.731786 1.28728,-2.763308 2.47545,-0.150636 4.50321,-2.458156 4.7304,-4.927601 0.11571,-1.254478 -0.44062,-2.811286 -1.69192,-2.955219 0.85019,-1.728259 0.72813,-3.897489 -0.31045,-5.520267 -1.03893,-1.622425 -2.95769,-2.640895 -4.8835,-2.591859 -0.31009,-1.659114 -1.01988,-3.330222 -2.37314,-4.338814 -1.35325,-1.008239 -3.44805,-1.131358 -4.64467,0.05891 -1.95721,-1.860903 -5.83459,-0.01835 -7.58084,-2.078567 0.52035,1.210734 -0.44027,2.509661 -1.33174,3.480506 -0.89111,0.970492 -1.84397,2.27965 -1.30951,3.484033 -1.49683,0.05292 -2.8963,0.92957 -3.77366,2.143478 -0.87807,1.213909 -1.27106,2.730148 -1.31516,4.227337 -0.0526,1.782586 0.73625,3.936647 2.50261,4.183944 -1.03999,1.273528 -1.28976,3.143251 -0.62054,4.645026 0.66887,1.502128 2.22603,2.566811 3.86856,2.645128 -0.34784,0.91828 0.31151,1.920875 1.08868,2.52095 1.95192,1.508478 4.8895,1.581503 6.91409,0.172155 1.55504,1.238956 3.69288,0.549981 4.78014,-0.90558 0.68544,-0.917222 0.5214,-1.351845 1.7085,-1.397706 0.37042,-0.01446 0.70132,0.03351 1.02164,0.08149 0.61525,0.09207 1.19134,0.18415 1.93323,-0.164042"
       style="fill:#f9ad0f;fill-opacity:1;fill-rule:nonzero;stroke:none;stroke-width:0.0352778"
       id="path322" />
    <g
       id="g324"
       transform="matrix(0.03527778,0,0,-0.03527778,142.54745,137.31356)">
      <g
         id="g326"
         clip-path="url(#clipPath330)">
        <path
           d="m 2051.21,2631.98 c -0.02,0.01 -0.04,0.01 -0.05,0.01 -1.68,10.54 -2.35,21.19 -2.05,31.4 1.25,42.44 12.39,85.42 37.27,119.83 22.31,30.86 56.52,54.03 93.95,59.57 -37.41,-5.55 -71.6,-28.71 -93.9,-59.56 -24.89,-34.41 -36.03,-77.39 -37.28,-119.83 -0.3,-10.22 0.37,-20.87 2.06,-31.42 m 129.16,210.81 c 0.05,0.01 0.11,0.02 0.17,0.03 -0.06,-0.01 -0.12,-0.02 -0.17,-0.03 m 12.99,1.2 c -15.15,34.14 11.86,71.24 37.12,98.75 25.27,27.52 52.49,64.34 37.75,98.67 0.03,-0.04 0.06,-0.08 0.09,-0.11 14.64,-34.29 -12.56,-71.06 -37.8,-98.55 -25.26,-27.51 -52.27,-64.62 -37.12,-98.76 -0.01,0 -0.03,0 -0.04,0 m 289.8,138.5 c 0,0.01 -0.01,0.01 -0.01,0.02 11.49,11.42 25.9,18.57 41.43,21.92 -15.52,-3.36 -29.93,-10.51 -41.42,-21.94"
           style="fill:#f9b06b;fill-opacity:1;fill-rule:nonzero;stroke:none"
           id="path332" />
        <path
           d="m 2078.63,2630.37 c -9.15,0 -18.31,0.54 -27.42,1.61 -1.69,10.55 -2.36,21.2 -2.06,31.42 1.25,42.44 12.39,85.42 37.28,119.83 22.3,30.85 56.49,54.01 93.9,59.56 0.01,0 0.02,0 0.04,0 0.05,0.01 0.11,0.02 0.17,0.03 4.24,0.62 8.52,1.01 12.82,1.16 0,0.01 0,0.01 0,0.01 0.01,0 0.03,0 0.04,0 -15.15,34.14 11.86,71.25 37.12,98.76 25.24,27.49 52.44,64.26 37.8,98.55 49.54,-58.24 159.35,-6.1 214.8,-58.82 0.01,0.01 0.02,0.02 0.03,0.03 0,-0.01 0.01,-0.01 0.01,-0.02 11.49,11.43 25.9,18.58 41.42,21.94 7.05,1.52 14.33,2.26 21.67,2.26 24.21,0 49.08,-8.04 68.54,-22.54 22.12,-16.5 38.18,-39.24 49.49,-64.56 -6.7,-11.31 -14.3,-22.3 -22.8,-32.84 -54.59,-67.72 -134.55,-102.89 -215.25,-102.88 -40.82,0 -81.84,9 -119.84,27.34 -7.7,-33.3 -22.85,-65.42 -45.73,-93.82 -46.16,-57.26 -113.79,-87.02 -182.03,-87.02"
           style="fill:#f79213;fill-opacity:1;fill-rule:nonzero;stroke:none"
           id="path334" />
        <path
           d="m 2344.61,2233.17 c -36.39,0 -72.81,11.24 -101.64,33.51 -16.68,12.9 -31.46,32.33 -33.35,52.31 0.01,0.02 0.02,0.03 0.04,0.05 1.88,-20 16.66,-39.45 33.36,-52.35 28.83,-22.28 65.24,-33.51 101.62,-33.51 10.19,0 20.37,0.88 30.39,2.64 -10.03,-1.77 -20.23,-2.65 -30.42,-2.65 m 146.29,10.41 c -18.01,0 -36.04,5.56 -51.92,18.21 0.01,0 0.02,0.01 0.03,0.02 15.89,-12.66 33.92,-18.22 51.93,-18.22 7.29,0 14.58,0.91 21.73,2.63 -7.16,-1.72 -14.46,-2.64 -21.77,-2.64 m 184.74,78.82 c -8.07,0 -15.81,1.19 -23.78,2.38 -7.97,1.19 -16.17,2.38 -25.16,2.38 -1.25,0 -2.52,-0.02 -3.81,-0.07 -5.57,-0.22 -10.08,-0.73 -13.84,-1.56 3.77,0.83 8.3,1.35 13.89,1.57 1.29,0.05 2.56,0.07 3.81,0.07 8.98,0 17.18,-1.19 25.15,-2.38 7.97,-1.19 15.71,-2.38 23.78,-2.38 5.45,0 11.05,0.54 16.97,2 -5.94,-1.47 -11.55,-2.01 -17.01,-2.01 m 67.56,85.37 c -0.01,0 -0.01,0 -0.01,0 4.93,0.3 9.79,0.9 14.58,1.79 -4.79,-0.89 -9.65,-1.49 -14.57,-1.79"
           style="fill:#f9b06b;fill-opacity:1;fill-rule:nonzero;stroke:none"
           id="path336" />
        <path
           d="m 2344.64,2233.18 c -36.38,0 -72.79,11.23 -101.62,33.51 -16.7,12.9 -31.48,32.35 -33.36,52.35 45.7,50.41 109.1,76.52 173.04,76.52 24.34,0 48.75,-3.78 72.29,-11.45 4.88,52.22 24.59,103.62 59.97,147.52 25.99,32.24 57.75,57.04 92.59,74.25 0.21,40.87 13.64,81.96 41.29,116.25 36.95,45.85 91.09,69.66 145.72,69.66 8.1,0 16.2,-0.52 24.26,-1.57 0.56,-0.84 1.11,-1.68 1.66,-2.53 29.44,-46 32.9,-107.49 8.79,-156.48 35.48,-4.08 51.24,-48.21 47.97,-83.76 -5.99,-65.08 -56.09,-126.18 -119.47,-137.89 -4.79,-0.89 -9.65,-1.49 -14.58,-1.79 0,0 0,0 0.01,0 -0.02,0 -0.04,0 -0.06,-0.01 12.7,-29.24 -7.62,-64.78 -36.48,-78.33 -4.9,-2.3 -9.55,-3.92 -14.01,-5.02 -5.92,-1.46 -11.52,-2 -16.97,-2 -8.07,0 -15.81,1.19 -23.78,2.38 -7.97,1.19 -16.17,2.38 -25.15,2.38 -1.25,0 -2.52,-0.02 -3.81,-0.07 -5.59,-0.22 -10.12,-0.74 -13.89,-1.57 -18.92,-4.19 -18.38,-16.36 -34.58,-38.06 -15.2,-20.36 -37.66,-35.42 -61.8,-41.25 -7.15,-1.72 -14.44,-2.63 -21.73,-2.63 -18.01,0 -36.04,5.56 -51.93,18.22 -0.01,-0.01 -0.02,-0.02 -0.03,-0.02 0,0 -0.01,0 -0.01,0.01 -19.11,-13.3 -41.08,-21.95 -63.94,-25.98 -10.02,-1.76 -20.2,-2.64 -30.39,-2.64"
           style="fill:#f79213;fill-opacity:1;fill-rule:nonzero;stroke:none"
           id="path338" />
      </g>
    </g>
    <path
       d="m 225.56383,38.147368 c 1.9939,4.65208 5.21229,8.707261 7.12752,13.39215 1.80516,4.415015 2.38548,9.218437 2.94922,13.955185 l 0.95039,-0.04939 c 0,0 0.61665,-8.248298 -4.12257,-15.80374 -4.31023,-6.871053 -6.90456,-11.494206 -6.90456,-11.494206"
       style="fill:#2c0e10;fill-opacity:1;fill-rule:nonzero;stroke:none;stroke-width:0.0352778"
       id="path340" />
    <path
       d="m 234.38116,38.619737 c -0.0677,0.245533 -0.13829,0.489656 -0.21343,0.732014 l -0.20391,0.733425 c -0.13758,0.487539 -0.26846,0.976489 -0.3877,1.468261 -0.23566,0.983192 -0.45297,1.969912 -0.62407,2.965098 -0.35736,1.988961 -0.55456,4.001558 -0.73342,6.028972 -0.11148,-2.032705 0.0208,-4.081286 0.37218,-6.092825 0.18203,-1.004358 0.41134,-2.001309 0.71473,-2.976034 0.1531,-0.48648 0.31432,-0.970139 0.48789,-1.448858 0.18768,-0.474133 0.37324,-0.948267 0.58773,-1.410053"
       style="fill:#2c0e10;fill-opacity:1;fill-rule:nonzero;stroke:none;stroke-width:0.0352778"
       id="path342" />
    <path
       d="m 232.06235,50.703435 c 0.0974,-0.354894 0.24271,-0.699558 0.43885,-1.021644 0.20285,-0.318559 0.45685,-0.599017 0.72214,-0.858309 0.53128,-0.510116 1.07491,-1.00718 1.67957,-1.446742 1.21109,-0.874183 2.68147,-1.406172 4.15643,-1.441802 -1.43298,0.326319 -2.77918,0.89288 -3.94264,1.739547 -0.58561,0.41663 -1.13665,0.898172 -1.70145,1.359958 -0.27446,0.234598 -0.54292,0.474134 -0.76906,0.752123 -0.23495,0.271639 -0.40992,0.592314 -0.58384,0.916869"
       style="fill:#2c0e10;fill-opacity:1;fill-rule:nonzero;stroke:none;stroke-width:0.0352778"
       id="path344" />
    <path
       d="m 231.96886,50.453668 c 0.93239,-0.254 1.94875,-0.238477 2.89384,0.02787 0.94474,0.271992 1.80657,0.753886 2.55517,1.362428 -0.89818,-0.359481 -1.75437,-0.760942 -2.65466,-1.009298 -0.89746,-0.262466 -1.82809,-0.346075 -2.79435,-0.381"
       style="fill:#2c0e10;fill-opacity:1;fill-rule:nonzero;stroke:none;stroke-width:0.0352778"
       id="path346" />
    <path
       d="m 221.16645,44.924935 c 0.50765,0.137583 1.00754,0.295275 1.51271,0.438855 l 1.50213,0.472723 c 1.00013,0.32138 1.98826,0.687916 2.95452,1.113719 0.96202,0.433564 1.90394,0.928864 2.76824,1.542697 l 0.6343,0.477309 0.60431,0.513644 0.55985,0.559859 c 0.17569,0.197202 0.34749,0.396522 0.51612,0.597252 -0.19791,-0.173919 -0.39264,-0.34925 -0.5835,-0.527402 l -0.60854,-0.492125 -0.62688,-0.465667 -0.65194,-0.427567 c -0.88371,-0.546805 -1.80869,-1.022703 -2.76119,-1.442861 -0.94932,-0.428625 -1.92546,-0.800806 -2.89983,-1.184275 l -1.46615,-0.568678 c -0.48542,-0.200378 -0.97437,-0.391936 -1.45415,-0.607483"
       style="fill:#2c0e10;fill-opacity:1;fill-rule:nonzero;stroke:none;stroke-width:0.0352778"
       id="path348" />
    <path
       d="m 223.13601,51.850316 c 0.35736,-0.143934 0.72037,-0.265642 1.08091,-0.398639 l 1.09502,-0.354189 c 0.73308,-0.230011 1.48061,-0.417689 2.23838,-0.565503 0.75882,-0.140758 1.53,-0.23248 2.30258,-0.247297 0.77258,-0.02081 1.54552,0.0388 2.30329,0.16898 -1.53812,0.02187 -3.04659,0.147109 -4.53778,0.438503 -0.74719,0.136525 -1.48767,0.312561 -2.23415,0.476956 l -1.11901,0.255058 c -0.37641,0.07479 -0.74965,0.161925 -1.12924,0.226131"
       style="fill:#2c0e10;fill-opacity:1;fill-rule:nonzero;stroke:none;stroke-width:0.0352778"
       id="path350" />
    <path
       d="m 228.77622,54.843283 c 0.41416,-0.845609 0.84984,-1.659467 1.37372,-2.445103 0.26811,-0.387703 0.56268,-0.762 0.89958,-1.095728 0.33232,-0.337609 0.70662,-0.63112 1.10667,-0.879828 -0.61701,0.714022 -1.19275,1.414992 -1.70322,2.182636 -0.51999,0.757767 -1.02411,1.555045 -1.67675,2.238023"
       style="fill:#2c0e10;fill-opacity:1;fill-rule:nonzero;stroke:none;stroke-width:0.0352778"
       id="path352" />
  </g>
</svg>
