<?xml version="1.0" encoding="UTF-8" standalone="no"?>
<!-- Created with Inkscape (http://www.inkscape.org/) -->

<svg
   width="24.297924mm"
   height="37.004852mm"
   viewBox="0 0 24.297925 37.004852"
   version="1.1"
   id="svg1424"
   inkscape:version="1.1.2 (1:1.1+202202050852+0a00cf5339)"
   sodipodi:docname="leaf8.svg"
   xmlns:inkscape="http://www.inkscape.org/namespaces/inkscape"
   xmlns:sodipodi="http://sodipodi.sourceforge.net/DTD/sodipodi-0.dtd"
   xmlns="http://www.w3.org/2000/svg"
   xmlns:svg="http://www.w3.org/2000/svg">
  <sodipodi:namedview
     id="namedview1426"
     pagecolor="#ffffff"
     bordercolor="#666666"
     borderopacity="1.0"
     inkscape:pageshadow="2"
     inkscape:pageopacity="0.0"
     inkscape:pagecheckerboard="0"
     inkscape:document-units="mm"
     showgrid="false"
     fit-margin-top="0"
     fit-margin-left="0"
     fit-margin-right="0"
     fit-margin-bottom="0"
     inkscape:zoom="1.2810466"
     inkscape:cx="45.665787"
     inkscape:cy="69.864751"
     inkscape:window-width="1856"
     inkscape:window-height="1016"
     inkscape:window-x="1984"
     inkscape:window-y="27"
     inkscape:window-maximized="1"
     inkscape:current-layer="layer1" />
  <defs
     id="defs1421">
    <clipPath
       clipPathUnits="userSpaceOnUse"
       id="clipPath22">
      <path
         d="m 599.137,3471.36 c 38.629,-6.52 79.593,1.96 112.461,23.27 -2.364,-7.69 3.851,-16.01 11.511,-18.47 7.661,-2.47 16.036,-0.5 23.555,2.39 12.754,4.87 24.508,12.35 34.328,21.84 10.821,-5.36 7.324,-24.15 17.641,-30.42 4.332,-2.64 9.82,-2.14 14.82,-1.31 20.32,3.39 39.945,10.88 57.348,21.91 -4.496,-7.05 -6.879,-15.44 -6.77,-23.81 55.157,10.68 106.774,42.69 145.809,83.08 -21.356,-40.21 -43.371,-83.83 -37.32,-128.96 70.35,61.1 132.47,131.66 184.18,209.17 8.33,-50.72 12.26,-102.17 11.75,-153.57 -0.55,-54.09 -5.98,-108.61 2.85,-161.97 11.73,3.14 22.7,9.05 31.78,17.1 -1.98,80.79 -7.51,161.5 -16.58,241.8 -1.51,13.46 -3.24,27.27 -9.59,39.25 1.16,-8.57 7.83,-15.23 14.4,-20.84 23.99,-20.52 51.49,-36.44 78.82,-52.23 32.76,-18.93 66.53,-38.2 103.95,-43.78 22.13,-3.31 47.01,5.74 69.32,7.39 -20.65,8.94 -28.69,33.2 -40.03,52.63 -13.84,23.7 -35.52,42.74 -60.82,53.39 24.22,9.35 50.37,8.69 76.61,8.03 13.24,-0.33 26.5,-0.67 39.56,0.28 32.75,2.39 65.3,12.98 97.82,8.46 -10.37,8.98 -17.17,21.98 -18.64,35.62 43.79,11.99 85.8,30.45 124.25,54.59 8.15,5.11 16.98,11.84 17.62,21.44 51.66,-7.1 102.35,15.16 149.76,36.89 -39.09,-4.64 -76.5,14.58 -114.74,23.94 -15.59,3.81 -31.32,6.5 -47.36,5.93 6.81,10.23 11.46,21.9 13.53,34.02 -6.48,-9.88 -19.43,-12.73 -31.06,-14.77 -21.94,-3.83 -43.88,-7.66 -65.82,-11.5 -0.26,9.34 -1.52,18.65 -3.76,27.72 -12.59,-4.29 -27.37,-8.34 -38.43,-0.93 -2.44,1.64 -4.67,3.82 -7.54,4.49 -2.71,0.62 -5.52,-0.23 -8.17,-1.09 -24.93,-8.12 -49.33,-17.87 -72.99,-29.18 0.06,12.3 -2.16,24.61 -6.5,36.12 -60.39,-27.06 -116.9,-62.76 -167.29,-105.65 12.86,20.68 23.53,43.11 40.48,60.6 10.48,10.8 23.01,19.34 34.89,28.57 56.87,44.12 100.06,105.62 122.27,174.08 -8.82,-2.75 -21.13,-5.59 -29.75,-2.27 18.41,5.51 32.76,20.37 42.45,36.96 9.68,16.61 15.45,35.13 22.37,53.06 8.84,22.89 19.65,44.96 28.78,67.73 -14.73,-9.46 -37.96,-7.12 -49.26,6.25 9.53,1.32 16.7,9.24 22.12,17.19 20.78,30.5 28.45,69.63 20.75,105.72 -5.03,-8.8 -13.77,-15.4 -23.61,-17.83 15.36,33.89 30.73,67.77 46.09,101.65 -9.02,-2.42 -14.69,11.05 -10.87,19.58 3.82,8.52 12.24,14.16 16.71,22.36 6.67,12.23 3.34,27.16 2.87,41.08 -1.05,31.21 13.14,63.24 3.31,92.87 -12.37,-18.01 -24.75,-36.02 -37.12,-54.02 -21.29,-30.98 -43.5,-65.07 -41.28,-102.59 -5.91,10.39 -11.81,20.78 -17.71,31.18 -14.49,-47.17 -30.77,-93.79 -48.79,-139.73 -8.1,12.25 -15.94,24.68 -23.5,37.27 -12.76,-21.21 -25.53,-42.42 -38.29,-63.63 -3.68,7.28 -6.37,15.05 -7.98,23.04 -13.36,-29.56 -27.16,-58.91 -41.4,-88.05 -3.62,10.04 -7.25,20.07 -10.87,30.12 -33.9,-75.69 -93.87,-140.19 -111.89,-221.13 -6.78,13.54 -12.75,27.96 -13.08,43.1 -0.3,13.72 4.06,27.06 6.56,40.56 5.54,29.86 1.84,61.36 -10.47,89.13 -5.05,-2.89 -10.1,-5.77 -15.16,-8.66 0.83,33.48 -2.36,67.06 -9.48,99.77 -4.6,-7.89 -9.19,-15.79 -13.78,-23.68 -6.28,34.64 -20.03,67.92 -40.05,96.88 -4.96,-8.88 -9.92,-17.76 -14.88,-26.65 -8.1,40.81 -14.96,81.85 -20.57,123.07 -9.11,-3.31 -17.3,-9.16 -23.37,-16.72 5.37,24.69 -6.14,48.81 -14.33,72.72 -7.29,21.27 -14.58,42.54 -21.869,63.82 -1.675,-5.29 -3.347,-10.57 -5.023,-15.84 -19.996,29.95 -36.051,62.54 -47.621,96.64 -2.832,-39.17 -0.438,-78.7 7.101,-117.24 -10.156,3.04 -18.046,12.55 -19.152,23.1 1.453,-32.63 8.012,-65.02 19.359,-95.64 -8.921,6.18 -17.847,12.36 -26.765,18.54 9.906,-33.53 21.902,-66.44 35.887,-98.47 -7.383,6.88 -14.774,13.76 -22.153,20.63 -6.543,-48.58 -3.961,-98.37 7.574,-146.02 -13.765,8.38 -27.011,17.63 -39.632,27.66 5.078,-55.1 15.351,-109.71 30.652,-162.89 -14.875,-1.94 -30.559,4.2 -40.152,15.73 9.535,-51.78 33.089,-100.92 67.492,-140.78 10.558,-12.24 22.199,-23.73 30.512,-37.6 15.13,-25.26 17.92,-56.15 31.27,-82.39 -13.35,10.56 -20.62,25.42 -31.575,38.44 -10.281,12.22 -23.055,22.04 -35.723,31.77 -44.762,34.37 -89.519,68.74 -134.285,103.11 8.691,-10.82 5.844,-28.91 -5.746,-36.55 -23.648,32.9 -72.828,30.75 -108.668,49.64 5.02,-1.94 4.52,-10.04 0.187,-13.23 -4.324,-3.2 -10.281,-2.79 -15.57,-1.81 -15.113,2.81 -29.547,9.17 -41.808,18.44 -13.903,10.5 -25.86,25.07 -42.809,29.11 0.469,-7.45 0.937,-14.9 1.398,-22.36 -23.41,13.93 -47.793,26.25 -72.902,36.82 1.156,-3.97 2.32,-7.95 3.477,-11.92 -27.414,26.4 -54.828,52.81 -82.243,79.22 -0.062,-46.42 15.356,-92.73 43.227,-129.84 -7.453,1.93 -14.914,3.87 -22.379,5.8 28.367,-23.65 55.024,-49.36 79.688,-76.85 -8.266,-3.6 -17.254,-5.53 -26.266,-5.64 29.262,-20.43 60.344,-38.24 92.758,-53.16 -9.207,-6.69 -19.875,-11.35 -31.031,-13.56 20.093,-9.8 35.195,-27.24 52.656,-41.2 17.461,-13.95 40.375,-24.91 61.719,-18.27 -7.848,-9.77 -19.59,-16.32 -32.028,-17.86 53.219,-25.14 89.457,-38.83 143.203,-62.83 49.703,-22.2 96.793,-26.62 146.801,-48.12 -57.25,-38.45 -130.277,-28.87 -196.262,-48.91 6.235,-6.37 15.45,-9.69 24.313,-8.76 -21.379,-11.62 -41.844,-24.94 -61.129,-39.78 -4.59,-3.54 -9.289,-7.37 -11.613,-12.68 -2.114,-4.81 -2.153,-10.59 -5.461,-14.67 -2.684,-3.3 -6.957,-4.79 -10.992,-6.11 -18.2,-5.98 -36.399,-11.96 -54.594,-17.94 1.84,-5.85 6.14,-10.87 11.633,-13.6 -28.133,-17.97 -50.914,-39.05 -67.879,-67.8"
         id="path20" />
    </clipPath>
    <clipPath
       clipPathUnits="userSpaceOnUse"
       id="clipPath178">
      <path
         d="m 2655.38,3661.85 c -3.99,-25.54 0.6,-53.72 18.12,-72.72 27.22,-29.55 77.6,-26.71 110.07,-3.05 32.47,23.67 50.26,62.44 62.2,100.81 35.28,113.35 31.58,237.32 77.03,347 -62.01,-50.78 -144.23,-67.1 -219.66,-94.22 -75.42,-27.11 -153.44,-74.96 -172.85,-152.73 -10.08,-40.41 3.87,-91.81 43.43,-104.82 38.57,-12.67 75.99,16.04 102.52,40.75 -8.31,-19.81 -17.49,-39.49 -20.86,-61.02"
         id="path176" />
    </clipPath>
    <clipPath
       clipPathUnits="userSpaceOnUse"
       id="clipPath202">
      <path
         d="m 1982.81,4142.55 c 41.55,-33.96 65.96,-84.53 83.06,-135.39 17.1,-50.87 28.27,-103.84 49.91,-152.95 17.08,-38.77 40.59,-74.69 69.27,-105.86 30.05,-32.64 69.4,-61.38 113.77,-61.37 44.36,0.01 89.58,40.78 79.82,84.06 46.2,-6.49 92.81,24.5 111.89,67.07 19.08,42.58 13.44,93.46 -7.24,135.27 -20.68,41.83 -54.96,75.54 -92.39,103.39 -92.04,68.49 -207.11,105.46 -321.83,103.4 -45.45,-0.82 -91.16,-5.35 -136.51,-7.99 17.71,-8.29 34.95,-17.12 50.25,-29.63"
         id="path200" />
    </clipPath>
    <clipPath
       clipPathUnits="userSpaceOnUse"
       id="clipPath106">
      <path
         d="m 4428.1,3968.97 c -52.63,44.62 -160.32,141.81 -269.6,73.78 -94.73,-58.97 -235.45,-149.85 -337.63,-196.1 4.36,3.95 197.96,179.44 266.71,243.82 69.54,65.11 137.76,155.83 31.08,292.34 -15.17,60.39 -23.37,124.54 -23.37,124.54 0,0 -29.71,-46.46 -104.72,-56.35 -75.01,-9.87 -157.39,-38.27 -172.55,-169.69 -14.73,-127.62 33.13,-309.71 -17.65,-442.17 l -0.47,0.34 c -11.33,29.99 -48.8,136.58 -36.16,204.19 14.81,79.29 28.52,268.79 -57.92,312.32 -86.43,43.53 -143.59,39.08 -203.26,90.78 -20.01,-51.63 -37.3,-112.17 -82.27,-177.91 -44.96,-65.74 -37.11,-182.01 148.81,-258.58 71.65,-22.58 165.82,-130.87 203.6,-177.18 -18.29,1.66 -42.5,6.57 -63.01,20.14 -122.69,87.73 -167.18,79.03 -205.31,49.51 -38.14,-29.51 -38.14,-29.51 -92.58,-42.88 54.47,-24.02 3.94,-76.82 103.3,-114.78 86.75,-33.13 242.29,45.17 280.41,65.59 -10.53,-19.54 16.89,-218.2 103.02,-278.85 48.91,-34.45 75.24,-26.93 97.88,-19.41 17.61,5.85 32.98,11.7 55.01,-2.21 -19.31,52.63 -19.31,52.63 -16.11,100.75 3.2,48.11 -14.42,89.88 -155.7,142.68 -25.75,10.71 -42.58,47.5 -54.12,67.77 58.42,-9.1 152.93,-24.93 188.67,-37.28 53.31,-18.41 232.21,-100.37 306.01,-86.52 73.79,13.85 77.18,95.08 143.19,162.9 66.01,67.83 75.31,72.83 75.31,72.83 0,0 -57.94,-9 -110.57,35.63"
         id="path104" />
    </clipPath>
    <clipPath
       clipPathUnits="userSpaceOnUse"
       id="clipPath226">
      <path
         d="m 1263.38,2237.22 c 101.67,-18.82 201.01,-50.2 295.05,-93.19 0.02,5.76 0.04,11.52 0.05,17.27 31.51,1.34 63.08,1.22 94.57,-0.36 -9.19,6.89 -8.56,21.75 -1.78,31.02 6.8,9.28 17.78,14.34 28.28,19.02 15.6,6.96 31.2,13.91 46.8,20.87 2.85,1.26 5.92,2.76 7.22,5.58 2.79,6.07 -4.18,11.65 -8.73,16.53 -11.33,12.12 -9.31,32.34 0.03,46.05 9.35,13.71 24.22,22.43 38.6,30.71 29.86,17.19 59.73,34.39 89.6,51.58 -45.21,-5.14 -92.2,7.31 -128.92,34.16 -5.92,4.34 -11.86,9.41 -14.19,16.37 -2.83,8.45 0.28,17.68 4.11,25.72 11.02,23.13 28.36,43.19 49.65,57.44 -11.86,2.54 -24.64,5.62 -32.35,14.97 -7.7,9.36 -5.78,26.95 5.97,29.91 -12.27,15.84 -15.11,38.45 -7.15,56.83 5.02,11.59 14.15,22.5 12.84,35.07 -0.79,7.52 -5.34,14.3 -5.95,21.84 -0.67,8.48 3.71,16.45 7.95,23.83 18.36,31.96 36.72,63.91 55.08,95.87 -32.2,-29.83 -74.4,-57.06 -117.19,-47.28 -31.85,-19.41 -73.6,-21.46 -107.21,-5.28 -32.96,-36.27 -81.57,-57.8 -130.58,-57.82 26.75,28.1 47.62,61.76 60.91,98.21 -2.76,-0.91 -5.52,-1.82 -8.28,-2.74 -18.17,-6.03 -44.83,5.84 -53.43,22.95 -11.88,23.62 1.91,51.3 5.63,77.47 -10.03,-8.93 -25.92,-8.36 -37.79,-2.07 -11.87,6.29 -20.55,17.16 -28.51,27.98 -12.71,17.3 -24.5,35.28 -35.28,53.84 -5.96,-5.02 -15.9,-1.09 -19.53,5.8 -3.63,6.9 -2.66,15.25 -1.01,22.86 -41.47,33.52 -63.85,89.23 -57.08,142.12 -14.26,-38.85 -39.56,-72.49 -64.52,-105.51 -5.41,-7.16 -11.26,-14.67 -19.65,-17.89 -8.39,-3.22 -19.92,0 -22.29,8.66 -2.44,-22.19 -9.73,-43.84 -21.19,-63 -2.37,-3.96 -6.09,-8.35 -10.61,-7.4 -3.46,0.74 -5.45,4.31 -6.81,7.58 -3.18,7.6 -5.43,15.6 -6.7,23.74 -6.03,-30.06 -15.68,-59.39 -28.68,-87.15 -3.51,-7.49 -7.59,-15.23 -14.62,-19.58 -7.04,-4.35 -17.84,-3.63 -21.91,3.57 4.73,-18.5 -5.55,-39.67 -23.02,-47.39 -17.46,-7.71 -40.037,-1.06 -50.53,14.88 8.915,-38.21 10.2,-80.47 14.399,-119.49 1.25,-11.64 2.277,-23.57 -0.449,-34.96 -2.727,-11.4 -9.86,-22.35 -20.723,-26.73 -8.551,-3.45 -18.184,-2.47 -27.281,-1 -27.699,4.47 -54.735,13.03 -79.961,25.32 6.113,-12.79 -5.805,-28.28 -19.652,-31.31 -13.844,-3.04 -27.993,2.37 -41.129,7.69 2.656,-9.57 -5.196,-19.56 -14.618,-22.72 -9.425,-3.16 -19.726,-1.24 -29.394,1.07 -30.246,7.25 -59.59,18.24 -87.16,32.65 7.437,-27.41 23.672,-53.84 41.871,-75.64 18.199,-21.8 35.168,-48.09 32.207,-76.34 -4.031,-1.08 -8.067,-2.17 -12.102,-3.26 9.02,-8.7 18.606,-18.54 19.696,-31.02 1.093,-12.49 -12.172,-26.03 -23.235,-20.14 5.465,-15 19.739,-24.58 32.379,-34.33 12.649,-9.74 25.375,-22.65 25.277,-38.61 -0.011,-3 -0.468,-6.16 0.829,-8.86 1.453,-3.01 4.714,-4.66 7.8,-5.98 8.039,-3.43 16.618,-6.2 23.164,-11.98 6.547,-5.8 10.465,-15.78 6.27,-23.44 -3.727,-6.8 -12.078,-9.29 -19.602,-11.16 -28.543,-7.11 -57.089,-14.23 -85.636,-21.34 21.398,-12.14 42.797,-24.27 64.191,-36.4 12.91,-7.31 27.801,-18.62 24.934,-33.18 11.539,5.22 24.207,-9.49 21.578,-21.87 -2.633,-12.39 -14.356,-20.64 -25.949,-25.75 -1.489,-0.65 -3.164,-1.46 -3.637,-3.02 -0.469,-1.56 1.586,-3.47 2.715,-2.3 33.414,6.07 66.601,-8.45 96.976,-23.64 9.407,-4.7 19.18,-10.02 24.59,-19.04 5.41,-9.01 4.301,-22.77 -4.965,-27.75 76.507,-4.28 154.137,14.05 220.637,52.12 40.07,22.93 73.58,61.25 119.13,68.77"
         id="path224" />
    </clipPath>
    <clipPath
       clipPathUnits="userSpaceOnUse"
       id="clipPath330">
      <path
         d="m 2706.66,2329.43 c 28.86,13.55 49.18,49.09 36.48,78.33 70.17,4.27 127.65,69.68 134.1,139.69 3.27,35.55 -12.49,79.68 -47.97,83.76 24.11,48.99 20.65,110.48 -8.79,156.48 -29.44,45.99 -83.84,74.86 -138.43,73.47 -8.79,47.03 -28.91,94.4 -67.26,122.99 -38.36,28.59 -97.75,32.07 -131.67,-1.67 -55.48,52.75 -165.4,0.52 -214.89,58.93 14.74,-34.33 -12.48,-71.15 -37.75,-98.67 -25.27,-27.51 -52.27,-64.62 -37.12,-98.76 -42.43,-1.5 -82.1,-26.35 -106.98,-60.76 -24.88,-34.41 -36.02,-77.39 -37.27,-119.83 -1.49,-50.52 20.87,-111.59 70.93,-118.59 -29.48,-36.11 -36.56,-89.11 -17.59,-131.68 18.97,-42.58 63.11,-72.76 109.66,-74.98 -9.85,-26.03 8.84,-54.44 30.86,-71.46 55.34,-42.75 138.6,-44.83 196,-4.88 44.07,-35.12 104.68,-15.59 135.5,25.67 19.42,26 14.78,38.32 48.42,39.62 10.5,0.41 19.89,-0.95 28.97,-2.31 17.44,-2.61 33.77,-5.22 54.8,4.65"
         id="path328" />
    </clipPath>
    <clipPath
       clipPathUnits="userSpaceOnUse"
       id="clipPath138">
      <path
         d="m 3894.4,2099.77 c 69.11,-3.4 145.1,-14.4 201.73,25.36 32.82,23.03 54.57,60.82 90.72,78.15 -9.4,14.34 7.35,30.81 19.97,42.42 18.95,17.43 32.08,41.11 36.82,66.43 -13.79,9.78 -14.25,33.32 -0.89,43.66 -28.21,14.9 -36.75,57.36 -16.51,82.02 -13.93,-3.48 -26.83,11.67 -26.8,26.03 0.03,14.36 8.58,27.14 16.78,38.93 -5.36,-3.04 -9.55,5.64 -9.51,11.81 0.19,35.04 8.93,70 25.21,101.02 -24.3,-16.58 -61.45,-9.65 -78.16,14.56 -14.89,2.81 -27.2,16.02 -28.96,31.08 -1.75,15.04 7.19,30.73 21.03,36.89 -5.39,16.28 -6.54,33.95 -3.31,50.78 -15.5,16.55 -14.65,45.65 1.78,61.27 -32.94,-12.07 -72.97,-1.07 -95.11,26.15 -22.13,27.21 -24.76,68.65 -6.22,98.44 -14.78,-9.76 -33.16,8.57 -36.56,25.93 -3.42,17.37 -1.09,37.28 -12.54,50.78 -3.79,4.47 -8.78,7.74 -13.02,11.78 -15.19,14.47 -19.27,37.69 -15.62,58.35 3.67,20.65 13.94,39.45 24.06,57.82 -33.25,-20.84 -66.86,-41.97 -93.95,-70.35 -18.48,-19.37 -41.97,-44.36 -66.85,-34.46 -2.41,-44.75 -54.88,-78.93 -96.78,-63.03 -9.68,-64.93 -87.12,-109.97 -148.34,-86.3 -13.19,-37.21 -27.11,-75.61 -54.3,-104.24 -27.2,-28.64 -71.56,-44.93 -107.2,-27.93 6.23,-23.87 10,-49.99 0.11,-72.59 -4.71,-10.74 -12.26,-20.08 -16.66,-30.95 -4.39,-10.87 -4.84,-24.74 3.5,-32.98 -32.17,-27.42 -59.32,-60.72 -79.72,-97.75 -6.04,-10.98 -11.64,-22.91 -11.02,-35.42 0.86,-17.42 10.08,-41.71 -6.39,-47.44 7.15,-35.45 19.38,-69.86 36.2,-101.87 9.06,-17.23 19.18,-39.34 6.93,-54.46 42.28,-38.6 94.08,-66.66 149.49,-81 30.35,-7.85 52.29,-26.32 82.31,-35.36 26.04,-7.83 45.97,-15.78 68.53,-30.94 18.63,-12.53 48.83,-22.38 68.85,-32.32 21.21,-10.55 45.04,-4.03 67.61,-2.12 34.17,2.91 68.54,3.53 102.79,1.85"
         id="path136" />
    </clipPath>
    <clipPath
       clipPathUnits="userSpaceOnUse"
       id="clipPath304">
      <path
         d="m 1318.04,817 c 0,0 202.65,-26.488 218.08,175.422 15.43,201.908 -88.39,347.038 -88.39,347.038 0,0 -37.74,-188.02 -95.85,-162.89 -58.11,25.14 50.1,131.59 -24.85,279.53 -74.95,147.94 -139.23,226.51 -139.23,226.51 0,0 -4.89,-54.17 -43.15,-95.23 -38.25,-41.04 -79.15,-119.02 -72.98,-172.45 -86.947,123.19 -112.057,165.95 -315.818,234.25 -42.743,25.31 -85.661,66.02 -85.661,66.02 0,0 45.528,-104.63 29.395,-144.18 -16.141,-39.56 -60.594,-128.03 1.816,-204.16 62.407,-76.14 136.621,-162.58 136.621,-162.58 0,0 -66.535,61.32 -130.097,27.97 -63.567,-33.35 -103.512,-87.34 -165.387,-107.76 101.598,-61.52 102.524,-87.95 152.195,-127.33 49.672,-39.39 122.786,-33.601 171.891,-77.301 49.105,-43.687 24.168,-66.738 -72.582,-102.328 77.781,-75.961 150.687,-155.66 229.047,-176.859 78.36,-21.211 289.08,-2.703 294.95,176.328"
         id="path302" />
    </clipPath>
    <clipPath
       clipPathUnits="userSpaceOnUse"
       id="clipPath362">
      <path
         d="m 2844.54,1268.28 c -0.89,-64.2 -1.86,-129.08 -17.52,-191.35 -15.64,-62.26 -47.57,-122.598 -99.54,-160.309 45.05,19.57 87.19,45.828 124.61,77.649 -15.95,-157.969 -138.08,-299.711 -291.94,-338.84 -40.17,-10.219 -81.65,-13.969 -122.93,-17.68 -39.49,-3.539 -78.98,-7.102 -118.47,-10.641 -5.1,-0.461 -10.49,-0.871 -15.1,1.352 -5.34,2.559 -8.52,8.078 -11.29,13.32 -82.49,156.278 -87.35,351.239 -12.74,511.429 11.8,-34.74 23.59,-69.48 35.38,-104.23 19.38,122.15 41,249.75 115.51,348.46 6.38,-41.38 12.76,-82.78 19.14,-124.18 60.74,89.48 112.73,184.9 154.99,284.46 31.65,-60.88 63.31,-121.78 94.96,-182.67 19.98,-38.44 29.65,-79.67 47.06,-118.13 10.71,-23.64 0.93,-21.93 27.56,-20.41 20.6,1.18 51.42,23.24 70.32,31.77"
         id="path360" />
    </clipPath>
  </defs>
  <g
     inkscape:label="Layer 1"
     inkscape:groupmode="layer"
     id="layer1"
     transform="translate(-182.11193,3.3442712)">
    <path
       d="m 206.07965,6.8665294 c -0.031,2.2648335 -0.0656,4.5536556 -0.61806,6.7504036 -0.55175,2.196394 -1.67781,4.325761 -3.51155,5.655698 1.58926,-0.690668 3.07587,-1.617133 4.39596,-2.739284 -0.56233,5.572513 -4.8708,10.57275 -10.29899,11.953523 -1.41711,0.360503 -2.88044,0.492513 -4.3367,0.623287 -1.39312,0.125272 -2.78589,0.250543 -4.17936,0.375779 -0.17956,0.01626 -0.37006,0.03076 -0.53269,-0.04766 -0.18839,-0.09028 -0.30057,-0.284974 -0.39794,-0.470182 -2.91042,-5.513247 -3.08187,-12.391038 -0.44944,-18.041798 0.41593,1.22555 0.83221,2.4511 1.24813,3.676651 0.68333,-4.309181 1.44604,-8.8102732 4.07458,-12.2928957 0.22508,1.4605001 0.45015,2.9206474 0.67522,4.3807948 2.14313,-3.1566558 3.97722,-6.52286157 5.4677,-10.0351173 1.11655,2.1484168 2.23309,4.296128 3.34998,6.4445448 0.70485,1.3557251 1.04599,2.8105807 1.66017,4.1673642 0.37783,0.8336139 0.0328,0.7732889 0.97226,0.7200194 0.72708,-0.041628 1.81434,-0.8198556 2.48073,-1.1211278"
       style="fill:#8e7819;fill-opacity:1;fill-rule:nonzero;stroke:none;stroke-width:0.0352778"
       id="path354" />
    <g
       id="g356"
       transform="matrix(0.03527778,0,0,-0.03527778,105.79445,51.685185)">
      <g
         id="g358"
         clip-path="url(#clipPath362)">
        <path
           d="m 2472.17,641.051 c -0.04,0.781 -0.07,1.558 -0.1,2.34 29.05,3.019 57.99,7.007 86.27,14.199 152.55,38.801 273.91,178.461 291.51,334.789 0.75,0.633 1.49,1.262 2.24,1.891 -15.95,-157.969 -138.08,-299.711 -291.94,-338.84 -28.84,-7.328 -58.35,-11.328 -87.98,-14.379 m 253.5,277.73 c 51.98,37.699 83.9,98.059 99.54,160.319 11.71,46.56 15.21,94.57 16.6,142.68 0.63,0.28 1.26,0.56 1.89,0.84 -1.33,-49.11 -4.73,-98.16 -16.68,-145.69 -14.69,-58.47 -43.74,-115.25 -90.27,-153.168 -3.67,-1.711 -7.36,-3.371 -11.08,-4.981"
           style="fill:#dcd16e;fill-opacity:1;fill-rule:nonzero;stroke:none"
           id="path364" />
        <path
           d="m 2472.07,643.391 c -1.18,29.73 4.58,60.179 18.14,88.949 32.6,69.18 101.36,109.699 173.08,109.699 4.85,0 9.73,-0.187 14.6,-0.57 -6.2,42.48 -0.44,87.179 19.23,128.922 14.45,30.649 34.94,56.509 59.32,76.919 -7.71,32.56 -4.96,67.83 10.42,100.44 16.07,34.12 43.13,59.53 74.95,74.03 -1.39,-48.11 -4.89,-96.12 -16.6,-142.68 -15.64,-62.26 -47.56,-122.62 -99.54,-160.319 3.72,1.61 7.41,3.27 11.08,4.981 -3.02,-2.461 -6.1,-4.84 -9.27,-7.141 44.15,19.18 85.51,44.789 122.37,75.758 -17.6,-156.328 -138.96,-295.988 -291.51,-334.789 -28.28,-7.192 -57.22,-11.18 -86.27,-14.199"
           style="fill:#aa9718;fill-opacity:1;fill-rule:nonzero;stroke:none"
           id="path366" />
        <path
           d="m 2447.84,1275.43 c -6.18,40.12 -12.37,80.25 -18.55,120.38 0.4,0.55 0.81,1.09 1.22,1.63 6.18,-40.07 12.36,-80.16 18.53,-120.24 -0.4,-0.59 -0.8,-1.18 -1.2,-1.77 m 257.81,87.26 c -0.3,0.06 -0.6,0.12 -0.9,0.18 -2.19,4.82 -4.49,9.6 -6.96,14.34 -31.16,59.93 -62.31,119.86 -93.46,179.79 0.11,0.25 0.21,0.48 0.31,0.72 31.65,-60.88 63.31,-121.78 94.96,-182.67 2.13,-4.09 4.13,-8.21 6.05,-12.36"
           style="fill:#fcd25a;fill-opacity:1;fill-rule:nonzero;stroke:none"
           id="path368" />
        <path
           d="m 2447.77,1172.97 c -37.96,0 -73.94,14.64 -101,39.68 17.25,65.91 41.97,128.85 82.52,183.16 6.18,-40.13 12.37,-80.26 18.55,-120.38 0.4,0.59 0.8,1.18 1.2,1.77 0.2,-1.31 0.41,-2.62 0.61,-3.94 60.59,89.27 112.48,184.45 154.68,283.74 31.15,-59.93 62.3,-119.86 93.46,-179.79 2.47,-4.74 4.77,-9.52 6.96,-14.34 -31.83,6.63 -60.72,23.6 -82.06,48.06 -11.18,-11.81 -23.98,-22.22 -38.21,-30.75 3.2,-7.48 5.96,-15.23 7.94,-23.39 19.37,-79.83 -29.65,-160.23 -109.47,-179.59 -11.79,-2.86 -23.57,-4.23 -35.18,-4.23"
           style="fill:#c89516;fill-opacity:1;fill-rule:nonzero;stroke:none"
           id="path370" />
      </g>
    </g>
    <path
       d="m 191.80485,22.573996 c -2.49696,4.08298 -5.54531,7.996732 -9.69292,10.385038 0.41275,0.68968 1.39382,0.851605 2.14701,0.570089 0.75318,-0.281552 1.32679,-0.894363 1.85772,-1.497507 4.83235,-5.490245 7.94421,-11.146826 10.35015,-18.053792 0.84208,-2.417939 1.60973,-4.8475195 1.87854,-8.6437614 -1.09784,6.2099474 -3.24379,11.8490304 -6.5405,17.2399334"
       style="fill:#2c0e10;fill-opacity:1;fill-rule:nonzero;stroke:none;stroke-width:0.0352778"
       id="path372" />
    <path
       d="m 188.62668,18.707199 c 0.26917,1.41993 0.41486,2.853514 0.51646,4.289707 0.091,1.4369 0.13723,2.877609 0.0586,4.320435 -0.19791,-1.431114 -0.30692,-2.863427 -0.40782,-4.297151 -0.09,-1.433972 -0.17215,-2.868366 -0.16721,-4.312991"
       style="fill:#2c0e10;fill-opacity:1;fill-rule:nonzero;stroke:none;stroke-width:0.0352778"
       id="path374" />
    <path
       d="m 190.23005,26.562855 c 0.80116,-0.251919 1.60514,-0.481224 2.40595,-0.720443 l 2.39889,-0.72002 2.395,-0.732684 1.19698,-0.373591 c 0.40217,-0.116735 0.79939,-0.248074 1.20438,-0.361598 -0.37641,0.187678 -0.76235,0.350979 -1.14547,0.522817 l -1.16804,0.467007 c -0.78282,0.303036 -1.5801,0.565962 -2.38161,0.812906 -0.80398,0.239113 -1.61325,0.462739 -2.4324,0.644525 -0.81809,0.185491 -1.64112,0.350273 -2.47368,0.461081"
       style="fill:#2c0e10;fill-opacity:1;fill-rule:nonzero;stroke:none;stroke-width:0.0352778"
       id="path376" />
    <path
       d="m 193.32074,20.466431 c 0.74507,-0.699241 1.57374,-1.291096 2.43029,-1.83582 0.86218,-0.535517 1.75612,-1.024855 2.70968,-1.391427 -0.8195,0.609389 -1.67146,1.146952 -2.52342,1.687689 -0.8576,0.531637 -1.71238,1.065072 -2.61655,1.539558"
       style="fill:#2c0e10;fill-opacity:1;fill-rule:nonzero;stroke:none;stroke-width:0.0352778"
       id="path378" />
    <path
       d="m 192.22607,13.126219 c 0.21519,0.280811 0.29774,0.640291 0.39052,0.971197 0.0861,0.337608 0.16652,0.676628 0.23284,1.018822 0.13829,0.682625 0.23565,1.373294 0.30727,2.066855 0.12947,1.387157 0.14605,2.788744 -0.031,4.171597 -0.0998,-1.389203 -0.17956,-2.764331 -0.31714,-4.137695 -0.0642,-0.686541 -0.14535,-1.371565 -0.2279,-2.057365 l -0.13123,-1.029406 c -0.0381,-0.345722 -0.0787,-0.685094 -0.22331,-1.004005"
       style="fill:#2c0e10;fill-opacity:1;fill-rule:nonzero;stroke:none;stroke-width:0.0352778"
       id="path380" />
    <path
       d="m 194.86379,5.5997043 c 0.50694,1.0886723 0.87489,2.2316724 1.17475,3.3901947 0.28963,1.160639 0.51188,2.340328 0.5849,3.53942 -0.34572,-1.149703 -0.62688,-2.302581 -0.92392,-3.4533422 -0.28751,-1.1539362 -0.5902,-2.3015224 -0.83573,-3.4762725"
       style="fill:#2c0e10;fill-opacity:1;fill-rule:nonzero;stroke:none;stroke-width:0.0352778"
       id="path382" />
    <path
       d="m 196.96529,10.869146 c 0.43144,-0.564444 0.91934,-1.0576275 1.41393,-1.545872 0.50236,-0.4797778 1.01071,-0.9521473 1.58856,-1.3659556 -0.37571,0.6039556 -0.84596,1.1264195 -1.34479,1.6174862 -0.50659,0.4829524 -1.04316,0.9366254 -1.6577,1.2943414"
       style="fill:#2c0e10;fill-opacity:1;fill-rule:nonzero;stroke:none;stroke-width:0.0352778"
       id="path384" />
  </g>
</svg>
