<?xml version="1.0" encoding="UTF-8" standalone="no"?>
<!-- Created with Inkscape (http://www.inkscape.org/) -->

<svg
   width="40.368824mm"
   height="43.926479mm"
   viewBox="0 0 40.368824 43.926479"
   version="1.1"
   id="svg1424"
   inkscape:version="1.1.2 (1:1.1+202202050852+0a00cf5339)"
   sodipodi:docname="leaf3.svg"
   xmlns:inkscape="http://www.inkscape.org/namespaces/inkscape"
   xmlns:sodipodi="http://sodipodi.sourceforge.net/DTD/sodipodi-0.dtd"
   xmlns="http://www.w3.org/2000/svg"
   xmlns:svg="http://www.w3.org/2000/svg">
  <sodipodi:namedview
     id="namedview1426"
     pagecolor="#ffffff"
     bordercolor="#666666"
     borderopacity="1.0"
     inkscape:pageshadow="2"
     inkscape:pageopacity="0.0"
     inkscape:pagecheckerboard="0"
     inkscape:document-units="mm"
     showgrid="false"
     fit-margin-top="0"
     fit-margin-left="0"
     fit-margin-right="0"
     fit-margin-bottom="0"
     inkscape:zoom="2.5620932"
     inkscape:cx="155.53689"
     inkscape:cy="171.53943"
     inkscape:window-width="1856"
     inkscape:window-height="1016"
     inkscape:window-x="1984"
     inkscape:window-y="27"
     inkscape:window-maximized="1"
     inkscape:current-layer="layer1" />
  <defs
     id="defs1421">
    <clipPath
       clipPathUnits="userSpaceOnUse"
       id="clipPath22">
      <path
         d="m 599.137,3471.36 c 38.629,-6.52 79.593,1.96 112.461,23.27 -2.364,-7.69 3.851,-16.01 11.511,-18.47 7.661,-2.47 16.036,-0.5 23.555,2.39 12.754,4.87 24.508,12.35 34.328,21.84 10.821,-5.36 7.324,-24.15 17.641,-30.42 4.332,-2.64 9.82,-2.14 14.82,-1.31 20.32,3.39 39.945,10.88 57.348,21.91 -4.496,-7.05 -6.879,-15.44 -6.77,-23.81 55.157,10.68 106.774,42.69 145.809,83.08 -21.356,-40.21 -43.371,-83.83 -37.32,-128.96 70.35,61.1 132.47,131.66 184.18,209.17 8.33,-50.72 12.26,-102.17 11.75,-153.57 -0.55,-54.09 -5.98,-108.61 2.85,-161.97 11.73,3.14 22.7,9.05 31.78,17.1 -1.98,80.79 -7.51,161.5 -16.58,241.8 -1.51,13.46 -3.24,27.27 -9.59,39.25 1.16,-8.57 7.83,-15.23 14.4,-20.84 23.99,-20.52 51.49,-36.44 78.82,-52.23 32.76,-18.93 66.53,-38.2 103.95,-43.78 22.13,-3.31 47.01,5.74 69.32,7.39 -20.65,8.94 -28.69,33.2 -40.03,52.63 -13.84,23.7 -35.52,42.74 -60.82,53.39 24.22,9.35 50.37,8.69 76.61,8.03 13.24,-0.33 26.5,-0.67 39.56,0.28 32.75,2.39 65.3,12.98 97.82,8.46 -10.37,8.98 -17.17,21.98 -18.64,35.62 43.79,11.99 85.8,30.45 124.25,54.59 8.15,5.11 16.98,11.84 17.62,21.44 51.66,-7.1 102.35,15.16 149.76,36.89 -39.09,-4.64 -76.5,14.58 -114.74,23.94 -15.59,3.81 -31.32,6.5 -47.36,5.93 6.81,10.23 11.46,21.9 13.53,34.02 -6.48,-9.88 -19.43,-12.73 -31.06,-14.77 -21.94,-3.83 -43.88,-7.66 -65.82,-11.5 -0.26,9.34 -1.52,18.65 -3.76,27.72 -12.59,-4.29 -27.37,-8.34 -38.43,-0.93 -2.44,1.64 -4.67,3.82 -7.54,4.49 -2.71,0.62 -5.52,-0.23 -8.17,-1.09 -24.93,-8.12 -49.33,-17.87 -72.99,-29.18 0.06,12.3 -2.16,24.61 -6.5,36.12 -60.39,-27.06 -116.9,-62.76 -167.29,-105.65 12.86,20.68 23.53,43.11 40.48,60.6 10.48,10.8 23.01,19.34 34.89,28.57 56.87,44.12 100.06,105.62 122.27,174.08 -8.82,-2.75 -21.13,-5.59 -29.75,-2.27 18.41,5.51 32.76,20.37 42.45,36.96 9.68,16.61 15.45,35.13 22.37,53.06 8.84,22.89 19.65,44.96 28.78,67.73 -14.73,-9.46 -37.96,-7.12 -49.26,6.25 9.53,1.32 16.7,9.24 22.12,17.19 20.78,30.5 28.45,69.63 20.75,105.72 -5.03,-8.8 -13.77,-15.4 -23.61,-17.83 15.36,33.89 30.73,67.77 46.09,101.65 -9.02,-2.42 -14.69,11.05 -10.87,19.58 3.82,8.52 12.24,14.16 16.71,22.36 6.67,12.23 3.34,27.16 2.87,41.08 -1.05,31.21 13.14,63.24 3.31,92.87 -12.37,-18.01 -24.75,-36.02 -37.12,-54.02 -21.29,-30.98 -43.5,-65.07 -41.28,-102.59 -5.91,10.39 -11.81,20.78 -17.71,31.18 -14.49,-47.17 -30.77,-93.79 -48.79,-139.73 -8.1,12.25 -15.94,24.68 -23.5,37.27 -12.76,-21.21 -25.53,-42.42 -38.29,-63.63 -3.68,7.28 -6.37,15.05 -7.98,23.04 -13.36,-29.56 -27.16,-58.91 -41.4,-88.05 -3.62,10.04 -7.25,20.07 -10.87,30.12 -33.9,-75.69 -93.87,-140.19 -111.89,-221.13 -6.78,13.54 -12.75,27.96 -13.08,43.1 -0.3,13.72 4.06,27.06 6.56,40.56 5.54,29.86 1.84,61.36 -10.47,89.13 -5.05,-2.89 -10.1,-5.77 -15.16,-8.66 0.83,33.48 -2.36,67.06 -9.48,99.77 -4.6,-7.89 -9.19,-15.79 -13.78,-23.68 -6.28,34.64 -20.03,67.92 -40.05,96.88 -4.96,-8.88 -9.92,-17.76 -14.88,-26.65 -8.1,40.81 -14.96,81.85 -20.57,123.07 -9.11,-3.31 -17.3,-9.16 -23.37,-16.72 5.37,24.69 -6.14,48.81 -14.33,72.72 -7.29,21.27 -14.58,42.54 -21.869,63.82 -1.675,-5.29 -3.347,-10.57 -5.023,-15.84 -19.996,29.95 -36.051,62.54 -47.621,96.64 -2.832,-39.17 -0.438,-78.7 7.101,-117.24 -10.156,3.04 -18.046,12.55 -19.152,23.1 1.453,-32.63 8.012,-65.02 19.359,-95.64 -8.921,6.18 -17.847,12.36 -26.765,18.54 9.906,-33.53 21.902,-66.44 35.887,-98.47 -7.383,6.88 -14.774,13.76 -22.153,20.63 -6.543,-48.58 -3.961,-98.37 7.574,-146.02 -13.765,8.38 -27.011,17.63 -39.632,27.66 5.078,-55.1 15.351,-109.71 30.652,-162.89 -14.875,-1.94 -30.559,4.2 -40.152,15.73 9.535,-51.78 33.089,-100.92 67.492,-140.78 10.558,-12.24 22.199,-23.73 30.512,-37.6 15.13,-25.26 17.92,-56.15 31.27,-82.39 -13.35,10.56 -20.62,25.42 -31.575,38.44 -10.281,12.22 -23.055,22.04 -35.723,31.77 -44.762,34.37 -89.519,68.74 -134.285,103.11 8.691,-10.82 5.844,-28.91 -5.746,-36.55 -23.648,32.9 -72.828,30.75 -108.668,49.64 5.02,-1.94 4.52,-10.04 0.187,-13.23 -4.324,-3.2 -10.281,-2.79 -15.57,-1.81 -15.113,2.81 -29.547,9.17 -41.808,18.44 -13.903,10.5 -25.86,25.07 -42.809,29.11 0.469,-7.45 0.937,-14.9 1.398,-22.36 -23.41,13.93 -47.793,26.25 -72.902,36.82 1.156,-3.97 2.32,-7.95 3.477,-11.92 -27.414,26.4 -54.828,52.81 -82.243,79.22 -0.062,-46.42 15.356,-92.73 43.227,-129.84 -7.453,1.93 -14.914,3.87 -22.379,5.8 28.367,-23.65 55.024,-49.36 79.688,-76.85 -8.266,-3.6 -17.254,-5.53 -26.266,-5.64 29.262,-20.43 60.344,-38.24 92.758,-53.16 -9.207,-6.69 -19.875,-11.35 -31.031,-13.56 20.093,-9.8 35.195,-27.24 52.656,-41.2 17.461,-13.95 40.375,-24.91 61.719,-18.27 -7.848,-9.77 -19.59,-16.32 -32.028,-17.86 53.219,-25.14 89.457,-38.83 143.203,-62.83 49.703,-22.2 96.793,-26.62 146.801,-48.12 -57.25,-38.45 -130.277,-28.87 -196.262,-48.91 6.235,-6.37 15.45,-9.69 24.313,-8.76 -21.379,-11.62 -41.844,-24.94 -61.129,-39.78 -4.59,-3.54 -9.289,-7.37 -11.613,-12.68 -2.114,-4.81 -2.153,-10.59 -5.461,-14.67 -2.684,-3.3 -6.957,-4.79 -10.992,-6.11 -18.2,-5.98 -36.399,-11.96 -54.594,-17.94 1.84,-5.85 6.14,-10.87 11.633,-13.6 -28.133,-17.97 -50.914,-39.05 -67.879,-67.8"
         id="path20" />
    </clipPath>
    <clipPath
       clipPathUnits="userSpaceOnUse"
       id="clipPath178">
      <path
         d="m 2655.38,3661.85 c -3.99,-25.54 0.6,-53.72 18.12,-72.72 27.22,-29.55 77.6,-26.71 110.07,-3.05 32.47,23.67 50.26,62.44 62.2,100.81 35.28,113.35 31.58,237.32 77.03,347 -62.01,-50.78 -144.23,-67.1 -219.66,-94.22 -75.42,-27.11 -153.44,-74.96 -172.85,-152.73 -10.08,-40.41 3.87,-91.81 43.43,-104.82 38.57,-12.67 75.99,16.04 102.52,40.75 -8.31,-19.81 -17.49,-39.49 -20.86,-61.02"
         id="path176" />
    </clipPath>
    <clipPath
       clipPathUnits="userSpaceOnUse"
       id="clipPath202">
      <path
         d="m 1982.81,4142.55 c 41.55,-33.96 65.96,-84.53 83.06,-135.39 17.1,-50.87 28.27,-103.84 49.91,-152.95 17.08,-38.77 40.59,-74.69 69.27,-105.86 30.05,-32.64 69.4,-61.38 113.77,-61.37 44.36,0.01 89.58,40.78 79.82,84.06 46.2,-6.49 92.81,24.5 111.89,67.07 19.08,42.58 13.44,93.46 -7.24,135.27 -20.68,41.83 -54.96,75.54 -92.39,103.39 -92.04,68.49 -207.11,105.46 -321.83,103.4 -45.45,-0.82 -91.16,-5.35 -136.51,-7.99 17.71,-8.29 34.95,-17.12 50.25,-29.63"
         id="path200" />
    </clipPath>
    <clipPath
       clipPathUnits="userSpaceOnUse"
       id="clipPath106">
      <path
         d="m 4428.1,3968.97 c -52.63,44.62 -160.32,141.81 -269.6,73.78 -94.73,-58.97 -235.45,-149.85 -337.63,-196.1 4.36,3.95 197.96,179.44 266.71,243.82 69.54,65.11 137.76,155.83 31.08,292.34 -15.17,60.39 -23.37,124.54 -23.37,124.54 0,0 -29.71,-46.46 -104.72,-56.35 -75.01,-9.87 -157.39,-38.27 -172.55,-169.69 -14.73,-127.62 33.13,-309.71 -17.65,-442.17 l -0.47,0.34 c -11.33,29.99 -48.8,136.58 -36.16,204.19 14.81,79.29 28.52,268.79 -57.92,312.32 -86.43,43.53 -143.59,39.08 -203.26,90.78 -20.01,-51.63 -37.3,-112.17 -82.27,-177.91 -44.96,-65.74 -37.11,-182.01 148.81,-258.58 71.65,-22.58 165.82,-130.87 203.6,-177.18 -18.29,1.66 -42.5,6.57 -63.01,20.14 -122.69,87.73 -167.18,79.03 -205.31,49.51 -38.14,-29.51 -38.14,-29.51 -92.58,-42.88 54.47,-24.02 3.94,-76.82 103.3,-114.78 86.75,-33.13 242.29,45.17 280.41,65.59 -10.53,-19.54 16.89,-218.2 103.02,-278.85 48.91,-34.45 75.24,-26.93 97.88,-19.41 17.61,5.85 32.98,11.7 55.01,-2.21 -19.31,52.63 -19.31,52.63 -16.11,100.75 3.2,48.11 -14.42,89.88 -155.7,142.68 -25.75,10.71 -42.58,47.5 -54.12,67.77 58.42,-9.1 152.93,-24.93 188.67,-37.28 53.31,-18.41 232.21,-100.37 306.01,-86.52 73.79,13.85 77.18,95.08 143.19,162.9 66.01,67.83 75.31,72.83 75.31,72.83 0,0 -57.94,-9 -110.57,35.63"
         id="path104" />
    </clipPath>
  </defs>
  <g
     inkscape:label="Layer 1"
     inkscape:groupmode="layer"
     id="layer1"
     transform="translate(-200.59766,-36.144189)">
    <path
       d="m 236.95717,55.137041 c -1.85703,-1.574448 -5.65574,-5.003095 -9.51125,-2.603148 -3.8555,2.399948 -8.50053,6.722887 -12.09498,7.972779 0,0 5.12268,0.501297 7.00334,1.150761 1.88066,0.649816 8.1915,3.54083 10.795,3.052586 2.60386,-0.48895 2.72345,-3.354564 5.05143,-5.747103 2.32868,-2.392892 2.65712,-2.569281 2.65712,-2.569281 0,0 -2.04399,0.317853 -3.90066,-1.256594"
       style="fill:#f9ad0f;fill-opacity:1;fill-rule:nonzero;stroke:none;stroke-width:0.0352778"
       id="path92" />
    <path
       d="m 214.64326,60.129905 c 0.52917,-0.333375 0.88477,-0.671336 0.88477,-0.671336 0,0 6.96313,-6.311195 9.41599,-8.608131 2.45322,-2.296584 4.86058,-5.496984 1.09714,-10.313107 -0.53551,-2.130425 -0.82479,-4.393142 -0.82479,-4.393142 0,0 -1.04846,1.638653 -3.69464,1.987551 -2.64619,0.348544 -5.55202,1.35008 -6.08718,5.986286 -0.53482,4.636559 1.27246,11.310762 -0.79129,16.011879"
       style="fill:#f9ad0f;fill-opacity:1;fill-rule:nonzero;stroke:none;stroke-width:0.0352778"
       id="path94" />
    <path
       d="m 206.65355,53.679363 c 3.23568,1.019528 7.43762,6.332361 7.43762,6.332361 l 0.15028,-0.447322 c 0,0 -1.24425,-4.265436 -0.72178,-7.062612 0.52281,-2.79788 1.00612,-9.482667 -2.04294,-11.018309 -3.04906,-1.535289 -5.06589,-1.378655 -7.17091,-3.202164 -0.70591,1.820687 -1.31551,3.957109 -2.9016,6.275917 -1.58644,2.319162 -1.30951,6.420909 5.24933,9.122129"
       style="fill:#f9ad0f;fill-opacity:1;fill-rule:nonzero;stroke:none;stroke-width:0.0352778"
       id="path96" />
    <path
       d="m 223.10041,67.766839 c 0.11253,-1.697567 -0.50906,-3.17112 -5.49311,-5.033434 -1.48343,-0.617361 -2.91147,-1.966031 -2.96262,-2.014714 0.19332,-0.103364 0.30021,-0.164747 0.30021,-0.164747 0,0 -1.96709,-0.4318 -3.33199,-1.334206 -4.32787,-3.095272 -5.89738,-2.788356 -7.24252,-1.746956 -1.3455,1.041401 -1.3455,1.041401 -3.26602,1.512712 1.92158,0.847372 0.13899,2.710391 3.64419,4.049183 3.06035,1.169106 8.54781,-1.593144 9.89189,-2.313517 0.0109,0.14605 0.5962,7.697259 3.63432,9.837209 1.72544,1.21532 2.65465,0.950031 3.45334,0.684742 0.62124,-0.206375 1.16346,-0.41275 1.94063,0.07761 -0.68156,-1.856317 -0.68156,-1.856317 -0.56832,-3.553883"
       style="fill:#f9ad0f;fill-opacity:1;fill-rule:nonzero;stroke:none;stroke-width:0.0352778"
       id="path98" />
    <g
       id="g100"
       transform="matrix(0.03527778,0,0,-0.03527778,80.852284,195.19653)">
      <g
         id="g102"
         clip-path="url(#clipPath106)">
        <path
           d="m 4034.63,3551.08 c -5.23,18.64 -4.51,29.49 -2.4,61.1 3.04,45.82 -12.79,85.88 -136.28,135.19 126.32,-49.88 142.43,-90.22 139.36,-136.41 -2.02,-30.37 -2.77,-41.58 1.81,-58.94 -0.82,-0.32 -1.66,-0.64 -2.49,-0.94 m -156.19,203.06 c -0.64,0.24 -1.27,0.48 -1.92,0.72 -2.65,1.11 -5.3,2.29 -7.93,3.55 0.25,0.38 0.49,0.75 0.74,1.13 2.9,-2.14 5.94,-3.96 9.11,-5.4"
           style="fill:#f9b06b;fill-opacity:1;fill-rule:nonzero;stroke:none"
           id="path108" />
        <path
           d="m 3985.99,3542.37 c -22.18,0 -44.68,5.29 -65.63,16.44 -68.24,36.34 -94.12,121.11 -57.78,189.36 1.88,3.53 3.88,6.94 6.01,10.24 2.63,-1.26 5.28,-2.44 7.93,-3.55 0.65,-0.24 1.28,-0.48 1.92,-0.72 0.39,-0.17 0.78,-0.34 1.17,-0.5 5.64,-2.11 11.08,-4.2 16.34,-6.27 123.49,-49.31 139.32,-89.37 136.28,-135.19 -2.11,-31.61 -2.83,-42.46 2.4,-61.1 -15.5,-5.73 -31.97,-8.71 -48.64,-8.71"
           style="fill:#f79213;fill-opacity:1;fill-rule:nonzero;stroke:none"
           id="path110" />
        <path
           d="m 4301.29,3696.04 c -81.81,0 -237.94,71.1 -287.13,88.09 -12.48,4.31 -32.14,9.05 -54.92,13.78 20.45,-3.84 38.87,-8.07 51.84,-12.55 49.19,-16.99 205.32,-88.09 287.13,-88.09 6.85,0 13.17,0.49 18.87,1.56 73.81,13.86 77.2,95.09 143.19,162.91 49.85,51.22 67.36,66.61 72.95,71.08 3.5,0.22 5.45,0.52 5.45,0.52 0,0 -9.3,-5 -75.31,-72.83 -66.01,-67.82 -69.4,-149.05 -143.19,-162.9 -5.71,-1.07 -12.03,-1.57 -18.88,-1.57 m 167.82,247.89 c -14.19,5.46 -29.35,13.76 -44.09,26.26 -1.96,1.67 -4.01,3.41 -6.12,5.2 0.49,0.06 0.98,0.1 1.47,0.15 2.69,-2.29 5.27,-4.49 7.73,-6.57 13.68,-11.61 27.72,-19.58 41.01,-25.04"
           style="fill:#f9b06b;fill-opacity:1;fill-rule:nonzero;stroke:none"
           id="path112" />
        <path
           d="m 4298.21,3697.27 c -81.81,0 -237.94,71.1 -287.13,88.09 -12.97,4.48 -31.39,8.71 -51.84,12.55 -12.47,2.59 -25.89,5.18 -39.57,7.69 20.4,10.98 43.32,16.8 66.6,16.8 22.19,0 44.71,-5.29 65.66,-16.45 17.24,-9.17 31.75,-21.45 43.26,-35.75 33.7,48.05 88.23,74.95 144.48,74.95 8.1,0 16.25,-0.56 24.36,-1.69 3.47,12.82 8.25,25.46 14.76,37.68 29.17,54.79 82.69,88.29 140.11,94.25 2.11,-1.79 4.16,-3.53 6.12,-5.2 14.74,-12.5 29.9,-20.8 44.09,-26.26 23.13,-9.49 43.98,-11.33 56.69,-11.33 2.93,0 5.42,0.1 7.42,0.22 -5.59,-4.47 -23.1,-19.86 -72.95,-71.08 -65.99,-67.82 -69.38,-149.05 -143.19,-162.91 -5.7,-1.07 -12.02,-1.56 -18.87,-1.56"
           style="fill:#f79213;fill-opacity:1;fill-rule:nonzero;stroke:none"
           id="path114" />
        <path
           d="m 3762.99,4260 c -9.46,43.94 -27.79,80.88 -60.25,97.22 -12.95,6.52 -25.24,11.96 -36.99,16.68 12.67,-4.99 25.98,-10.81 40.07,-17.91 31.71,-15.96 49.94,-51.57 59.58,-94.18 -0.79,-0.61 -1.6,-1.22 -2.41,-1.81 m -196.59,148.35 c -22.11,8.67 -43.05,19.56 -64.25,37.36 0.14,0.35 0.27,0.7 0.41,1.06 21.12,-18.31 41.93,-29.57 63.84,-38.42"
           style="fill:#f9b06b;fill-opacity:1;fill-rule:nonzero;stroke:none"
           id="path116" />
        <path
           d="m 3506.89,4041.65 c -0.34,0 -0.69,0 -1.04,0.01 -123.82,74.31 -124.73,169.93 -85.56,227.2 44.67,65.29 62.02,125.46 81.86,176.85 21.2,-17.8 42.14,-28.69 64.25,-37.36 29.89,-12.07 61.82,-19.64 99.35,-34.45 11.75,-4.72 24.04,-10.16 36.99,-16.68 32.46,-16.34 50.79,-53.28 60.25,-97.22 -22.46,-16.61 -48.81,-27.87 -76.95,-32.41 0.45,-13.27 -0.4,-26.77 -3.03,-40.36 -16.57,-85.89 -91.78,-145.58 -176.12,-145.58"
           style="fill:#f79213;fill-opacity:1;fill-rule:nonzero;stroke:none"
           id="path118" />
        <path
           d="m 3904.38,4323.27 c -8.79,0 -17.72,0.83 -26.67,2.56 -16.46,3.18 -31.68,9.13 -45.28,17.26 30.36,79.32 96.71,99.82 158.14,107.91 21.47,2.84 39.23,8.66 53.65,15.54 0.21,-9.8 -0.6,-19.76 -2.53,-29.78 -12.92,-66.96 -71.56,-113.49 -137.31,-113.49"
           style="fill:#f79213;fill-opacity:1;fill-rule:nonzero;stroke:none"
           id="path120" />
      </g>
    </g>
    <path
       d="m 222.5984,42.327326 c -2.43028,6.86682 -5.56048,13.485637 -9.32638,19.720985 -1.63795,2.712861 -2.4758,3.652661 -4.11269,6.727119 -1.59526,2.996495 -2.68499,7.985479 -3.44134,11.29524 l 1.59879,-0.167569 c 0,0 1.02693,-6.528154 2.45145,-9.715501 1.27494,-2.852561 8.75171,-16.626065 9.83368,-18.982268 1.70709,-3.716867 2.99649,-8.878006 2.99649,-8.878006"
       style="fill:#9d2d1e;fill-opacity:1;fill-rule:nonzero;stroke:none;stroke-width:0.0352778"
       id="path122" />
    <path
       d="m 203.31204,59.907302 c 3.38349,0.566914 6.79591,0.877358 10.19634,0.877358 5.84553,0 11.65648,-0.917222 17.22226,-3.023658 l -0.10972,-0.289983 c -5.52661,2.091619 -11.29912,3.00355 -17.11254,3.00355 -3.38173,0 -6.77686,-0.308681 -10.14483,-0.873125 l -0.0512,0.305858"
       style="fill:#9d2d1e;fill-opacity:1;fill-rule:nonzero;stroke:none;stroke-width:0.0352778"
       id="path124" />
    <path
       d="m 207.87558,46.866165 c 1.01353,5.661025 2.78659,9.019117 6.25651,13.590412 l 0.24694,-0.187325 c -3.45651,-4.559653 -5.1883,-7.83837 -6.19795,-13.45812 l -0.30515,0.05503"
       style="fill:#9d2d1e;fill-opacity:1;fill-rule:nonzero;stroke:none;stroke-width:0.0352778"
       id="path126" />
    <path
       d="m 214.16596,60.499969 c 1.03046,2.177344 3.54612,4.922661 5.50368,6.306961 0.5708,0.401814 1.16099,0.762 1.56739,1.273175 l 0.24236,-0.192969 c -0.45437,-0.568325 -1.07421,-0.939095 -1.63124,-1.3335 -1.90641,-1.341614 -4.41502,-4.086931 -5.40209,-6.185959 l -0.2801,0.132292"
       style="fill:#9d2d1e;fill-opacity:1;fill-rule:nonzero;stroke:none;stroke-width:0.0352778"
       id="path128" />
  </g>
</svg>
