<?xml version="1.0" encoding="UTF-8" standalone="no"?>
<!-- Created with Inkscape (http://www.inkscape.org/) -->

<svg
   width="20.138493mm"
   height="11.692215mm"
   viewBox="0 0 20.138492 11.692215"
   version="1.1"
   id="svg900"
   inkscape:version="1.1.2 (1:1.1+202202050852+0a00cf5339)"
   sodipodi:docname="leaf10.svg"
   xmlns:inkscape="http://www.inkscape.org/namespaces/inkscape"
   xmlns:sodipodi="http://sodipodi.sourceforge.net/DTD/sodipodi-0.dtd"
   xmlns="http://www.w3.org/2000/svg"
   xmlns:svg="http://www.w3.org/2000/svg">
  <sodipodi:namedview
     id="namedview902"
     pagecolor="#ffffff"
     bordercolor="#666666"
     borderopacity="1.0"
     inkscape:pageshadow="2"
     inkscape:pageopacity="0.0"
     inkscape:pagecheckerboard="0"
     inkscape:document-units="mm"
     showgrid="false"
     fit-margin-top="0"
     fit-margin-left="0"
     fit-margin-right="0"
     fit-margin-bottom="0"
     inkscape:zoom="5.1241863"
     inkscape:cx="31.126893"
     inkscape:cy="20.003176"
     inkscape:window-width="1856"
     inkscape:window-height="1016"
     inkscape:window-x="1984"
     inkscape:window-y="27"
     inkscape:window-maximized="1"
     inkscape:current-layer="layer1" />
  <defs
     id="defs897">
    <clipPath
       clipPathUnits="userSpaceOnUse"
       id="clipPath178">
      <path
         d="m 2655.38,3661.85 c -3.99,-25.54 0.6,-53.72 18.12,-72.72 27.22,-29.55 77.6,-26.71 110.07,-3.05 32.47,23.67 50.26,62.44 62.2,100.81 35.28,113.35 31.58,237.32 77.03,347 -62.01,-50.78 -144.23,-67.1 -219.66,-94.22 -75.42,-27.11 -153.44,-74.96 -172.85,-152.73 -10.08,-40.41 3.87,-91.81 43.43,-104.82 38.57,-12.67 75.99,16.04 102.52,40.75 -8.31,-19.81 -17.49,-39.49 -20.86,-61.02"
         id="path176" />
    </clipPath>
  </defs>
  <g
     inkscape:label="Layer 1"
     inkscape:groupmode="layer"
     id="layer1"
     transform="translate(-174.14468,-134.22452)">
    <g
       id="g857"
       transform="rotate(-108.31073,238.57353,135.91981)">
      <path
         d="m 249.78634,88.012032 c -0.14076,0.900994 0.0208,1.895122 0.63888,2.5654 0.96061,1.042458 2.73791,0.94227 3.88338,0.107244 1.14547,-0.835025 1.77306,-2.202391 2.19427,-3.555647 1.24496,-3.999089 1.11408,-8.372475 2.71745,-12.241742 -2.18757,1.791758 -5.08811,2.367139 -7.74912,3.323872 -2.661,0.956381 -5.41337,2.644422 -6.09776,5.387975 -0.3556,1.425223 0.13653,3.238853 1.53211,3.697817 1.36067,0.44697 2.68041,-0.565855 3.61668,-1.437922 -0.29316,0.699206 -0.61701,1.393472 -0.73589,2.153003"
         style="fill:#c3b123;fill-opacity:1;fill-rule:nonzero;stroke:none;stroke-width:0.0352778"
         id="path170" />
      <g
         id="g172"
         transform="matrix(0.03527778,0,0,-0.03527778,156.12101,217.15834)">
        <g
           id="g174"
           clip-path="url(#clipPath178)">
          <path
             d="m 2662.06,3687.58 c -0.01,0.02 -0.02,0.04 -0.03,0.06 3.99,11.56 8.97,22.78 13.71,34.04 0.07,0.06 0.13,0.12 0.2,0.19 -4.76,-11.36 -9.81,-22.66 -13.88,-34.29 m 185.29,4.48 c 23.92,80.21 29.22,165.47 46.85,247.05 0.03,0.01 0.06,0.01 0.09,0.02 -17.53,-81.63 -22.87,-166.9 -46.94,-247.07"
             style="fill:#fcd25a;fill-opacity:1;fill-rule:nonzero;stroke:none"
             id="path180" />
          <path
             d="m 2765.21,3622.58 c -7.45,0 -15.01,0.73 -22.59,2.26 -36.61,7.39 -65.57,31.48 -80.56,62.74 4.07,11.63 9.12,22.93 13.88,34.29 -0.07,-0.07 -0.13,-0.13 -0.2,-0.19 0.17,0.4 0.33,0.79 0.5,1.19 -6.37,-5.93 -13.37,-12.09 -20.86,-17.86 -5.01,17.18 -6.05,35.8 -2.27,54.56 10.95,54.29 58.68,91.66 112,91.66 0.97,0 1.95,-0.01 2.93,-0.03 25.51,47.83 72.73,80.59 126.16,87.91 -17.63,-81.58 -22.93,-166.84 -46.85,-247.05 -0.52,-1.73 -1.04,-3.45 -1.58,-5.17 -5.91,-19 -13.26,-38.09 -23.11,-55.41 -1.8,1.22 -3.58,2.47 -5.33,3.75 -15.85,-8.13 -33.64,-12.65 -52.12,-12.65"
             style="fill:#e4af10;fill-opacity:1;fill-rule:nonzero;stroke:none"
             id="path182" />
        </g>
      </g>
      <path
         d="m 255.72888,78.997501 c -0.86536,1.109133 -1.73108,2.218619 -2.59644,3.328106 -1.19169,1.527527 -2.38655,3.058936 -3.47734,4.667603 -1.07173,1.580797 -2.03976,3.231444 -2.8956,4.938536 l 0.25894,0.130175 c 0.8502,-1.695803 1.81187,-3.335867 2.87655,-4.906081 1.08338,-1.598083 2.27401,-3.124553 3.46569,-4.652081 0.86537,-1.109486 1.73108,-2.218972 2.5968,-3.328105 l -0.2286,-0.178153"
         style="fill:#2c0e10;fill-opacity:1;fill-rule:nonzero;stroke:none;stroke-width:0.0352778"
         id="path184" />
      <path
         d="m 250.46685,80.97094 c -0.13935,0.749653 -0.22613,1.45168 -0.22613,2.14383 -3.6e-4,0.869951 0.13758,1.724378 0.47766,2.631017 l 0.27128,-0.1016 c -0.32773,-0.875241 -0.45896,-1.689805 -0.45931,-2.529417 0,-0.667808 0.084,-1.351844 0.22154,-2.090914 l -0.28504,-0.05292"
         style="fill:#2c0e10;fill-opacity:1;fill-rule:nonzero;stroke:none;stroke-width:0.0352778"
         id="path186" />
      <path
         d="m 253.01108,79.143551 c -0.27058,0.871361 -0.40711,1.783644 -0.40711,2.695928 0,0.427566 0.03,0.855486 0.0907,1.278819 l 0.28681,-0.04092 c -0.0586,-0.409928 -0.0879,-0.823736 -0.0879,-1.237897 0,-0.883356 0.13265,-1.766712 0.39406,-2.610203 l -0.27658,-0.08572"
         style="fill:#2c0e10;fill-opacity:1;fill-rule:nonzero;stroke:none;stroke-width:0.0352778"
         id="path188" />
      <path
         d="m 250.90958,85.862204 c 0.52317,0.137583 1.06327,0.205669 1.60338,0.205669 0.88476,0 1.76988,-0.182386 2.57951,-0.541514 l -0.11748,-0.264936 c -0.77152,0.342195 -1.61713,0.516467 -2.46203,0.516467 -0.51576,0 -1.03117,-0.06491 -1.52965,-0.195792 l -0.0737,0.280106"
         style="fill:#2c0e10;fill-opacity:1;fill-rule:nonzero;stroke:none;stroke-width:0.0352778"
         id="path190" />
      <path
         d="m 252.85021,82.987065 c 0.2219,0.02328 0.4445,0.03457 0.66711,0.03457 0.89217,0 1.78399,-0.185208 2.60138,-0.543983 l -0.11642,-0.265289 c -0.77999,0.342547 -1.63265,0.519642 -2.48496,0.519642 -0.21273,0 -0.4251,-0.01094 -0.63677,-0.03316 l -0.0303,0.28822"
         style="fill:#2c0e10;fill-opacity:1;fill-rule:nonzero;stroke:none;stroke-width:0.0352778"
         id="path192" />
    </g>
  </g>
</svg>
