<?xml version="1.0" encoding="UTF-8" standalone="no"?>
<!-- Created with Inkscape (http://www.inkscape.org/) -->

<svg
   width="160"
   height="102"
   viewBox="0 0 160.0001 102.00007"
   version="1.1"
   id="svg5"
   inkscape:version="1.1.2 (1:1.1+202202050852+0a00cf5339)"
   sodipodi:docname="gameContainer.svg"
   xmlns:inkscape="http://www.inkscape.org/namespaces/inkscape"
   xmlns:sodipodi="http://sodipodi.sourceforge.net/DTD/sodipodi-0.dtd"
   xmlns="http://www.w3.org/2000/svg"
   xmlns:svg="http://www.w3.org/2000/svg">
  <sodipodi:namedview
     id="namedview7"
     pagecolor="#ffffff"
     bordercolor="#666666"
     borderopacity="1.0"
     inkscape:pageshadow="2"
     inkscape:pageopacity="0.0"
     inkscape:pagecheckerboard="0"
     inkscape:document-units="mm"
     showgrid="false"
     inkscape:snap-page="true"
     inkscape:snap-center="true"
     units="px"
     width="16px"
     inkscape:zoom="3.623347"
     inkscape:cx="120.19274"
     inkscape:cy="93.973888"
     inkscape:window-width="1856"
     inkscape:window-height="1016"
     inkscape:window-x="1984"
     inkscape:window-y="27"
     inkscape:window-maximized="1"
     inkscape:current-layer="layer1"
     inkscape:snap-grids="true" />
  <defs
     id="defs2" />
  <g
     inkscape:label="Layer 1"
     inkscape:groupmode="layer"
     id="layer1">
    <path
       style="fill:none;stroke:#000000;stroke-width:0.999999px;stroke-linecap:butt;stroke-linejoin:miter;stroke-opacity:1"
       d="m 80.000046,0 v 84.920757 c 0,0 -0.03596,11.295795 -5.659505,15.109623 -5.623544,3.81382 -18.30359,-7.012114 -18.339352,-13.445058 -0.03591,-6.432945 11.020489,-7.72074 23.998857,-7.517655 23.110874,0.361626 48.630514,0.202319 62.258284,0.271408 15.36889,0.07793 17.06597,4.785061 17.04389,10.064048 -0.0287,6.838609 -7.87756,12.643037 -13.0522,10.390022 -5.17463,-2.25301 -4.03551,-4.002943 -3.99169,-20.454074 0.0438,-16.451126 -0.0265,-50.737687 0,-64.120496 0.0208,-10.5417936 1.42921,-14.62358552 6.20194,-14.62358552 6.60335,0 10.48953,4.37577862 10.48954,9.72358852 0,5.34781 -3.89723,4.827364 -16.69148,4.917773 -13.5831,0.09598 -59.887862,0.21673 -62.258284,0.21673 -2.370421,0 -17.935255,2.19429 -19.633027,-0.353269 C 58.669248,12.552253 63.77847,0.36801657 69.367752,1.0809835 74.957035,1.7939504 80.16105,10.281089 80.000046,15.453081 80.763511,24.66764 76.448193,42.199593 77.102368,59.467137 77.534505,70.873789 80.000046,94.579449 80.000046,102"
       id="path926"
       sodipodi:nodetypes="cczzssszzsszsszzcsc" />
  </g>
</svg>
